<?xml version="1.0" encoding="UTF-8" standalone="no"?>
<svg width="476px" height="658px" viewBox="0 0 476 658" version="1.1" xmlns="http://www.w3.org/2000/svg" xmlns:xlink="http://www.w3.org/1999/xlink">
    <!-- Generator: Sketch 39.1 (31720) - http://www.bohemiancoding.com/sketch -->
    <title>Artist OTY</title>
    <desc>Created with Sketch.</desc>
    <defs>
        <filter x="-50%" y="-50%" width="200%" height="200%" filterUnits="objectBoundingBox" id="filter-1">
            <feOffset dx="0" dy="2" in="SourceAlpha" result="shadowOffsetOuter1"></feOffset>
            <feGaussianBlur stdDeviation="2" in="shadowOffsetOuter1" result="shadowBlurOuter1"></feGaussianBlur>
            <feColorMatrix values="0 0 0 0 0   0 0 0 0 0   0 0 0 0 0  0 0 0 0.5 0" type="matrix" in="shadowBlurOuter1" result="shadowMatrixOuter1"></feColorMatrix>
            <feMerge>
                <feMergeNode in="shadowMatrixOuter1"></feMergeNode>
                <feMergeNode in="SourceGraphic"></feMergeNode>
            </feMerge>
        </filter>
        <polygon id="path-2" points="0 35.9737473 0 9.12990284 13.0753585 0 312.728151 0 325 9.12990284 325 35.9737473 312.728151 45 13.0753585 45"></polygon>
        <mask id="mask-3" maskContentUnits="userSpaceOnUse" maskUnits="objectBoundingBox" x="0" y="0" width="325" height="45" fill="white">
            <use xlink:href="#path-2"></use>
        </mask>
    </defs>
    <g id="Characters" stroke="none" stroke-width="1" fill="none" fill-rule="evenodd">
        <g id="Artist-OTY" transform="translate(-5.000000, 0.000000)">
            <g transform="translate(0.000000, 66.000000)">
                <g id="Striped-Shirt" filter="url(#filter-1)" transform="translate(60.800038, 275.163404)">
                    <path d="M69.8844042,0.988902128 C-1.50855527,96.7841368 0.116734135,207.077837 0.116734135,207.077837 C0.116734135,207.077837 41.8729373,242.767015 133.220251,242.34867 C224.567564,241.930326 275.471376,207.077837 275.471376,207.077837 C275.471376,207.077837 264.7292,91.4196551 215.882895,25.2490747" id="Path-5" fill="#F2534A"></path>
                    <path d="M26.8730722,76.9754501 C74.6070015,100.865422 113.487982,107.707161 134.244198,108.186475 C155.000414,108.665789 210.937839,97.0997 244.474534,78.2124455 C250.791117,91.8782268 255.040973,108.594892 255.040973,108.594892 C255.040973,108.594892 144.700588,178.145214 16.8103527,107.688937 C19.5079322,95.1519982 24.166865,83.2755542 26.8730722,76.9754501 Z" id="Path-45" fill="#00BEBC"></path>
                    <path d="M51.9737912,28.7056477 C99.7077205,52.5956194 120.05502,47.6630573 138.416387,49.0555654 C156.777754,50.4480735 219.353576,30.0647335 219.353576,30.0647335 C219.353576,30.0647335 226.959054,40.7081065 232.42087,51.954962 C234.444342,54.4065588 183.043338,78.8744462 136.882494,78.1061658 C90.7216502,77.3378855 78.5367973,74.434851 38.1379114,52.1786162 C42.7115262,40.6549474 47.9427599,34.1736626 51.9737912,28.7056477 Z" id="Path-45" fill="#00BEBC"></path>
                    <path d="M8.26805039,143.469336 C8.26805039,143.469336 3.03037269,172.369929 2.90961701,177.968674 C114.966768,236.005691 246.657904,191.259034 270.660734,177.366786 C268.548018,159.042646 266.545444,154.310858 264.934948,143.723768 C124.074088,210.522186 8.26805039,143.469336 8.26805039,143.469336 Z" id="Path-46" fill="#00BEBC"></path>
                </g>
                <path d="M101.779532,171.519549 C101.15163,172.923009 100.553946,174.34297 99.9873095,175.778603 C95.3277224,187.584141 99.1273095,217.27714 100.477844,229.649556 C114.223776,302.565459 162.761426,359.352899 170.249824,368.88367 C177.738221,378.41444 177.323398,321.877609 181.350413,332.579171 C204.361968,393.731058 238.396141,417.889404 241.996045,417.661046 C245.59595,417.432688 246.105333,370.533417 251.744727,352.497732 C257.384121,334.462047 268.029287,376.318182 275.27064,371.886399 C282.511993,367.454617 278.300455,309.455762 287.898714,254.143194 C290.104086,241.434136 297.814207,188.385912 293.426814,176.884465 C292.901885,175.508376 292.348553,174.146333 291.767534,172.799056 C291.767534,172.799056 271.564635,120.734375 209.701354,109.445312 C147.838073,98.15625 106.61151,161.832031 106.61151,161.832031" id="Beard" stroke="#FFD087" fill="#FFD087"></path>
                <path d="M299.562,143.580028 C312.852337,134.086583 335.421363,116.242454 333.916801,105.501071 C331.792903,90.3381255 322.194894,53.6927847 320.102328,49.9329682 C318.009763,46.1731517 314.414001,52.0474829 298.249869,53.2556678 C287.899359,50.6657693 298.873899,30.5962149 299.29348,29.2822525 C299.713061,27.9682901 297.79759,46.777777 300.216468,47.0970578 C302.629273,47.4155368 314.922446,45.564092 316.908895,42.4561299 C318.895343,39.3481677 315.967584,15.1393818 318.886945,8.75304305 C321.806307,2.36670434 363.772139,-1.45966195 366.207474,0.526533987 C368.64281,2.51272992 326.900684,9.2398323 324.278298,11.5163553 C321.655911,13.7928784 326.03419,37.221426 326.03419,37.221426 C326.03419,37.221426 330.532327,59.3905879 333.544064,71.712393 C336.555801,84.0341982 346.370814,70.1015473 348.814218,66.4945014 C351.257622,62.8874554 346.155059,49.0799485 348.175226,50.1133171 C350.195393,51.1466857 354.294128,59.7451722 354.15442,64.8935226 C354.014712,70.0418729 349.97387,75.3071444 346.191831,78.66194 C345.108362,79.6230137 340.444639,84.1462863 338.330015,85.1392174 C335.366375,86.530808 345.989522,102.827167 342.884647,113.402797 C340.293411,122.228902 308.948583,154.320313 298.648753,164.696528" id="Right-Antler" fill="#423636"></path>
                <path d="M44.6570468,155.414317 C57.9473842,145.920872 80.5164101,128.076742 79.0118477,117.33536 C76.8879498,102.172414 67.2899403,65.527073 65.197375,61.7672565 C63.1048097,58.00744 59.509048,63.8817711 43.344916,65.0899561 C32.9944054,62.5000575 43.9689454,42.4305032 44.3885267,41.1165408 C44.808108,39.8025783 42.8926368,58.6120653 45.3115152,58.9313461 C47.7243194,59.2498251 60.0174933,57.3983803 62.0039417,54.2904181 C63.9903901,51.182456 61.0626308,26.97367 63.9819923,20.5873313 C66.9013538,14.2009926 108.867186,10.3746263 111.302521,12.3608223 C113.737857,14.3470182 71.9957312,21.0741206 69.3733445,23.3506436 C66.7509578,25.6271666 71.1292366,49.0557143 71.1292366,49.0557143 C71.1292366,49.0557143 75.6273741,71.2248762 78.6391108,83.5466813 C81.6508475,95.8684864 91.4658605,81.9358355 93.9092647,78.3287896 C96.3526689,74.7217437 91.2501058,60.9142368 93.2702726,61.9476054 C95.2904395,62.980974 99.3891749,71.5794605 99.249467,76.7278108 C99.1097591,81.8761612 95.0689169,87.1414327 91.286878,90.4962283 C90.2034087,91.457302 85.5396859,95.9805745 83.4250619,96.9735057 C80.4614214,98.3650963 91.0845687,114.661455 87.9796934,125.237086 C85.3884573,134.06319 54.0436301,166.154602 43.7438003,176.530816" id="Right-Antler" fill="#423636" transform="translate(75.159895, 94.182552) scale(-1, 1) rotate(13.000000) translate(-75.159895, -94.182552) "></path>
                <g id="Crown" transform="translate(114.000000, 61.000000)">
                    <path d="M38.2236759,111.428586 C23.0260272,111.400189 11.0200629,111.411535 5.21172213,111.320537 C-0.765755255,110.882891 -0.681160467,106.513299 2.23447539,104.805288 C2.29355771,104.675985 2.4982512,104.554262 2.84077689,104.439826 L0.612980888,50.5750848 L52.3949819,86.7464103 L103.928431,0.922910638 L154.639122,86.38489 L186.323135,48.3231651 L184.081679,103.519312 C184.089249,108.882608 181.09848,111.889719 178.852371,112.286806 C175.783778,112.829299 186.94052,112.861847 170.530628,112.800027 M140.288361,112.451641 C124.729304,112.262719 110.862825,112.111043 100.93338,111.937551 C89.1671619,111.731967 77.2465484,111.610472 65.9401811,111.536732" fill="#FADAA8"></path>
                    <path d="M182.213774,96.95759 C185.001788,96.95759 185,93.1940975 185,88.1072501 C185,83.0204028 184.277782,77 181.489768,77 C178.701754,77 178,82.5692791 178,87.6561264 C178,92.7429738 179.42576,96.95759 182.213774,96.95759 Z" id="Oval-9" fill="#F2534A" transform="translate(181.500000, 86.978795) rotate(3.000000) translate(-181.500000, -86.978795) "></path>
                    <ellipse id="Oval-9" fill="#F2534A" cx="105.474118" cy="73.3675385" rx="15.8205957" ry="24.2823641"></ellipse>
                    <ellipse id="Oval-9" fill="#F2534A" cx="16.4638274" cy="85.81702" rx="5.85543888" ry="9.21055189"></ellipse>
                </g>
                <g id="Pencil" transform="translate(162.127332, 379.562813) rotate(29.000000) translate(-162.127332, -379.562813) translate(-14.372668, 363.562813)">
                    <rect id="Rectangle-2" fill="#F2534A" x="-5.68434189e-14" y="1.70530257e-13" width="66.0584795" height="32" rx="16"></rect>
                    <rect id="Rectangle" fill="#FFD087" x="45.9312865" y="1.13686838e-13" width="255.460526" height="32"></rect>
                    <path d="M340.26932,38.731007 L340.328967,38.731007 L324.330836,-12.6189472 L308.332706,38.731007 L308.392352,38.731007 C308.352862,38.8862614 308.332706,39.0433874 308.332706,39.2021075 C308.332706,42.1941962 315.495313,44.6197633 324.330836,44.6197633 C333.16636,44.6197633 340.328967,42.1941962 340.328967,39.2021075 C340.328967,39.0433874 340.308811,38.8862614 340.26932,38.731007 Z" id="Combined-Shape" fill="#FADAA8" transform="translate(324.330836, 16.000408) rotate(-270.000000) translate(-324.330836, -16.000408) "></path>
                    <polygon id="Combined-Shape" fill="#423636" transform="translate(350.538312, 16.112767) rotate(-270.000000) translate(-350.538312, -16.112767) " points="349.149305 17.8010317 350.425963 13.7032817 351.927318 18.5222517"></polygon>
                    <rect id="Rectangle-3" fill="#D8D8D8" x="38.1900585" y="3.12638804e-13" width="31.4809942" height="32"></rect>
                    <rect id="Rectangle-4" fill="#4A4A4A" x="38.1900585" y="3.12638804e-13" width="6.70906433" height="32"></rect>
                    <rect id="Rectangle-4" fill="#9B9B9B" x="44.8991228" y="1.13686838e-13" width="6.70906433" height="32"></rect>
                    <rect id="Rectangle-4" fill="#4A4A4A" x="51.6081871" y="2.55795385e-13" width="6.70906433" height="32"></rect>
                    <rect id="Rectangle-4" fill="#9B9B9B" x="58.3172515" y="1.42108547e-13" width="6.70906433" height="32"></rect>
                    <rect id="Rectangle-4" fill="#4A4A4A" x="65.0263158" y="3.69482223e-13" width="6.70906433" height="32"></rect>
                </g>
                <path d="M107.805309,159 L121,159 L121,172 C121,172 108.072751,172.055497 100,172 C101.594867,161.20598 107.805309,159 107.805309,159 Z" id="Rectangle-5" fill="#FADAA8"></path>
                <g id="Group-11" transform="translate(210.477320, 241.060416) rotate(-22.000000) translate(-210.477320, -241.060416) translate(188.977320, 227.060416)">
                    <path d="M0.0767739695,10.2770023 L43.4987606,10.2399837 C43.4987606,10.2399837 47.9041454,15.1148851 22.6853612,15.1160483 C-2.53342301,15.1172116 0.0767739695,10.2770023 0.0767739695,10.2770023 Z" id="Path-5" fill="#4A4A4A" transform="translate(21.897042, 12.678016) rotate(27.000000) translate(-21.897042, -12.678016) "></path>
                    <path d="M3.38941564,8.7330251 C3.38941564,8.7330251 11.9747511,2.38450494 14.2409722,12.0617887 C14.5981814,2.74772383 24.3894156,6.68827274 24.3894156,6.68827274 C24.3894156,6.68827274 23.2028576,23.017196 14.3108556,23.4892479 C5.41885365,23.9612997 3.38941564,8.7330251 3.38941564,8.7330251 Z" id="Path-11" fill="#F2534A" transform="translate(13.889416, 14.680244) rotate(33.000000) translate(-13.889416, -14.680244) "></path>
                </g>
                <ellipse id="Oval-3" fill="#FFFFFF" cx="176.23192" cy="194.252323" rx="17.5663166" ry="36.0048846"></ellipse>
                <ellipse id="Oval-5" fill="#00BEBC" cx="179.34075" cy="203.055965" rx="8.36491269" ry="22.6077183"></ellipse>
                <path d="M180.358801,221.280706 C181.744746,221.280706 182.868275,217.906766 182.868275,213.7448 C182.868275,209.582834 181.744746,206.208894 180.358801,206.208894 C178.972857,206.208894 177.849328,209.582834 177.849328,213.7448 C177.849328,217.906766 178.972857,221.280706 180.358801,221.280706 Z" id="Oval-6" stroke="#4A4A4A" fill="#423636"></path>
                <path d="M269.334268,230.257208 C279.035876,230.257208 286.900584,214.137272 286.900584,194.252323 C286.900584,186.375607 285.666559,179.089646 283.573155,173.162337 C280.381713,164.12602 275.192929,158.247438 269.334268,158.247438 C263.482939,158.247438 258.299811,164.111315 255.107372,173.128425 C253.00669,179.061846 251.767951,186.360578 251.767951,194.252323 C251.767951,214.137272 259.632659,230.257208 269.334268,230.257208 Z" id="Oval-3" fill="#FFFFFF"></path>
                <ellipse id="Oval-5" fill="#00BEBC" cx="272.443098" cy="203.055965" rx="8.36491269" ry="22.6077183"></ellipse>
                <ellipse id="Oval-6" stroke="#4A4A4A" fill="#423636" cx="273.024404" cy="213.7448" rx="2.50947381" ry="7.53590609"></ellipse>
            </g>
            <g id="t-Artist-OTY" transform="translate(277.000000, 404.000000)" stroke="#979797">
                <path d="M49.1599257,71.3681013 C43.7615837,80.6120889 38.9584815,93.1468512 39.1542981,109.47441 C40.1951371,137.059831 50.1331215,136.862848 55.0387902,147.544813 C60.7246703,159.925668 65.931723,180.018475 80.3152717,180.882595 C94.6988204,181.746715 89.5612581,159.343062 94.0907672,154.199025 C98.6202762,149.054989 106.164645,152.45549 108.4418,154.791379 C115.116534,161.638273 119.442036,179.73369 133.682513,179.364283 C147.922991,178.994876 140.305816,157.764261 146.144354,145.497613 C151.073905,135.140727 162.113068,130.991463 162.373754,109.47441 C161.723789,90.6319398 157.688062,78.9525108 153.229987,70.974144 C153.385557,71.1198952 153.545144,71.2714681 153.708898,71.4292733 C171.693467,70.1390509 205.797167,59.707899 202.553634,47.6028717 C199.496566,36.1937372 166.657877,47.2946493 140.979093,53.5816935 C140.870554,53.345976 140.771663,53.1099984 140.683015,52.8730644 C139.201207,48.9125694 138.395679,40.5904372 134.59727,32.7030025 C137.108662,32.3527449 141.753768,31.3686582 146.128827,28.6432468 C152.543187,24.6474677 154.695965,22.4511339 155.264753,18.8290706 C155.121754,14.6885698 146.425565,1.25629311 143.328981,0.622187821 C134.592404,-1.07281152 128.101201,4.63377288 127.243131,6.77555558 C126.385061,8.91733827 128.383291,14.5008908 130.516065,18.189636 C132.273025,21.2283904 138.416774,16.4090566 139.928688,15.1292696 C141.440602,13.8494825 140.828638,11.8643298 139.587318,10.0301763 C139.494696,9.89332029 139.581271,13.4729752 138.541563,14.27939 C137.501856,15.0858049 133.481652,16.9779271 133.15108,15.8250859 C131.651808,12.1406422 130.365441,10.7149901 131.216242,9.07750338 C132.538522,6.5325906 137.161536,4.95175488 139.513655,5.57340026 C141.523423,6.10456521 142.2598,9.01107465 143.370351,12.8947573 C144.537927,16.9778583 143.911728,18.0051547 142.943086,19.2357847 C140.781536,21.981968 132.812079,23.7681189 129.064452,24.4743456 C123.693108,18.7213929 115.337568,14.4737228 101.899924,14.4737228 C89.0090617,14.4737228 80.8793395,18.708922 75.5532363,24.4033007 C71.6740257,23.6529259 64.1391139,21.8941686 62.0466719,19.2357847 C61.0780301,18.0051547 60.4518313,16.9778583 61.6194067,12.8947573 C62.7299579,9.01107465 63.4663349,6.10456521 65.476103,5.57340026 C67.8282218,4.95175488 72.4512359,6.5325906 73.7735158,9.07750338 C74.6243173,10.7149901 73.3379497,12.1406422 71.8386775,15.8250859 C71.5081056,16.9779271 67.4879023,15.0858049 66.4481948,14.27939 C65.4084872,13.4729752 65.4950614,9.89332029 65.4024399,10.0301763 C64.16112,11.8643298 63.5491561,13.8494825 65.06107,15.1292696 C66.5729839,16.4090566 72.7167325,21.2283904 74.4736926,18.189636 C76.6064673,14.5008908 78.6046965,8.91733827 77.7466267,6.77555558 C76.8885569,4.63377288 70.3973542,-1.07281152 61.6607772,0.622187821 C58.5641926,1.25629311 49.8680041,14.6885698 49.7250052,18.8290706 C50.2937923,22.4511339 52.4465706,24.6474677 58.8609307,28.6432468 C62.981035,31.2098358 67.3406293,32.2321368 69.9321741,32.6350925 C65.71367,41.0845368 64.8168988,49.9170348 62.8279339,52.8730656 C62.6932743,53.0731987 62.5423254,53.2850367 62.3762893,53.5087166 C36.7420869,47.2093329 4.14453466,36.237752 1.09926003,47.6028717 C-2.0977255,59.5341841 30.9882987,69.8393188 49.1599257,71.3681013 Z" id="Combined-Shape" fill="#F8F8F8"></path>
                <g id="Group-2" transform="translate(78.400806, 33.065089)">
                    <ellipse id="Oval-19" cx="42.5240958" cy="5.31525312" rx="5.05982913" ry="4.98876337"></ellipse>
                    <ellipse id="Oval-19" cx="5.20785604" cy="5.31525312" rx="5.05982913" ry="4.98876337"></ellipse>
                    <path d="M15.3559106,6.66666587 L31.4163669,6.56244397 C31.4163669,6.56244397 33.0457832,20.2871839 23.7181311,20.2904589 C14.3904791,20.293734 15.3559106,6.66666587 15.3559106,6.66666587 Z" id="Path-5"></path>
                    <path d="M16.5924716,14.4695344 C16.5924716,14.4695344 22.3562411,12.1543918 23.8776698,15.6834492 C24.1174824,12.2868484 30.6908328,13.7238656 30.6908328,13.7238656 C30.6908328,13.7238656 29.8942364,19.6786055 23.9245861,19.8507507 C17.9549359,20.0228959 16.5924716,14.4695344 16.5924716,14.4695344 Z" id="Path-11"></path>
                </g>
                <path d="M100.199154,149.168903 C127.907849,150.321063 145.489368,142.025005 145.489368,112.449498 C145.489368,82.8739912 127.219889,63.6657701 100.988828,63.6657701 C74.7577676,63.6657701 58.7474806,82.8593451 58.7474806,112.434852 C58.7474806,142.010359 72.4904598,148.016743 100.199154,149.168903 Z" id="Oval-27"></path>
            </g>
            <g id="Plaque" transform="translate(43.000000, 613.000000)">
                <g id="Group" stroke-width="1" fill-rule="evenodd">
                    <use id="Rectangle-28" stroke="#FADAA8" mask="url(#mask-3)" stroke-width="8" fill="#FFC871" xlink:href="#path-2"></use>
                    <circle id="Oval-17" fill="#FADAA8" cx="313.5" cy="12.5" r="2.5"></circle>
                    <circle id="Oval-17" fill="#FADAA8" cx="313.5" cy="32.5" r="2.5"></circle>
                    <circle id="Oval-17" fill="#FADAA8" cx="11.5" cy="12.5" r="2.5"></circle>
                    <circle id="Oval-17" fill="#FADAA8" cx="11.5" cy="32.5" r="2.5"></circle>
                </g>
                <text id="BREAK-THROUGH-ARTIST" font-family="RobotoSlab-Regular, Roboto Slab" font-size="22" font-weight="normal" letter-spacing="0.240901098" fill="#FFFFFF">
                    <tspan x="45.4329643" y="30">ARTIST OF THE YEAR</tspan>
                </text>
            </g>
            <rect id="Rectangle-36" fill="#FAFAFA" x="66" y="0" width="1" height="1"></rect>
        </g>
    </g>
</svg>