<?xml version="1.0" encoding="UTF-8" standalone="no"?>
<svg width="718px" height="525px" viewBox="0 0 718 525" version="1.1" xmlns="http://www.w3.org/2000/svg" xmlns:xlink="http://www.w3.org/1999/xlink">
    <!-- Generator: Sketch 42 (36781) - http://www.bohemiancoding.com/sketch -->
    <title>Group 39</title>
    <desc>Created with Sketch.</desc>
    <defs>
        <path d="M86.8053095,159 L100,159 L100,172 C100,172 87.0727506,172.055497 79,172 C80.5948671,161.20598 86.8053095,159 86.8053095,159 Z" id="path-1"></path>
        <mask id="mask-2" maskContentUnits="userSpaceOnUse" maskUnits="objectBoundingBox" x="0" y="0" width="21" height="13.0246654" fill="white">
            <use xlink:href="#path-1"></use>
        </mask>
        <filter x="-50%" y="-50%" width="200%" height="200%" filterUnits="objectBoundingBox" id="filter-3">
            <feOffset dx="0" dy="2" in="SourceAlpha" result="shadowOffsetOuter1"></feOffset>
            <feGaussianBlur stdDeviation="2" in="shadowOffsetOuter1" result="shadowBlurOuter1"></feGaussianBlur>
            <feColorMatrix values="0 0 0 0 0   0 0 0 0 0   0 0 0 0 0  0 0 0 0.5 0" type="matrix" in="shadowBlurOuter1" result="shadowMatrixOuter1"></feColorMatrix>
            <feMerge>
                <feMergeNode in="shadowMatrixOuter1"></feMergeNode>
                <feMergeNode in="SourceGraphic"></feMergeNode>
            </feMerge>
        </filter>
    </defs>
    <g id="Characters" stroke="none" stroke-width="1" fill="none" fill-rule="evenodd">
        <g id="Group-39" transform="translate(1.000000, 1.000000)">
            <g id="Striped-Shirt" transform="translate(39.800038, 275.163404)" stroke="#423636" fill="#FAFAFA">
                <path d="M69.8844042,0.988902128 C-1.50855527,96.7841368 0.116734135,207.077837 0.116734135,207.077837 C0.116734135,207.077837 41.8729373,242.767015 133.220251,242.34867 C224.567564,241.930326 275.471376,207.077837 275.471376,207.077837 C275.471376,207.077837 264.7292,91.4196551 215.882895,25.2490747" id="Path-5"></path>
                <path d="M26.8730722,76.9754501 C74.6070015,100.865422 113.487982,107.707161 134.244198,108.186475 C155.000414,108.665789 210.937839,97.0997 244.474534,78.2124455 C250.791117,91.8782268 255.040973,108.594892 255.040973,108.594892 C255.040973,108.594892 144.700588,178.145214 16.8103527,107.688937 C19.5079322,95.1519982 24.166865,83.2755542 26.8730722,76.9754501 Z" id="Path-45"></path>
                <path d="M51.9737912,28.7056477 C99.7077205,52.5956194 120.05502,47.6630573 138.416387,49.0555654 C156.777754,50.4480735 219.353576,30.0647335 219.353576,30.0647335 C219.353576,30.0647335 226.959054,40.7081065 232.42087,51.954962 C234.444342,54.4065588 183.043338,78.8744462 136.882494,78.1061658 C90.7216502,77.3378855 78.5367973,74.434851 38.1379114,52.1786162 C42.7115262,40.6549474 47.9427599,34.1736626 51.9737912,28.7056477 Z" id="Path-45"></path>
                <path d="M8.26805039,143.469336 C8.26805039,143.469336 3.03037269,172.369929 2.90961701,177.968674 C114.966768,236.005691 246.657904,191.259034 270.660734,177.366786 C268.548018,159.042646 266.545444,154.310858 264.934948,143.723768 C124.074088,210.522186 8.26805039,143.469336 8.26805039,143.469336 Z" id="Path-46"></path>
            </g>
            <path d="M80.7795323,171.519549 C80.1516302,172.923009 79.5539464,174.34297 78.9873095,175.778603 C74.3277224,187.584141 78.1273095,217.27714 79.4778439,229.649556 C93.2237757,302.565459 141.761426,359.352899 149.249824,368.88367 C156.738221,378.41444 156.323398,321.877609 160.350413,332.579171 C183.361968,393.731058 217.396141,417.889404 220.996045,417.661046 C224.59595,417.432688 225.105333,370.533417 230.744727,352.497732 C236.384121,334.462047 247.029287,376.318182 254.27064,371.886399 C261.511993,367.454617 257.300455,309.455762 266.898714,254.143194 C269.104086,241.434136 276.814207,188.385912 272.426814,176.884465 C271.901885,175.508376 271.348553,174.146333 270.767534,172.799056 C270.767534,172.799056 250.564635,120.734375 188.701354,109.445312 C126.838073,98.15625 85.6115104,161.832031 85.6115104,161.832031" id="Beard" stroke="#423636" fill="#FAFAFA"></path>
            <path d="M278.562,143.580028 C291.852337,134.086583 314.421363,116.242454 312.916801,105.501071 C310.792903,90.3381255 301.194894,53.6927847 299.102328,49.9329682 C297.009763,46.1731517 293.414001,52.0474829 277.249869,53.2556678 C266.899359,50.6657693 277.873899,30.5962149 278.29348,29.2822525 C278.713061,27.9682901 276.79759,46.777777 279.216468,47.0970578 C281.629273,47.4155368 293.922446,45.564092 295.908895,42.4561299 C297.895343,39.3481677 294.967584,15.1393818 297.886945,8.75304305 C300.806307,2.36670434 342.772139,-1.45966195 345.207474,0.526533987 C347.64281,2.51272992 305.900684,9.2398323 303.278298,11.5163553 C300.655911,13.7928784 305.03419,37.221426 305.03419,37.221426 C305.03419,37.221426 309.532327,59.3905879 312.544064,71.712393 C315.555801,84.0341982 325.370814,70.1015473 327.814218,66.4945014 C330.257622,62.8874554 325.155059,49.0799485 327.175226,50.1133171 C329.195393,51.1466857 333.294128,59.7451722 333.15442,64.8935226 C333.014712,70.0418729 328.97387,75.3071444 325.191831,78.66194 C324.108362,79.6230137 319.444639,84.1462863 317.330015,85.1392174 C314.366375,86.530808 324.989522,102.827167 321.884647,113.402797 C319.293411,122.228902 287.948583,154.320313 277.648753,164.696528" id="Right-Antler" stroke="#423636" fill="#FAFAFA"></path>
            <path d="M23.6570468,155.414317 C36.9473842,145.920872 59.5164101,128.076742 58.0118477,117.33536 C55.8879498,102.172414 46.2899403,65.527073 44.197375,61.7672565 C42.1048097,58.00744 38.509048,63.8817711 22.344916,65.0899561 C11.9944054,62.5000575 22.9689454,42.4305032 23.3885267,41.1165408 C23.808108,39.8025783 21.8926368,58.6120653 24.3115152,58.9313461 C26.7243194,59.2498251 39.0174933,57.3983803 41.0039417,54.2904181 C42.9903901,51.182456 40.0626308,26.97367 42.9819923,20.5873313 C45.9013538,14.2009926 87.8671856,10.3746263 90.3025212,12.3608223 C92.7378567,14.3470182 50.9957312,21.0741206 48.3733445,23.3506436 C45.7509578,25.6271666 50.1292366,49.0557143 50.1292366,49.0557143 C50.1292366,49.0557143 54.6273741,71.2248762 57.6391108,83.5466813 C60.6508475,95.8684864 70.4658605,81.9358355 72.9092647,78.3287896 C75.3526689,74.7217437 70.2501058,60.9142368 72.2702726,61.9476054 C74.2904395,62.980974 78.3891749,71.5794605 78.249467,76.7278108 C78.1097591,81.8761612 74.0689169,87.1414327 70.286878,90.4962283 C69.2034087,91.457302 64.5396859,95.9805745 62.4250619,96.9735057 C59.4614214,98.3650963 70.0845687,114.661455 66.9796934,125.237086 C64.3884573,134.06319 33.0436301,166.154602 22.7438003,176.530816" id="Right-Antler" stroke="#423636" fill="#FAFAFA" transform="translate(54.159895, 94.182552) scale(-1, 1) rotate(13.000000) translate(-54.159895, -94.182552) "></path>
            <use id="Rectangle-5" stroke="#423636" mask="url(#mask-2)" stroke-width="2" fill="#FAFAFA" xlink:href="#path-1"></use>
            <g id="Crown" transform="translate(93.000000, 61.000000)" stroke="#423636" fill="#FAFAFA">
                <path d="M38.2236759,111.428586 C23.0260272,111.400189 11.0200629,111.411535 5.21172213,111.320537 C-0.765755255,110.882891 -0.681160467,106.513299 2.23447539,104.805288 C2.29355771,104.675985 2.4982512,104.554262 2.84077689,104.439826 L0.612980888,50.5750848 L52.3949819,86.7464103 L103.928431,0.922910638 L154.639122,86.38489 L186.323135,48.3231651 L184.081679,103.519312 C184.089249,108.882608 181.09848,111.889719 178.852371,112.286806 C175.783778,112.829299 186.94052,112.861847 170.530628,112.800027 M140.288361,112.451641 C124.729304,112.262719 110.862825,112.111043 100.93338,111.937551 C89.1671619,111.731967 77.2465484,111.610472 65.9401811,111.536732"></path>
                <path d="M182.213774,96.95759 C185.001788,96.95759 185,93.1940975 185,88.1072501 C185,83.0204028 184.277782,77 181.489768,77 C178.701754,77 178,82.5692791 178,87.6561264 C178,92.7429738 179.42576,96.95759 182.213774,96.95759 Z" id="Oval-9" transform="translate(181.500000, 86.978795) rotate(3.000000) translate(-181.500000, -86.978795) "></path>
                <ellipse id="Oval-9" cx="105.474118" cy="73.3675385" rx="15.8205957" ry="24.2823641"></ellipse>
                <ellipse id="Oval-9" cx="16.4638274" cy="85.81702" rx="5.85543888" ry="9.21055189"></ellipse>
            </g>
            <ellipse id="Oval-3" stroke="#423636" fill="#FAFAFA" cx="157.566317" cy="197.004885" rx="17.5663166" ry="36.0048846"></ellipse>
            <ellipse id="Oval-5" stroke="#423636" fill="#FAFAFA" cx="161.364913" cy="201.607718" rx="8.36491269" ry="22.6077183"></ellipse>
            <path d="M250.566317,233.009769 C260.267925,233.009769 268.132633,216.889833 268.132633,197.004885 C268.132633,189.128169 266.898608,181.842208 264.805204,175.914899 C261.613762,166.878582 256.424978,161 250.566317,161 C244.714988,161 239.53186,166.863877 236.339421,175.880987 C234.238739,181.814408 233,189.11314 233,197.004885 C233,216.889833 240.864708,233.009769 250.566317,233.009769 Z" id="Oval-3" stroke="#423636" fill="#FAFAFA"></path>
            <ellipse id="Oval-5" stroke="#423636" fill="#FAFAFA" cx="255.364913" cy="201.607718" rx="8.36491269" ry="22.6077183"></ellipse>
            <ellipse id="Oval-6" stroke="#4A4A4A" fill="#423636" cx="257.509474" cy="210.535906" rx="2.50947381" ry="7.53590609"></ellipse>
            <ellipse id="Oval-6" stroke="#4A4A4A" fill="#423636" cx="163.509474" cy="210.535906" rx="2.50947381" ry="7.53590609"></ellipse>
            <path d="M185.091585,224.7334 C184.894546,220.894587 185.076774,218.285794 185.076774,218.285794 L228.498761,218 C228.498761,218 228.819181,220.737384 228.792507,224.735825 C228.720275,235.563328 185.640276,235.42325 185.091585,224.7334 Z" id="Path-5" fill="#4A4A4A"></path>
            <path d="M189,227.872537 C189,227.872537 201.489897,224.100996 208.679356,229.230002 C214.234086,221.971184 227.482924,226.218849 227.482924,226.218849 C227.482924,226.218849 226.2213,231.384927 209.101492,231.713786 C191.00228,232.042645 189,227.872537 189,227.872537 Z" id="Path-11" fill="#FAFAFA"></path>
            <g id="Striped-Shirt" filter="url(#filter-3)" transform="translate(539.199962, 396.663404) scale(-1, 1) translate(-539.199962, -396.663404) translate(401.199962, 275.163404)">
                <path d="M69.8844042,0.988902128 C-1.50855527,96.7841368 0.116734135,207.077837 0.116734135,207.077837 C0.116734135,207.077837 41.8729373,242.767015 133.220251,242.34867 C224.567564,241.930326 275.471376,207.077837 275.471376,207.077837 C275.471376,207.077837 264.7292,91.4196551 215.882895,25.2490747" id="Path-5" fill="#F2534A"></path>
                <path d="M26.8730722,76.9754501 C74.6070015,100.865422 113.487982,107.707161 134.244198,108.186475 C155.000414,108.665789 210.937839,97.0997 244.474534,78.2124455 C250.791117,91.8782268 255.040973,108.594892 255.040973,108.594892 C255.040973,108.594892 144.700588,178.145214 16.8103527,107.688937 C19.5079322,95.1519982 24.166865,83.2755542 26.8730722,76.9754501 Z" id="Path-45" fill="#00BEBC"></path>
                <path d="M51.9737912,28.7056477 C99.7077205,52.5956194 120.05502,47.6630573 138.416387,49.0555654 C156.777754,50.4480735 219.353576,30.0647335 219.353576,30.0647335 C219.353576,30.0647335 226.959054,40.7081065 232.42087,51.954962 C234.444342,54.4065588 183.043338,78.8744462 136.882494,78.1061658 C90.7216502,77.3378855 78.5367973,74.434851 38.1379114,52.1786162 C42.7115262,40.6549474 47.9427599,34.1736626 51.9737912,28.7056477 Z" id="Path-45" fill="#00BEBC"></path>
                <path d="M8.26805039,143.469336 C8.26805039,143.469336 3.03037269,172.369929 2.90961701,177.968674 C114.966768,236.005691 246.657904,191.259034 270.660734,177.366786 C268.548018,159.042646 266.545444,154.310858 264.934948,143.723768 C124.074088,210.522186 8.26805039,143.469336 8.26805039,143.469336 Z" id="Path-46" fill="#00BEBC"></path>
            </g>
            <path d="M447.290636,171.519549 C446.662734,172.923009 446.06505,174.34297 445.498413,175.778603 C440.838826,187.584141 444.638413,217.27714 445.988947,229.649556 C459.734879,302.565459 508.27253,359.352899 515.760927,368.88367 C523.249324,378.41444 522.834501,321.877609 526.861517,332.579171 C549.873072,393.731058 583.907245,417.889404 587.507149,417.661046 C591.107053,417.432688 591.616437,370.533417 597.255831,352.497732 C602.895224,334.462047 613.540391,376.318182 620.781743,371.886399 C628.023096,367.454617 623.811558,309.455762 633.409817,254.143194 C635.61519,241.434136 643.325311,188.385912 638.937918,176.884465 C638.412989,175.508376 637.859656,174.146333 637.278638,172.799056 C637.278638,172.799056 617.075739,120.734375 555.212458,109.445312 C493.349176,98.15625 452.122614,161.832031 452.122614,161.832031" id="Beard" stroke="#FFD087" fill="#FFD087" transform="translate(541.755552, 262.883269) scale(-1, 1) translate(-541.755552, -262.883269) "></path>
            <path d="M377.432304,143.580028 C390.722642,134.086583 413.291668,116.242454 411.787105,105.501071 C409.663207,90.3381255 400.065198,53.6927847 397.972633,49.9329682 C395.880067,46.1731517 392.284306,52.0474829 376.120174,53.2556678 C365.769663,50.6657693 376.744203,30.5962149 377.163784,29.2822525 C377.583366,27.9682901 375.667895,46.777777 378.086773,47.0970578 C380.499577,47.4155368 392.792751,45.564092 394.779199,42.4561299 C396.765648,39.3481677 393.837889,15.1393818 396.75725,8.75304305 C399.676611,2.36670434 441.642443,-1.45966195 444.077779,0.526533987 C446.513114,2.51272992 404.770989,9.2398323 402.148602,11.5163553 C399.526215,13.7928784 403.904494,37.221426 403.904494,37.221426 C403.904494,37.221426 408.402632,59.3905879 411.414368,71.712393 C414.426105,84.0341982 424.241118,70.1015473 426.684522,66.4945014 C429.127927,62.8874554 424.025363,49.0799485 426.04553,50.1133171 C428.065697,51.1466857 432.164433,59.7451722 432.024725,64.8935226 C431.885017,70.0418729 427.844175,75.3071444 424.062136,78.66194 C422.978666,79.6230137 418.314944,84.1462863 416.20032,85.1392174 C413.236679,86.530808 423.859826,102.827167 420.754951,113.402797 C418.163715,122.228902 386.818888,154.320313 376.519058,164.696528" id="Right-Antler" fill="#423636" transform="translate(407.935152, 82.348264) scale(-1, 1) translate(-407.935152, -82.348264) "></path>
            <path d="M632.337258,155.414317 C645.627595,145.920872 668.196621,128.076742 666.692059,117.33536 C664.568161,102.172414 654.970151,65.527073 652.877586,61.7672565 C650.785021,58.00744 647.189259,63.8817711 631.025127,65.0899561 C620.674616,62.5000575 631.649156,42.4305032 632.068738,41.1165408 C632.488319,39.8025783 630.572848,58.6120653 632.991726,58.9313461 C635.40453,59.2498251 647.697704,57.3983803 649.684153,54.2904181 C651.670601,51.182456 648.742842,26.97367 651.662203,20.5873313 C654.581565,14.2009926 696.547397,10.3746263 698.982732,12.3608223 C701.418068,14.3470182 659.675942,21.0741206 657.053555,23.3506436 C654.431169,25.6271666 658.809447,49.0557143 658.809447,49.0557143 C658.809447,49.0557143 663.307585,71.2248762 666.319322,83.5466813 C669.331058,95.8684864 679.146071,81.9358355 681.589476,78.3287896 C684.03288,74.7217437 678.930317,60.9142368 680.950484,61.9476054 C682.97065,62.980974 687.069386,71.5794605 686.929678,76.7278108 C686.78997,81.8761612 682.749128,87.1414327 678.967089,90.4962283 C677.88362,91.457302 673.219897,95.9805745 671.105273,96.9735057 C668.141632,98.3650963 678.76478,114.661455 675.659904,125.237086 C673.068668,134.06319 641.723841,166.154602 631.424011,176.530816" id="Right-Antler" fill="#423636" transform="translate(662.840105, 94.182552) rotate(13.000000) translate(-662.840105, -94.182552) "></path>
            <path d="M624.805309,159 L638,159 L638,172 C638,172 625.072751,172.055497 617,172 C618.594867,161.20598 624.805309,159 624.805309,159 Z" id="Rectangle-5" fill="#FADAA8" transform="translate(627.500000, 165.512333) scale(-1, 1) translate(-627.500000, -165.512333) "></path>
            <g id="Crown" transform="translate(530.500000, 117.500000) scale(-1, 1) translate(-530.500000, -117.500000) translate(437.000000, 61.000000)">
                <path d="M38.2236759,111.428586 C23.0260272,111.400189 11.0200629,111.411535 5.21172213,111.320537 C-0.765755255,110.882891 -0.681160467,106.513299 2.23447539,104.805288 C2.29355771,104.675985 2.4982512,104.554262 2.84077689,104.439826 L0.612980888,50.5750848 L52.3949819,86.7464103 L103.928431,0.922910638 L154.639122,86.38489 L186.323135,48.3231651 L184.081679,103.519312 C184.089249,108.882608 181.09848,111.889719 178.852371,112.286806 C175.783778,112.829299 186.94052,112.861847 170.530628,112.800027 M140.288361,112.451641 C124.729304,112.262719 110.862825,112.111043 100.93338,111.937551 C89.1671619,111.731967 77.2465484,111.610472 65.9401811,111.536732" fill="#FADAA8"></path>
                <path d="M182.213774,96.95759 C185.001788,96.95759 185,93.1940975 185,88.1072501 C185,83.0204028 184.277782,77 181.489768,77 C178.701754,77 178,82.5692791 178,87.6561264 C178,92.7429738 179.42576,96.95759 182.213774,96.95759 Z" id="Oval-9" fill="#F2534A" transform="translate(181.500000, 86.978795) rotate(3.000000) translate(-181.500000, -86.978795) "></path>
                <ellipse id="Oval-9" fill="#F2534A" cx="105.474118" cy="73.3675385" rx="15.8205957" ry="24.2823641"></ellipse>
                <ellipse id="Oval-9" fill="#F2534A" cx="16.4638274" cy="85.81702" rx="5.85543888" ry="9.21055189"></ellipse>
            </g>
            <ellipse id="Oval-3" fill="#FFFFFF" transform="translate(559.433683, 197.004885) scale(-1, 1) translate(-559.433683, -197.004885) " cx="559.433683" cy="197.004885" rx="17.5663166" ry="36.0048846"></ellipse>
            <ellipse id="Oval-5" fill="#00BEBC" transform="translate(555.635087, 201.607718) scale(-1, 1) translate(-555.635087, -201.607718) " cx="555.635087" cy="201.607718" rx="8.36491269" ry="22.6077183"></ellipse>
            <path d="M466.433683,233.009769 C476.135292,233.009769 484,216.889833 484,197.004885 C484,189.128169 482.765975,181.842208 480.672571,175.914899 C477.481129,166.878582 472.292344,161 466.433683,161 C460.582354,161 455.399227,166.863877 452.206788,175.880987 C450.106105,181.814408 448.867367,189.11314 448.867367,197.004885 C448.867367,216.889833 456.732075,233.009769 466.433683,233.009769 Z" id="Oval-3" fill="#FFFFFF" transform="translate(466.433683, 197.004885) scale(-1, 1) translate(-466.433683, -197.004885) "></path>
            <ellipse id="Oval-5" fill="#00BEBC" transform="translate(461.635087, 201.607718) scale(-1, 1) translate(-461.635087, -201.607718) " cx="461.635087" cy="201.607718" rx="8.36491269" ry="22.6077183"></ellipse>
            <ellipse id="Oval-6" stroke="#4A4A4A" fill="#423636" transform="translate(459.490526, 210.535906) scale(-1, 1) translate(-459.490526, -210.535906) " cx="459.490526" cy="210.535906" rx="2.50947381" ry="7.53590609"></ellipse>
            <ellipse id="Oval-6" stroke="#4A4A4A" fill="#423636" transform="translate(553.490526, 210.535906) scale(-1, 1) translate(-553.490526, -210.535906) " cx="553.490526" cy="210.535906" rx="2.50947381" ry="7.53590609"></ellipse>
            <path d="M488.2975,224.7334 C488.100461,220.894587 488.282689,218.285794 488.282689,218.285794 L531.704676,218 C531.704676,218 532.025097,220.737384 531.998422,224.735825 C531.926191,235.563328 488.846191,235.42325 488.2975,224.7334 Z" id="Path-5" fill="#4A4A4A" transform="translate(510.102958, 225.401854) scale(-1, 1) translate(-510.102958, -225.401854) "></path>
            <path d="M489.517076,228.872537 C489.517076,228.872537 502.006974,225.100996 509.196432,230.230002 C514.751162,222.971184 528,227.218849 528,227.218849 C528,227.218849 526.738377,232.384927 509.618568,232.713786 C491.519357,233.042645 489.517076,228.872537 489.517076,228.872537 Z" id="Path-11" fill="#F2534A" transform="translate(508.758538, 229.357979) scale(-1, 1) translate(-508.758538, -229.357979) "></path>
        </g>
    </g>
</svg>