<?xml version="1.0" encoding="UTF-8" standalone="no"?>
<svg width="529px" height="658px" viewBox="0 0 529 658" version="1.1" xmlns="http://www.w3.org/2000/svg" xmlns:xlink="http://www.w3.org/1999/xlink">
    <!-- Generator: Sketch 39.1 (31720) - http://www.bohemiancoding.com/sketch -->
    <title>Brand OTY</title>
    <desc>Created with Sketch.</desc>
    <defs>
        <polygon id="path-1" points="0 35.9737473 0 9.12990284 13.0753585 0 312.728151 0 325 9.12990284 325 35.9737473 312.728151 45 13.0753585 45"></polygon>
        <mask id="mask-2" maskContentUnits="userSpaceOnUse" maskUnits="objectBoundingBox" x="0" y="0" width="325" height="45" fill="white">
            <use xlink:href="#path-1"></use>
        </mask>
        <filter x="-50%" y="-50%" width="200%" height="200%" filterUnits="objectBoundingBox" id="filter-3">
            <feOffset dx="0" dy="2" in="SourceAlpha" result="shadowOffsetOuter1"></feOffset>
            <feGaussianBlur stdDeviation="1.5" in="shadowOffsetOuter1" result="shadowBlurOuter1"></feGaussianBlur>
            <feColorMatrix values="0 0 0 0 0   0 0 0 0 0   0 0 0 0 0  0 0 0 0.25 0" type="matrix" in="shadowBlurOuter1" result="shadowMatrixOuter1"></feColorMatrix>
            <feMerge>
                <feMergeNode in="shadowMatrixOuter1"></feMergeNode>
                <feMergeNode in="SourceGraphic"></feMergeNode>
            </feMerge>
        </filter>
        <filter x="-50%" y="-50%" width="200%" height="200%" filterUnits="objectBoundingBox" id="filter-4">
            <feOffset dx="0" dy="2" in="SourceAlpha" result="shadowOffsetOuter1"></feOffset>
            <feGaussianBlur stdDeviation="2" in="shadowOffsetOuter1" result="shadowBlurOuter1"></feGaussianBlur>
            <feColorMatrix values="0 0 0 0 0   0 0 0 0 0   0 0 0 0 0  0 0 0 0.5 0" type="matrix" in="shadowBlurOuter1" result="shadowMatrixOuter1"></feColorMatrix>
            <feMerge>
                <feMergeNode in="shadowMatrixOuter1"></feMergeNode>
                <feMergeNode in="SourceGraphic"></feMergeNode>
            </feMerge>
        </filter>
    </defs>
    <g id="Characters" stroke="none" stroke-width="1" fill="none" fill-rule="evenodd">
        <g id="Brand-OTY" transform="translate(3.000000, 0.000000)">
            <g id="Plaque" transform="translate(110.333333, 613.000000)">
                <g id="Group" stroke-width="1" fill-rule="evenodd">
                    <use id="Rectangle-28" stroke="#FADAA8" mask="url(#mask-2)" stroke-width="8" fill="#FFC871" xlink:href="#path-1"></use>
                    <circle id="Oval-17" fill="#FADAA8" cx="313.5" cy="12.5" r="2.5"></circle>
                    <circle id="Oval-17" fill="#FADAA8" cx="313.5" cy="32.5" r="2.5"></circle>
                    <circle id="Oval-17" fill="#FADAA8" cx="11.5" cy="12.5" r="2.5"></circle>
                    <circle id="Oval-17" fill="#FADAA8" cx="11.5" cy="32.5" r="2.5"></circle>
                </g>
                <text id="BREAK-THROUGH-ARTIST" font-family="RobotoSlab-Regular, Roboto Slab" font-size="22" font-weight="normal" letter-spacing="0.240901098" fill="#FFFFFF">
                    <tspan x="45.9455047" y="30">BRAND OF THE YEAR</tspan>
                </text>
            </g>
            <g transform="translate(207.500000, 325.500000) scale(-1, 1) translate(-207.500000, -325.500000) translate(0.000000, 66.000000)">
                <g id="Character-Copy" filter="url(#filter-3)" transform="translate(242.000000, 259.500000) scale(-1, 1) translate(-242.000000, -259.500000) translate(69.000000, 0.000000)">
                    <g id="Striped-Shirt" filter="url(#filter-4)" transform="translate(39.800038, 275.163404)">
                        <path d="M69.8844042,0.988902128 C-1.50855527,96.7841368 0.116734135,207.077837 0.116734135,207.077837 C0.116734135,207.077837 41.8729373,242.767015 133.220251,242.34867 C224.567564,241.930326 275.471376,207.077837 275.471376,207.077837 C275.471376,207.077837 264.7292,91.4196551 215.882895,25.2490747" id="Path-5" fill="#F2534A"></path>
                        <path d="M26.8730722,76.9754501 C74.6070015,100.865422 113.487982,107.707161 134.244198,108.186475 C155.000414,108.665789 210.937839,97.0997 244.474534,78.2124455 C250.791117,91.8782268 255.040973,108.594892 255.040973,108.594892 C255.040973,108.594892 144.700588,178.145214 16.8103527,107.688937 C19.5079322,95.1519982 24.166865,83.2755542 26.8730722,76.9754501 Z" id="Path-45" fill="#00BEBC"></path>
                        <path d="M51.9737912,28.7056477 C99.7077205,52.5956194 120.05502,47.6630573 138.416387,49.0555654 C156.777754,50.4480735 219.353576,30.0647335 219.353576,30.0647335 C219.353576,30.0647335 226.959054,40.7081065 232.42087,51.954962 C234.444342,54.4065588 183.043338,78.8744462 136.882494,78.1061658 C90.7216502,77.3378855 78.5367973,74.434851 38.1379114,52.1786162 C42.7115262,40.6549474 47.9427599,34.1736626 51.9737912,28.7056477 Z" id="Path-45" fill="#00BEBC"></path>
                        <path d="M8.26805039,143.469336 C8.26805039,143.469336 3.03037269,172.369929 2.90961701,177.968674 C114.966768,236.005691 246.657904,191.259034 270.660734,177.366786 C268.548018,159.042646 266.545444,154.310858 264.934948,143.723768 C124.074088,210.522186 8.26805039,143.469336 8.26805039,143.469336 Z" id="Path-46" fill="#00BEBC"></path>
                    </g>
                    <path d="M80.7795323,171.519549 C80.1516302,172.923009 79.5539464,174.34297 78.9873095,175.778603 C74.3277224,187.584141 78.1273095,217.27714 79.4778439,229.649556 C93.2237757,302.565459 141.761426,359.352899 149.249824,368.88367 C156.738221,378.41444 156.323398,321.877609 160.350413,332.579171 C183.361968,393.731058 217.396141,417.889404 220.996045,417.661046 C224.59595,417.432688 225.105333,370.533417 230.744727,352.497732 C236.384121,334.462047 247.029287,376.318182 254.27064,371.886399 C261.511993,367.454617 257.300455,309.455762 266.898714,254.143194 C269.104086,241.434136 276.814207,188.385912 272.426814,176.884465 C271.901885,175.508376 271.348553,174.146333 270.767534,172.799056 C270.767534,172.799056 250.564635,120.734375 188.701354,109.445312 C126.838073,98.15625 85.6115104,161.832031 85.6115104,161.832031" id="Beard" stroke="#FFD087" fill="#FFD087"></path>
                    <path d="M278.562,143.580028 C291.852337,134.086583 314.421363,116.242454 312.916801,105.501071 C310.792903,90.3381255 301.194894,53.6927847 299.102328,49.9329682 C297.009763,46.1731517 293.414001,52.0474829 277.249869,53.2556678 C266.899359,50.6657693 277.873899,30.5962149 278.29348,29.2822525 C278.713061,27.9682901 276.79759,46.777777 279.216468,47.0970578 C281.629273,47.4155368 293.922446,45.564092 295.908895,42.4561299 C297.895343,39.3481677 294.967584,15.1393818 297.886945,8.75304305 C300.806307,2.36670434 342.772139,-1.45966195 345.207474,0.526533987 C347.64281,2.51272992 305.900684,9.2398323 303.278298,11.5163553 C300.655911,13.7928784 305.03419,37.221426 305.03419,37.221426 C305.03419,37.221426 309.532327,59.3905879 312.544064,71.712393 C315.555801,84.0341982 325.370814,70.1015473 327.814218,66.4945014 C330.257622,62.8874554 325.155059,49.0799485 327.175226,50.1133171 C329.195393,51.1466857 333.294128,59.7451722 333.15442,64.8935226 C333.014712,70.0418729 328.97387,75.3071444 325.191831,78.66194 C324.108362,79.6230137 319.444639,84.1462863 317.330015,85.1392174 C314.366375,86.530808 324.989522,102.827167 321.884647,113.402797 C319.293411,122.228902 287.948583,154.320313 277.648753,164.696528" id="Right-Antler" fill="#423636"></path>
                    <path d="M23.6570468,155.414317 C36.9473842,145.920872 59.5164101,128.076742 58.0118477,117.33536 C55.8879498,102.172414 46.2899403,65.527073 44.197375,61.7672565 C42.1048097,58.00744 38.509048,63.8817711 22.344916,65.0899561 C11.9944054,62.5000575 22.9689454,42.4305032 23.3885267,41.1165408 C23.808108,39.8025783 21.8926368,58.6120653 24.3115152,58.9313461 C26.7243194,59.2498251 39.0174933,57.3983803 41.0039417,54.2904181 C42.9903901,51.182456 40.0626308,26.97367 42.9819923,20.5873313 C45.9013538,14.2009926 87.8671856,10.3746263 90.3025212,12.3608223 C92.7378567,14.3470182 50.9957312,21.0741206 48.3733445,23.3506436 C45.7509578,25.6271666 50.1292366,49.0557143 50.1292366,49.0557143 C50.1292366,49.0557143 54.6273741,71.2248762 57.6391108,83.5466813 C60.6508475,95.8684864 70.4658605,81.9358355 72.9092647,78.3287896 C75.3526689,74.7217437 70.2501058,60.9142368 72.2702726,61.9476054 C74.2904395,62.980974 78.3891749,71.5794605 78.249467,76.7278108 C78.1097591,81.8761612 74.0689169,87.1414327 70.286878,90.4962283 C69.2034087,91.457302 64.5396859,95.9805745 62.4250619,96.9735057 C59.4614214,98.3650963 70.0845687,114.661455 66.9796934,125.237086 C64.3884573,134.06319 33.0436301,166.154602 22.7438003,176.530816" id="Right-Antler" fill="#423636" transform="translate(54.159895, 94.182552) scale(-1, 1) rotate(13.000000) translate(-54.159895, -94.182552) "></path>
                    <path d="M86.8053095,159 L100,159 L100,172 C100,172 87.0727506,172.055497 79,172 C80.5948671,161.20598 86.8053095,159 86.8053095,159 Z" id="Rectangle-5" fill="#FADAA8"></path>
                    <g id="Crown" transform="translate(93.000000, 61.000000)">
                        <path d="M38.2236759,111.428586 C23.0260272,111.400189 11.0200629,111.411535 5.21172213,111.320537 C-0.765755255,110.882891 -0.681160467,106.513299 2.23447539,104.805288 C2.29355771,104.675985 2.4982512,104.554262 2.84077689,104.439826 L0.612980888,50.5750848 L52.3949819,86.7464103 L103.928431,0.922910638 L154.639122,86.38489 L186.323135,48.3231651 L184.081679,103.519312 C184.089249,108.882608 181.09848,111.889719 178.852371,112.286806 C175.783778,112.829299 186.94052,112.861847 170.530628,112.800027 M140.288361,112.451641 C124.729304,112.262719 110.862825,112.111043 100.93338,111.937551 C89.1671619,111.731967 77.2465484,111.610472 65.9401811,111.536732" fill="#FADAA8"></path>
                        <path d="M182.213774,96.95759 C185.001788,96.95759 185,93.1940975 185,88.1072501 C185,83.0204028 184.277782,77 181.489768,77 C178.701754,77 178,82.5692791 178,87.6561264 C178,92.7429738 179.42576,96.95759 182.213774,96.95759 Z" id="Oval-9" fill="#F2534A" transform="translate(181.500000, 86.978795) rotate(3.000000) translate(-181.500000, -86.978795) "></path>
                        <ellipse id="Oval-9" fill="#F2534A" cx="105.474118" cy="73.3675385" rx="15.8205957" ry="24.2823641"></ellipse>
                        <ellipse id="Oval-9" fill="#F2534A" cx="16.4638274" cy="85.81702" rx="5.85543888" ry="9.21055189"></ellipse>
                    </g>
                    <ellipse id="Oval-3" fill="#FFFFFF" cx="157.566317" cy="197.004885" rx="17.5663166" ry="36.0048846"></ellipse>
                    <ellipse id="Oval-5" fill="#00BEBC" cx="160.364913" cy="202.607718" rx="8.36491269" ry="22.6077183"></ellipse>
                    <path d="M250.566317,233.009769 C260.267925,233.009769 268.132633,216.889833 268.132633,197.004885 C268.132633,189.128169 266.898608,181.842208 264.805204,175.914899 C261.613762,166.878582 256.424978,161 250.566317,161 C244.714988,161 239.53186,166.863877 236.339421,175.880987 C234.238739,181.814408 233,189.11314 233,197.004885 C233,216.889833 240.864708,233.009769 250.566317,233.009769 Z" id="Oval-3" fill="#FFFFFF"></path>
                    <ellipse id="Oval-5" fill="#00BEBC" cx="254.364913" cy="202.607718" rx="8.36491269" ry="22.6077183"></ellipse>
                    <ellipse id="Oval-6" stroke="#4A4A4A" fill="#423636" cx="255.509474" cy="212.535906" rx="2.50947381" ry="7.53590609"></ellipse>
                    <ellipse id="Oval-6" stroke="#4A4A4A" fill="#423636" cx="161.509474" cy="212.535906" rx="2.50947381" ry="7.53590609"></ellipse>
                    <path d="M185.076774,218.285794 L228.498761,218 C228.498761,218 232.904145,255.635603 207.685361,255.644584 C182.466577,255.653564 185.076774,218.285794 185.076774,218.285794 Z" id="Path-5" fill="#4A4A4A"></path>
                    <path d="M189,241.872537 C189,241.872537 204.583263,235.524017 208.696687,245.201301 C209.345058,235.887236 227.117152,239.827785 227.117152,239.827785 C227.117152,239.827785 224.963427,256.156708 208.823533,256.62876 C192.683638,257.100812 189,241.872537 189,241.872537 Z" id="Path-11" fill="#F2534A"></path>
                </g>
                <polygon id="Rectangle-9" fill="#685353" transform="translate(79.386276, 295.625060) scale(-1, 1) rotate(43.000000) translate(-79.386276, -295.625060) " points="50.6621476 290.118378 108.110404 286.888014 108.110404 304.362107 51.182609 300.656624"></polygon>
                <path d="M20.0377756,350.534013 C19.5930643,350.229409 19.1707648,349.891755 18.772619,349.520478 C18.2813651,349.062376 17.8386089,348.564022 17.4435034,348.028754 L17.1844635,347.778602 L17.2308993,347.730516 C11.6865047,339.675025 16.3790747,323.795453 28.6284172,310.659641 C41.8651545,296.464978 58.9135548,290.849472 66.707085,298.117056 C67.3027248,298.672499 67.8270668,299.287119 68.2816206,299.954963 L76.4212295,307.815292 L69.7125021,314.762382 C67.9603018,321.841686 63.5285209,329.817436 56.8512869,336.977893 C49.626101,344.725956 41.2652491,349.917902 33.8937588,351.853777 L27.8670304,358.094637 L20.0377756,350.534013 Z" id="Combined-Shape" fill="#00BEBC" transform="translate(45.671849, 326.516366) scale(-1, 1) translate(-45.671849, -326.516366) "></path>
                <ellipse id="Oval-8" fill="#423636" transform="translate(38.336850, 334.131876) scale(-1, 1) rotate(43.000000) translate(-38.336850, -334.131876) " cx="38.3368495" cy="334.131876" rx="19.2949524" ry="35.1426549"></ellipse>
                <ellipse id="Oval-8" fill="#685353" transform="translate(38.075516, 334.905448) scale(-1, 1) rotate(43.000000) translate(-38.075516, -334.905448) " cx="38.0755156" cy="334.905448" rx="15.7955188" ry="28.7689989"></ellipse>
                <ellipse id="Oval-8" fill="#423636" transform="translate(38.039578, 335.157522) scale(-1, 1) rotate(43.000000) translate(-38.039578, -335.157522) " cx="38.0395779" cy="335.157522" rx="14.3765569" ry="26.184588"></ellipse>
                <path d="M45.5010883,353.925682 C49.0357888,354.110418 57.644432,349.976444 57.644432,335.515095 C57.644432,334.481144 55.9061667,335.162463 55.9061667,335.162463 C55.9061667,335.162463 56.1528349,351.012833 45.5051418,351.722319 C36.9119745,351.31313 38.1663344,335.49977 38.1663344,335.49977 C38.1663344,335.49977 36.0214324,333.971906 36.0214324,335.638461 C36.0214324,350.099809 41.9663877,353.740945 45.5010883,353.925682 Z" id="Oval-8" fill="#685353" transform="translate(46.832932, 344.395786) rotate(-45.000000) translate(-46.832932, -344.395786) "></path>
                <path d="M30.5856662,328.92609 C30.5856662,328.92609 30.4575722,319.8698 34.4640454,319.8333 C38.4701553,319.518757 38.5073162,328.529688 38.5073162,328.529688 C38.5073162,328.529688 40.1250831,329.038482 40.1250831,328.53686 C40.1250831,322.778071 37.5619027,318.10965 34.4000596,318.10965 C31.2382164,318.10965 28.6750361,322.778071 28.6750361,328.53686 C28.6750361,329.147478 30.5856662,328.92609 30.5856662,328.92609 Z" id="Oval-8" fill="#685353" transform="translate(34.400060, 323.537427) scale(-1, 1) rotate(43.000000) translate(-34.400060, -323.537427) "></path>
                <path d="M23.2591581,336.924203 C23.2591581,336.924203 23.1633125,327.867914 26.1611331,327.831413 C29.1586819,327.51687 29.1864873,336.527801 29.1864873,336.527801 C29.1864873,336.527801 30.3969721,337.036596 30.3969721,336.534973 C30.3969721,330.776184 28.4790871,326.107763 26.113256,326.107763 C23.747425,326.107763 21.82954,330.776184 21.82954,336.534973 C21.82954,337.145592 23.2591581,336.924203 23.2591581,336.924203 Z" id="Oval-8" fill="#685353" transform="translate(26.113256, 331.535541) scale(-1, 1) rotate(43.000000) translate(-26.113256, -331.535541) "></path>
                <ellipse id="Oval-8" fill="#00BEBC" transform="translate(108.578819, 267.250191) scale(-1, 1) rotate(43.000000) translate(-108.578819, -267.250191) " cx="108.578819" cy="267.250191" rx="20.1590658" ry="19.600954"></ellipse>
                <ellipse id="Oval-10" fill="#685353" transform="translate(96.349747, 279.407216) scale(-1, 1) translate(-96.349747, -279.407216) " cx="96.3497475" cy="279.407216" rx="6.40025253" ry="6.56185567"></ellipse>
            </g>
            <g id="t-Brand" transform="translate(401.000000, 372.000000)">
                <path d="M112.079331,24.1744401 C112.079331,24.1744401 98.984155,25.8887403 95.2198714,23.1734298 C93.9431535,22.2524881 93.0535978,21.4331624 93.0504725,17.1633262 C93.0474998,13.1020285 92.9537389,10.0888518 94.7482274,9.0185105 C96.848395,7.76584364 101.752612,8.01249835 103.735068,10.1056702 C105.010649,11.4524909 104.162832,13.1868617 103.735067,17.163326 C103.735067,18.369144 99.326991,17.6545751 98.0991345,17.1633262 C96.871278,16.6720774 95.9632659,13.1883984 95.9116968,13.3463366 C95.2205645,15.4630338 95.1792826,17.5512528 96.9944725,18.3691442 C98.8096625,19.1870356 106.080202,22.1422038 106.93579,18.7183746 C107.974388,14.5621868 108.358095,8.6119818 106.935789,6.77978043 C105.513483,4.94757906 97.6614788,1.23118741 89.6906405,5.29059506 C86.8746971,6.76162207 82.1943891,22.1537502 83.2032574,26.1951161 C84.7561614,29.5381584 87.4443951,31.0642731 94.7482271,33.1484912 C102.052059,35.2327093 108.879781,33.5385131 108.879781,33.5385131 L112.079331,24.1744401 Z" id="Path-44" fill="#FFD086" transform="translate(97.571309, 18.826451) scale(-1, 1) rotate(16.000000) translate(-97.571309, -18.826451) "></path>
                <path d="M37.6919761,24.1744401 C37.6919761,24.1744401 24.5967998,25.8887403 20.8325163,23.1734298 C19.5557984,22.2524881 18.6662426,21.4331624 18.6631173,17.1633262 C18.6601447,13.1020285 18.5663837,10.0888518 20.3608722,9.0185105 C22.4610399,7.76584364 27.365257,8.01249835 29.3477124,10.1056702 C30.6232941,11.4524909 29.7754765,13.1868617 29.3477123,17.163326 C29.3477123,18.369144 24.9396358,17.6545751 23.7117793,17.1633262 C22.4839228,16.6720774 21.5759107,13.1883984 21.5243416,13.3463366 C20.8332093,15.4630338 20.7919274,17.5512528 22.6071174,18.3691442 C24.4223073,19.1870356 31.6928465,22.1422038 32.5484344,18.7183746 C33.5870329,14.5621868 33.9707394,8.6119818 32.5484336,6.77978043 C31.1261277,4.94757906 23.2741236,1.23118741 15.3032853,5.29059506 C12.4873419,6.76162207 7.8070339,22.1537502 8.8159022,26.1951161 C10.3688062,29.5381584 13.0570399,31.0642731 20.3608719,33.1484912 C27.6647039,35.2327093 34.4924256,33.5385131 34.4924256,33.5385131 L37.6919761,24.1744401 Z" id="Path-44" fill="#FFD086" transform="translate(23.183953, 18.826451) rotate(16.000000) translate(-23.183953, -18.826451) "></path>
                <path d="M23.9960304,56.1767235 C28.1983666,49.9286413 27.5495246,17.5686887 63.2646226,17.5686887 C98.9797206,17.5686887 98.9740213,47.4364412 102.242861,56.1767223 C105.5117,64.9170034 122.638585,72.3628818 124.042743,113.085684 C123.780745,134.719678 112.686036,138.891491 107.73168,149.304666 C101.863765,161.63798 109.519267,182.983978 95.2071345,183.355393 C80.8950022,183.726808 76.5477351,165.533047 69.8394151,158.64894 C67.5508026,156.300357 59.968472,152.881375 55.4161714,158.053368 C50.8638709,163.225361 56.0272843,185.750774 41.5713607,184.881957 C27.1154371,184.013141 21.8821837,163.811133 16.1676935,151.362991 C11.2373406,140.622972 1.24935035,140.821026 0.203274114,113.085684 C-0.193129756,80.019529 19.7936942,62.4248058 23.9960304,56.1767235 Z" id="Path-22" fill="#00BEBC" transform="translate(62.120101, 101.237557) scale(-1, 1) translate(-62.120101, -101.237557) "></path>
                <g id="Group-2" transform="translate(60.592940, 46.761095) scale(-1, 1) translate(-60.592940, -46.761095) translate(36.592940, 36.261095)">
                    <ellipse id="Oval-19" fill="#4A4A4A" cx="42.7380677" cy="5.34414037" rx="5.08528907" ry="5.01587622"></ellipse>
                    <ellipse id="Oval-22" fill="#F0F0F0" cx="41.4089581" cy="7.57779034" rx="1.38751178" ry="1.36857261"></ellipse>
                    <ellipse id="Oval-19" fill="#4A4A4A" cx="5.23406083" cy="5.34414037" rx="5.08528907" ry="5.01587622"></ellipse>
                    <ellipse id="Oval-22" fill="#F0F0F0" cx="6.9495467" cy="7.65207042" rx="1.4628198" ry="1.44285269"></ellipse>
                    <path d="M15.4331782,6.70289775 L31.5744472,6.59810942 C31.5744472,6.59810942 33.2120623,20.3974403 23.8374755,20.4007332 C14.4628888,20.404026 15.4331782,6.70289775 15.4331782,6.70289775 Z" id="Path-5" fill="#4A4A4A"></path>
                    <path d="M16.6759612,14.5481732 C16.6759612,14.5481732 22.4687328,12.2204483 23.997817,15.7686853 C24.2388363,12.3536247 30.8452623,13.7984518 30.8452623,13.7984518 C30.8452623,13.7984518 30.0446576,19.7855544 24.0449694,19.9586352 C18.0452811,20.131716 16.6759612,14.5481732 16.6759612,14.5481732 Z" id="Path-11" fill="#F2534A"></path>
                </g>
                <path d="M58.827053,152.995908 C86.6751716,154.15433 104.345157,145.813184 104.345157,116.076941 C104.345157,86.3406977 85.9837502,67.0280841 59.6207005,67.0280841 C33.2576508,67.0280841 17.1668035,86.325972 17.1668035,116.062215 C17.1668035,145.798459 30.9789344,151.837486 58.827053,152.995908 Z" id="Oval-27" fill="#4A4A4A" transform="translate(60.755980, 110.063693) scale(-1, 1) translate(-60.755980, -110.063693) "></path>
                <g id="Group-6" transform="translate(60.707745, 108.231595) scale(-1, 1) rotate(-15.000000) translate(-60.707745, -108.231595) translate(33.207745, 82.231595)" fill="#FFD087">
                    <path d="M27.6263251,44.1363073 C23.0255052,43.9925256 12.1191422,39.510491 13.0617313,26.4752237 C13.1291241,25.5432341 15.3413468,26.3099628 15.3413468,26.3099628 C15.3413468,26.3099628 13.9879947,40.575621 27.7646777,42.1498698 C38.9470727,42.5353994 38.3493647,28.1713308 38.3493647,28.1713308 C38.3493647,28.1713308 41.2334811,26.9824288 41.1248553,28.4846388 C40.1822662,41.5199062 32.227145,44.2800889 27.6263251,44.1363073" id="Oval-8"></path>
                    <path d="M14.6843109,18.2630631 C14.6843109,18.2630631 15.0133012,10.0853534 18.5770769,10.2329389 C22.1541265,10.129617 21.7465095,18.2622998 21.7465095,18.2622998 C21.7465095,18.2622998 23.1599183,18.7943029 23.1844488,18.3416644 C23.4660668,13.1452241 21.415545,8.81718625 18.6044801,8.67472134 C15.7934152,8.53225643 13.2863004,12.629313 13.0046824,17.8257534 C12.9748218,18.3767445 14.6843109,18.2630631 14.6843109,18.2630631" id="Oval-8"></path>
                    <path d="M39.2161378,18.2630631 C39.2161378,18.2630631 38.8871476,10.0853534 35.3233719,10.2329389 C31.7463223,10.129617 32.1539393,18.2622998 32.1539393,18.2622998 C32.1539393,18.2622998 30.7405304,18.7943029 30.7159999,18.3416644 C30.4343819,13.1452241 32.4849038,8.81718625 35.2959686,8.67472134 C38.1070335,8.53225643 40.6141483,12.629313 40.8957663,17.8257534 C40.925627,18.3767445 39.2161378,18.2630631 39.2161378,18.2630631" id="Oval-8"></path>
                    <path d="M27.0489351,51.0065633 C41.9876494,51.0065633 54.0978702,39.5883552 54.0978702,25.5032817 C54.0978702,11.4182081 41.9876494,-8.02913291e-13 27.0489351,-8.02913291e-13 C12.1102207,-8.02913291e-13 -2.30926389e-13,11.4182081 -2.30926389e-13,25.5032817 C-2.30926389e-13,39.5883552 12.1102207,51.0065633 27.0489351,51.0065633 Z M27.0489351,48.7178073 C40.6805119,48.7178073 51.7310884,38.3243101 51.7310884,25.5032817 C51.7310884,12.6822532 40.6805119,2.28875605 27.0489351,2.28875605 C13.4173582,2.28875605 2.36678182,12.6822532 2.36678182,25.5032817 C2.36678182,38.3243101 13.4173582,48.7178073 27.0489351,48.7178073 Z" id="Combined-Shape"></path>
                </g>
                <path d="M26.8227308,125.649024 C39.4178357,125.649024 36.134133,86.4958844 37.1760764,59.5321307 C27.5901389,64.05736 32.1257282,66.6976443 26.8227311,66.8875908 C21.7042137,67.0709294 22.3715587,68.4127325 16.3979496,72.0119749 C12.9723088,89.8138958 14.2276258,125.649024 26.8227308,125.649024 Z" id="Oval-28" fill="#00BEBC" transform="translate(25.967280, 92.590577) rotate(-25.000000) translate(-25.967280, -92.590577) "></path>
                <path d="M97.8227308,125.649024 C110.417836,125.649024 107.134133,86.4958844 108.176076,59.5321307 C98.5901389,64.05736 103.125728,66.6976443 97.8227311,66.8875908 C92.7042137,67.0709294 93.3715587,68.4127325 87.3979496,72.0119749 C83.9723088,89.8138958 85.2276258,125.649024 97.8227308,125.649024 Z" id="Oval-28" fill="#00BEBC" transform="translate(96.967280, 92.590577) scale(-1, 1) rotate(-25.000000) translate(-96.967280, -92.590577) "></path>
            </g>
            <rect id="Rectangle-36" fill="#FAFAFA" x="50" y="0" width="1" height="1"></rect>
        </g>
    </g>
</svg>