<?xml version="1.0" encoding="UTF-8" standalone="no"?>
<svg width="433px" height="658px" viewBox="0 0 433 658" version="1.1" xmlns="http://www.w3.org/2000/svg" xmlns:xlink="http://www.w3.org/1999/xlink">
    <!-- Generator: Sketch 39.1 (31720) - http://www.bohemiancoding.com/sketch -->
    <title>Break-through</title>
    <desc>Created with Sketch.</desc>
    <defs>
        <filter x="-50%" y="-50%" width="200%" height="200%" filterUnits="objectBoundingBox" id="filter-1">
            <feOffset dx="0" dy="2" in="SourceAlpha" result="shadowOffsetOuter1"></feOffset>
            <feGaussianBlur stdDeviation="2" in="shadowOffsetOuter1" result="shadowBlurOuter1"></feGaussianBlur>
            <feColorMatrix values="0 0 0 0 0   0 0 0 0 0   0 0 0 0 0  0 0 0 0.5 0" type="matrix" in="shadowBlurOuter1" result="shadowMatrixOuter1"></feColorMatrix>
            <feMerge>
                <feMergeNode in="shadowMatrixOuter1"></feMergeNode>
                <feMergeNode in="SourceGraphic"></feMergeNode>
            </feMerge>
        </filter>
        <filter x="-50%" y="-50%" width="200%" height="200%" filterUnits="objectBoundingBox" id="filter-2">
            <feOffset dx="0" dy="1" in="SourceAlpha" result="shadowOffsetOuter1"></feOffset>
            <feGaussianBlur stdDeviation="1" in="shadowOffsetOuter1" result="shadowBlurOuter1"></feGaussianBlur>
            <feColorMatrix values="0 0 0 0 0   0 0 0 0 0   0 0 0 0 0  0 0 0 0.25 0" type="matrix" in="shadowBlurOuter1" result="shadowMatrixOuter1"></feColorMatrix>
            <feMerge>
                <feMergeNode in="shadowMatrixOuter1"></feMergeNode>
                <feMergeNode in="SourceGraphic"></feMergeNode>
            </feMerge>
        </filter>
        <polygon id="path-3" points="0 35.9737473 0 9.12990284 13.0753585 0 312.728151 0 325 9.12990284 325 35.9737473 312.728151 45 13.0753585 45"></polygon>
        <mask id="mask-4" maskContentUnits="userSpaceOnUse" maskUnits="objectBoundingBox" x="0" y="0" width="325" height="45" fill="white">
            <use xlink:href="#path-3"></use>
        </mask>
    </defs>
    <g id="Characters" stroke="none" stroke-width="1" fill="none" fill-rule="evenodd">
        <g id="Break-through" transform="translate(2.000000, 0.000000)">
            <g id="Break-Through" transform="translate(147.000000, 124.000000)">
                <path d="M210,99.6590685 C223.290337,90.1656233 261.33413,74.1092857 259.829568,63.3679035 C257.70567,48.2049577 248.10766,11.5596168 246.015095,7.79980033 C243.92253,4.03998383 240.835213,3.43092412 242.821662,0.322961988 C244.80811,-2.78500015 256.445094,17.25742 259.456831,29.5792252 C262.468568,41.9010303 272.283581,27.9683794 274.726985,24.3613335 C277.170389,20.7542876 272.067826,6.94678062 274.087993,7.98014925 C276.10816,9.01351787 280.206895,17.6120044 280.067187,22.7603547 C279.927479,27.9087051 275.886637,33.1739766 272.104598,36.5287722 C271.021129,37.4898459 266.357406,42.0131184 264.242782,43.0060495 C261.279142,44.3976402 271.902289,60.6939993 268.797413,71.2696295 C266.206177,80.095734 234.86135,112.187146 224.56152,122.56336" id="Right-Antler" fill="#423636"></path>
                <path d="M0,99.6590685 C13.2903374,90.1656233 51.3341302,74.1092857 49.8295678,63.3679035 C47.7056699,48.2049577 38.1076604,11.5596168 36.0150951,7.79980033 C33.9225298,4.03998383 30.8352134,3.43092412 32.8216618,0.322961988 C34.8081101,-2.78500015 46.4450942,17.25742 49.4568309,29.5792252 C52.4685676,41.9010303 62.2835806,27.9683794 64.7269848,24.3613335 C67.170389,20.7542876 62.0678259,6.94678062 64.0879927,7.98014925 C66.1081596,9.01351787 70.206895,17.6120044 70.0671871,22.7603547 C69.9274791,27.9087051 65.886637,33.1739766 62.1045981,36.5287722 C61.0211287,37.4898459 56.357406,42.0131184 54.242782,43.0060495 C51.2791415,44.3976402 61.9022888,60.6939993 58.7974135,71.2696295 C56.2061774,80.095734 24.8613502,112.187146 14.5615204,122.56336" id="Right-Antler" fill="#423636" transform="translate(35.035335, 61.281680) scale(-1, 1) translate(-35.035335, -61.281680) "></path>
                <g id="Striped-Shirt" filter="url(#filter-1)" transform="translate(3.800038, 244.163404)">
                    <path d="M52.7686785,2.44357049 C4.87542341,68.9497062 0.116734135,182.077837 0.116734135,182.077837 C0.116734135,182.077837 41.8729373,217.767015 133.220251,217.34867 C224.567564,216.930326 275.471376,182.077837 275.471376,182.077837 C275.471376,182.077837 264.7292,66.4196551 215.882895,0.249074714" id="Path-5" fill="#F2534A"></path>
                    <path d="M26.8730722,51.9754501 C74.6070015,75.8654218 113.487982,82.7071612 134.244198,83.1864753 C155.000414,83.6657893 210.937839,72.0997 244.474534,53.2124455 C250.791117,66.8782268 255.040973,83.5948918 255.040973,83.5948918 C255.040973,83.5948918 144.700588,153.145214 16.8103527,82.6889369 C19.5079322,70.1519982 24.166865,58.2755542 26.8730722,51.9754501 Z" id="Path-45" fill="#00BEBC"></path>
                    <path d="M51.9737912,3.70564773 C99.7077205,27.5956194 120.05502,22.6630573 138.416387,24.0555654 C156.777754,25.4480735 219.353576,5.06473348 219.353576,5.06473348 C219.353576,5.06473348 226.959054,15.7081065 232.42087,26.954962 C234.444342,29.4065588 183.043338,53.8744462 136.882494,53.1061658 C90.7216502,52.3378855 78.5367973,49.434851 38.1379114,27.1786162 C42.7115262,15.6549474 47.9427599,9.17366261 51.9737912,3.70564773 Z" id="Path-45" fill="#00BEBC"></path>
                    <path d="M8.26805039,118.469336 C8.26805039,118.469336 3.03037269,147.369929 2.90961701,152.968674 C114.966768,211.005691 246.657904,166.259034 270.660734,152.366786 C268.548018,134.042646 266.545444,129.310858 264.934948,118.723768 C124.074088,185.522186 8.26805039,118.469336 8.26805039,118.469336 Z" id="Path-46" fill="#00BEBC"></path>
                </g>
                <path d="M44.7795323,115.519549 C44.1516302,116.923009 43.5539464,118.34297 42.9873095,119.778603 C38.3277224,131.584141 42.1273095,161.27714 43.4778439,173.649556 C44.8283783,186.021971 60.402581,253.376046 63.8770133,255.403862 C67.3514455,257.431677 83.0659498,238.652388 87.0929652,249.35395 C90.3842798,258.10043 99.323277,267.666175 105.080464,273.706733 C110.639808,279.539711 122.202481,253.548382 128.426251,255.403862 C132.458718,256.606053 133.027858,281.688499 139.244451,281.688499 C145.461044,281.688499 150.435674,255.547584 152.701352,255.403862 C156.301256,255.175504 166.716889,291.742418 172.356282,273.706733 C175.557473,263.468813 187.492228,250.49203 191.227681,255.403862 C194.072808,259.144983 199.863611,272.896026 205.77448,263.021843 C211.685349,253.147659 221.300455,253.455762 230.898714,198.143194 C233.104086,185.434136 240.814207,132.385912 236.426814,120.884465 C235.901885,119.508376 235.348553,118.146333 234.767534,116.799056 C234.767534,116.799056 214.564635,64.734375 152.701354,53.4453125 C90.8380729,42.15625 49.6115104,105.832031 49.6115104,105.832031" id="Beard" stroke="#FFD087" fill="#FFD087"></path>
                <g id="Crown" transform="translate(37.000000, 5.000000)">
                    <path d="M38.2236759,111.428586 C23.0260272,111.400189 11.0200629,111.411535 5.21172213,111.320537 C-0.765755255,110.882891 -0.681160467,106.513299 2.23447539,104.805288 C2.29355771,104.675985 2.4982512,104.554262 2.84077689,104.439826 L0.612980888,50.5750848 L52.3949819,86.7464103 L103.928431,0.922910638 L154.639122,86.38489 L206.949677,50.7111627 L204.440429,106.852784 C206.963918,108.629159 205.469406,111.786654 203.223298,112.183741 C200.154704,112.726235 186.94052,112.861847 170.530628,112.800027 M140.288361,112.451641 C124.729304,112.262719 110.862825,112.111043 100.93338,111.937551 C89.1671619,111.731967 77.2465484,111.610472 65.9401811,111.536732" fill="#FADAA8"></path>
                    <ellipse id="Oval-9" fill="#F2534A" cx="188.301074" cy="85.81702" rx="5.85543888" ry="9.21055189"></ellipse>
                    <ellipse id="Oval-9" fill="#F2534A" cx="105.474118" cy="73.3675385" rx="15.8205957" ry="24.2823641"></ellipse>
                    <ellipse id="Oval-9" fill="#F2534A" cx="16.4638274" cy="85.81702" rx="5.85543888" ry="9.21055189"></ellipse>
                </g>
                <ellipse id="Oval-3" fill="#FFFFFF" cx="89.2319196" cy="138.252323" rx="17.5663166" ry="36.0048846"></ellipse>
                <ellipse id="Oval-5" fill="#00BEBC" cx="90.3407505" cy="142.055965" rx="8.36491269" ry="22.6077183"></ellipse>
                <ellipse id="Oval-6" stroke="#4A4A4A" fill="#423636" cx="91.3588015" cy="140.7448" rx="2.50947381" ry="7.53590609"></ellipse>
                <path d="M192.334268,174.257208 C202.035876,174.257208 209.900584,158.137272 209.900584,138.252323 C209.900584,130.375607 208.666559,123.089646 206.573155,117.162337 C203.381713,108.12602 198.192929,102.247438 192.334268,102.247438 C186.482939,102.247438 181.299811,108.111315 178.107372,117.128425 C176.00669,123.061846 174.767951,130.360578 174.767951,138.252323 C174.767951,158.137272 182.632659,174.257208 192.334268,174.257208 Z" id="Oval-3" fill="#FFFFFF"></path>
                <ellipse id="Oval-5" fill="#00BEBC" cx="193.443098" cy="142.055965" rx="8.36491269" ry="22.6077183"></ellipse>
                <ellipse id="Oval-6" stroke="#4A4A4A" fill="#423636" cx="191.024404" cy="140.7448" rx="2.50947381" ry="7.53590609"></ellipse>
                <path d="M119.856806,161.015982 L163.248828,161.015982 C163.248828,161.015982 167.684177,198.36579 142.465393,198.374771 C117.246609,198.383752 119.856806,161.015982 119.856806,161.015982 Z" id="Path-5" fill="#4A4A4A"></path>
                <path d="M123.216777,184.243695 C123.216777,184.243695 138.80004,177.895175 142.913464,187.572458 C143.561835,178.258394 161.333929,182.198942 161.333929,182.198942 C161.333929,182.198942 159.180204,198.527866 143.04031,198.999918 C126.900415,199.471969 123.216777,184.243695 123.216777,184.243695 Z" id="Path-11" fill="#F2534A"></path>
                <rect id="Rectangle-11" fill="#FAFAFA" x="27" y="143" width="14" height="9"></rect>
            </g>
            <g id="t-Break-Through" filter="url(#filter-2)" transform="translate(82.000000, 462.500000) scale(-1, 1) translate(-82.000000, -462.500000) translate(0.000000, 376.000000)">
                <g id="Group" transform="translate(39.902627, 0.000000)">
                    <path d="M39.285972,11.9391241 C39.285972,11.9391241 26.1907957,13.6534242 22.4265122,10.9381137 C21.1497943,10.0171721 20.2602385,9.19784636 20.2571132,4.92801019 C20.2541406,0.866712445 9.40102981,9.91843417 10.4098981,13.9598001 C11.9628021,17.3028423 14.6510359,18.8289571 21.9548678,20.9131752 C29.2586998,22.9973933 36.0864215,21.303197 36.0864215,21.303197 L39.285972,11.9391241 Z" id="Path-44" fill="#FFD086" transform="translate(24.814827, 12.928037) rotate(16.000000) translate(-24.814827, -12.928037) "></path>
                    <path d="M117.095803,11.9391241 C117.095803,11.9391241 104.000627,13.6534242 100.236344,10.9381137 C98.9596257,10.0171721 98.0700699,9.19784636 98.0669446,4.92801019 C98.063972,0.866712445 87.2108612,9.91843417 88.2197295,13.9598001 C89.7726335,17.3028423 92.4608672,18.8289571 99.7646992,20.9131752 C107.068531,22.9973933 113.896253,21.303197 113.896253,21.303197 L117.095803,11.9391241 Z" id="Path-44" fill="#FFD086" transform="translate(102.624658, 12.928037) scale(-1, 1) rotate(16.000000) translate(-102.624658, -12.928037) "></path>
                    <path d="M23.8532021,44.1767235 C28.0555383,37.9286413 27.4066963,5.5686887 63.1217943,5.5686887 C98.8368923,5.5686887 98.831193,35.4364412 102.100032,44.1767223 C105.368872,52.9170034 122.495757,60.3628818 123.899915,101.085684 C123.637917,122.719678 112.543207,126.891491 107.588852,137.304666 C101.720936,149.63798 109.376438,170.983978 95.0643062,171.355393 C80.7521739,171.726808 76.4049067,153.533047 69.6965868,146.64894 C67.4079742,144.300357 59.8256437,140.881375 55.2733431,146.053368 C50.7210425,151.225361 55.8844559,173.750774 41.4285324,172.881957 C26.9726088,172.013141 21.7393553,151.811133 16.0248652,139.362991 C11.0945123,128.622972 1.10652204,128.821026 0.0604458018,101.085684 C-0.335958069,68.019529 19.6508659,50.4248058 23.8532021,44.1767235 Z" id="Path-22" fill="#00BEBC"></path>
                    <g id="Group-2" transform="translate(36.504434, 19.261095)">
                        <ellipse id="Oval-19" fill="#4A4A4A" cx="7.23342228" cy="7.22957632" rx="7.08465052" ry="6.90131217"></ellipse>
                        <path d="M8.83066443,8.43107979 C10.3939972,8.43107979 11.6613289,7.19654448 11.6613289,5.673668 C11.6613289,4.15079152 10.3939972,2.91625621 8.83066443,2.91625621 C7.26733163,2.91625621 6,4.15079152 6,5.673668 C6,7.19654448 7.26733163,8.43107979 8.83066443,8.43107979 Z" id="Oval-22" fill="#F0F0F0"></path>
                        <ellipse id="Oval-19" fill="#4A4A4A" transform="translate(45.084651, 6.901312) scale(-1, 1) translate(-45.084651, -6.901312) " cx="45.0846505" cy="6.90131217" rx="7.08465052" ry="6.90131217"></ellipse>
                        <path d="M42.8306644,8.43107979 C44.3939972,8.43107979 45.6613289,7.19654448 45.6613289,5.673668 C45.6613289,4.15079152 44.3939972,2.91625621 42.8306644,2.91625621 C41.2673316,2.91625621 40,4.15079152 40,5.673668 C40,7.19654448 41.2673316,8.43107979 42.8306644,8.43107979 Z" id="Oval-22" fill="#F0F0F0"></path>
                        <path d="M18.4331782,11.7028977 L34.5744472,11.5981094 C34.5744472,11.5981094 36.2120623,25.3974403 26.8374755,25.4007332 C17.4628888,25.404026 18.4331782,11.7028977 18.4331782,11.7028977 Z" id="Path-5" fill="#4A4A4A"></path>
                        <path d="M19.6759612,19.5481732 C19.6759612,19.5481732 25.4687328,17.2204483 26.997817,20.7686853 C27.2388363,17.3536247 33.8452623,18.7984518 33.8452623,18.7984518 C33.8452623,18.7984518 33.0446576,24.7855544 27.0449694,24.9586352 C21.0452811,25.131716 19.6759612,19.5481732 19.6759612,19.5481732 Z" id="Path-11" fill="#F2534A"></path>
                    </g>
                </g>
                <path d="M101.315093,140.995908 C129.163211,142.15433 146.833196,133.813184 146.833196,104.076941 C146.833196,74.3406977 128.47179,55.0280841 102.10874,55.0280841 C75.7456907,55.0280841 59.6548434,74.325972 59.6548434,104.062215 C59.6548434,133.798459 73.4669743,139.837486 101.315093,140.995908 Z" id="Oval-27" fill="#4A4A4A"></path>
                <path d="M133.170431,123.154989 C145.765536,123.154989 142.481833,84.0018495 143.523777,57.0380958 C137.911024,29.0826475 138.473428,64.2036094 133.170431,64.3935559 C128.051914,64.5768946 128.719259,65.9186976 122.74565,69.51794 C119.320009,87.3198609 120.575326,123.154989 133.170431,123.154989 Z" id="Oval-28" fill="#00BEBC" transform="translate(132.314981, 84.696252) scale(-1, 1) translate(-132.314981, -84.696252) "></path>
                <path d="M40.8066829,106.993498 C53.4017878,106.993498 50.118085,67.8403583 51.1600285,40.8766046 C45.5472759,12.9211563 46.1096803,48.0421182 40.8066832,48.2320647 C35.6881658,48.4154034 36.3555107,49.7572064 30.3819017,53.3564488 C26.9562609,71.1583697 28.2115779,106.993498 40.8066829,106.993498 Z" id="Oval-28" fill="#00BEBC" transform="translate(39.951233, 68.534761) scale(-1, 1) rotate(-67.000000) translate(-39.951233, -68.534761) "></path>
            </g>
            <g id="Plaque" transform="translate(62.666667, 613.000000)">
                <g id="Group" stroke-width="1" fill-rule="evenodd">
                    <use id="Rectangle-28" stroke="#FADAA8" mask="url(#mask-4)" stroke-width="8" fill="#FFC871" xlink:href="#path-3"></use>
                    <circle id="Oval-17" fill="#FADAA8" cx="313.5" cy="12.5" r="2.5"></circle>
                    <circle id="Oval-17" fill="#FADAA8" cx="313.5" cy="32.5" r="2.5"></circle>
                    <circle id="Oval-17" fill="#FADAA8" cx="11.5" cy="12.5" r="2.5"></circle>
                    <circle id="Oval-17" fill="#FADAA8" cx="11.5" cy="32.5" r="2.5"></circle>
                </g>
                <text id="BREAK-THROUGH-ARTIST" font-family="RobotoSlab-Regular, Roboto Slab" font-size="22" font-weight="normal" letter-spacing="0.240901098" fill="#FFFFFF">
                    <tspan x="22.3971414" y="30">BREAK-THROUGH ARTIST</tspan>
                </text>
            </g>
            <rect id="Rectangle-36" fill="#FAFAFA" x="144" y="0" width="1" height="1"></rect>
        </g>
    </g>
</svg>