<?xml version="1.0" encoding="UTF-8" standalone="no"?>
<svg width="343px" height="524px" viewBox="0 0 343 524" version="1.1" xmlns="http://www.w3.org/2000/svg" xmlns:xlink="http://www.w3.org/1999/xlink">
    <!-- Generator: Sketch 3.8.3 (29802) - http://www.bohemiancoding.com/sketch -->
    <title>Character</title>
    <desc>Created with Sketch.</desc>
    <defs>
        <filter x="-50%" y="-50%" width="200%" height="200%" filterUnits="objectBoundingBox" id="filter-1">
            <feOffset dx="0" dy="2" in="SourceAlpha" result="shadowOffsetOuter1"></feOffset>
            <feGaussianBlur stdDeviation="1.5" in="shadowOffsetOuter1" result="shadowBlurOuter1"></feGaussianBlur>
            <feColorMatrix values="0 0 0 0 0   0 0 0 0 0   0 0 0 0 0  0 0 0 0.25 0" type="matrix" in="shadowBlurOuter1" result="shadowMatrixOuter1"></feColorMatrix>
            <feMerge>
                <feMergeNode in="shadowMatrixOuter1"></feMergeNode>
                <feMergeNode in="SourceGraphic"></feMergeNode>
            </feMerge>
        </filter>
    </defs>
    <g id="Characters" stroke="none" stroke-width="1" fill="none" fill-rule="evenodd">
        <g id="Character" filter="url(#filter-1)" transform="translate(3.000000, 1.000000)">
            <g id="Striped-Shirt" transform="translate(31.800038, 300.163404)">
                <path d="M52.7686785,2.44357049 C4.87542341,68.9497062 0.116734135,182.077837 0.116734135,182.077837 C0.116734135,182.077837 41.8729373,217.767015 133.220251,217.34867 C224.567564,216.930326 275.471376,182.077837 275.471376,182.077837 C275.471376,182.077837 264.7292,66.4196551 215.882895,0.249074714" id="Path-5" fill="#F2534A"></path>
                <path d="M26.8730722,51.9754501 C74.6070015,75.8654218 113.487982,82.7071612 134.244198,83.1864753 C155.000414,83.6657893 210.937839,72.0997 244.474534,53.2124455 C250.791117,66.8782268 255.040973,83.5948918 255.040973,83.5948918 C255.040973,83.5948918 144.700588,153.145214 16.8103527,82.6889369 C19.5079322,70.1519982 24.166865,58.2755542 26.8730722,51.9754501 Z" id="Path-45" fill="#00BEBC"></path>
                <path d="M51.9737912,3.70564773 C99.7077205,27.5956194 120.05502,22.6630573 138.416387,24.0555654 C156.777754,25.4480735 219.353576,5.06473348 219.353576,5.06473348 C219.353576,5.06473348 226.959054,15.7081065 232.42087,26.954962 C234.444342,29.4065588 183.043338,53.8744462 136.882494,53.1061658 C90.7216502,52.3378855 78.5367973,49.434851 38.1379114,27.1786162 C42.7115262,15.6549474 47.9427599,9.17366261 51.9737912,3.70564773 Z" id="Path-45" fill="#00BEBC"></path>
                <path d="M8.26805039,118.469336 C8.26805039,118.469336 3.03037269,147.369929 2.90961701,152.968674 C114.966768,211.005691 246.657904,166.259034 270.660734,152.366786 C268.548018,134.042646 266.545444,129.310858 264.934948,118.723768 C124.074088,185.522186 8.26805039,118.469336 8.26805039,118.469336 Z" id="Path-46" fill="#00BEBC"></path>
            </g>
            <path d="M72.7795323,171.519549 C72.1516302,172.923009 71.5539464,174.34297 70.9873095,175.778603 C66.3277224,187.584141 70.1273095,217.27714 71.4778439,229.649556 C72.8283783,242.021971 90.8164929,336.580294 94.2909252,338.60811 C97.7653575,340.635925 108.881665,300.702304 112.908681,311.403867 C135.920236,372.555753 161.801677,414.612376 165.401581,414.384018 C169.001485,414.155661 190.534753,360.578396 196.174146,342.542711 C201.81354,324.507027 212.969137,318.464684 213.126547,364.985698 C218.91024,359.283043 226.091221,339.580913 232.002091,329.70673 C237.91296,319.832546 249.300455,309.455762 258.898714,254.143194 C261.104086,241.434136 268.814207,188.385912 264.426814,176.884465 C263.901885,175.508376 263.348553,174.146333 262.767534,172.799056 C262.767534,172.799056 242.564635,120.734375 180.701354,109.445312 C118.838073,98.15625 77.6115104,161.832031 77.6115104,161.832031" id="Beard" stroke="#FFD087" fill="#FFD087"></path>
            <path d="M270.562,143.580028 C283.852337,134.086583 306.421363,116.242454 304.916801,105.501071 C302.792903,90.3381255 293.194894,53.6927847 291.102328,49.9329682 C289.009763,46.1731517 285.414001,52.0474829 269.249869,53.2556678 C258.899359,50.6657693 269.873899,30.5962149 270.29348,29.2822525 C270.713061,27.9682901 268.79759,46.777777 271.216468,47.0970578 C273.629273,47.4155368 285.922446,45.564092 287.908895,42.4561299 C289.895343,39.3481677 286.967584,15.1393818 289.886945,8.75304305 C292.806307,2.36670434 334.772139,-1.45966195 337.207474,0.526533987 C339.64281,2.51272992 297.900684,9.2398323 295.278298,11.5163553 C292.655911,13.7928784 297.03419,37.221426 297.03419,37.221426 C297.03419,37.221426 301.532327,59.3905879 304.544064,71.712393 C307.555801,84.0341982 317.370814,70.1015473 319.814218,66.4945014 C322.257622,62.8874554 317.155059,49.0799485 319.175226,50.1133171 C321.195393,51.1466857 325.294128,59.7451722 325.15442,64.8935226 C325.014712,70.0418729 320.97387,75.3071444 317.191831,78.66194 C316.108362,79.6230137 311.444639,84.1462863 309.330015,85.1392174 C306.366375,86.530808 316.989522,102.827167 313.884647,113.402797 C311.293411,122.228902 279.948583,154.320313 269.648753,164.696528" id="Right-Antler" fill="#423636"></path>
            <path d="M66.7351034,143.570831 C53.4430709,134.075062 30.8891009,116.238986 32.3931776,105.501071 C34.5170755,90.3381255 44.1150849,53.6927847 46.2076503,49.9329682 C48.3002156,46.1731517 51.8959773,52.0474829 68.0601092,53.2556678 C78.4106199,50.6657693 67.4360799,30.5962149 67.0164986,29.2822525 C66.5969173,27.9682901 68.5123884,46.777777 66.0935101,47.0970578 C63.6807059,47.4155368 51.387532,45.564092 49.4010836,42.4561299 C47.4146352,39.3481677 50.3423945,15.1393818 47.423033,8.75304305 C44.5036715,2.36670434 2.53783964,-1.45966195 0.102504118,0.526533987 C-2.33283141,2.51272992 39.4092941,9.2398323 42.0316808,11.5163553 C44.6540675,13.7928784 40.2757887,37.221426 40.2757887,37.221426 C40.2757887,37.221426 35.7776511,59.3905879 32.7659145,71.712393 C29.7541778,84.0341982 19.9391648,70.1015473 17.4957606,66.4945014 C15.0523564,62.8874554 20.1549195,49.0799485 18.1347526,50.1133171 C16.1145858,51.1466857 12.0158503,59.7451722 12.1555583,64.8935226 C12.2952662,70.0418729 16.3361084,75.3071444 20.1181473,78.66194 C21.2016166,79.6230137 25.8653394,84.1462863 27.9799633,85.1392174 C30.9436038,86.530808 20.3204566,102.827167 23.4253319,113.402797 C25.9821339,122.111615 56.533411,153.471518 67.23958,164.271472" id="Left-Antler" fill="#423636"></path>
            <g id="Crown" transform="translate(65.000000, 61.000000)">
                <path d="M38.2236759,111.428586 C23.0260272,111.400189 11.0200629,111.411535 5.21172213,111.320537 C-0.765755255,110.882891 -0.681160467,106.513299 2.23447539,104.805288 C2.29355771,104.675985 2.4982512,104.554262 2.84077689,104.439826 L0.612980888,50.5750848 L52.3949819,86.7464103 L103.928431,0.922910638 L154.639122,86.38489 L206.949677,50.7111627 L204.440429,106.852784 C206.963918,108.629159 205.469406,111.786654 203.223298,112.183741 C200.154704,112.726235 186.94052,112.861847 170.530628,112.800027 M140.288361,112.451641 C124.729304,112.262719 110.862825,112.111043 100.93338,111.937551 C89.1671619,111.731967 77.2465484,111.610472 65.9401811,111.536732" fill="#FADAA8"></path>
                <ellipse id="Oval-9" fill="#F2534A" cx="188.301074" cy="85.81702" rx="5.85543888" ry="9.21055189"></ellipse>
                <ellipse id="Oval-9" fill="#F2534A" cx="105.474118" cy="73.3675385" rx="15.8205957" ry="24.2823641"></ellipse>
                <ellipse id="Oval-9" fill="#F2534A" cx="16.4638274" cy="85.81702" rx="5.85543888" ry="9.21055189"></ellipse>
            </g>
            <ellipse id="Oval-3" fill="#FFFFFF" cx="117.23192" cy="194.252323" rx="17.5663166" ry="36.0048846"></ellipse>
            <ellipse id="Oval-5" fill="#00BEBC" cx="118.34075" cy="198.055965" rx="8.36491269" ry="22.6077183"></ellipse>
            <ellipse id="Oval-6" stroke="#4A4A4A" fill="#423636" cx="119.358801" cy="196.7448" rx="2.50947381" ry="7.53590609"></ellipse>
            <path d="M220.334268,230.257208 C230.035876,230.257208 237.900584,214.137272 237.900584,194.252323 C237.900584,186.375607 236.666559,179.089646 234.573155,173.162337 C231.381713,164.12602 226.192929,158.247438 220.334268,158.247438 C214.482939,158.247438 209.299811,164.111315 206.107372,173.128425 C204.00669,179.061846 202.767951,186.360578 202.767951,194.252323 C202.767951,214.137272 210.632659,230.257208 220.334268,230.257208 Z" id="Oval-3" fill="#FFFFFF"></path>
            <ellipse id="Oval-5" fill="#00BEBC" cx="221.443098" cy="198.055965" rx="8.36491269" ry="22.6077183"></ellipse>
            <ellipse id="Oval-6" stroke="#4A4A4A" fill="#423636" cx="219.024404" cy="196.7448" rx="2.50947381" ry="7.53590609"></ellipse>
            <path d="M147.856806,217.015982 L191.278793,216.730187 C191.278793,216.730187 195.684177,254.36579 170.465393,254.374771 C145.246609,254.383752 147.856806,217.015982 147.856806,217.015982 Z" id="Path-5" fill="#4A4A4A"></path>
            <path d="M151.216777,240.243695 C151.216777,240.243695 166.80004,233.895175 170.913464,243.572458 C171.561835,234.258394 189.333929,238.198942 189.333929,238.198942 C189.333929,238.198942 187.180204,254.527866 171.04031,254.999918 C154.900415,255.471969 151.216777,240.243695 151.216777,240.243695 Z" id="Path-11" fill="#F2534A"></path>
        </g>
    </g>
</svg>