<?xml version="1.0" encoding="UTF-8" standalone="no"?>
<svg width="199px" height="204px" viewBox="0 0 199 204" version="1.1" xmlns="http://www.w3.org/2000/svg" xmlns:xlink="http://www.w3.org/1999/xlink">
    <!-- Generator: Sketch 42 (36781) - http://www.bohemiancoding.com/sketch -->
    <title>Group 38</title>
    <desc>Created with Sketch.</desc>
    <defs></defs>
    <g id="Characters" stroke="none" stroke-width="1" fill="none" fill-rule="evenodd">
        <g id="Group-38">
            <path d="M101.104839,202.393701 C143.343015,202.393701 179.531721,176.469271 194.654723,139.650313 C199.524255,127.794789 194.654723,126.38232 194.654723,112.769459 C194.654723,112.745458 188.250456,107.0957 176.910423,111.324448 C165.57039,115.553196 166.813696,114.060744 163.203576,114.060744 C151.671665,114.060744 150.936732,116.687945 145.839924,118.080186 C124.544654,123.897192 138.568567,117.328287 136.092939,118.080186 C118.360131,123.466008 122.720135,129.668271 121.516433,130.652654 C117.307238,134.094918 105.843688,137.941966 95.4198986,134.094918 C50.6992807,117.590134 79.1474779,77.6074221 79.6764158,79.5040008 C82.1577256,88.4010737 90.4268977,92.1018507 95.4198986,93.3658307 C101.104839,94.8049753 105.4028,92.7693366 114.272149,88.4010737 C117.6657,86.7297083 134.431724,94.4868398 131.161073,93.3658307 C127.673511,92.1704759 138.450441,90.5368482 145.839924,87.1353046 C148.824963,85.7612243 149.777618,89.0550786 154.410259,89.6256417 C157.125565,89.9600629 162.582773,84.7847227 166.500922,84.3895482 C170.419071,83.9943738 171.246511,88.6903485 171.040429,88.4010737 C167.832775,83.8985261 190.406895,83.4681137 190.346234,82.5037893 C190.21194,80.368934 196.963422,65.9922109 190.346234,53.5910265 C173.329689,21.7005447 139.749176,0 101.104839,0 C45.2661782,0 0,45.3073732 0,101.19685 C0,157.086328 45.2661782,202.393701 101.104839,202.393701 Z" id="Oval-26" fill="#FAFAFA"></path>
            <path d="M117.684427,140.255622 C93.2748306,149.459717 69.6323468,139.487811 59.9455403,114.701008 C63.938379,137.166709 80.5805565,144.733984 80.5805565,144.733984 C59.7818468,137.953795 52.7574677,115.526646 52.7574677,115.526646 C55.2931129,136.639843 72.4520484,147.97389 72.4520484,147.97389 C51.6822258,137.166709 44.6530323,116.341039 44.6530323,116.341039 C47.7407419,138.723213 63.9977581,150.951969 63.9977581,150.951969 C43.6371694,137.166709 37.2787984,117.401197 37.2787984,117.401197 C39.2800323,139.124787 54.964121,154.170992 54.964121,154.170992 C33.9471532,139.487811 28.7234032,118.175433 28.7234032,118.175433 C32.0213468,142.820882 47.849871,159.099118 47.849871,159.099118 C47.849871,159.099118 54.1440484,168.192378 73.7648065,168.523276 C93.3839597,168.850961 113.304823,159.539244 117.684427,140.255622" id="Fill-13" fill="#685353"></path>
            <path d="M192.23079,120.973606 C192.174621,123.365386 191.728476,124.769291 191.474911,125.721827 C191.221347,126.675969 191.421952,128.707937 189.772177,133.509165 C185.269,146.587654 176.082903,165.603024 155.404556,179.642079 C139.94675,190.139244 121.728621,196.529102 101.324702,196.529102 C49.0454758,196.529102 6.51404032,153.738898 6.51404032,101.415307 C6.51404032,49.0901102 49.0454758,6.5215748 101.324702,6.5215748 C122.03996,6.5215748 141.28679,12.6753071 156.760645,23.8246299 C153.498008,25.8887244 154.42079,34.5547087 163.395048,45.2574803 C172.560282,56.1867402 182.048089,60.9333543 186.854581,59.2322835 C187.472444,60.6410079 188.011669,62.0609764 188.462629,63.4954016 L188.481887,63.5564409 L188.520403,63.6881575 C189.011484,65.467937 188.60546,66.6774803 188.802855,68.2082835 C189.051605,70.1390551 190.202274,70.4265827 190.202274,74.5274646 C190.202274,78.6283465 187.332823,81.5550236 183.487629,80.939811 C183.62404,80.4161575 183.728355,79.8732283 183.797363,79.3142362 C184.684839,72.1388976 179.632806,67.588252 179.632806,67.588252 C179.632806,67.588252 181.463927,70.5406299 180.918282,75.2021102 C180.168823,81.5775118 173.455782,85.3105512 167.453685,81.5309291 C168.402145,76.4341417 166.120065,70.1936693 163.451218,68.2082835 C163.451218,68.2082835 165.176419,71.5815118 164.375605,77.1505512 C163.395048,84.0014173 158.044516,87.043748 152.623371,86.3225197 C150.561153,86.0478425 148.45721,85.1467087 146.972734,83.7668976 C147.635532,78.7729134 147.728613,74.7378898 143.668371,69.5206299 C143.668371,69.5206299 145.213831,74.7137953 144.034274,80.016189 C142.639669,86.292 136.668065,90.6804094 130.269573,90.1133858 C124.070081,89.5656378 119.765903,84.7451339 118.932992,80.2153701 C120.937435,68.8234961 130.070573,66.8091969 131.648129,67.223622 C127.563815,66.1570394 123.784419,66.9377008 120.715968,69.4820787 C118.016629,71.7228661 115.883798,75.3370394 114.381669,80.220189 C111.876516,88.3689449 103.683815,93.0015118 95.7366532,90.7655433 C87.7285081,88.5167244 83.0343548,80.1543307 85.2779194,72.1276535 C85.9519516,69.7101732 87.1892823,68.0107087 88.3864919,66.3674646 C90.3026694,63.7363465 92.6874597,60.4627087 90.2465,55.815685 C85.8315887,48.1520315 77.7014758,41.535685 63.3558226,41.535685 C48.4227984,41.535685 34.9886935,49.5173858 28.2900968,58.0612913 C19.2083145,69.6394961 14.1851694,86.2984252 14.5029274,103.760504 C14.636129,111.080409 16.1157903,120.014646 18.4540403,127.138583 C38.5450161,188.367496 108.161315,186.489732 123.93046,134.360504 C126.543137,125.728252 130.759048,121.11978 136.088718,121.11978 C145.159266,121.11978 149.859839,128.881417 148.601645,137.744976 C152.074516,133.150961 151.825766,126.133039 148.341661,121.078016 C148.341661,121.078016 152.312032,117.028535 158.176113,118.906299 C167.904645,122.020913 165.805516,133.615181 165.805516,133.615181 C168.999145,129.149669 168.930137,121.823339 165.434798,116.787591 C165.434798,116.787591 168.729532,113.521984 174.099323,115.258394 C182.755823,118.058173 180.89421,129.885354 180.89421,129.885354 C183.842298,125.761984 183.896863,118.223622 180.54275,113.424 C186.520774,109.965638 192.373621,114.794173 192.23079,120.973606 Z M159.784161,26.2469291 C173.58096,35.603622 182.540774,51.5365039 184.564476,55.3771654 C184.564476,55.3771654 182.158823,55.4189291 179.708234,53.8656378 C174.014266,42.4882205 163.058032,33.2279055 159.023468,29.8546772 C158.224258,26.6774173 159.784161,26.2469291 159.784161,26.2469291 Z M83.122621,62.5251969 C81.8018387,64.3371024 79.9947903,66.8188346 79.0013952,70.3687559 C78.6820323,71.5172598 78.4637742,72.6705827 78.3353871,73.8174803 C70.455629,80.4450709 65.4469274,90.3800315 65.4469274,101.489197 C65.4469274,121.449071 81.6108629,137.627717 101.550984,137.627717 C107.236927,137.627717 112.614742,136.310551 117.397161,133.968567 C99.5032097,183.651402 37.8950565,173.34378 23.8543226,125.339528 C16.924629,101.640189 21.9108629,76.6574173 33.3694113,62.0497323 C40.1065242,53.4576378 52.3642823,47.9946142 63.1696613,47.9946142 C78.3081048,47.9946142 81.5980242,53.4110551 84.4787097,58.8531969 C84.9360887,59.7222047 85.0307742,59.9037165 83.122621,62.5251969 Z M161.116177,112.881071 C157.200371,111.478772 149.755524,109.872472 143.212597,116.300882 C139.768613,114.603024 130.954839,112.206425 123.402468,120.464409 C117.520734,126.889606 110.350315,130.327087 101.550984,130.327087 C85.6390081,130.327087 72.7393145,117.41726 72.7393145,101.489197 C72.7393145,94.5098268 75.2203952,88.1103307 79.3464355,83.1211654 C81.5611129,89.6652283 86.8506613,95.0431181 93.9729355,97.0461732 C95.9228145,97.5939213 97.8807177,97.855748 99.8049194,97.855748 C105.991573,97.855748 111.664677,95.3145827 115.11829,90.6932598 C118.30229,94.0841575 122.757323,96.8180787 128.554,97.2228661 C135.016685,98.0324409 141.103839,94.9515591 144.498073,89.8338898 C146.459185,91.4434016 148.80225,92.2272756 151.938105,92.6433071 C157.590347,93.3950551 162.319806,91.1896063 165.068895,87.3023622 C166.699411,88.3817953 168.528927,89.1174803 170.478806,89.3600315 C174.381774,89.8435276 177.780823,88.7110866 180.180056,86.5168819 C188.146476,87.9207874 195.130734,83.9773228 195.130734,72.4248189 C195.130734,66.8252598 193.195298,51.1766929 174.413871,30.7815118 C155.725524,10.4891339 128.740161,0 101.324702,0 C87.6466613,0 74.3746452,2.68251969 61.8825806,7.97045669 C49.8174032,13.0784882 38.9815323,20.3903622 29.6766774,29.7020787 C20.3718226,39.0170079 13.0665968,49.8611339 7.96481452,61.9388976 C2.68008065,74.4423307 0,87.7248189 0,101.415307 C0,115.104189 2.68008065,128.388283 7.96481452,140.891717 C13.0665968,152.96948 20.3718226,163.815213 29.6766774,173.126929 C38.9815323,182.441858 49.8174032,189.75052 61.8825806,194.860157 C74.3746452,200.148094 87.6466613,203.050677 101.324702,203.050677 C122.216492,203.050677 141.184081,196.651181 157.957855,185.691402 C175.394427,174.293102 189.677492,156.00378 196.177089,134.807055 C205.143323,105.561165 184.882234,101.988756 175.729839,109.649197 C172.743234,108.338457 165.080129,107.970614 161.116177,112.881071 Z M153.504427,57.9665197 C153.103218,63.9467717 160.735831,65.3747717 161.446774,59.7607559 C165.083339,65.8968189 170.664968,61.3750866 167.466524,56.4806929 C164.062661,51.2650394 158.967298,46.0782992 153.075935,41.3220472 C154.488194,49.3503307 153.871935,52.5597165 153.504427,57.9665197 Z M81.2433548,20.1911811 L81.3348306,20.1397795 L81.7055484,19.9389921 C82.8369597,19.3494803 84.2572419,18.8499213 85.8749194,18.5559685 C86.0851532,18.5190236 86.2937823,18.483685 86.5088306,18.4547717 L86.7062258,18.4290709 C86.9854677,18.392126 87.2679194,18.36 87.5567903,18.3359055 C95.1942177,17.7239055 102.701653,18.4017638 109.873677,20.3453858 C123.763556,24.1137638 135.480484,32.7974173 139.025573,41.9565354 C139.094581,42.1380472 139.157169,42.3131339 139.218153,42.4914331 L139.259879,42.6279685 C139.306419,42.7725354 139.351355,42.9187087 139.391476,43.0616693 L139.418758,43.1548346 C139.722073,44.2872756 139.816758,45.3602835 139.69479,46.3545827 L139.69479,46.3610079 C139.654669,46.6774488 139.593685,46.9874646 139.511839,47.2894488 L139.473323,47.4227717 L139.381847,47.703874 L139.322468,47.8709291 L139.211734,48.1407874 L139.163589,48.2580472 C139.015944,48.5825197 138.837806,48.8973543 138.632387,49.196126 L138.632387,49.1977323 C138.534492,49.3439055 138.425363,49.4900787 138.313024,49.6330394 L138.30179,49.6458898 L137.961565,50.0314016 L137.943911,50.0506772 C137.768984,49.3294488 137.541097,48.6034016 137.255435,47.8725354 C133.021871,36.924 120.067613,27.0805984 104.251927,22.7869606 C96.6674597,20.7325039 88.744371,19.975937 80.6928952,20.5445669 C80.8646129,20.4257008 81.0475645,20.3084409 81.2433548,20.1911811 Z M76.2699597,28.4459528 C78.25675,30.0217323 81.1486694,31.4176063 84.9681855,32.4568819 C100.352169,36.6284409 105.166685,42.1525039 109.820718,47.4966614 C111.533081,49.4579528 113.300008,51.4867087 115.513081,53.3098583 C118.084032,55.4285669 121.14125,56.948126 124.169581,57.8588976 C134.02971,60.824126 148.060815,56.3120315 145.01804,41.8296378 C142.907677,31.7854488 129.178282,19.7414173 111.391855,14.8004409 C103.590734,12.6335433 95.4060565,11.8753701 87.1170645,12.6094488 C81.9703468,13.0640315 76.574879,15.4509921 74.2398387,19.1005039 C72.5322903,21.7669606 72.9447339,25.8148346 76.2699597,28.4459528 L76.2699597,28.4459528 Z" id="Fill-14" fill="#685353"></path>
            <path d="M83.6409839,63.5628661 C63.1744758,73.0207559 59.1046048,89.5045984 58.6761129,106.007717 C54.526,81.4233071 68.5362419,66.9425197 68.5362419,66.9425197 C50.148,81.5325354 51.1879355,106.786772 51.1879355,106.786772 C46.6446371,82.2987402 60.4847661,65.6173228 60.4847661,65.6173228 C42.4848952,82.1879055 43.7222258,107.795528 43.7222258,107.795528 C43.7222258,107.795528 38.5450161,83.9419843 52.4894597,64.2310866 C34.0562823,81.6433701 36.1377581,108.592252 36.1377581,108.592252 C30.7711774,81.3140787 42.924621,62.6874331 42.924621,62.6874331 C42.924621,62.6874331 27.5984113,76.9834961 27.8182742,109.689354 C21.9076532,71.3437795 38.1068952,54.908126 38.1068952,54.908126 C38.1068952,54.908126 44.3449032,44.0607874 61.3128629,44.2824567 C78.2792177,44.5009134 82.4389597,50.1968504 86.1605806,54.360378 C89.8822016,58.5239055 83.6409839,63.5628661 83.6409839,63.5628661" id="Fill-15" fill="#685353"></path>
        </g>
    </g>
</svg>