<?xml version="1.0" encoding="UTF-8" standalone="no"?>
<svg width="293px" height="300px" viewBox="0 0 293 300" version="1.1" xmlns="http://www.w3.org/2000/svg" xmlns:xlink="http://www.w3.org/1999/xlink">
    <!-- Generator: Sketch 42 (36781) - http://www.bohemiancoding.com/sketch -->
    <title>Group 38</title>
    <desc>Created with Sketch.</desc>
    <defs></defs>
    <g id="Characters" stroke="none" stroke-width="1" fill="none" fill-rule="evenodd">
        <g id="Group-38">
            <path d="M149.081705,298.724065 C211.36299,298.724065 264.724175,260.460764 287.023433,206.117626 C294.203685,188.619403 287.023433,186.534661 287.023433,166.442685 C287.023433,166.407262 277.580176,158.068471 260.859004,164.309914 C244.137831,170.551357 245.971118,168.348565 240.647902,168.348565 C223.6438,168.348565 222.560123,172.226196 215.044747,174.281082 C183.64432,182.866723 204.322942,173.171312 200.672566,174.281082 C174.52508,182.230315 180.954019,191.384578 179.179129,192.837484 C172.972562,197.91811 156.069261,203.596183 140.699113,197.91811 C74.7574032,173.557786 116.705007,114.54509 117.48494,117.344355 C121.143695,130.476037 133.336804,135.938219 140.699113,137.803797 C149.081705,139.92791 155.419161,136.923398 168.497245,130.476037 C173.501123,128.009177 198.223061,139.458356 193.400401,137.803797 C188.257901,136.039507 204.148763,133.628345 215.044747,128.607819 C219.446265,126.579737 220.850979,131.441319 227.681928,132.283445 C231.685717,132.777036 239.732512,125.138465 245.509924,124.555205 C251.287337,123.971945 252.507418,130.902994 252.203545,130.476037 C247.473776,123.830478 280.759901,123.195209 280.670454,121.771909 C280.472434,118.620958 290.427669,97.4015565 280.670454,79.0979621 C255.579118,32.029035 206.063782,0 149.081705,0 C66.7461527,0 0,66.8716597 0,149.362032 C0,231.852405 66.7461527,298.724065 149.081705,298.724065 Z" id="Oval-26" fill="#FAFAFA"></path>
            <path d="M173.528738,207.011035 C137.536155,220.595868 102.6747,205.87778 88.3912526,169.293566 C94.2787968,202.451937 118.818119,213.620898 118.818119,213.620898 C88.1498823,203.613642 77.7922534,170.51217 77.7922534,170.51217 C81.5311279,201.674306 106.832423,218.402854 106.832423,218.402854 C76.2067813,202.451937 65.8420532,171.714179 65.8420532,171.714179 C70.3949611,204.749267 94.3663527,222.798365 94.3663527,222.798365 C64.344137,202.451937 54.9685543,173.278924 54.9685543,173.278924 C57.9194255,205.341974 81.0460207,227.5495 81.0460207,227.5495 C50.0559571,205.87778 42.3534024,174.421662 42.3534024,174.421662 C47.2163056,210.797244 70.5558747,234.823194 70.5558747,234.823194 C70.5558747,234.823194 79.8368024,248.244439 108.768119,248.732829 C137.697069,249.216478 167.070897,235.4728 173.528738,207.011035" id="Fill-13" fill="#00BEBC"></path>
            <path d="M283.449282,178.551641 C283.366459,182.081801 282.708606,184.153903 282.334719,185.559802 C281.960831,186.968073 282.256628,189.967168 279.823993,197.053566 C273.183942,216.356831 259.638804,244.422668 229.148046,265.143686 C206.355109,280.637034 179.492006,290.068179 149.405898,290.068179 C72.3188251,290.068179 9.60512126,226.911748 9.60512126,149.684465 C9.60512126,72.4548106 72.3188251,9.62555319 149.405898,9.62555319 C179.951083,9.62555319 208.331034,18.7081873 231.147634,35.1640899 C226.336791,38.2106012 227.697457,51.001207 240.930233,66.79802 C254.444608,82.9291195 268.434624,89.9349101 275.521921,87.4242054 C276.432976,89.5034197 277.228079,91.5992298 277.89303,93.7163774 L277.921427,93.8064688 L277.97822,94.0008765 C278.702331,96.6277516 278.103638,98.4129835 278.394702,100.672381 C278.76149,103.522113 280.458182,103.946491 280.458182,109.99921 C280.458182,116.051928 276.227101,120.371573 270.557264,119.463547 C270.758406,118.690658 270.91222,117.889318 271.013975,117.064271 C272.322581,106.473792 264.873228,99.7572418 264.873228,99.7572418 C264.873228,99.7572418 267.573263,104.11482 266.768696,110.994957 C265.663598,120.404765 255.765046,125.914564 246.914799,120.336011 C248.313327,112.81338 244.94834,103.602721 241.013056,100.672381 C241.013056,100.672381 243.556911,105.651115 242.376089,113.870768 C240.930233,123.982341 233.040735,128.472685 225.047116,127.408184 C222.006322,127.002773 218.904003,125.67274 216.715105,123.6362 C217.692418,116.265303 217.829668,110.309788 211.842736,102.609345 C211.842736,102.609345 214.121556,110.274226 212.38227,118.100322 C210.325889,127.363139 201.520603,133.840235 192.085861,133.003334 C182.944549,132.194882 176.597928,125.080033 175.369779,118.394304 C178.325383,101.580407 191.79243,98.6073912 194.118578,99.2190643 C188.09615,97.6448359 182.523334,98.7970573 177.998823,102.552446 C174.018578,105.859748 170.873664,111.194106 168.658736,118.401417 C164.964822,130.428617 152.884471,137.266079 141.166176,133.965889 C129.357959,130.646733 122.436308,118.304213 125.744502,106.457196 C126.73838,102.889103 128.562856,100.380769 130.328173,97.9554141 C133.153626,94.0720013 136.670061,89.2402581 133.070803,82.3814587 C126.560902,71.0702483 114.57284,61.3048164 93.4198022,61.3048164 C71.4006711,61.3048164 51.5917353,73.0854503 41.7144808,85.6958733 C28.3231575,102.784786 20.9163998,127.372622 21.3849423,153.14587 C21.5813515,163.949724 23.7631505,177.136258 27.2109607,187.650871 C56.8356251,278.022013 159.486661,275.250517 182.738674,198.310104 C186.591135,185.569286 192.807605,178.767386 200.666341,178.767386 C214.0411,178.767386 220.972216,190.223217 219.116977,203.305434 C224.237815,196.524872 223.871027,186.166734 218.733624,178.705745 C218.733624,178.705745 224.588039,172.728892 233.234777,175.500388 C247.57975,180.097419 244.48453,197.210041 244.48453,197.210041 C249.193619,190.619145 249.091865,179.805808 243.937897,172.373269 C243.937897,172.373269 248.796068,167.55338 256.713963,170.116242 C269.478196,174.248592 266.7332,191.704983 266.7332,191.704983 C271.080233,185.619073 271.16069,174.492787 266.214964,167.408759 C275.029715,162.304371 283.659889,169.431074 283.449282,178.551641 Z M235.605887,38.7392954 C255.949623,52.5493563 269.161102,76.0655785 272.145102,81.7342232 C272.145102,81.7342232 268.597904,81.7958647 264.984448,79.5032761 C256.588545,62.7107161 240.433294,49.0429048 234.484224,44.0641704 C233.305769,39.3746767 235.605887,38.7392954 235.605887,38.7392954 Z M122.566459,92.2843985 C120.618931,94.9586902 117.954391,98.6216162 116.489604,103.861141 C116.018696,105.556282 115.696868,107.258535 115.507558,108.951305 C103.888651,118.733332 96.5031905,133.396891 96.5031905,149.793523 C96.5031905,179.253405 120.337332,203.132364 149.739557,203.132364 C158.123628,203.132364 166.053355,201.188287 173.105157,197.731623 C146.720061,271.061268 55.8772428,255.847678 35.1738168,184.995546 C24.9558041,150.01638 32.3081352,113.142925 49.2040617,91.5826341 C59.1381093,78.9010863 77.2124912,70.8379074 93.1453026,70.8379074 C115.46733,70.8379074 120.318401,78.8323323 124.566047,86.8646905 C125.240464,88.1473073 125.38008,88.4152106 122.566459,92.2843985 Z M237.569979,166.60742 C231.796021,164.537689 220.818401,162.166863 211.170685,171.654908 C206.092442,169.148945 193.096303,165.611673 181.960137,177.800089 C173.287368,187.283393 162.714398,192.35696 149.739557,192.35696 C126.276937,192.35696 107.256004,173.302632 107.256004,149.793523 C107.256004,139.492284 110.914422,130.046914 116.998375,122.683128 C120.263975,132.341873 128.063551,140.279398 138.565529,143.235818 C141.440676,144.04427 144.327655,144.430714 147.16494,144.430714 C156.28732,144.430714 164.652461,140.680068 169.744902,133.859202 C174.439793,138.864015 181.008853,142.899161 189.556204,143.496609 C199.085602,144.691505 208.061267,140.144261 213.066153,132.59081 C215.957864,134.966377 219.412774,136.12334 224.036673,136.737384 C232.37105,137.846931 239.344761,134.591787 243.398364,128.854388 C245.802602,130.447583 248.500271,131.533421 251.375418,131.891416 C257.130445,132.605035 262.14243,130.933603 265.680162,127.695054 C277.426854,129.767156 287.725324,123.946779 287.725324,106.895799 C287.725324,98.6310995 284.871474,75.5345135 257.177773,45.4321369 C229.621321,15.4814932 189.830704,0 149.405898,0 C129.237273,0 109.667342,3.95927927 91.2474688,11.7640382 C73.457052,19.3032646 57.4792795,30.0952641 43.7590299,43.8389419 C30.0387803,57.5873613 19.2670356,73.5928071 11.7443254,91.4190471 C3.95184836,109.873556 0,129.477915 0,149.684465 C0,169.888643 3.95184836,189.495373 11.7443254,207.949882 C19.2670356,225.776122 30.0387803,241.783939 43.7590299,255.527617 C57.4792795,269.276036 73.457052,280.063294 91.2474688,287.604891 C109.667342,295.40965 129.237273,299.693732 149.405898,299.693732 C180.211385,299.693732 208.179586,290.248362 232.91295,274.072217 C258.623628,257.248836 279.684377,230.254612 289.268201,198.969194 C302.489145,155.803566 272.613645,150.530849 259.118201,161.837318 C254.714375,159.902724 243.414928,159.359805 237.569979,166.60742 Z M226.346256,85.5559946 C225.754662,94.3825795 237.009148,96.4902437 238.057452,88.2042071 C243.419661,97.2607621 251.649918,90.5868872 246.93373,83.3629806 C241.914646,75.6649089 234.401401,68.009512 225.714434,60.9894965 C227.796845,72.8388844 226.888156,77.5757946 226.346256,85.5559946 Z M119.795432,29.8012817 L119.930316,29.7254153 L120.476948,29.429062 C122.145244,28.5589689 124.239487,27.821642 126.624794,27.3877809 C126.934789,27.3332519 127.242418,27.2810937 127.559513,27.2384189 L127.850577,27.2004857 C128.262326,27.1459567 128.678809,27.0985401 129.104756,27.0629778 C140.366341,26.1596931 151.436249,27.1601816 162.011585,30.028881 C182.492571,35.5908386 199.769484,48.4075234 204.99681,61.9259728 C205.098564,62.1938761 205.190852,62.4522961 205.280775,62.7154578 L205.3423,62.916978 C205.410925,63.1303523 205.477184,63.3460975 205.536343,63.557101 L205.576572,63.6946089 C206.023817,65.3660412 206.163433,66.9497529 205.983588,68.4172941 L205.983588,68.4267774 C205.924429,68.8938301 205.834507,69.3513995 205.713822,69.7971148 L205.657028,69.9938933 L205.522145,70.4087879 L205.434589,70.6553538 L205.271309,71.0536525 L205.200318,71.2267228 C204.982611,71.7056296 204.719943,72.1703115 204.417047,72.6112851 L204.417047,72.613656 C204.272698,72.8294011 204.111785,73.0451463 203.946138,73.2561498 L203.929574,73.2751164 L203.427902,73.8441146 L203.401872,73.8725645 C203.143937,72.8080637 202.807911,71.7364504 202.386696,70.6577246 C196.144196,54.4981752 177.042807,39.969754 153.722169,33.6325364 C142.538674,30.60025 130.855875,29.483591 118.983765,30.3228634 C119.236967,30.1474223 119.506734,29.974352 119.795432,29.8012817 Z M112.462032,41.984956 C115.391606,44.3107362 119.655816,46.370984 125.287791,47.9049083 C147.971874,54.0619432 155.071003,62.2152135 161.933494,70.1029513 C164.458418,72.9977298 167.063798,75.9920829 170.327031,78.6829703 C174.117966,81.8100897 178.625912,84.052891 183.091264,85.3971493 C197.63028,89.7736939 218.319508,83.1140439 213.832858,61.7386775 C210.721074,46.9139031 190.476725,29.1374504 164.250177,21.8447899 C152.747222,18.6465458 140.678703,17.5275159 128.456369,18.6109834 C120.867401,19.2819271 112.911644,22.8049744 109.468566,28.1914909 C106.950742,32.1270619 107.5589,38.1015432 112.462032,41.984956 L112.462032,41.984956 Z" id="Fill-14" fill="#00BEBC"></path>
            <path d="M123.330798,92.8159521 C93.1524017,106.775375 87.1512715,131.104791 86.519449,155.462656 C80.4,119.177165 101.058465,97.8041698 101.058465,97.8041698 C73.9445255,119.338382 75.4779374,156.612506 75.4779374,156.612506 C68.7787262,120.469265 89.1863551,95.8482384 89.1863551,95.8482384 C62.6450789,120.305678 64.469555,158.101385 64.469555,158.101385 C64.469555,158.101385 56.8356251,122.89462 77.3970685,93.8022156 C50.2168707,119.501969 53.2860607,159.277315 53.2860607,159.277315 C45.3728985,119.015949 63.293466,91.5238519 63.293466,91.5238519 C63.293466,91.5238519 40.6945726,112.624203 41.0187662,160.896589 C32.3034024,104.300233 56.1896044,80.0419421 56.1896044,80.0419421 C56.1896044,80.0419421 65.387709,64.0317547 90.4074052,64.3589287 C115.424735,64.681361 121.558382,73.0883097 127.046009,79.2334904 C132.533636,85.3786712 123.330798,92.8159521 123.330798,92.8159521" id="Fill-15" fill="#00BEBC"></path>
        </g>
    </g>
</svg>