<?xml version="1.0" encoding="UTF-8" standalone="no"?>
<svg width="1443px" height="1025px" viewBox="0 0 1443 1025" version="1.1" xmlns="http://www.w3.org/2000/svg" xmlns:xlink="http://www.w3.org/1999/xlink">
    <!-- Generator: Sketch 41.2 (35397) - http://www.bohemiancoding.com/sketch -->
    <title>Group 8</title>
    <desc>Created with Sketch.</desc>
    <defs></defs>
    <g id="Long-Scroll" stroke="none" stroke-width="1" fill="none" fill-rule="evenodd">
        <g id="Group-8" transform="translate(-27.000000, 0.000000)">
            <rect id="Rectangle-6" fill="#FADAA8" x="28" y="0" width="143.793263" height="1025"></rect>
            <rect id="Rectangle-6" fill="#FFD087" x="189.620872" y="0" width="166.793263" height="1025"></rect>
            <rect id="Rectangle-6" fill="#FADAA8" x="380.241744" y="0" width="166.793263" height="1025"></rect>
            <rect id="Rectangle-6" fill="#FFD087" x="570.862616" y="0" width="166.793263" height="1025"></rect>
            <rect id="Rectangle-6" fill="#FADAA8" x="761.483487" y="0" width="166.793263" height="1025"></rect>
            <rect id="Rectangle-6" fill="#FFD087" x="961.635403" y="0" width="166.793263" height="1025"></rect>
            <rect id="Rectangle-6" fill="#FADAA8" x="1152.25627" y="0" width="166.793263" height="1025"></rect>
            <rect id="Rectangle-6" fill="#FFD087" x="1342.87715" y="0" width="126.122853" height="1025"></rect>
            <g id="Group-3" fill="#FAFAFA">
                <path d="M1470,337.113515 L1470,485.397918 L1462.43626,490.556091 L1430.79253,437.22739 L1398.6354,490.781681 L1366.32318,468.210594 L1367.71333,501.822461 C1367.4996,501.893869 1367.37187,501.969825 1367.335,502.05051 C1365.51563,503.116318 1365.46284,505.842965 1369.19282,506.116059 C1372.81725,506.172842 1380.30903,506.165761 1389.79244,506.183481 L1470,507.014881 L1470,650.056458 L1462.25021,655.341509 L1430.60648,602.012809 L1398.44936,655.5671 L1366.13713,632.996012 L1367.52728,666.607879 C1367.31355,666.679288 1367.18582,666.755243 1367.14895,666.835929 C1365.32958,667.901737 1365.27679,670.628384 1369.00677,670.901477 C1372.6312,670.95826 1380.12298,670.95118 1389.60639,670.9689 L1470,671.802228 L1470,815.496551 L1462.43626,820.654724 L1430.79253,767.326024 L1398.6354,820.880315 L1366.32318,798.309228 L1367.71333,831.921094 C1367.4996,831.992503 1367.37187,832.068459 1367.335,832.149144 C1365.51563,833.214952 1365.46284,835.941599 1369.19282,836.214693 C1372.81725,836.271475 1380.30903,836.264395 1389.79244,836.282115 L1470,837.113515 L1470,980.155092 L1462.25021,985.440143 L1430.60648,932.111442 L1398.44936,985.665733 L1366.13713,963.094646 L1367.52728,996.706513 C1367.31355,996.777922 1367.18582,996.853877 1367.14895,996.934563 C1365.32958,998.00037 1365.27679,1000.72702 1369.00677,1001.00011 C1372.6312,1001.05689 1380.12298,1001.04981 1389.60639,1001.06753 L1470,1001.90086 L1470,1025 L27,1025 L27,918.683406 L106.411961,919.506559 C116.651815,919.545135 124.897532,919.460512 126.81235,919.121993 C128.213933,918.874209 129.146516,916.903916 127.571846,915.795449 L129.137629,880.762798 L96.4955822,903.023382 L64.8518584,849.694681 L32.6947296,903.248972 L27,899.271028 L27,753.322086 L106.411961,754.145239 C116.651815,754.183815 124.897532,754.099192 126.81235,753.760674 C128.213933,753.512889 129.146516,751.542597 127.571846,750.43413 L129.137629,715.401479 L96.4955822,737.662062 L64.8518584,684.333362 L32.6947296,737.887653 L27,733.909708 L27,588.584772 L106.411961,589.407925 C116.651815,589.446501 124.897532,589.361878 126.81235,589.023359 C128.213933,588.775575 129.146516,586.805282 127.571846,585.696815 L129.137629,550.664164 L96.4955822,572.924748 L64.8518584,519.596047 L32.6947296,573.150338 L27,569.172394 L27,423.223452 L106.411961,424.046605 C116.651815,424.085181 124.897532,424.000558 126.81235,423.66204 C128.213933,423.414256 129.146516,421.443963 127.571846,420.335496 L129.137629,385.302845 L96.4955822,407.563428 L64.8518584,354.234728 L32.6947296,407.789019 L27,403.811074 L27,253.322086 L106.411961,254.145239 C116.651815,254.183815 124.897532,254.099192 126.81235,253.760674 C128.213933,253.512889 129.146516,251.542597 127.571846,250.43413 L129.137629,215.401479 L96.4955822,237.662062 L64.8518584,184.333362 L32.6947296,237.887653 L27,233.909708 L27,88.6834057 L106.411961,89.5065587 C116.651815,89.5451347 124.897532,89.4605118 126.81235,89.1219932 C128.213933,88.8742088 129.146516,86.9039162 127.571846,85.7954493 L129.137629,50.7627981 L96.4955822,73.0233816 L64.8518584,19.694681 L32.6947296,73.2489721 L27,69.2710278 L27,0 L1470,0 L1470,150.056458 L1462.25021,155.341509 L1430.60648,102.012809 L1398.44936,155.5671 L1366.13713,132.996012 L1367.52728,166.607879 C1367.31355,166.679288 1367.18582,166.755243 1367.14895,166.835929 C1365.32958,167.901737 1365.27679,170.628384 1369.00677,170.901477 C1372.6312,170.95826 1380.12298,170.95118 1389.60639,170.9689 L1470,171.802228 L1470,315.496551 L1462.43626,320.654724 L1430.79253,267.326024 L1398.6354,320.880315 L1366.32318,298.309228 L1367.71333,331.921094 C1367.4996,331.992503 1367.37187,332.068459 1367.335,332.149144 C1365.51563,333.214952 1365.46284,335.941599 1369.19282,336.214693 C1372.81725,336.271475 1380.30903,336.264395 1389.79244,336.282115 L1470,337.113515 Z M219.165322,506.183481 C209.681914,506.165761 202.190133,506.172842 198.565699,506.116059 C194.835723,505.842965 194.888511,503.116318 196.707882,502.05051 C196.74475,501.969825 196.87248,501.893869 197.086217,501.822461 L195.696062,468.210594 L228.008288,490.781681 L260.165417,437.22739 L291.809141,490.556091 L324.451187,468.295507 L322.885404,503.328158 C324.460074,504.436625 323.527491,506.406918 322.125908,506.654702 C320.21109,506.993221 311.965373,507.077844 301.72552,507.039268 L219.165322,506.183481 Z M218.979273,670.9689 C209.495865,670.95118 202.004083,670.95826 198.37965,670.901477 C194.649674,670.628384 194.702462,667.901737 196.521833,666.835929 C196.5587,666.755243 196.68643,666.679288 196.900168,666.607879 L195.510012,632.996012 L227.822239,655.5671 L259.979367,602.012809 L291.623091,655.341509 L324.265138,633.080926 L322.699355,668.113577 C324.274025,669.222044 323.341442,671.192336 321.939859,671.440121 C320.025041,671.778639 311.779324,671.863262 301.53947,671.824686 L218.979273,670.9689 Z M219.165322,836.282115 C209.681914,836.264395 202.190133,836.271475 198.565699,836.214693 C194.835723,835.941599 194.888511,833.214952 196.707882,832.149144 C196.74475,832.068459 196.87248,831.992503 197.086217,831.921094 L195.696062,798.309228 L228.008288,820.880315 L260.165417,767.326024 L291.809141,820.654724 L324.451187,798.394141 L322.885404,833.426792 C324.460074,834.535259 323.527491,836.505552 322.125908,836.753336 C320.21109,837.091855 311.965373,837.176477 301.72552,837.137902 L219.165322,836.282115 Z M218.979273,1001.06753 C209.495865,1001.04981 202.004083,1001.05689 198.37965,1001.00011 C194.649674,1000.72702 194.702462,998.00037 196.521833,996.934563 C196.5587,996.853877 196.68643,996.777922 196.900168,996.706513 L195.510012,963.094646 L227.822239,985.665733 L259.979367,932.111442 L291.623091,985.440143 L324.265138,963.17956 L322.699355,998.212211 C324.274025,999.320678 323.341442,1001.29097 321.939859,1001.53875 C320.025041,1001.87727 311.779324,1001.9619 301.53947,1001.92332 L218.979273,1001.06753 Z M805.105998,423.190819 C795.622589,423.173099 788.130808,423.180179 784.506374,423.123396 C780.776399,422.850303 780.829186,420.123656 782.648557,419.057848 C782.685425,418.977163 782.813155,418.901207 783.026893,418.829798 L781.636737,385.217932 L813.948963,407.789019 L846.106092,354.234728 L877.749816,407.563428 L910.391862,385.302845 L908.826079,420.335496 C910.400749,421.443963 909.468166,423.414256 908.066583,423.66204 C906.151766,424.000558 897.906049,424.085181 887.666195,424.046605 L805.105998,423.190819 Z M805.105998,588.552138 C795.622589,588.534419 788.130808,588.541499 784.506374,588.484716 C780.776399,588.211623 780.829186,585.484975 782.648557,584.419168 C782.685425,584.338482 782.813155,584.262527 783.026893,584.191118 L781.636737,550.579251 L813.948963,573.150338 L846.106092,519.596047 L877.749816,572.924748 L910.391862,550.664164 L908.826079,585.696815 C910.400749,586.805282 909.468166,588.775575 908.066583,589.023359 C906.151766,589.361878 897.906049,589.446501 887.666195,589.407925 L805.105998,588.552138 Z M805.105998,753.289453 C795.622589,753.271733 788.130808,753.278813 784.506374,753.22203 C780.776399,752.948937 780.829186,750.22229 782.648557,749.156482 C782.685425,749.075796 782.813155,748.999841 783.026893,748.928432 L781.636737,715.316565 L813.948963,737.887653 L846.106092,684.333362 L877.749816,737.662062 L910.391862,715.401479 L908.826079,750.43413 C910.400749,751.542597 909.468166,753.512889 908.066583,753.760674 C906.151766,754.099192 897.906049,754.183815 887.666195,754.145239 L805.105998,753.289453 Z M805.105998,918.650772 C795.622589,918.633052 788.130808,918.640133 784.506374,918.58335 C780.776399,918.310256 780.829186,915.583609 782.648557,914.517801 C782.685425,914.437116 782.813155,914.36116 783.026893,914.289752 L781.636737,880.677885 L813.948963,903.248972 L846.106092,849.694681 L877.749816,903.023382 L910.391862,880.762798 L908.826079,915.795449 C910.400749,916.903916 909.468166,918.874209 908.066583,919.121993 C906.151766,919.460512 897.906049,919.545135 887.666195,919.506559 L805.105998,918.650772 Z M414.478881,423.190819 C404.995472,423.173099 397.503691,423.180179 393.879257,423.123396 C390.149282,422.850303 390.202069,420.123656 392.021441,419.057848 C392.058308,418.977163 392.186038,418.901207 392.399776,418.829798 L391.00962,385.217932 L423.321846,407.789019 L455.478975,354.234728 L487.122699,407.563428 L519.764745,385.302845 L518.198963,420.335496 C519.773632,421.443963 518.841049,423.414256 517.439466,423.66204 C515.524649,424.000558 507.278932,424.085181 497.039078,424.046605 L414.478881,423.190819 Z M414.478881,588.552138 C404.995472,588.534419 397.503691,588.541499 393.879257,588.484716 C390.149282,588.211623 390.202069,585.484975 392.021441,584.419168 C392.058308,584.338482 392.186038,584.262527 392.399776,584.191118 L391.00962,550.579251 L423.321846,573.150338 L455.478975,519.596047 L487.122699,572.924748 L519.764745,550.664164 L518.198963,585.696815 C519.773632,586.805282 518.841049,588.775575 517.439466,589.023359 C515.524649,589.361878 507.278932,589.446501 497.039078,589.407925 L414.478881,588.552138 Z M609.792439,506.183481 C600.309031,506.165761 592.817249,506.172842 589.192816,506.116059 C585.46284,505.842965 585.515628,503.116318 587.334999,502.05051 C587.371867,501.969825 587.499596,501.893869 587.713334,501.822461 L586.323178,468.210594 L618.635405,490.781681 L650.792534,437.22739 L682.436257,490.556091 L715.078304,468.295507 L713.512521,503.328158 C715.087191,504.436625 714.154608,506.406918 712.753025,506.654702 C710.838207,506.993221 702.59249,507.077844 692.352636,507.039268 L609.792439,506.183481 Z M609.60639,670.9689 C600.122981,670.95118 592.6312,670.95826 589.006766,670.901477 C585.276791,670.628384 585.329578,667.901737 587.14895,666.835929 C587.185817,666.755243 587.313547,666.679288 587.527285,666.607879 L586.137129,632.996012 L618.449355,655.5671 L650.606484,602.012809 L682.250208,655.341509 L714.892254,633.080926 L713.326472,668.113577 C714.901141,669.222044 713.968558,671.192336 712.566976,671.440121 C710.652158,671.778639 702.406441,671.863262 692.166587,671.824686 L609.60639,670.9689 Z M414.478881,753.289453 C404.995472,753.271733 397.503691,753.278813 393.879257,753.22203 C390.149282,752.948937 390.202069,750.22229 392.021441,749.156482 C392.058308,749.075796 392.186038,748.999841 392.399776,748.928432 L391.00962,715.316565 L423.321846,737.887653 L455.478975,684.333362 L487.122699,737.662062 L519.764745,715.401479 L518.198963,750.43413 C519.773632,751.542597 518.841049,753.512889 517.439466,753.760674 C515.524649,754.099192 507.278932,754.183815 497.039078,754.145239 L414.478881,753.289453 Z M414.478881,918.650772 C404.995472,918.633052 397.503691,918.640133 393.879257,918.58335 C390.149282,918.310256 390.202069,915.583609 392.021441,914.517801 C392.058308,914.437116 392.186038,914.36116 392.399776,914.289752 L391.00962,880.677885 L423.321846,903.248972 L455.478975,849.694681 L487.122699,903.023382 L519.764745,880.762798 L518.198963,915.795449 C519.773632,916.903916 518.841049,918.874209 517.439466,919.121993 C515.524649,919.460512 507.278932,919.545135 497.039078,919.506559 L414.478881,918.650772 Z M609.792439,836.282115 C600.309031,836.264395 592.817249,836.271475 589.192816,836.214693 C585.46284,835.941599 585.515628,833.214952 587.334999,832.149144 C587.371867,832.068459 587.499596,831.992503 587.713334,831.921094 L586.323178,798.309228 L618.635405,820.880315 L650.792534,767.326024 L682.436257,820.654724 L715.078304,798.394141 L713.512521,833.426792 C715.087191,834.535259 714.154608,836.505552 712.753025,836.753336 C710.838207,837.091855 702.59249,837.176477 692.352636,837.137902 L609.792439,836.282115 Z M609.60639,1001.06753 C600.122981,1001.04981 592.6312,1001.05689 589.006766,1001.00011 C585.276791,1000.72702 585.329578,998.00037 587.14895,996.934563 C587.185817,996.853877 587.313547,996.777922 587.527285,996.706513 L586.137129,963.094646 L618.449355,985.665733 L650.606484,932.111442 L682.250208,985.440143 L714.892254,963.17956 L713.326472,998.212211 C714.901141,999.320678 713.968558,1001.29097 712.566976,1001.53875 C710.652158,1001.87727 702.406441,1001.9619 692.166587,1001.92332 L609.60639,1001.06753 Z M999.165322,506.183481 C989.681914,506.165761 982.190133,506.172842 978.565699,506.116059 C974.835723,505.842965 974.888511,503.116318 976.707882,502.05051 C976.74475,501.969825 976.87248,501.893869 977.086217,501.822461 L975.696062,468.210594 L1008.00829,490.781681 L1040.16542,437.22739 L1071.80914,490.556091 L1104.45119,468.295507 L1102.8854,503.328158 C1104.46007,504.436625 1103.52749,506.406918 1102.12591,506.654702 C1100.21109,506.993221 1091.96537,507.077844 1081.72552,507.039268 L999.165322,506.183481 Z M998.979273,670.9689 C989.495865,670.95118 982.004083,670.95826 978.37965,670.901477 C974.649674,670.628384 974.702462,667.901737 976.521833,666.835929 C976.5587,666.755243 976.68643,666.679288 976.900168,666.607879 L975.510012,632.996012 L1007.82224,655.5671 L1039.97937,602.012809 L1071.62309,655.341509 L1104.26514,633.080926 L1102.69935,668.113577 C1104.27402,669.222044 1103.34144,671.192336 1101.93986,671.440121 C1100.02504,671.778639 1091.77932,671.863262 1081.53947,671.824686 L998.979273,670.9689 Z M999.165322,836.282115 C989.681914,836.264395 982.190133,836.271475 978.565699,836.214693 C974.835723,835.941599 974.888511,833.214952 976.707882,832.149144 C976.74475,832.068459 976.87248,831.992503 977.086217,831.921094 L975.696062,798.309228 L1008.00829,820.880315 L1040.16542,767.326024 L1071.80914,820.654724 L1104.45119,798.394141 L1102.8854,833.426792 C1104.46007,834.535259 1103.52749,836.505552 1102.12591,836.753336 C1100.21109,837.091855 1091.96537,837.176477 1081.72552,837.137902 L999.165322,836.282115 Z M998.979273,1001.06753 C989.495865,1001.04981 982.004083,1001.05689 978.37965,1001.00011 C974.649674,1000.72702 974.702462,998.00037 976.521833,996.934563 C976.5587,996.853877 976.68643,996.777922 976.900168,996.706513 L975.510012,963.094646 L1007.82224,985.665733 L1039.97937,932.111442 L1071.62309,985.440143 L1104.26514,963.17956 L1102.69935,998.212211 C1104.27402,999.320678 1103.34144,1001.29097 1101.93986,1001.53875 C1100.02504,1001.87727 1091.77932,1001.9619 1081.53947,1001.92332 L998.979273,1001.06753 Z M1194.47888,423.190819 C1184.99547,423.173099 1177.50369,423.180179 1173.87926,423.123396 C1170.14928,422.850303 1170.20207,420.123656 1172.02144,419.057848 C1172.05831,418.977163 1172.18604,418.901207 1172.39978,418.829798 L1171.00962,385.217932 L1203.32185,407.789019 L1235.47898,354.234728 L1267.1227,407.563428 L1299.76475,385.302845 L1298.19896,420.335496 C1299.77363,421.443963 1298.84105,423.414256 1297.43947,423.66204 C1295.52465,424.000558 1287.27893,424.085181 1277.03908,424.046605 L1194.47888,423.190819 Z M1194.47888,588.552138 C1184.99547,588.534419 1177.50369,588.541499 1173.87926,588.484716 C1170.14928,588.211623 1170.20207,585.484975 1172.02144,584.419168 C1172.05831,584.338482 1172.18604,584.262527 1172.39978,584.191118 L1171.00962,550.579251 L1203.32185,573.150338 L1235.47898,519.596047 L1267.1227,572.924748 L1299.76475,550.664164 L1298.19896,585.696815 C1299.77363,586.805282 1298.84105,588.775575 1297.43947,589.023359 C1295.52465,589.361878 1287.27893,589.446501 1277.03908,589.407925 L1194.47888,588.552138 Z M1194.47888,753.289453 C1184.99547,753.271733 1177.50369,753.278813 1173.87926,753.22203 C1170.14928,752.948937 1170.20207,750.22229 1172.02144,749.156482 C1172.05831,749.075796 1172.18604,748.999841 1172.39978,748.928432 L1171.00962,715.316565 L1203.32185,737.887653 L1235.47898,684.333362 L1267.1227,737.662062 L1299.76475,715.401479 L1298.19896,750.43413 C1299.77363,751.542597 1298.84105,753.512889 1297.43947,753.760674 C1295.52465,754.099192 1287.27893,754.183815 1277.03908,754.145239 L1194.47888,753.289453 Z M1194.47888,918.650772 C1184.99547,918.633052 1177.50369,918.640133 1173.87926,918.58335 C1170.14928,918.310256 1170.20207,915.583609 1172.02144,914.517801 C1172.05831,914.437116 1172.18604,914.36116 1172.39978,914.289752 L1171.00962,880.677885 L1203.32185,903.248972 L1235.47898,849.694681 L1267.1227,903.023382 L1299.76475,880.762798 L1298.19896,915.795449 C1299.77363,916.903916 1298.84105,918.874209 1297.43947,919.121993 C1295.52465,919.460512 1287.27893,919.545135 1277.03908,919.506559 L1194.47888,918.650772 Z M218.979273,170.9689 C209.495865,170.95118 202.004083,170.95826 198.37965,170.901477 C194.649674,170.628384 194.702462,167.901737 196.521833,166.835929 C196.5587,166.755243 196.68643,166.679288 196.900168,166.607879 L195.510012,132.996012 L227.822239,155.5671 L259.979367,102.012809 L291.623091,155.341509 L324.265138,133.080926 L322.699355,168.113577 C324.274025,169.222044 323.341442,171.192336 321.939859,171.440121 C320.025041,171.778639 311.779324,171.863262 301.53947,171.824686 L218.979273,170.9689 Z M219.165322,336.282115 C209.681914,336.264395 202.190133,336.271475 198.565699,336.214693 C194.835723,335.941599 194.888511,333.214952 196.707882,332.149144 C196.74475,332.068459 196.87248,331.992503 197.086217,331.921094 L195.696062,298.309228 L228.008288,320.880315 L260.165417,267.326024 L291.809141,320.654724 L324.451187,298.394141 L322.885404,333.426792 C324.460074,334.535259 323.527491,336.505552 322.125908,336.753336 C320.21109,337.091855 311.965373,337.176477 301.72552,337.137902 L219.165322,336.282115 Z M805.105998,253.289453 C795.622589,253.271733 788.130808,253.278813 784.506374,253.22203 C780.776399,252.948937 780.829186,250.22229 782.648557,249.156482 C782.685425,249.075796 782.813155,248.999841 783.026893,248.928432 L781.636737,215.316565 L813.948963,237.887653 L846.106092,184.333362 L877.749816,237.662062 L910.391862,215.401479 L908.826079,250.43413 C910.400749,251.542597 909.468166,253.512889 908.066583,253.760674 C906.151766,254.099192 897.906049,254.183815 887.666195,254.145239 L805.105998,253.289453 Z M805.105998,88.6507723 C795.622589,88.6330525 788.130808,88.6401327 784.506374,88.5833498 C780.776399,88.3102564 780.829186,85.583609 782.648557,84.5178015 C782.685425,84.4371159 782.813155,84.3611604 783.026893,84.2897517 L781.636737,50.6778849 L813.948963,73.2489721 L846.106092,19.694681 L877.749816,73.0233816 L910.391862,50.7627981 L908.826079,85.7954493 C910.400749,86.9039162 909.468166,88.8742088 908.066583,89.1219932 C906.151766,89.4605118 897.906049,89.5451347 887.666195,89.5065587 L805.105998,88.6507723 Z M609.60639,170.9689 C600.122981,170.95118 592.6312,170.95826 589.006766,170.901477 C585.276791,170.628384 585.329578,167.901737 587.14895,166.835929 C587.185817,166.755243 587.313547,166.679288 587.527285,166.607879 L586.137129,132.996012 L618.449355,155.5671 L650.606484,102.012809 L682.250208,155.341509 L714.892254,133.080926 L713.326472,168.113577 C714.901141,169.222044 713.968558,171.192336 712.566976,171.440121 C710.652158,171.778639 702.406441,171.863262 692.166587,171.824686 L609.60639,170.9689 Z M414.478881,253.289453 C404.995472,253.271733 397.503691,253.278813 393.879257,253.22203 C390.149282,252.948937 390.202069,250.22229 392.021441,249.156482 C392.058308,249.075796 392.186038,248.999841 392.399776,248.928432 L391.00962,215.316565 L423.321846,237.887653 L455.478975,184.333362 L487.122699,237.662062 L519.764745,215.401479 L518.198963,250.43413 C519.773632,251.542597 518.841049,253.512889 517.439466,253.760674 C515.524649,254.099192 507.278932,254.183815 497.039078,254.145239 L414.478881,253.289453 Z M414.478881,88.6507723 C404.995472,88.6330525 397.503691,88.6401327 393.879257,88.5833498 C390.149282,88.3102564 390.202069,85.583609 392.021441,84.5178015 C392.058308,84.4371159 392.186038,84.3611604 392.399776,84.2897517 L391.00962,50.6778849 L423.321846,73.2489721 L455.478975,19.694681 L487.122699,73.0233816 L519.764745,50.7627981 L518.198963,85.7954493 C519.773632,86.9039162 518.841049,88.8742088 517.439466,89.1219932 C515.524649,89.4605118 507.278932,89.5451347 497.039078,89.5065587 L414.478881,88.6507723 Z M609.792439,336.282115 C600.309031,336.264395 592.817249,336.271475 589.192816,336.214693 C585.46284,335.941599 585.515628,333.214952 587.334999,332.149144 C587.371867,332.068459 587.499596,331.992503 587.713334,331.921094 L586.323178,298.309228 L618.635405,320.880315 L650.792534,267.326024 L682.436257,320.654724 L715.078304,298.394141 L713.512521,333.426792 C715.087191,334.535259 714.154608,336.505552 712.753025,336.753336 C710.838207,337.091855 702.59249,337.176477 692.352636,337.137902 L609.792439,336.282115 Z M998.979273,170.9689 C989.495865,170.95118 982.004083,170.95826 978.37965,170.901477 C974.649674,170.628384 974.702462,167.901737 976.521833,166.835929 C976.5587,166.755243 976.68643,166.679288 976.900168,166.607879 L975.510012,132.996012 L1007.82224,155.5671 L1039.97937,102.012809 L1071.62309,155.341509 L1104.26514,133.080926 L1102.69935,168.113577 C1104.27402,169.222044 1103.34144,171.192336 1101.93986,171.440121 C1100.02504,171.778639 1091.77932,171.863262 1081.53947,171.824686 L998.979273,170.9689 Z M999.165322,336.282115 C989.681914,336.264395 982.190133,336.271475 978.565699,336.214693 C974.835723,335.941599 974.888511,333.214952 976.707882,332.149144 C976.74475,332.068459 976.87248,331.992503 977.086217,331.921094 L975.696062,298.309228 L1008.00829,320.880315 L1040.16542,267.326024 L1071.80914,320.654724 L1104.45119,298.394141 L1102.8854,333.426792 C1104.46007,334.535259 1103.52749,336.505552 1102.12591,336.753336 C1100.21109,337.091855 1091.96537,337.176477 1081.72552,337.137902 L999.165322,336.282115 Z M1194.47888,253.289453 C1184.99547,253.271733 1177.50369,253.278813 1173.87926,253.22203 C1170.14928,252.948937 1170.20207,250.22229 1172.02144,249.156482 C1172.05831,249.075796 1172.18604,248.999841 1172.39978,248.928432 L1171.00962,215.316565 L1203.32185,237.887653 L1235.47898,184.333362 L1267.1227,237.662062 L1299.76475,215.401479 L1298.19896,250.43413 C1299.77363,251.542597 1298.84105,253.512889 1297.43947,253.760674 C1295.52465,254.099192 1287.27893,254.183815 1277.03908,254.145239 L1194.47888,253.289453 Z M1194.47888,88.6507723 C1184.99547,88.6330525 1177.50369,88.6401327 1173.87926,88.5833498 C1170.14928,88.3102564 1170.20207,85.583609 1172.02144,84.5178015 C1172.05831,84.4371159 1172.18604,84.3611604 1172.39978,84.2897517 L1171.00962,50.6778849 L1203.32185,73.2489721 L1235.47898,19.694681 L1267.1227,73.0233816 L1299.76475,50.7627981 L1298.19896,85.7954493 C1299.77363,86.9039162 1298.84105,88.8742088 1297.43947,89.1219932 C1295.52465,89.4605118 1287.27893,89.5451347 1277.03908,89.5065587 L1194.47888,88.6507723 Z" id="Combined-Shape"></path>
            </g>
        </g>
    </g>
</svg>