<?xml version="1.0" encoding="UTF-8" standalone="no"?>
<svg width="531px" height="658px" viewBox="0 0 531 658" version="1.1" xmlns="http://www.w3.org/2000/svg" xmlns:xlink="http://www.w3.org/1999/xlink">
    <!-- Generator: Sketch 39.1 (31720) - http://www.bohemiancoding.com/sketch -->
    <title>Custom</title>
    <desc>Created with Sketch.</desc>
    <defs>
        <polygon id="path-1" points="0 35.9737473 0 9.12990284 13.0753585 0 312.728151 0 325 9.12990284 325 35.9737473 312.728151 45 13.0753585 45"></polygon>
        <mask id="mask-2" maskContentUnits="userSpaceOnUse" maskUnits="objectBoundingBox" x="0" y="0" width="325" height="45" fill="white">
            <use xlink:href="#path-1"></use>
        </mask>
        <filter x="-50%" y="-50%" width="200%" height="200%" filterUnits="objectBoundingBox" id="filter-3">
            <feOffset dx="0" dy="2" in="SourceAlpha" result="shadowOffsetOuter1"></feOffset>
            <feGaussianBlur stdDeviation="2" in="shadowOffsetOuter1" result="shadowBlurOuter1"></feGaussianBlur>
            <feColorMatrix values="0 0 0 0 0   0 0 0 0 0   0 0 0 0 0  0 0 0 0.5 0" type="matrix" in="shadowBlurOuter1" result="shadowMatrixOuter1"></feColorMatrix>
            <feMerge>
                <feMergeNode in="shadowMatrixOuter1"></feMergeNode>
                <feMergeNode in="SourceGraphic"></feMergeNode>
            </feMerge>
        </filter>
    </defs>
    <g id="Characters" stroke="none" stroke-width="1" fill="none" fill-rule="evenodd">
        <g id="Custom" transform="translate(-4.000000, 0.000000)">
            <g id="Plaque" transform="translate(71.000000, 613.000000)">
                <g id="Group" stroke-width="1" fill-rule="evenodd">
                    <use id="Rectangle-28" stroke="#FADAA8" mask="url(#mask-2)" stroke-width="8" fill="#FFC871" xlink:href="#path-1"></use>
                    <circle id="Oval-17" fill="#FADAA8" cx="313.5" cy="12.5" r="2.5"></circle>
                    <circle id="Oval-17" fill="#FADAA8" cx="313.5" cy="32.5" r="2.5"></circle>
                    <circle id="Oval-17" fill="#FADAA8" cx="11.5" cy="12.5" r="2.5"></circle>
                    <circle id="Oval-17" fill="#FADAA8" cx="11.5" cy="32.5" r="2.5"></circle>
                </g>
                <text id="BREAK-THROUGH-ARTIST" font-family="RobotoSlab-Regular, Roboto Slab" font-size="22" font-weight="normal" letter-spacing="0.240901098" fill="#FFFFFF">
                    <tspan x="37.7415581" y="30">CUSTOM OF THE YEAR</tspan>
                </text>
            </g>
            <g id="t-Custom" transform="translate(0.000000, 346.000000)">
                <path d="M145.654843,76.8607315 L210.232495,28.5287675 C210.232495,28.5287675 180.705609,66.2422065 206.62011,82.031597 C212.694519,85.7326602 222.193013,88.205346 222.193013,88.205346 L206.620111,90.773713 C206.620111,90.773713 173.659486,96.5162225 192.627884,117.298986 C204.093651,126.268332 210.232495,129.113934 210.232495,129.113934 C210.232495,129.113934 196.628649,127.561816 192.627885,126.552571 C177.051237,124.793516 169.096367,126.608734 183.842628,136.444025 C210.232495,155.272152 155.460368,135.626246 151.45552,117.298985 C147.450671,98.9717245 171.469056,79.8192368 171.469056,79.8192368 L151.45552,85.7202012 L145.654843,76.8607315 Z" id="Path-2" fill="#685353" transform="translate(183.923928, 86.308658) rotate(-4.000000) translate(-183.923928, -86.308658) "></path>
                <path d="M148.25719,83.962823 L187.912563,54.41397 C187.912563,54.41397 169.780908,77.4709446 185.694296,87.1241501 C189.424424,89.3868798 195.25719,90.8986129 195.25719,90.8986129 L185.694296,92.4688429 C185.694296,92.4688429 165.454076,95.9796576 177.102052,108.685676 C184.142866,114.169291 187.912563,115.909015 187.912563,115.909015 C187.912563,115.909015 179.558812,114.960092 177.102052,114.343067 C167.536858,113.267628 162.65199,114.377404 171.707266,120.390434 C187.912563,131.901441 154.278495,119.890466 151.819227,108.685676 C149.359959,97.480885 164.108993,85.771573 164.108993,85.771573 L151.819227,89.3792628 L148.25719,83.962823 Z" id="Path-2" fill="#F2534A" transform="translate(171.757190, 89.739029) rotate(-4.000000) translate(-171.757190, -89.739029) "></path>
                <path d="M4.65484342,76.8607315 L69.2324954,28.5287675 C69.2324954,28.5287675 39.7056087,66.2422065 65.6201102,82.031597 C71.6945187,85.7326602 81.1930133,88.205346 81.1930133,88.205346 L65.6201106,90.773713 C65.6201106,90.773713 32.6594857,96.5162225 51.6278845,117.298986 C63.0936506,126.268332 69.2324954,129.113934 69.2324954,129.113934 C69.2324954,129.113934 55.6286488,127.561816 51.627885,126.552571 C36.0512365,124.793516 28.0963674,126.608734 42.8426281,136.444025 C69.2324954,155.272152 14.4603681,135.626246 10.4555198,117.298985 C6.45067146,98.9717245 30.4690558,79.8192368 30.4690558,79.8192368 L10.4555196,85.7202012 L4.65484342,76.8607315 Z" id="Path-2" fill="#685353" transform="translate(42.923928, 86.308658) scale(-1, 1) rotate(-4.000000) translate(-42.923928, -86.308658) "></path>
                <path d="M32.25719,83.962823 L71.9125626,54.41397 C71.9125626,54.41397 53.7809078,77.4709446 69.6942955,87.1241501 C73.4244239,89.3868798 79.25719,90.8986129 79.25719,90.8986129 L69.6942957,92.4688429 C69.6942957,92.4688429 49.4540761,95.9796576 61.1020518,108.685676 C68.1428657,114.169291 71.9125626,115.909015 71.9125626,115.909015 C71.9125626,115.909015 63.5588119,114.960092 61.1020521,114.343067 C51.5368576,113.267628 46.6519897,114.377404 55.7072657,120.390434 C71.9125626,131.901441 38.2784949,119.890466 35.8192269,108.685676 C33.359959,97.480885 48.1089929,85.771573 48.1089929,85.771573 L35.8192268,89.3792628 L32.25719,83.962823 Z" id="Path-2" fill="#F2534A" transform="translate(55.757190, 89.739029) scale(-1, 1) rotate(-4.000000) translate(-55.757190, -89.739029) "></path>
                <g id="Group" transform="translate(51.717544, 0.000000)">
                    <path d="M41.0340876,24.1744401 C41.0340876,24.1744401 27.9389113,25.8887403 24.1746278,23.1734298 C22.8979099,22.2524881 22.0083541,21.4331624 22.0052288,17.1633262 C22.0022562,13.1020285 21.9084952,10.0888518 23.7029837,9.0185105 C25.8031514,7.76584364 30.7073685,8.01249835 32.6898239,10.1056702 C33.9654056,11.4524909 33.1175881,13.1868617 32.6898238,17.163326 C32.6898238,18.369144 28.2817474,17.6545751 27.0538909,17.1633262 C25.8260344,16.6720774 24.9180222,13.1883984 24.8664531,13.3463366 C24.1753209,15.4630338 24.1340389,17.5512528 25.9492289,18.3691442 C27.7644189,19.1870356 35.0349581,22.1422038 35.8905459,18.7183746 C36.9291444,14.5621868 37.3128509,8.6119818 35.8905451,6.77978043 C34.4682393,4.94757906 26.6162351,1.23118741 18.6453968,5.29059506 C15.8294535,6.76162207 11.1491454,22.1537502 12.1580137,26.1951161 C13.7109177,29.5381584 16.3991515,31.0642731 23.7029835,33.1484912 C31.0068155,35.2327093 37.8345372,33.5385131 37.8345372,33.5385131 L41.0340876,24.1744401 Z" id="Path-44" fill="#F2534A" transform="translate(26.526065, 18.826451) rotate(16.000000) translate(-26.526065, -18.826451) "></path>
                    <path d="M115.421443,24.1744401 C115.421443,24.1744401 102.326267,25.8887403 98.561983,23.1734298 C97.2852651,22.2524881 96.3957093,21.4331624 96.392584,17.1633262 C96.3896113,13.1020285 96.2958504,10.0888518 98.0903389,9.0185105 C100.190507,7.76584364 105.094724,8.01249835 107.077179,10.1056702 C108.352761,11.4524909 107.504943,13.1868617 107.077179,17.163326 C107.077179,18.369144 102.669103,17.6545751 101.441246,17.1633262 C100.21339,16.6720774 99.3053774,13.1883984 99.2538083,13.3463366 C98.562676,15.4630338 98.5213941,17.5512528 100.336584,18.3691442 C102.151774,19.1870356 109.422313,22.1422038 110.277901,18.7183746 C111.3165,14.5621868 111.700206,8.6119818 110.2779,6.77978043 C108.855594,4.94757906 101.00359,1.23118741 93.032752,5.29059506 C90.2168086,6.76162207 85.5365006,22.1537502 86.5453689,26.1951161 C88.0982729,29.5381584 90.7865066,31.0642731 98.0903386,33.1484912 C105.394171,35.2327093 112.221892,33.5385131 112.221892,33.5385131 L115.421443,24.1744401 Z" id="Path-44" fill="#F2534A" transform="translate(100.913420, 18.826451) scale(-1, 1) rotate(16.000000) translate(-100.913420, -18.826451) "></path>
                    <path d="M23.8532021,56.1767235 C28.0555383,49.9286413 27.4066963,17.5686887 63.1217943,17.5686887 C98.8368923,17.5686887 98.831193,47.4364412 102.100032,56.1767223 C105.368872,64.9170034 122.495757,72.3628818 123.899915,113.085684 C123.637917,134.719678 112.543207,138.891491 107.588852,149.304666 C101.720936,161.63798 109.376438,182.983978 95.0643062,183.355393 C80.7521739,183.726808 76.4049067,165.533047 69.6965868,158.64894 C67.4079742,156.300357 59.8256437,152.881375 55.2733431,158.053368 C50.7210425,163.225361 55.8844559,185.750774 41.4285324,184.881957 C26.9726088,184.013141 21.7393553,163.811133 16.0248652,151.362991 C11.0945123,140.622972 1.10652204,140.821026 0.0604458018,113.085684 C-0.335958069,80.019529 19.6508659,62.4248058 23.8532021,56.1767235 Z" id="Path-22" fill="#00BEBC"></path>
                    <g id="Group-2" transform="translate(38.504434, 36.261095)">
                        <path d="M40.2943458,5.63161629 C40.2943458,5.63161629 39.7545866,1.54801561 43.5096766,1.44092258 C47.2647666,1.33382955 47.1949076,5.54768861 47.1949076,5.54768861 C47.1949076,5.54768861 48.8233568,5.92360124 48.8233568,5.34414037 C48.8233568,2.57394843 46.5465953,0.32826415 43.7380677,0.32826415 C40.9295401,0.32826415 38.6527787,2.57394843 38.6527787,5.34414037 C38.6527787,6.15589555 40.2943458,5.63161629 40.2943458,5.63161629 Z" id="Oval-19" fill="#4A4A4A"></path>
                        <path d="M2.29434576,5.63161629 C2.29434576,5.63161629 1.75458659,1.54801561 5.50967661,1.44092258 C9.26476663,1.33382955 9.1949076,5.54768861 9.1949076,5.54768861 C9.1949076,5.54768861 10.8233568,5.92360124 10.8233568,5.34414037 C10.8233568,2.57394843 8.54659533,0.32826415 5.73806773,0.32826415 C2.92954012,0.32826415 0.652778656,2.57394843 0.652778656,5.34414037 C0.652778656,6.15589555 2.29434576,5.63161629 2.29434576,5.63161629 Z" id="Oval-19" fill="#4A4A4A" transform="translate(5.738068, 3.063221) scale(-1, 1) translate(-5.738068, -3.063221) "></path>
                        <path d="M20.0169845,11.2487747 C20.0169845,11.2487747 20.1504323,6.00000215 25.018613,6.00000215 C29.537023,5.99614513 29.6230977,11.1864123 29.6230977,11.1864123 C29.6230977,11.1864123 30.5976875,19.3987737 25.0186131,19.4007334 C19.4395386,19.4026931 20.0169845,11.2487747 20.0169845,11.2487747 Z" id="Path-5" fill="#4A4A4A"></path>
                        <path d="M20.333535,14.4504696 C20.333535,14.4504696 23.4687328,12.2204483 24.997817,15.7686853 C25.2388363,12.3536247 29.5771501,13.9002666 29.5771501,13.9002666 C29.5771501,13.9002666 29.8592444,19.1526075 24.9978169,19.3576119 C20.9041244,19.5306922 20.333535,14.4504696 20.333535,14.4504696 Z" id="Path-11" fill="#F2534A"></path>
                    </g>
                </g>
                <path d="M113.377793,152.967824 C141.225912,154.126245 158.895897,145.7851 158.895897,116.048857 C158.895897,86.3126136 140.53449,67 114.171441,67 C87.8083909,67 71.7175436,86.2978879 71.7175436,116.034131 C71.7175436,145.770375 85.5296745,151.809402 113.377793,152.967824 Z" id="Oval-27" fill="#4A4A4A"></path>
                <path d="M169.455316,95.1515691 C182.050421,95.1515691 178.766718,55.9984294 179.808662,29.0346757 C174.195909,1.07922735 174.758313,36.2001893 169.455316,36.3901358 C164.336799,36.5734744 165.004144,37.9152775 159.030535,41.5145199 C155.604894,59.3164408 156.860211,95.1515691 169.455316,95.1515691 Z" id="Oval-28" fill="#00BEBC" transform="translate(168.599866, 56.692832) scale(-1, 1) rotate(156.000000) translate(-168.599866, -56.692832) "></path>
                <path d="M59.1277777,87.986476 C71.7228826,87.986476 68.4391799,48.8333363 69.4811234,21.8695826 C67.6438806,12.7188238 65.2327466,20.3714283 64.2965093,21.3001988 C62.3725538,23.2088099 62.6949258,29.0972721 59.1277781,29.2250427 C54.0092607,29.4083813 54.6766056,30.7501844 48.7029966,34.3494268 C45.2773558,52.1513477 46.5326728,87.986476 59.1277777,87.986476 Z" id="Oval-28" fill="#00BEBC" transform="translate(58.272327, 52.703885) scale(-1, 1) rotate(-142.000000) translate(-58.272327, -52.703885) "></path>
                <path d="M95.2889558,141.494779 L92.9136691,148.476802 C92.8536244,148.585546 92.8140276,148.699821 92.7975893,148.818012 L92.7889558,148.84339 C92.7907973,148.876213 92.7889558,148.909326 92.7889558,148.942695 C92.7889558,149.765369 93.9082439,150.432279 95.2889558,150.432279 C96.6696676,150.432279 97.7889558,149.765369 97.7889558,148.942695 C97.7889558,148.909326 97.7871142,148.876213 97.7834883,148.84339 C97.7638839,148.699821 97.7242871,148.585546 97.6642424,148.476802 L95.2889558,141.494779 Z" id="Combined-Shape" fill="#F2534A" transform="translate(95.288956, 145.963529) scale(1, -1) rotate(-15.000000) translate(-95.288956, -145.963529) "></path>
                <path d="M117.59283,150.982023 L115.217544,144 L112.842257,150.982023 C112.782212,151.090767 112.742615,151.205042 112.726177,151.323233 L112.717544,151.348611 L112.723011,151.348611 C112.719385,151.381434 112.717544,151.414547 112.717544,151.447917 C112.717544,152.270591 113.836832,152.9375 115.217544,152.9375 C116.598255,152.9375 117.717544,152.270591 117.717544,151.447917 C117.717544,151.414547 117.715702,151.381434 117.712076,151.348611 L117.717544,151.348611 L117.70891,151.323233 C117.692472,151.205042 117.652875,151.090767 117.59283,150.982023 L117.59283,150.982023 Z" id="Combined-Shape" fill="#F2534A" transform="translate(115.217544, 148.468750) scale(1, -1) translate(-115.217544, -148.468750) "></path>
                <path d="M137.664242,148.476802 L135.288956,141.494779 L132.913669,148.476802 C132.853624,148.585546 132.814028,148.699821 132.797589,148.818012 L132.788956,148.84339 L132.794423,148.84339 C132.790797,148.876213 132.788956,148.909326 132.788956,148.942695 C132.788956,149.765369 133.908244,150.432279 135.288956,150.432279 C136.669668,150.432279 137.788956,149.765369 137.788956,148.942695 C137.788956,148.909326 137.787114,148.876213 137.783488,148.84339 L137.788956,148.84339 L137.780322,148.818012 C137.763884,148.699821 137.724287,148.585546 137.664242,148.476802 L137.664242,148.476802 Z" id="Combined-Shape" fill="#F2534A" transform="translate(135.288956, 145.963529) scale(1, -1) rotate(-345.000000) translate(-135.288956, -145.963529) "></path>
                <path d="M97.5078938,78.5348352 L95.1326071,68.3791651 L92.7573205,78.5348352 C92.6972758,78.6930085 92.657679,78.8592267 92.6412407,79.0311407 L92.6326071,79.068054 L92.6380745,79.068054 C92.6344487,79.1157963 92.6326071,79.163961 92.6326071,79.2124985 C92.6326071,80.4091154 93.7518952,81.3791651 95.1326071,81.3791651 C96.513319,81.3791651 97.6326071,80.4091154 97.6326071,79.2124985 C97.6326071,79.163961 97.6307656,79.1157963 97.6271397,79.068054 L97.6326071,79.068054 L97.6239735,79.0311407 C97.6075353,78.8592267 97.5679385,78.6930085 97.5078938,78.5348352 L97.5078938,78.5348352 Z" id="Combined-Shape" fill="#F2534A" transform="translate(95.132607, 74.879165) rotate(-30.000000) translate(-95.132607, -74.879165) "></path>
                <path d="M117.59283,75.1556701 L115.217544,65 L112.842257,75.1556701 C112.782212,75.3138434 112.742615,75.4800616 112.726177,75.6519756 L112.717544,75.6888889 L112.723011,75.6888889 C112.719385,75.7366312 112.717544,75.7847959 112.717544,75.8333333 C112.717544,77.0299503 113.836832,78 115.217544,78 C116.598255,78 117.717544,77.0299503 117.717544,75.8333333 C117.717544,75.7847959 117.715702,75.7366312 117.712076,75.6888889 L117.717544,75.6888889 L117.70891,75.6519756 C117.692472,75.4800616 117.652875,75.3138434 117.59283,75.1556701 L117.59283,75.1556701 Z" id="Combined-Shape" fill="#F2534A"></path>
                <path d="M137.507894,78.5348352 L135.132607,68.3791651 L132.75732,78.5348352 C132.697276,78.6930085 132.657679,78.8592267 132.641241,79.0311407 L132.632607,79.068054 L132.638075,79.068054 C132.634449,79.1157963 132.632607,79.163961 132.632607,79.2124985 C132.632607,80.4091154 133.751895,81.3791651 135.132607,81.3791651 C136.513319,81.3791651 137.632607,80.4091154 137.632607,79.2124985 C137.632607,79.163961 137.630766,79.1157963 137.62714,79.068054 L137.632607,79.068054 L137.623974,79.0311407 C137.607535,78.8592267 137.567938,78.6930085 137.507894,78.5348352 L137.507894,78.5348352 Z" id="Combined-Shape" fill="#F2534A" transform="translate(135.132607, 74.879165) rotate(-330.000000) translate(-135.132607, -74.879165) "></path>
                <path d="M125.132607,78.3791651 L122.75732,88.5348352 C122.697276,88.6930085 122.657679,88.8592267 122.641241,89.0311407 L122.632607,89.068054 C122.634449,89.1157963 122.632607,89.163961 122.632607,89.2124985 C122.632607,90.4091154 123.751895,91.3791651 125.132607,91.3791651 C126.513319,91.3791651 127.632607,90.4091154 127.632607,89.2124985 C127.632607,89.163961 127.630766,89.1157963 127.62714,89.068054 C127.607535,88.8592267 127.567938,88.6930085 127.507894,88.5348352 L125.132607,78.3791651 Z" id="Combined-Shape" fill="#F2534A" transform="translate(125.132607, 84.879165) rotate(-330.000000) translate(-125.132607, -84.879165) "></path>
                <path d="M107.507894,88.5348352 L105.132607,78.3791651 L102.75732,88.5348352 C102.697276,88.6930085 102.657679,88.8592267 102.641241,89.0311407 L102.632607,89.068054 L102.638075,89.068054 C102.634449,89.1157963 102.632607,89.163961 102.632607,89.2124985 C102.632607,90.4091154 103.751895,91.3791651 105.132607,91.3791651 C106.513319,91.3791651 107.632607,90.4091154 107.632607,89.2124985 C107.632607,89.163961 107.630766,89.1157963 107.62714,89.068054 L107.632607,89.068054 L107.623974,89.0311407 C107.607535,88.8592267 107.567938,88.6930085 107.507894,88.5348352 L107.507894,88.5348352 Z" id="Combined-Shape" fill="#F2534A" transform="translate(105.132607, 84.879165) rotate(-30.000000) translate(-105.132607, -84.879165) "></path>
                <path d="M148.10597,114.008323 L145.730683,105.415064 L143.355397,114.008323 C143.295352,114.142162 143.255755,114.282808 143.239317,114.428274 L143.230683,114.459508 L143.236151,114.459508 C143.232525,114.499905 143.230683,114.54066 143.230683,114.58173 C143.230683,115.594252 144.349971,116.415064 145.730683,116.415064 C147.111395,116.415064 148.230683,115.594252 148.230683,114.58173 C148.230683,114.54066 148.228842,114.499905 148.225216,114.459508 L148.230683,114.459508 L148.22205,114.428274 C148.205611,114.282808 148.166015,114.142162 148.10597,114.008323 L148.10597,114.008323 Z" id="Combined-Shape" fill="#F2534A" transform="translate(145.730683, 110.915064) rotate(-300.000000) translate(-145.730683, -110.915064) "></path>
                <path d="M125.555863,105.45964 L123.180576,114.052899 C123.120532,114.186738 123.080935,114.327384 123.064496,114.47285 L123.055863,114.504084 C123.057704,114.544481 123.055863,114.585236 123.055863,114.626306 C123.055863,115.638828 124.175151,116.45964 125.555863,116.45964 C126.936575,116.45964 128.055863,115.638828 128.055863,114.626306 C128.055863,114.585236 128.054021,114.544481 128.050395,114.504084 C128.030791,114.327384 127.991194,114.186738 127.93115,114.052899 L125.555863,105.45964 Z" id="Combined-Shape" fill="#F2534A" transform="translate(125.555863, 110.959640) rotate(-345.000000) translate(-125.555863, -110.959640) "></path>
                <path d="M107.93115,114.052899 L105.555863,105.45964 L103.180576,114.052899 C103.120532,114.186738 103.080935,114.327384 103.064496,114.47285 L103.055863,114.504084 L103.06133,114.504084 C103.057704,114.544481 103.055863,114.585236 103.055863,114.626306 C103.055863,115.638828 104.175151,116.45964 105.555863,116.45964 C106.936575,116.45964 108.055863,115.638828 108.055863,114.626306 C108.055863,114.585236 108.054021,114.544481 108.050395,114.504084 L108.055863,114.504084 L108.047229,114.47285 C108.030791,114.327384 107.991194,114.186738 107.93115,114.052899 L107.93115,114.052899 Z" id="Combined-Shape" fill="#F2534A" transform="translate(105.555863, 110.959640) rotate(-15.000000) translate(-105.555863, -110.959640) "></path>
                <path d="M88.10597,114.008323 L85.7306833,105.415064 L83.3553967,114.008323 C83.295352,114.142162 83.2557552,114.282808 83.2393169,114.428274 L83.2306833,114.459508 L83.2361507,114.459508 C83.2325249,114.499905 83.2306833,114.54066 83.2306833,114.58173 C83.2306833,115.594252 84.3499714,116.415064 85.7306833,116.415064 C87.1113952,116.415064 88.2306833,115.594252 88.2306833,114.58173 C88.2306833,114.54066 88.2288418,114.499905 88.2252159,114.459508 L88.2306833,114.459508 L88.2220498,114.428274 C88.2056115,114.282808 88.1660147,114.142162 88.10597,114.008323 L88.10597,114.008323 Z" id="Combined-Shape" fill="#F2534A" transform="translate(85.730683, 110.915064) rotate(-60.000000) translate(-85.730683, -110.915064) "></path>
                <path d="M157.689024,124.845837 L155.313738,118.596194 L152.938451,124.845837 C152.878406,124.943175 152.83881,125.045463 152.822371,125.151256 L152.813738,125.173972 L152.819205,125.173972 C152.815579,125.203352 152.813738,125.232992 152.813738,125.262861 C152.813738,125.99924 153.933026,126.596194 155.313738,126.596194 C156.69445,126.596194 157.813738,125.99924 157.813738,125.262861 C157.813738,125.232992 157.811896,125.203352 157.80827,125.173972 L157.813738,125.173972 L157.805104,125.151256 C157.788666,125.045463 157.749069,124.943175 157.689024,124.845837 L157.689024,124.845837 Z" id="Combined-Shape" fill="#F2534A" transform="translate(155.313738, 122.596194) rotate(-315.000000) translate(-155.313738, -122.596194) "></path>
                <path d="M137.603581,124.699734 L135.228295,118.450091 L132.853008,124.699734 C132.792963,124.797071 132.753366,124.899359 132.736928,125.005153 L132.728295,125.027869 L132.733762,125.027869 C132.730136,125.057248 132.728295,125.086888 132.728295,125.116757 C132.728295,125.853137 133.847583,126.450091 135.228295,126.450091 C136.609006,126.450091 137.728295,125.853137 137.728295,125.116757 C137.728295,125.086888 137.726453,125.057248 137.722827,125.027869 L137.728295,125.027869 L137.719661,125.005153 C137.703223,124.899359 137.663626,124.797071 137.603581,124.699734 L137.603581,124.699734 Z" id="Combined-Shape" fill="#F2534A" transform="translate(135.228295, 122.450091) rotate(-285.000000) translate(-135.228295, -122.450091) "></path>
                <path d="M117.59283,125.249643 L115.217544,119 L112.842257,125.249643 C112.782212,125.346981 112.742615,125.449269 112.726177,125.555062 L112.717544,125.577778 L112.723011,125.577778 C112.719385,125.607158 112.717544,125.636797 112.717544,125.666667 C112.717544,126.403046 113.836832,127 115.217544,127 C116.598255,127 117.717544,126.403046 117.717544,125.666667 C117.717544,125.636797 117.715702,125.607158 117.712076,125.577778 L117.717544,125.577778 L117.70891,125.555062 C117.692472,125.449269 117.652875,125.346981 117.59283,125.249643 L117.59283,125.249643 Z" id="Combined-Shape" fill="#F2534A"></path>
                <path d="M97.6035812,124.699734 L95.2282945,118.450091 L92.8530079,124.699734 C92.7929632,124.797071 92.7533664,124.899359 92.7369281,125.005153 L92.7282945,125.027869 L92.7337619,125.027869 C92.7301361,125.057248 92.7282945,125.086888 92.7282945,125.116757 C92.7282945,125.853137 93.8475826,126.450091 95.2282945,126.450091 C96.6090064,126.450091 97.7282945,125.853137 97.7282945,125.116757 C97.7282945,125.086888 97.726453,125.057248 97.7228271,125.027869 L97.7282945,125.027869 L97.7196609,125.005153 C97.7032227,124.899359 97.6636259,124.797071 97.6035812,124.699734 L97.6035812,124.699734 Z" id="Combined-Shape" fill="#F2534A" transform="translate(95.228295, 122.450091) rotate(-75.000000) translate(-95.228295, -122.450091) "></path>
                <path d="M77.6890243,124.845837 L75.3137377,118.596194 L72.938451,124.845837 C72.8784063,124.943175 72.8388095,125.045463 72.8223712,125.151256 L72.8137377,125.173972 L72.8192051,125.173972 C72.8155792,125.203352 72.8137377,125.232992 72.8137377,125.262861 C72.8137377,125.99924 73.9330258,126.596194 75.3137377,126.596194 C76.6944496,126.596194 77.8137377,125.99924 77.8137377,125.262861 C77.8137377,125.232992 77.8118961,125.203352 77.8082703,125.173972 L77.8137377,125.173972 L77.8051041,125.151256 C77.7886658,125.045463 77.749069,124.943175 77.6890243,124.845837 L77.6890243,124.845837 Z" id="Combined-Shape" fill="#F2534A" transform="translate(75.313738, 122.596194) rotate(-45.000000) translate(-75.313738, -122.596194) "></path>
                <path d="M127.59283,137.249643 L125.217544,131 L122.842257,137.249643 C122.782212,137.346981 122.742615,137.449269 122.726177,137.555062 L122.717544,137.577778 L122.723011,137.577778 C122.719385,137.607158 122.717544,137.636797 122.717544,137.666667 C122.717544,138.403046 123.836832,139 125.217544,139 C126.598255,139 127.717544,138.403046 127.717544,137.666667 C127.717544,137.636797 127.715702,137.607158 127.712076,137.577778 L127.717544,137.577778 L127.70891,137.555062 C127.692472,137.449269 127.652875,137.346981 127.59283,137.249643 L127.59283,137.249643 Z" id="Combined-Shape" fill="#F2534A" transform="translate(125.217544, 135.000000) scale(1, -1) translate(-125.217544, -135.000000) "></path>
                <path d="M147.689024,137.845837 L145.313738,131.596194 L142.938451,137.845837 C142.878406,137.943175 142.83881,138.045463 142.822371,138.151256 L142.813738,138.173972 L142.819205,138.173972 C142.815579,138.203352 142.813738,138.232992 142.813738,138.262861 C142.813738,138.99924 143.933026,139.596194 145.313738,139.596194 C146.69445,139.596194 147.813738,138.99924 147.813738,138.262861 C147.813738,138.232992 147.811896,138.203352 147.80827,138.173972 L147.813738,138.173972 L147.805104,138.151256 C147.788666,138.045463 147.749069,137.943175 147.689024,137.845837 L147.689024,137.845837 Z" id="Combined-Shape" fill="#F2534A" transform="translate(145.313738, 135.596194) scale(1, -1) rotate(-315.000000) translate(-145.313738, -135.596194) "></path>
                <path d="M107.59283,137.249643 L105.217544,131 L102.842257,137.249643 C102.782212,137.346981 102.742615,137.449269 102.726177,137.555062 L102.717544,137.577778 L102.723011,137.577778 C102.719385,137.607158 102.717544,137.636797 102.717544,137.666667 C102.717544,138.403046 103.836832,139 105.217544,139 C106.598255,139 107.717544,138.403046 107.717544,137.666667 C107.717544,137.636797 107.715702,137.607158 107.712076,137.577778 L107.717544,137.577778 L107.70891,137.555062 C107.692472,137.449269 107.652875,137.346981 107.59283,137.249643 L107.59283,137.249643 Z" id="Combined-Shape" fill="#F2534A" transform="translate(105.217544, 135.000000) scale(1, -1) translate(-105.217544, -135.000000) "></path>
                <path d="M86.6890243,137.845837 L84.3137377,131.596194 L81.938451,137.845837 C81.8784063,137.943175 81.8388095,138.045463 81.8223712,138.151256 L81.8137377,138.173972 L81.8192051,138.173972 C81.8155792,138.203352 81.8137377,138.232992 81.8137377,138.262861 C81.8137377,138.99924 82.9330258,139.596194 84.3137377,139.596194 C85.6944496,139.596194 86.8137377,138.99924 86.8137377,138.262861 C86.8137377,138.232992 86.8118961,138.203352 86.8082703,138.173972 L86.8137377,138.173972 L86.8051041,138.151256 C86.7886658,138.045463 86.749069,137.943175 86.6890243,137.845837 L86.6890243,137.845837 Z" id="Combined-Shape" fill="#F2534A" transform="translate(84.313738, 135.596194) scale(1, -1) rotate(-45.000000) translate(-84.313738, -135.596194) "></path>
                <path d="M117.59283,98.1556701 L115.217544,88 L112.842257,98.1556701 C112.782212,98.3138434 112.742615,98.4800616 112.726177,98.6519756 L112.717544,98.6888889 L112.723011,98.6888889 C112.719385,98.7366312 112.717544,98.7847959 112.717544,98.8333333 C112.717544,100.02995 113.836832,101 115.217544,101 C116.598255,101 117.717544,100.02995 117.717544,98.8333333 C117.717544,98.7847959 117.715702,98.7366312 117.712076,98.6888889 L117.717544,98.6888889 L117.70891,98.6519756 C117.692472,98.4800616 117.652875,98.3138434 117.59283,98.1556701 L117.59283,98.1556701 Z" id="Combined-Shape" fill="#F2534A"></path>
                <path d="M137.507894,98.5348352 L135.132607,88.3791651 L132.75732,98.5348352 C132.697276,98.6930085 132.657679,98.8592267 132.641241,99.0311407 L132.632607,99.068054 L132.638075,99.068054 C132.634449,99.1157963 132.632607,99.163961 132.632607,99.2124985 C132.632607,100.409115 133.751895,101.379165 135.132607,101.379165 C136.513319,101.379165 137.632607,100.409115 137.632607,99.2124985 C137.632607,99.163961 137.630766,99.1157963 137.62714,99.068054 L137.632607,99.068054 L137.623974,99.0311407 C137.607535,98.8592267 137.567938,98.6930085 137.507894,98.5348352 L137.507894,98.5348352 Z" id="Combined-Shape" fill="#F2534A" transform="translate(135.132607, 94.879165) rotate(-330.000000) translate(-135.132607, -94.879165) "></path>
                <path d="M153.507894,98.5348352 L151.132607,88.3791651 L148.75732,98.5348352 C148.697276,98.6930085 148.657679,98.8592267 148.641241,99.0311407 L148.632607,99.068054 L148.638075,99.068054 C148.634449,99.1157963 148.632607,99.163961 148.632607,99.2124985 C148.632607,100.409115 149.751895,101.379165 151.132607,101.379165 C152.513319,101.379165 153.632607,100.409115 153.632607,99.2124985 C153.632607,99.163961 153.630766,99.1157963 153.62714,99.068054 L153.632607,99.068054 L153.623974,99.0311407 C153.607535,98.8592267 153.567938,98.6930085 153.507894,98.5348352 L153.507894,98.5348352 Z" id="Combined-Shape" fill="#F2534A" transform="translate(151.132607, 94.879165) rotate(-330.000000) translate(-151.132607, -94.879165) "></path>
                <path d="M97.5078938,98.5348352 L95.1326071,88.3791651 L92.7573205,98.5348352 C92.6972758,98.6930085 92.657679,98.8592267 92.6412407,99.0311407 L92.6326071,99.068054 L92.6380745,99.068054 C92.6344487,99.1157963 92.6326071,99.163961 92.6326071,99.2124985 C92.6326071,100.409115 93.7518952,101.379165 95.1326071,101.379165 C96.513319,101.379165 97.6326071,100.409115 97.6326071,99.2124985 C97.6326071,99.163961 97.6307656,99.1157963 97.6271397,99.068054 L97.6326071,99.068054 L97.6239735,99.0311407 C97.6075353,98.8592267 97.5679385,98.6930085 97.5078938,98.5348352 L97.5078938,98.5348352 Z" id="Combined-Shape" fill="#F2534A" transform="translate(95.132607, 94.879165) rotate(-30.000000) translate(-95.132607, -94.879165) "></path>
                <path d="M81.5078938,98.5348352 L79.1326071,88.3791651 L76.7573205,98.5348352 C76.6972758,98.6930085 76.657679,98.8592267 76.6412407,99.0311407 L76.6326071,99.068054 L76.6380745,99.068054 C76.6344487,99.1157963 76.6326071,99.163961 76.6326071,99.2124985 C76.6326071,100.409115 77.7518952,101.379165 79.1326071,101.379165 C80.513319,101.379165 81.6326071,100.409115 81.6326071,99.2124985 C81.6326071,99.163961 81.6307656,99.1157963 81.6271397,99.068054 L81.6326071,99.068054 L81.6239735,99.0311407 C81.6075353,98.8592267 81.5679385,98.6930085 81.5078938,98.5348352 L81.5078938,98.5348352 Z" id="Combined-Shape" fill="#F2534A" transform="translate(79.132607, 94.879165) rotate(-30.000000) translate(-79.132607, -94.879165) "></path>
            </g>
            <g transform="translate(362.000000, 321.500000) scale(-1, 1) translate(-362.000000, -321.500000) translate(189.000000, 62.000000)">
                <g id="Striped-Shirt" filter="url(#filter-3)" transform="translate(39.800038, 275.163404)">
                    <path d="M69.8844042,0.988902128 C-1.50855527,96.7841368 0.116734135,207.077837 0.116734135,207.077837 C0.116734135,207.077837 41.8729373,242.767015 133.220251,242.34867 C224.567564,241.930326 275.471376,207.077837 275.471376,207.077837 C275.471376,207.077837 264.7292,91.4196551 215.882895,25.2490747" id="Path-5" fill="#F2534A"></path>
                    <path d="M26.8730722,76.9754501 C74.6070015,100.865422 113.487982,107.707161 134.244198,108.186475 C155.000414,108.665789 210.937839,97.0997 244.474534,78.2124455 C250.791117,91.8782268 255.040973,108.594892 255.040973,108.594892 C255.040973,108.594892 144.700588,178.145214 16.8103527,107.688937 C19.5079322,95.1519982 24.166865,83.2755542 26.8730722,76.9754501 Z" id="Path-45" fill="#00BEBC"></path>
                    <path d="M51.9737912,28.7056477 C99.7077205,52.5956194 120.05502,47.6630573 138.416387,49.0555654 C156.777754,50.4480735 219.353576,30.0647335 219.353576,30.0647335 C219.353576,30.0647335 226.959054,40.7081065 232.42087,51.954962 C234.444342,54.4065588 183.043338,78.8744462 136.882494,78.1061658 C90.7216502,77.3378855 78.5367973,74.434851 38.1379114,52.1786162 C42.7115262,40.6549474 47.9427599,34.1736626 51.9737912,28.7056477 Z" id="Path-45" fill="#00BEBC"></path>
                    <path d="M8.26805039,143.469336 C8.26805039,143.469336 3.03037269,172.369929 2.90961701,177.968674 C114.966768,236.005691 246.657904,191.259034 270.660734,177.366786 C268.548018,159.042646 266.545444,154.310858 264.934948,143.723768 C124.074088,210.522186 8.26805039,143.469336 8.26805039,143.469336 Z" id="Path-46" fill="#00BEBC"></path>
                </g>
                <path d="M80.7795323,171.519549 C80.1516302,172.923009 79.5539464,174.34297 78.9873095,175.778603 C74.3277224,187.584141 78.1273095,217.27714 79.4778439,229.649556 C93.2237757,302.565459 141.761426,359.352899 149.249824,368.88367 C156.738221,378.41444 156.323398,321.877609 160.350413,332.579171 C183.361968,393.731058 217.396141,417.889404 220.996045,417.661046 C224.59595,417.432688 225.105333,370.533417 230.744727,352.497732 C236.384121,334.462047 247.029287,376.318182 254.27064,371.886399 C261.511993,367.454617 257.300455,309.455762 266.898714,254.143194 C269.104086,241.434136 276.814207,188.385912 272.426814,176.884465 C271.901885,175.508376 271.348553,174.146333 270.767534,172.799056 C270.767534,172.799056 250.564635,120.734375 188.701354,109.445312 C126.838073,98.15625 85.6115104,161.832031 85.6115104,161.832031" id="Beard" stroke="#FFD087" fill="#FFD087"></path>
                <path d="M278.562,143.580028 C291.852337,134.086583 314.421363,116.242454 312.916801,105.501071 C310.792903,90.3381255 301.194894,53.6927847 299.102328,49.9329682 C297.009763,46.1731517 293.414001,52.0474829 277.249869,53.2556678 C266.899359,50.6657693 277.873899,30.5962149 278.29348,29.2822525 C278.713061,27.9682901 276.79759,46.777777 279.216468,47.0970578 C281.629273,47.4155368 293.922446,45.564092 295.908895,42.4561299 C297.895343,39.3481677 294.967584,15.1393818 297.886945,8.75304305 C300.806307,2.36670434 342.772139,-1.45966195 345.207474,0.526533987 C347.64281,2.51272992 305.900684,9.2398323 303.278298,11.5163553 C300.655911,13.7928784 305.03419,37.221426 305.03419,37.221426 C305.03419,37.221426 309.532327,59.3905879 312.544064,71.712393 C315.555801,84.0341982 325.370814,70.1015473 327.814218,66.4945014 C330.257622,62.8874554 325.155059,49.0799485 327.175226,50.1133171 C329.195393,51.1466857 333.294128,59.7451722 333.15442,64.8935226 C333.014712,70.0418729 328.97387,75.3071444 325.191831,78.66194 C324.108362,79.6230137 319.444639,84.1462863 317.330015,85.1392174 C314.366375,86.530808 324.989522,102.827167 321.884647,113.402797 C319.293411,122.228902 287.948583,154.320313 277.648753,164.696528" id="Right-Antler" fill="#423636"></path>
                <path d="M23.6570468,155.414317 C36.9473842,145.920872 59.5164101,128.076742 58.0118477,117.33536 C55.8879498,102.172414 46.2899403,65.527073 44.197375,61.7672565 C42.1048097,58.00744 38.509048,63.8817711 22.344916,65.0899561 C11.9944054,62.5000575 22.9689454,42.4305032 23.3885267,41.1165408 C23.808108,39.8025783 21.8926368,58.6120653 24.3115152,58.9313461 C26.7243194,59.2498251 39.0174933,57.3983803 41.0039417,54.2904181 C42.9903901,51.182456 40.0626308,26.97367 42.9819923,20.5873313 C45.9013538,14.2009926 87.8671856,10.3746263 90.3025212,12.3608223 C92.7378567,14.3470182 50.9957312,21.0741206 48.3733445,23.3506436 C45.7509578,25.6271666 50.1292366,49.0557143 50.1292366,49.0557143 C50.1292366,49.0557143 54.6273741,71.2248762 57.6391108,83.5466813 C60.6508475,95.8684864 70.4658605,81.9358355 72.9092647,78.3287896 C75.3526689,74.7217437 70.2501058,60.9142368 72.2702726,61.9476054 C74.2904395,62.980974 78.3891749,71.5794605 78.249467,76.7278108 C78.1097591,81.8761612 74.0689169,87.1414327 70.286878,90.4962283 C69.2034087,91.457302 64.5396859,95.9805745 62.4250619,96.9735057 C59.4614214,98.3650963 70.0845687,114.661455 66.9796934,125.237086 C64.3884573,134.06319 33.0436301,166.154602 22.7438003,176.530816" id="Right-Antler" fill="#423636" transform="translate(54.159895, 94.182552) scale(-1, 1) rotate(13.000000) translate(-54.159895, -94.182552) "></path>
                <path d="M86.8053095,159 L100,159 L100,172 C100,172 87.0727506,172.055497 79,172 C80.5948671,161.20598 86.8053095,159 86.8053095,159 Z" id="Rectangle-5" fill="#FADAA8"></path>
                <g id="Crown" transform="translate(93.000000, 61.000000)">
                    <path d="M38.2236759,111.428586 C23.0260272,111.400189 11.0200629,111.411535 5.21172213,111.320537 C-0.765755255,110.882891 -0.681160467,106.513299 2.23447539,104.805288 C2.29355771,104.675985 2.4982512,104.554262 2.84077689,104.439826 L0.612980888,50.5750848 L52.3949819,86.7464103 L103.928431,0.922910638 L154.639122,86.38489 L186.323135,48.3231651 L184.081679,103.519312 C184.089249,108.882608 181.09848,111.889719 178.852371,112.286806 C175.783778,112.829299 186.94052,112.861847 170.530628,112.800027 M140.288361,112.451641 C124.729304,112.262719 110.862825,112.111043 100.93338,111.937551 C89.1671619,111.731967 77.2465484,111.610472 65.9401811,111.536732" fill="#FADAA8"></path>
                    <path d="M182.213774,96.95759 C185.001788,96.95759 185,93.1940975 185,88.1072501 C185,83.0204028 184.277782,77 181.489768,77 C178.701754,77 178,82.5692791 178,87.6561264 C178,92.7429738 179.42576,96.95759 182.213774,96.95759 Z" id="Oval-9" fill="#F2534A" transform="translate(181.500000, 86.978795) rotate(3.000000) translate(-181.500000, -86.978795) "></path>
                    <ellipse id="Oval-9" fill="#F2534A" cx="105.474118" cy="73.3675385" rx="15.8205957" ry="24.2823641"></ellipse>
                    <ellipse id="Oval-9" fill="#F2534A" cx="16.4638274" cy="85.81702" rx="5.85543888" ry="9.21055189"></ellipse>
                </g>
                <path d="M182.856806,216.015982 L226.278793,215.730187 C226.278793,215.730187 230.684177,253.36579 205.465393,253.374771 C180.246609,253.383752 182.856806,216.015982 182.856806,216.015982 Z" id="Path-5" fill="#4A4A4A"></path>
                <path d="M186.216777,239.243695 C186.216777,239.243695 201.80004,232.895175 205.913464,242.572458 C206.561835,233.258394 224.333929,237.198942 224.333929,237.198942 C224.333929,237.198942 222.180204,253.527866 206.04031,253.999918 C189.900415,254.471969 186.216777,239.243695 186.216777,239.243695 Z" id="Path-11" fill="#F2534A"></path>
                <ellipse id="Oval-3" fill="#FFFFFF" cx="154.566317" cy="196.004885" rx="17.5663166" ry="36.0048846"></ellipse>
                <ellipse id="Oval-5" fill="#00BEBC" cx="157.364913" cy="200.607718" rx="8.36491269" ry="22.6077183"></ellipse>
                <path d="M247.566317,232.009769 C257.267925,232.009769 265.132633,215.889833 265.132633,196.004885 C265.132633,188.128169 263.898608,180.842208 261.805204,174.914899 C258.613762,165.878582 253.424978,160 247.566317,160 C241.714988,160 236.53186,165.863877 233.339421,174.880987 C231.238739,180.814408 230,188.11314 230,196.004885 C230,215.889833 237.864708,232.009769 247.566317,232.009769 Z" id="Oval-3" fill="#FFFFFF"></path>
                <ellipse id="Oval-5" fill="#00BEBC" cx="251.364913" cy="200.607718" rx="8.36491269" ry="22.6077183"></ellipse>
                <ellipse id="Oval-6" stroke="#4A4A4A" fill="#423636" cx="252.509474" cy="211.535906" rx="2.50947381" ry="7.53590609"></ellipse>
                <ellipse id="Oval-6" stroke="#4A4A4A" fill="#423636" cx="158.509474" cy="211.535906" rx="2.50947381" ry="7.53590609"></ellipse>
                <path d="M139.59283,310.15567 L137.217544,300 L134.842257,310.15567 C134.782212,310.313843 134.742615,310.480062 134.726177,310.651976 L134.717544,310.688889 L134.723011,310.688889 C134.719385,310.736631 134.717544,310.784796 134.717544,310.833333 C134.717544,312.02995 135.836832,313 137.217544,313 C138.598255,313 139.717544,312.02995 139.717544,310.833333 C139.717544,310.784796 139.715702,310.736631 139.712076,310.688889 L139.717544,310.688889 L139.70891,310.651976 C139.692472,310.480062 139.652875,310.313843 139.59283,310.15567 L139.59283,310.15567 Z" id="Combined-Shape" fill="#F2534A"></path>
                <path d="M248.59283,340.15567 L246.217544,330 L243.842257,340.15567 C243.782212,340.313843 243.742615,340.480062 243.726177,340.651976 L243.717544,340.688889 L243.723011,340.688889 C243.719385,340.736631 243.717544,340.784796 243.717544,340.833333 C243.717544,342.02995 244.836832,343 246.217544,343 C247.598255,343 248.717544,342.02995 248.717544,340.833333 C248.717544,340.784796 248.715702,340.736631 248.712076,340.688889 L248.717544,340.688889 L248.70891,340.651976 C248.692472,340.480062 248.652875,340.313843 248.59283,340.15567 L248.59283,340.15567 Z" id="Combined-Shape" fill="#F2534A" transform="translate(246.217544, 336.500000) rotate(-345.000000) translate(-246.217544, -336.500000) "></path>
                <path d="M198.59283,380.15567 L196.217544,370 L193.842257,380.15567 C193.782212,380.313843 193.742615,380.480062 193.726177,380.651976 L193.717544,380.688889 L193.723011,380.688889 C193.719385,380.736631 193.717544,380.784796 193.717544,380.833333 C193.717544,382.02995 194.836832,383 196.217544,383 C197.598255,383 198.717544,382.02995 198.717544,380.833333 C198.717544,380.784796 198.715702,380.736631 198.712076,380.688889 L198.717544,380.688889 L198.70891,380.651976 C198.692472,380.480062 198.652875,380.313843 198.59283,380.15567 L198.59283,380.15567 Z" id="Combined-Shape" fill="#F2534A" transform="translate(196.217544, 376.500000) rotate(-75.000000) translate(-196.217544, -376.500000) "></path>
                <g id="Group-4" transform="translate(221.177074, 323.863961) rotate(-330.000000) translate(-221.177074, -323.863961) translate(204.677074, 284.863961)">
                    <rect id="Rectangle-6" fill="#FAFAFA" x="2.27373675e-13" y="20.7079646" width="32.4424779" height="57.2920354" rx="8"></rect>
                    <rect id="Rectangle-6" fill="#00BEBC" x="3.97903932e-13" y="30.3716814" width="32.4424779" height="38.6548673"></rect>
                    <rect id="Rectangle-10" fill="#FAFAFA" x="14.4955752" y="13.1150442" width="3.45132743" height="8.97345133"></rect>
                    <path d="M12.5807388,4.73731776 C13.654503,1.47997231e-09 15.8043304,1.13686838e-13 15.8043304,1.13686838e-13 C15.8043304,1.13686838e-13 17.996138,-6.19590442e-10 19.4799188,4.7373177 C20.9636997,9.4746354 21.3982301,18.6595239 21.3982301,18.6595239 L11.0442478,18.6595239 C11.0442478,18.6595239 11.5069747,9.47463551 12.5807388,4.73731776 Z" id="Rectangle-7" fill="#F2534A"></path>
                </g>
                <path d="M185.98267,306 C185.98267,306 212.604143,309.217239 205.936302,332.132208 C199.268461,355.047176 228.672077,360.381405 228.672077,360.381405 L189.656984,368.207433 L172,332.605378 L185.98267,306 Z" id="Path-3" fill="#FFD087"></path>
                <path d="M178.59283,320.15567 L176.217544,310 L173.842257,320.15567 C173.782212,320.313843 173.742615,320.480062 173.726177,320.651976 L173.717544,320.688889 L173.723011,320.688889 C173.719385,320.736631 173.717544,320.784796 173.717544,320.833333 C173.717544,322.02995 174.836832,323 176.217544,323 C177.598255,323 178.717544,322.02995 178.717544,320.833333 C178.717544,320.784796 178.715702,320.736631 178.712076,320.688889 L178.717544,320.688889 L178.70891,320.651976 C178.692472,320.480062 178.652875,320.313843 178.59283,320.15567 L178.59283,320.15567 Z" id="Combined-Shape" fill="#F2534A" transform="translate(176.217544, 316.500000) rotate(-285.000000) translate(-176.217544, -316.500000) "></path>
                <path d="M198.59283,290.15567 L196.217544,280 L193.842257,290.15567 C193.782212,290.313843 193.742615,290.480062 193.726177,290.651976 L193.717544,290.688889 L193.723011,290.688889 C193.719385,290.736631 193.717544,290.784796 193.717544,290.833333 C193.717544,292.02995 194.836832,293 196.217544,293 C197.598255,293 198.717544,292.02995 198.717544,290.833333 C198.717544,290.784796 198.715702,290.736631 198.712076,290.688889 L198.717544,290.688889 L198.70891,290.651976 C198.692472,290.480062 198.652875,290.313843 198.59283,290.15567 L198.59283,290.15567 Z" id="Combined-Shape" fill="#F2534A" transform="translate(196.217544, 286.500000) rotate(-45.000000) translate(-196.217544, -286.500000) "></path>
            </g>
            <rect id="Rectangle-36" fill="#FAFAFA" x="234" y="0" width="1" height="1"></rect>
        </g>
    </g>
</svg>