<?xml version="1.0" encoding="UTF-8" standalone="no"?>
<svg width="346px" height="592px" viewBox="0 0 346 592" version="1.1" xmlns="http://www.w3.org/2000/svg" xmlns:xlink="http://www.w3.org/1999/xlink">
    <!-- Generator: Sketch 39.1 (31720) - http://www.bohemiancoding.com/sketch -->
    <title>DIY</title>
    <desc>Created with Sketch.</desc>
    <defs>
        <polygon id="path-1" points="0 35.9737473 0 9.12990284 13.0753585 0 312.728151 0 325 9.12990284 325 35.9737473 312.728151 45 13.0753585 45"></polygon>
        <mask id="mask-2" maskContentUnits="userSpaceOnUse" maskUnits="objectBoundingBox" x="0" y="0" width="325" height="45" fill="white">
            <use xlink:href="#path-1"></use>
        </mask>
        <filter x="-50%" y="-50%" width="200%" height="200%" filterUnits="objectBoundingBox" id="filter-3">
            <feOffset dx="0" dy="2" in="SourceAlpha" result="shadowOffsetOuter1"></feOffset>
            <feGaussianBlur stdDeviation="1.5" in="shadowOffsetOuter1" result="shadowBlurOuter1"></feGaussianBlur>
            <feColorMatrix values="0 0 0 0 0   0 0 0 0 0   0 0 0 0 0  0 0 0 0.25 0" type="matrix" in="shadowBlurOuter1" result="shadowMatrixOuter1"></feColorMatrix>
            <feMerge>
                <feMergeNode in="shadowMatrixOuter1"></feMergeNode>
                <feMergeNode in="SourceGraphic"></feMergeNode>
            </feMerge>
        </filter>
        <filter x="-50%" y="-50%" width="200%" height="200%" filterUnits="objectBoundingBox" id="filter-4">
            <feOffset dx="0" dy="2" in="SourceAlpha" result="shadowOffsetOuter1"></feOffset>
            <feGaussianBlur stdDeviation="2" in="shadowOffsetOuter1" result="shadowBlurOuter1"></feGaussianBlur>
            <feColorMatrix values="0 0 0 0 0   0 0 0 0 0   0 0 0 0 0  0 0 0 0.5 0" type="matrix" in="shadowBlurOuter1" result="shadowMatrixOuter1"></feColorMatrix>
            <feMerge>
                <feMergeNode in="shadowMatrixOuter1"></feMergeNode>
                <feMergeNode in="SourceGraphic"></feMergeNode>
            </feMerge>
        </filter>
        <rect id="path-5" x="0.6" y="0.916905444" width="22.4" height="76.6189112"></rect>
        <mask id="mask-6" maskContentUnits="userSpaceOnUse" maskUnits="objectBoundingBox" x="0" y="0" width="22.4" height="76.6189112" fill="white">
            <use xlink:href="#path-5"></use>
        </mask>
        <rect id="path-7" x="0.6" y="0.916905444" width="22.4" height="76.6189112"></rect>
        <mask id="mask-8" maskContentUnits="userSpaceOnUse" maskUnits="objectBoundingBox" x="0" y="0" width="22.4" height="76.6189112" fill="white">
            <use xlink:href="#path-7"></use>
        </mask>
        <rect id="path-9" x="0.6" y="0.916905444" width="22.4" height="76.6189112"></rect>
        <mask id="mask-10" maskContentUnits="userSpaceOnUse" maskUnits="objectBoundingBox" x="0" y="0" width="22.4" height="76.6189112" fill="white">
            <use xlink:href="#path-9"></use>
        </mask>
    </defs>
    <g id="Characters" stroke="none" stroke-width="1" fill="none" fill-rule="evenodd">
        <g id="DIY" transform="translate(3.000000, 1.000000)">
            <g id="Plaque" transform="translate(17.333333, 546.000000)">
                <g id="Group" stroke-width="1" fill-rule="evenodd">
                    <use id="Rectangle-28" stroke="#FADAA8" mask="url(#mask-2)" stroke-width="8" fill="#FFC871" xlink:href="#path-1"></use>
                    <circle id="Oval-17" fill="#FADAA8" cx="313.5" cy="12.5" r="2.5"></circle>
                    <circle id="Oval-17" fill="#FADAA8" cx="313.5" cy="32.5" r="2.5"></circle>
                    <circle id="Oval-17" fill="#FADAA8" cx="11.5" cy="12.5" r="2.5"></circle>
                    <circle id="Oval-17" fill="#FADAA8" cx="11.5" cy="32.5" r="2.5"></circle>
                </g>
                <text id="BREAK-THROUGH-ARTIST" font-family="RobotoSlab-Regular, Roboto Slab" font-size="22" font-weight="normal" letter-spacing="0.240901098" fill="#FFFFFF">
                    <tspan x="48.4967743" y="30">BEST DIY PLATFORM</tspan>
                </text>
            </g>
            <g id="t-DIY" transform="translate(96.000000, 350.000000)">
                <g id="Group-3">
                    <path d="M82.6880998,24.1744401 C82.6880998,24.1744401 69.5929235,25.8887403 65.82864,23.1734298 C64.5519221,22.2524881 63.6623663,21.4331624 63.659241,17.1633262 C63.6562684,13.1020285 63.5625074,10.0888518 65.3569959,9.0185105 C67.4571636,7.76584364 72.3613807,8.01249835 74.3438361,10.1056702 C75.6194178,11.4524909 74.7716002,13.1868617 74.343836,17.163326 C74.343836,18.369144 69.9357595,17.6545751 68.707903,17.1633262 C67.4800466,16.6720774 66.5720344,13.1883984 66.5204653,13.3463366 C65.829333,15.4630338 65.7880511,17.5512528 67.6032411,18.3691442 C69.418431,19.1870356 76.6889702,22.1422038 77.5445581,18.7183746 C78.5831566,14.5621868 78.9668631,8.6119818 77.5445573,6.77978043 C76.1222514,4.94757906 68.2702473,1.23118741 60.299409,5.29059506 C57.4834656,6.76162207 52.8031576,22.1537502 53.8120259,26.1951161 C55.3649299,29.5381584 58.0531636,31.0642731 65.3569956,33.1484912 C72.6608276,35.2327093 79.4885493,33.5385131 79.4885493,33.5385131 L82.6880998,24.1744401 Z" id="Path-44" stroke="#DDDDDD" fill="#F8F8F8" transform="translate(68.180077, 18.826451) rotate(16.000000) translate(-68.180077, -18.826451) "></path>
                    <path d="M157.075455,24.1744401 C157.075455,24.1744401 143.980279,25.8887403 140.215995,23.1734298 C138.939277,22.2524881 138.049721,21.4331624 138.046596,17.1633262 C138.043624,13.1020285 137.949863,10.0888518 139.744351,9.0185105 C141.844519,7.76584364 146.748736,8.01249835 148.731191,10.1056702 C150.006773,11.4524909 149.158955,13.1868617 148.731191,17.163326 C148.731191,18.369144 144.323115,17.6545751 143.095258,17.1633262 C141.867402,16.6720774 140.95939,13.1883984 140.90782,13.3463366 C140.216688,15.4630338 140.175406,17.5512528 141.990596,18.3691442 C143.805786,19.1870356 151.076325,22.1422038 151.931913,18.7183746 C152.970512,14.5621868 153.354218,8.6119818 151.931912,6.77978043 C150.509607,4.94757906 142.657602,1.23118741 134.686764,5.29059506 C131.870821,6.76162207 127.190513,22.1537502 128.199381,26.1951161 C129.752285,29.5381584 132.440519,31.0642731 139.744351,33.1484912 C147.048183,35.2327093 153.875905,33.5385131 153.875905,33.5385131 L157.075455,24.1744401 Z" id="Path-44" stroke="#DDDDDD" fill="#F8F8F8" transform="translate(142.567432, 18.826451) scale(-1, 1) rotate(16.000000) translate(-142.567432, -18.826451) "></path>
                    <path d="M163.462647,94.2396467 C164.549506,99.5899626 165.302922,105.80615 165.553927,113.085684 C165.291929,134.719678 154.197219,138.891491 149.242864,149.304666 C143.374948,161.63798 151.030451,182.983978 136.718318,183.355393 C122.406186,183.726808 118.058919,165.533047 111.350599,158.64894 C109.061986,156.300357 101.479656,152.881375 96.9273553,158.053368 C92.3750547,163.225361 97.5384681,185.750774 83.0825446,184.881957 C68.626621,184.013141 63.3933675,163.811133 57.6788774,151.362991 C52.7485245,140.622972 42.7605342,140.821026 41.714458,113.085684 C41.6016141,103.672774 43.1405545,95.5136149 45.4969418,88.513052 C28.7686615,96.8371233 4.47414718,103.856684 0.521069366,94.0724734 C-4.19713999,82.3944955 33.3351157,70.7720674 57.9451539,59.7051943 C60.1582805,59.2891243 61.9921957,58.984724 63.4938853,58.779407 C64.3361386,57.7585547 65.0254168,56.8930656 65.5072143,56.1767235 C69.7095505,49.9286413 69.0607085,17.5686887 104.775806,17.5686887 C140.490904,17.5686887 140.485205,47.4364412 143.754045,56.1767223 C144.079666,57.047375 144.5428,57.9051834 145.114206,58.7843199 C146.777522,59.2376843 148.97007,59.9455877 151.797109,60.954886 C164.968915,69.5785251 182.45585,79.077088 193.450385,87.6382855 C201.299925,93.7505459 196.37119,106.986631 192.549504,106.798765 C184.24223,106.390398 173.012231,100.726004 163.462647,94.2396467 Z" id="Combined-Shape" stroke="#DDDDDD" fill="#F8F8F8"></path>
                    <path d="M120.452792,41.892711 C120.452792,41.892711 119.913032,37.8091103 123.668123,37.7020173 C127.423213,37.5949242 127.353353,41.8087833 127.353353,41.8087833 C127.353353,41.8087833 128.981803,42.1846959 128.981803,41.605235 C128.981803,38.8350431 126.705041,36.5893588 123.896514,36.5893588 C121.087986,36.5893588 118.811225,38.8350431 118.811225,41.605235 C118.811225,42.4169902 120.452792,41.892711 120.452792,41.892711 Z" id="Oval-19" stroke="#DDDDDD" stroke-width="0.5" fill="#F8F8F8"></path>
                    <path d="M82.4527917,41.892711 C82.4527917,41.892711 81.9130325,37.8091103 85.6681225,37.7020173 C89.4232125,37.5949242 89.3533535,41.8087833 89.3533535,41.8087833 C89.3533535,41.8087833 90.9818027,42.1846959 90.9818027,41.605235 C90.9818027,38.8350431 88.7050412,36.5893588 85.8965136,36.5893588 C83.087986,36.5893588 80.8112245,38.8350431 80.8112245,41.605235 C80.8112245,42.4169902 82.4527917,41.892711 82.4527917,41.892711 Z" id="Oval-19" stroke="#DDDDDD" stroke-width="0.5" fill="#F8F8F8" transform="translate(85.896514, 39.324316) scale(-1, 1) translate(-85.896514, -39.324316) "></path>
                    <path d="M96.5916241,42.9639924 L112.732893,42.8592041 C112.732893,42.8592041 114.370508,56.658535 104.995921,56.6618278 C95.6213347,56.6651207 96.5916241,42.9639924 96.5916241,42.9639924 Z" id="Path-5" fill="#DDDDDD"></path>
                    <path d="M97.8344071,50.8092678 C97.8344071,50.8092678 103.627179,48.4815429 105.156263,52.02978 C105.397282,48.6147194 112.003708,50.0595465 112.003708,50.0595465 C112.003708,50.0595465 111.203104,56.0466491 105.203415,56.2197299 C99.203727,56.3928106 97.8344071,50.8092678 97.8344071,50.8092678 Z" id="Path-11" stroke="#DDDDDD" fill="#F8F8F8"></path>
                    <path d="M103.314262,152.967824 C131.16238,154.126245 148.832365,145.7851 148.832365,116.048857 C148.832365,86.3126136 130.470959,67 104.107909,67 C77.7448594,67 61.6540122,86.2978879 61.6540122,116.034131 C61.6540122,145.770375 75.466143,151.809402 103.314262,152.967824 Z" id="Oval-27" stroke="#DDDDDD" fill="#F8F8F8"></path>
                </g>
                <path d="M79.7332702,88.6102126 C87.9300532,88.6102125 113.40679,87.6014993 113.40679,87.6014993 C113.40679,87.6014993 137.002394,84.6113401 83.224945,115.764247 C29.4474961,146.917154 103.80607,120.487213 108.549609,119.018391 C113.293147,117.549568 137.368941,109.944845 133.994471,114.540552 C130.620001,119.136259 106.273831,126.972904 101.684975,135.779557 C97.0961196,144.586209 133.538417,123.269631 137.795688,119.018391 C142.052959,114.767151 166.120411,90.1179683 97.0961196,117.93137 C56.6036579,133.527562 113.815346,105.737843 113.815346,105.737843 C113.815346,105.737843 160.588126,77.206013 109.952812,77.206013 C59.3174974,77.206013 71.5364872,88.6102127 79.7332702,88.6102126 Z" id="Path-4" fill="#00BEBC"></path>
                <g id="Group-10" transform="translate(169.000000, 43.000000)">
                    <path d="M6.72940464,28.0669703 C18.3616612,28.0669701 4.19051208,28.06697 16.234436,28.06697 C28.610171,28.7407072 22.1711075,15.5623231 22.1711075,15.5623231 C22.1711075,15.5623231 16.8490509,-0.226453483 11.8597343,0.002465449 C6.87041779,0.231384381 2.07650201,14.6334381 2.07650201,14.6334381 C2.07650201,14.6334381 -4.90285196,28.0669706 6.72940464,28.0669703 Z" id="Path-6" fill="#00BEBC"></path>
                    <rect id="Rectangle-24" fill="#423636" x="2.6" y="27.277937" width="17.8" height="4.81375358"></rect>
                    <rect id="Rectangle-25" fill="#423636" x="0.6" y="29.6848138" width="22.4" height="105.979107"></rect>
                    <rect id="Rectangle-25" fill="#DDDDDD" x="0.6" y="40.9169054" width="22.4" height="76.6189112"></rect>
                    <path d="M6.14665404,56.8739898 C7.78601064,56.8739897 12.8813579,55.7267536 12.8813579,55.7267536 C12.8813579,55.7267536 17.6004788,52.3259671 6.84498899,87.756986 C-3.91050078,123.188005 10.9612141,93.1285393 11.9099218,91.4580089 C12.8586294,89.7874786 17.6737882,81.1384273 16.9988942,86.3652455 C16.3240002,91.5920637 11.4547662,100.504886 10.5369951,110.520922 C9.61922392,120.536959 16.9076835,96.2930555 17.7591376,91.4580089 C18.6105918,86.6229624 23.4240822,58.5887999 9.61922392,90.2217116 C1.52073158,107.959669 12.9630692,76.3536935 12.9630692,76.3536935 C12.9630692,76.3536935 22.3176253,43.9036943 12.1905624,43.9036943 C2.06349949,43.9036943 4.50729744,56.8739899 6.14665404,56.8739898 Z" id="Path-4" fill="#00BEBC"></path>
                    <rect id="Rectangle-26" fill="#00BEBC" x="3" y="135.338832" width="17.8" height="4.55125001"></rect>
                </g>
                <path d="M199.116943,102.967679 C201.023224,99.4407369 201.06326,95.2792587 199.116943,90.8971501 C197.170625,86.5150415 191.615231,86.0776735 191.615231,86.0776735 C191.615231,86.0776735 172.003114,88.1218693 191.531678,106.500633 C193.87112,108.702334 197.210662,106.49462 199.116943,102.967679 Z" id="Path-7" stroke="#DDDDDD" fill="#F8F8F8"></path>
            </g>
            <g filter="url(#filter-3)">
                <g id="Striped-Shirt" filter="url(#filter-4)" transform="translate(31.800038, 300.163404)">
                    <path d="M52.7686785,2.44357049 C4.87542341,68.9497062 0.116734135,182.077837 0.116734135,182.077837 C0.116734135,182.077837 41.8729373,217.767015 133.220251,217.34867 C224.567564,216.930326 275.471376,182.077837 275.471376,182.077837 C275.471376,182.077837 264.7292,66.4196551 215.882895,0.249074714" id="Path-5" fill="#F2534A"></path>
                    <path d="M26.8730722,51.9754501 C74.6070015,75.8654218 113.487982,82.7071612 134.244198,83.1864753 C155.000414,83.6657893 210.937839,72.0997 244.474534,53.2124455 C250.791117,66.8782268 255.040973,83.5948918 255.040973,83.5948918 C255.040973,83.5948918 144.700588,153.145214 16.8103527,82.6889369 C19.5079322,70.1519982 24.166865,58.2755542 26.8730722,51.9754501 Z" id="Path-45" fill="#00BEBC"></path>
                    <path d="M51.9737912,3.70564773 C99.7077205,27.5956194 120.05502,22.6630573 138.416387,24.0555654 C156.777754,25.4480735 219.353576,5.06473348 219.353576,5.06473348 C219.353576,5.06473348 226.959054,15.7081065 232.42087,26.954962 C234.444342,29.4065588 183.043338,53.8744462 136.882494,53.1061658 C90.7216502,52.3378855 78.5367973,49.434851 38.1379114,27.1786162 C42.7115262,15.6549474 47.9427599,9.17366261 51.9737912,3.70564773 Z" id="Path-45" fill="#00BEBC"></path>
                    <path d="M8.26805039,118.469336 C8.26805039,118.469336 3.03037269,147.369929 2.90961701,152.968674 C114.966768,211.005691 246.657904,166.259034 270.660734,152.366786 C268.548018,134.042646 266.545444,129.310858 264.934948,118.723768 C124.074088,185.522186 8.26805039,118.469336 8.26805039,118.469336 Z" id="Path-46" fill="#00BEBC"></path>
                </g>
                <path d="M72.7795323,171.519549 C72.1516302,172.923009 71.5539464,174.34297 70.9873095,175.778603 C66.3277224,187.584141 70.1273095,217.27714 71.4778439,229.649556 C72.8283783,242.021971 90.8164929,336.580294 94.2909252,338.60811 C97.7653575,340.635925 108.881665,300.702304 112.908681,311.403867 C135.920236,372.555753 161.801677,414.612376 165.401581,414.384018 C169.001485,414.155661 190.534753,360.578396 196.174146,342.542711 C201.81354,324.507027 212.969137,318.464684 213.126547,364.985698 C218.91024,359.283043 226.091221,339.580913 232.002091,329.70673 C237.91296,319.832546 249.300455,309.455762 258.898714,254.143194 C261.104086,241.434136 268.814207,188.385912 264.426814,176.884465 C263.901885,175.508376 263.348553,174.146333 262.767534,172.799056 C262.767534,172.799056 242.564635,120.734375 180.701354,109.445312 C118.838073,98.15625 77.6115104,161.832031 77.6115104,161.832031" id="Beard" stroke="#FFD087" fill="#FFD087"></path>
                <path d="M270.562,143.580028 C283.852337,134.086583 306.421363,116.242454 304.916801,105.501071 C302.792903,90.3381255 293.194894,53.6927847 291.102328,49.9329682 C289.009763,46.1731517 285.414001,52.0474829 269.249869,53.2556678 C258.899359,50.6657693 269.873899,30.5962149 270.29348,29.2822525 C270.713061,27.9682901 268.79759,46.777777 271.216468,47.0970578 C273.629273,47.4155368 285.922446,45.564092 287.908895,42.4561299 C289.895343,39.3481677 286.967584,15.1393818 289.886945,8.75304305 C292.806307,2.36670434 334.772139,-1.45966195 337.207474,0.526533987 C339.64281,2.51272992 297.900684,9.2398323 295.278298,11.5163553 C292.655911,13.7928784 297.03419,37.221426 297.03419,37.221426 C297.03419,37.221426 301.532327,59.3905879 304.544064,71.712393 C307.555801,84.0341982 317.370814,70.1015473 319.814218,66.4945014 C322.257622,62.8874554 317.155059,49.0799485 319.175226,50.1133171 C321.195393,51.1466857 325.294128,59.7451722 325.15442,64.8935226 C325.014712,70.0418729 320.97387,75.3071444 317.191831,78.66194 C316.108362,79.6230137 311.444639,84.1462863 309.330015,85.1392174 C306.366375,86.530808 316.989522,102.827167 313.884647,113.402797 C311.293411,122.228902 279.948583,154.320313 269.648753,164.696528" id="Right-Antler" fill="#423636"></path>
                <path d="M66.7351034,143.570831 C53.4430709,134.075062 30.8891009,116.238986 32.3931776,105.501071 C34.5170755,90.3381255 44.1150849,53.6927847 46.2076503,49.9329682 C48.3002156,46.1731517 51.8959773,52.0474829 68.0601092,53.2556678 C78.4106199,50.6657693 67.4360799,30.5962149 67.0164986,29.2822525 C66.5969173,27.9682901 68.5123884,46.777777 66.0935101,47.0970578 C63.6807059,47.4155368 51.387532,45.564092 49.4010836,42.4561299 C47.4146352,39.3481677 50.3423945,15.1393818 47.423033,8.75304305 C44.5036715,2.36670434 2.53783964,-1.45966195 0.102504118,0.526533987 C-2.33283141,2.51272992 39.4092941,9.2398323 42.0316808,11.5163553 C44.6540675,13.7928784 40.2757887,37.221426 40.2757887,37.221426 C40.2757887,37.221426 35.7776511,59.3905879 32.7659145,71.712393 C29.7541778,84.0341982 19.9391648,70.1015473 17.4957606,66.4945014 C15.0523564,62.8874554 20.1549195,49.0799485 18.1347526,50.1133171 C16.1145858,51.1466857 12.0158503,59.7451722 12.1555583,64.8935226 C12.2952662,70.0418729 16.3361084,75.3071444 20.1181473,78.66194 C21.2016166,79.6230137 25.8653394,84.1462863 27.9799633,85.1392174 C30.9436038,86.530808 20.3204566,102.827167 23.4253319,113.402797 C25.9821339,122.111615 56.533411,153.471518 67.23958,164.271472" id="Left-Antler" fill="#423636"></path>
                <g id="Group-33" transform="translate(46.000000, 18.000000)">
                    <g id="Group-10" transform="translate(93.871847, 84.451496) rotate(-74.000000) translate(-93.871847, -84.451496) translate(81.871847, -9.048504)">
                        <rect id="Rectangle-24" fill="#423636" x="2.6" y="74.277937" width="17.8" height="4.81375358"></rect>
                        <rect id="Rectangle-25" fill="#423636" x="0.6" y="76.6848138" width="22.4" height="105.979107"></rect>
                        <rect id="Rectangle-25" fill="#DDDDDD" x="0.6" y="87.9169054" width="22.4" height="76.6189112"></rect>
                        <use id="Rectangle-25" stroke="#FFD087" mask="url(#mask-6)" stroke-width="2" fill="#FFD087" xlink:href="#path-5"></use>
                        <path d="M6.14665404,103.87399 C7.78601064,103.87399 12.8813579,102.726754 12.8813579,102.726754 C12.8813579,102.726754 17.6004788,99.3259671 6.84498899,134.756986 C-3.91050078,170.188005 10.9612141,140.128539 11.9099218,138.458009 C12.8586294,136.787479 17.6737882,128.138427 16.9988942,133.365246 C16.3240002,138.592064 11.4547662,147.504886 10.5369951,157.520922 C9.61922392,167.536959 16.9076835,143.293055 17.7591376,138.458009 C18.6105918,133.622962 23.4240822,105.5888 9.61922392,137.221712 C1.52073158,154.959669 12.9630692,123.353693 12.9630692,123.353693 C12.9630692,123.353693 22.3176253,90.9036943 12.1905624,90.9036943 C2.06349949,90.9036943 4.50729744,103.87399 6.14665404,103.87399 Z" id="Path-4" fill="#FFD087"></path>
                        <rect id="Rectangle-26" fill="#F2534A" x="3" y="182.338832" width="17.8" height="4.55125001"></rect>
                    </g>
                    <g id="Group-10" transform="translate(134.666367, 85.391301) rotate(-292.000000) translate(-134.666367, -85.391301) translate(122.666367, -8.108699)">
                        <rect id="Rectangle-24" fill="#423636" x="2.6" y="74.277937" width="17.8" height="4.81375358"></rect>
                        <rect id="Rectangle-25" fill="#423636" x="0.6" y="76.6848138" width="22.4" height="105.979107"></rect>
                        <rect id="Rectangle-25" fill="#DDDDDD" x="0.6" y="87.9169054" width="22.4" height="76.6189112"></rect>
                        <use id="Rectangle-25" stroke="#F2534A" mask="url(#mask-8)" stroke-width="2" fill="#F2534A" xlink:href="#path-7"></use>
                        <path d="M6.14665404,103.87399 C7.78601064,103.87399 12.8813579,102.726754 12.8813579,102.726754 C12.8813579,102.726754 17.6004788,99.3259671 6.84498899,134.756986 C-3.91050078,170.188005 10.9612141,140.128539 11.9099218,138.458009 C12.8586294,136.787479 17.6737882,128.138427 16.9988942,133.365246 C16.3240002,138.592064 11.4547662,147.504886 10.5369951,157.520922 C9.61922392,167.536959 16.9076835,143.293055 17.7591376,138.458009 C18.6105918,133.622962 23.4240822,105.5888 9.61922392,137.221712 C1.52073158,154.959669 12.9630692,123.353693 12.9630692,123.353693 C12.9630692,123.353693 22.3176253,90.9036943 12.1905624,90.9036943 C2.06349949,90.9036943 4.50729744,103.87399 6.14665404,103.87399 Z" id="Path-4" fill="#F2534A"></path>
                        <rect id="Rectangle-26" fill="#F2534A" x="3" y="182.338832" width="17.8" height="4.55125001"></rect>
                    </g>
                    <g id="Group-10" transform="translate(214.790938, 75.170981) rotate(-315.000000) translate(-214.790938, -75.170981) translate(202.790938, -18.329019)">
                        <rect id="Rectangle-24" fill="#423636" x="2.6" y="74.277937" width="17.8" height="4.81375358"></rect>
                        <rect id="Rectangle-25" fill="#423636" x="0.6" y="76.6848138" width="22.4" height="105.979107"></rect>
                        <rect id="Rectangle-25" fill="#DDDDDD" x="0.6" y="87.9169054" width="22.4" height="76.6189112"></rect>
                        <use id="Rectangle-25" stroke="#685353" mask="url(#mask-10)" stroke-width="2" fill="#685353" xlink:href="#path-9"></use>
                        <path d="M6.14665404,103.87399 C7.78601064,103.87399 12.8813579,102.726754 12.8813579,102.726754 C12.8813579,102.726754 17.6004788,99.3259671 6.84498899,134.756986 C-3.91050078,170.188005 10.9612141,140.128539 11.9099218,138.458009 C12.8586294,136.787479 17.6737882,128.138427 16.9988942,133.365246 C16.3240002,138.592064 11.4547662,147.504886 10.5369951,157.520922 C9.61922392,167.536959 16.9076835,143.293055 17.7591376,138.458009 C18.6105918,133.622962 23.4240822,105.5888 9.61922392,137.221712 C1.52073158,154.959669 12.9630692,123.353693 12.9630692,123.353693 C12.9630692,123.353693 22.3176253,90.9036943 12.1905624,90.9036943 C2.06349949,90.9036943 4.50729744,103.87399 6.14665404,103.87399 Z" id="Path-4" fill="#685353"></path>
                        <rect id="Rectangle-26" fill="#685353" x="3" y="182.338832" width="17.8" height="4.55125001"></rect>
                    </g>
                </g>
                <g id="Crown" transform="translate(65.000000, 61.000000)">
                    <path d="M38.2236759,111.428586 C23.0260272,111.400189 11.0200629,111.411535 5.21172213,111.320537 C-0.765755255,110.882891 -0.681160467,106.513299 2.23447539,104.805288 C2.29355771,104.675985 2.4982512,104.554262 2.84077689,104.439826 L0.612980888,50.5750848 L52.3949819,86.7464103 L103.928431,0.922910638 L154.639122,86.38489 L206.949677,50.7111627 L204.440429,106.852784 C206.963918,108.629159 205.469406,111.786654 203.223298,112.183741 C200.154704,112.726235 186.94052,112.861847 170.530628,112.800027 M140.288361,112.451641 C124.729304,112.262719 110.862825,112.111043 100.93338,111.937551 C89.1671619,111.731967 77.2465484,111.610472 65.9401811,111.536732" fill="#FADAA8"></path>
                    <ellipse id="Oval-9" fill="#F2534A" cx="188.301074" cy="85.81702" rx="5.85543888" ry="9.21055189"></ellipse>
                    <ellipse id="Oval-9" fill="#F2534A" cx="105.474118" cy="73.3675385" rx="15.8205957" ry="24.2823641"></ellipse>
                    <ellipse id="Oval-9" fill="#F2534A" cx="16.4638274" cy="85.81702" rx="5.85543888" ry="9.21055189"></ellipse>
                </g>
                <ellipse id="Oval-3" fill="#FFFFFF" cx="117.23192" cy="194.252323" rx="17.5663166" ry="36.0048846"></ellipse>
                <ellipse id="Oval-5" fill="#00BEBC" cx="118.34075" cy="188.055965" rx="8.36491269" ry="22.6077183"></ellipse>
                <ellipse id="Oval-6" stroke="#4A4A4A" fill="#423636" cx="119.509474" cy="180.535906" rx="2.50947381" ry="7.53590609"></ellipse>
                <path d="M220.334268,230.257208 C230.035876,230.257208 237.900584,214.137272 237.900584,194.252323 C237.900584,186.375607 236.666559,179.089646 234.573155,173.162337 C231.381713,164.12602 226.192929,158.247438 220.334268,158.247438 C214.482939,158.247438 209.299811,164.111315 206.107372,173.128425 C204.00669,179.061846 202.767951,186.360578 202.767951,194.252323 C202.767951,214.137272 210.632659,230.257208 220.334268,230.257208 Z" id="Oval-3" fill="#FFFFFF"></path>
                <ellipse id="Oval-5" fill="#00BEBC" cx="221.443098" cy="188.055965" rx="8.36491269" ry="22.6077183"></ellipse>
                <ellipse id="Oval-6" stroke="#4A4A4A" fill="#423636" cx="220.509474" cy="180.535906" rx="2.50947381" ry="7.53590609"></ellipse>
                <g id="Group-32" transform="translate(156.000000, 216.000000)">
                    <path d="M0.456963197,18.1729217 C0.456963197,18.1729217 0.631583367,-0.164755673 11.735709,0.0546179794 C22.8398347,0.273991632 23.6153561,18.020237 23.6153561,18.020237 C23.6153561,18.020237 25.9648946,38.126929 12.5148764,38.1317269 C-0.93514186,38.1365249 0.456963197,18.1729217 0.456963197,18.1729217 Z" id="Path-5" fill="#4A4A4A"></path>
                    <path d="M2.24894771,30.5822479 C2.24894771,30.5822479 10.5600216,27.1905728 12.7538475,32.3606285 C13.0996455,27.3846212 22.5780953,29.489846 22.5780953,29.489846 C22.5780953,29.489846 21.4294423,38.2135173 12.8214985,38.4657094 C4.21355461,38.7179015 2.24894771,30.5822479 2.24894771,30.5822479 Z" id="Path-11" fill="#F2534A"></path>
                </g>
            </g>
        </g>
    </g>
</svg>