<?xml version="1.0" encoding="UTF-8" standalone="no"?>
<svg width="167px" height="310px" viewBox="0 0 167 310" version="1.1" xmlns="http://www.w3.org/2000/svg" xmlns:xlink="http://www.w3.org/1999/xlink">
    <!-- Generator: Sketch 42 (36781) - http://www.bohemiancoding.com/sketch -->
    <title>facebook</title>
    <desc>Created with Sketch.</desc>
    <defs></defs>
    <g id="Characters" stroke="none" stroke-width="1" fill="none" fill-rule="evenodd">
        <g id="facebook" transform="translate(5.000000, 5.000000)" stroke="#00BEBC" stroke-width="10" fill="#FAFAFA">
            <path d="M46.6223351,109.051652 C43.1221291,109.032043 2.27373675e-13,109.051652 2.27373675e-13,109.051652 L2.27373675e-13,162.274414 L45.9503654,162.274414 L45.9503654,299.213415 L100.519343,299.213415 L100.519343,161.981451 L147.275853,161.981451 L154.088525,109.158532 L101.390982,109.158532 C101.390982,109.158532 101.390982,87.3360174 101.390982,68.166557 C102.206347,52.7401123 117.165519,50.3932753 126.797782,50.3932753 C156.453487,50.3932753 155.832756,50.3932753 155.832756,50.3932753 C156.086549,50.3932753 156.292289,50.175653 156.292289,49.8942717 L156.292289,1.5818063 C156.292289,1.5818063 129.913043,-0.608934193 106.755094,0.165903479 C63.6456882,1.47713722 46.5823641,38.3303885 46.6223351,65.7842718 C46.4510444,96.9038291 46.587198,105.33656 46.6223351,109.051652 Z" id="Path"></path>
        </g>
    </g>
</svg>