<?xml version="1.0" encoding="UTF-8" standalone="no"?>
<svg width="347px" height="340px" viewBox="0 0 347 340" version="1.1" xmlns="http://www.w3.org/2000/svg" xmlns:xlink="http://www.w3.org/1999/xlink">
    <!-- Generator: Sketch 42 (36781) - http://www.bohemiancoding.com/sketch -->
    <title>Group 38</title>
    <desc>Created with Sketch.</desc>
    <defs></defs>
    <g id="Characters" stroke="none" stroke-width="1" fill="none" fill-rule="evenodd">
        <g id="Group-38" transform="translate(-7.000000, -3.000000)">
            <g id="Group-7" transform="translate(90.000000, 0.000000)">
                <g id="Group" transform="translate(23.781344, 0.000000)">
                    <path d="M41.0340876,24.1744401 C41.0340876,24.1744401 27.9389113,25.8887403 24.1746278,23.1734298 C22.8979099,22.2524881 22.0083541,21.4331624 22.0052288,17.1633262 C22.0022562,13.1020285 21.9084952,10.0888518 23.7029837,9.0185105 C25.8031514,7.76584364 30.7073685,8.01249835 32.6898239,10.1056702 C33.9654056,11.4524909 33.1175881,13.1868617 32.6898238,17.163326 C32.6898238,18.369144 28.2817474,17.6545751 27.0538909,17.1633262 C25.8260344,16.6720774 24.9180222,13.1883984 24.8664531,13.3463366 C24.1753209,15.4630338 24.1340389,17.5512528 25.9492289,18.3691442 C27.7644189,19.1870356 35.0349581,22.1422038 35.8905459,18.7183746 C36.9291444,14.5621868 37.3128509,8.6119818 35.8905451,6.77978043 C34.4682393,4.94757906 26.6162351,1.23118741 18.6453968,5.29059506 C15.8294535,6.76162207 11.1491454,22.1537502 12.1580137,26.1951161 C13.7109177,29.5381584 16.3991515,31.0642731 23.7029835,33.1484912 C31.0068155,35.2327093 37.8345372,33.5385131 37.8345372,33.5385131 L41.0340876,24.1744401 Z" id="Path-44" fill="#FFD086" transform="translate(26.526065, 18.826451) rotate(16.000000) translate(-26.526065, -18.826451) "></path>
                    <path d="M115.421443,24.1744401 C115.421443,24.1744401 102.326267,25.8887403 98.561983,23.1734298 C97.2852651,22.2524881 96.3957093,21.4331624 96.392584,17.1633262 C96.3896113,13.1020285 96.2958504,10.0888518 98.0903389,9.0185105 C100.190507,7.76584364 105.094724,8.01249835 107.077179,10.1056702 C108.352761,11.4524909 107.504943,13.1868617 107.077179,17.163326 C107.077179,18.369144 102.669103,17.6545751 101.441246,17.1633262 C100.21339,16.6720774 99.3053774,13.1883984 99.2538083,13.3463366 C98.562676,15.4630338 98.5213941,17.5512528 100.336584,18.3691442 C102.151774,19.1870356 109.422313,22.1422038 110.277901,18.7183746 C111.3165,14.5621868 111.700206,8.6119818 110.2779,6.77978043 C108.855594,4.94757906 101.00359,1.23118741 93.032752,5.29059506 C90.2168086,6.76162207 85.5365006,22.1537502 86.5453689,26.1951161 C88.0982729,29.5381584 90.7865066,31.0642731 98.0903386,33.1484912 C105.394171,35.2327093 112.221892,33.5385131 112.221892,33.5385131 L115.421443,24.1744401 Z" id="Path-44" fill="#FFD086" transform="translate(100.913420, 18.826451) scale(-1, 1) rotate(16.000000) translate(-100.913420, -18.826451) "></path>
                    <path d="M23.8532021,56.1767235 C28.0555383,49.9286413 27.4066963,17.5686887 63.1217943,17.5686887 C98.8368923,17.5686887 98.831193,47.4364412 102.100032,56.1767223 C105.368872,64.9170034 122.495757,72.3628818 123.899915,113.085684 C123.637917,134.719678 112.543207,138.891491 107.588852,149.304666 C101.720936,161.63798 109.376438,182.983978 95.0643062,183.355393 C80.7521739,183.726808 76.4049067,165.533047 69.6965868,158.64894 C67.4079742,156.300357 59.8256437,152.881375 55.2733431,158.053368 C50.7210425,163.225361 55.8844559,185.750774 41.4285324,184.881957 C26.9726088,184.013141 21.7393553,163.811133 16.0248652,151.362991 C11.0945123,140.622972 1.10652204,140.821026 0.0604458018,113.085684 C-0.335958069,80.019529 19.6508659,62.4248058 23.8532021,56.1767235 Z" id="Path-22" fill="#00BEBC"></path>
                </g>
                <path d="M85.4415939,152.967824 C113.289712,154.126245 130.959697,145.7851 130.959697,116.048857 C130.959697,86.3126136 112.598291,67 86.2352414,67 C59.8721917,67 43.7813444,86.2978879 43.7813444,116.034131 C43.7813444,145.770375 57.5934753,151.809402 85.4415939,152.967824 Z" id="Oval-27" fill="#4A4A4A"></path>
                <path d="M141.519117,94.1515691 C154.114222,94.1515691 150.830519,54.9984294 151.872463,28.0346757 C146.25971,0.0792273501 146.822114,35.2001893 141.519117,35.3901358 C136.4006,35.5734744 137.067945,36.9152775 131.094336,40.5145199 C127.668695,58.3164408 128.924012,94.1515691 141.519117,94.1515691 Z" id="Oval-28" fill="#00BEBC" transform="translate(140.663667, 55.692832) scale(-1, 1) rotate(156.000000) translate(-140.663667, -55.692832) "></path>
                <path d="M32.1915785,87.986476 C44.7866835,87.986476 41.5029807,48.8333363 42.5449242,21.8695826 C40.7076814,12.7188238 38.2965474,20.3714283 37.3603101,21.3001988 C35.4363546,23.2088099 35.7587266,29.0972721 32.1915789,29.2250427 C27.0730615,29.4083813 27.7404064,30.7501844 21.7667974,34.3494268 C18.3411566,52.1513477 19.5964736,87.986476 32.1915785,87.986476 Z" id="Oval-28" fill="#00BEBC" transform="translate(31.336128, 52.703885) scale(-1, 1) rotate(-142.000000) translate(-31.336128, -52.703885) "></path>
            </g>
            <g id="Group-7" transform="translate(0.000000, 158.000000)">
                <g id="Group" transform="translate(23.781344, 0.000000)">
                    <path d="M41.0340876,24.1744401 C41.0340876,24.1744401 27.9389113,25.8887403 24.1746278,23.1734298 C22.8979099,22.2524881 22.0083541,21.4331624 22.0052288,17.1633262 C22.0022562,13.1020285 21.9084952,10.0888518 23.7029837,9.0185105 C25.8031514,7.76584364 30.7073685,8.01249835 32.6898239,10.1056702 C33.9654056,11.4524909 33.1175881,13.1868617 32.6898238,17.163326 C32.6898238,18.369144 28.2817474,17.6545751 27.0538909,17.1633262 C25.8260344,16.6720774 24.9180222,13.1883984 24.8664531,13.3463366 C24.1753209,15.4630338 24.1340389,17.5512528 25.9492289,18.3691442 C27.7644189,19.1870356 35.0349581,22.1422038 35.8905459,18.7183746 C36.9291444,14.5621868 37.3128509,8.6119818 35.8905451,6.77978043 C34.4682393,4.94757906 26.6162351,1.23118741 18.6453968,5.29059506 C15.8294535,6.76162207 11.1491454,22.1537502 12.1580137,26.1951161 C13.7109177,29.5381584 16.3991515,31.0642731 23.7029835,33.1484912 C31.0068155,35.2327093 37.8345372,33.5385131 37.8345372,33.5385131 L41.0340876,24.1744401 Z" id="Path-44" fill="#FFD086" transform="translate(26.526065, 18.826451) rotate(16.000000) translate(-26.526065, -18.826451) "></path>
                    <path d="M115.421443,24.1744401 C115.421443,24.1744401 102.326267,25.8887403 98.561983,23.1734298 C97.2852651,22.2524881 96.3957093,21.4331624 96.392584,17.1633262 C96.3896113,13.1020285 96.2958504,10.0888518 98.0903389,9.0185105 C100.190507,7.76584364 105.094724,8.01249835 107.077179,10.1056702 C108.352761,11.4524909 107.504943,13.1868617 107.077179,17.163326 C107.077179,18.369144 102.669103,17.6545751 101.441246,17.1633262 C100.21339,16.6720774 99.3053774,13.1883984 99.2538083,13.3463366 C98.562676,15.4630338 98.5213941,17.5512528 100.336584,18.3691442 C102.151774,19.1870356 109.422313,22.1422038 110.277901,18.7183746 C111.3165,14.5621868 111.700206,8.6119818 110.2779,6.77978043 C108.855594,4.94757906 101.00359,1.23118741 93.032752,5.29059506 C90.2168086,6.76162207 85.5365006,22.1537502 86.5453689,26.1951161 C88.0982729,29.5381584 90.7865066,31.0642731 98.0903386,33.1484912 C105.394171,35.2327093 112.221892,33.5385131 112.221892,33.5385131 L115.421443,24.1744401 Z" id="Path-44" fill="#FFD086" transform="translate(100.913420, 18.826451) scale(-1, 1) rotate(16.000000) translate(-100.913420, -18.826451) "></path>
                    <path d="M23.8532021,56.1767235 C28.0555383,49.9286413 27.4066963,17.5686887 63.1217943,17.5686887 C98.8368923,17.5686887 98.831193,47.4364412 102.100032,56.1767223 C105.368872,64.9170034 122.495757,72.3628818 123.899915,113.085684 C123.637917,134.719678 112.543207,138.891491 107.588852,149.304666 C101.720936,161.63798 109.376438,182.983978 95.0643062,183.355393 C80.7521739,183.726808 76.4049067,165.533047 69.6965868,158.64894 C67.4079742,156.300357 59.8256437,152.881375 55.2733431,158.053368 C50.7210425,163.225361 55.8844559,185.750774 41.4285324,184.881957 C26.9726088,184.013141 21.7393553,163.811133 16.0248652,151.362991 C11.0945123,140.622972 1.10652204,140.821026 0.0604458018,113.085684 C-0.335958069,80.019529 19.6508659,62.4248058 23.8532021,56.1767235 Z" id="Path-22" fill="#FADAA8"></path>
                    <g id="Group-2" transform="translate(38.504434, 36.261095)">
                        <path d="M40.2943458,5.63161629 C40.2943458,5.63161629 39.7545866,1.54801561 43.5096766,1.44092258 C47.2647666,1.33382955 47.1949076,5.54768861 47.1949076,5.54768861 C47.1949076,5.54768861 48.8233568,5.92360124 48.8233568,5.34414037 C48.8233568,2.57394843 46.5465953,0.32826415 43.7380677,0.32826415 C40.9295401,0.32826415 38.6527787,2.57394843 38.6527787,5.34414037 C38.6527787,6.15589555 40.2943458,5.63161629 40.2943458,5.63161629 Z" id="Oval-19" fill="#4A4A4A"></path>
                        <path d="M2.29434576,5.63161629 C2.29434576,5.63161629 1.75458659,1.54801561 5.50967661,1.44092258 C9.26476663,1.33382955 9.1949076,5.54768861 9.1949076,5.54768861 C9.1949076,5.54768861 10.8233568,5.92360124 10.8233568,5.34414037 C10.8233568,2.57394843 8.54659533,0.32826415 5.73806773,0.32826415 C2.92954012,0.32826415 0.652778656,2.57394843 0.652778656,5.34414037 C0.652778656,6.15589555 2.29434576,5.63161629 2.29434576,5.63161629 Z" id="Oval-19" fill="#4A4A4A" transform="translate(5.738068, 3.063221) scale(-1, 1) translate(-5.738068, -3.063221) "></path>
                        <path d="M16.4331782,6.70289775 L32.5744472,6.59810942 C32.5744472,6.59810942 34.2120623,20.3974403 24.8374755,20.4007332 C15.4628888,20.404026 16.4331782,6.70289775 16.4331782,6.70289775 Z" id="Path-5" fill="#4A4A4A"></path>
                        <path d="M17.6759612,14.5481732 C17.6759612,14.5481732 23.4687328,12.2204483 24.997817,15.7686853 C25.2388363,12.3536247 31.8452623,13.7984518 31.8452623,13.7984518 C31.8452623,13.7984518 31.0446576,19.7855544 25.0449694,19.9586352 C19.0452811,20.131716 17.6759612,14.5481732 17.6759612,14.5481732 Z" id="Path-11" fill="#F2534A"></path>
                    </g>
                </g>
                <path d="M85.4415939,152.967824 C113.289712,154.126245 130.959697,145.7851 130.959697,116.048857 C130.959697,86.3126136 112.598291,67 86.2352414,67 C59.8721917,67 43.7813444,86.2978879 43.7813444,116.034131 C43.7813444,145.770375 57.5934753,151.809402 85.4415939,152.967824 Z" id="Oval-27" fill="#4A4A4A"></path>
                <path d="M141.519117,94.1515691 C154.114222,94.1515691 150.830519,54.9984294 151.872463,28.0346757 C146.25971,0.0792273501 146.822114,35.2001893 141.519117,35.3901358 C136.4006,35.5734744 137.067945,36.9152775 131.094336,40.5145199 C127.668695,58.3164408 128.924012,94.1515691 141.519117,94.1515691 Z" id="Oval-28" fill="#FADAA8" transform="translate(140.663667, 55.692832) scale(-1, 1) rotate(156.000000) translate(-140.663667, -55.692832) "></path>
                <path d="M32.1915785,87.986476 C44.7866835,87.986476 41.5029807,48.8333363 42.5449242,21.8695826 C40.7076814,12.7188238 38.2965474,20.3714283 37.3603101,21.3001988 C35.4363546,23.2088099 35.7587266,29.0972721 32.1915789,29.2250427 C27.0730615,29.4083813 27.7404064,30.7501844 21.7667974,34.3494268 C18.3411566,52.1513477 19.5964736,87.986476 32.1915785,87.986476 Z" id="Oval-28" fill="#FADAA8" transform="translate(31.336128, 52.703885) scale(-1, 1) rotate(-142.000000) translate(-31.336128, -52.703885) "></path>
            </g>
            <g id="Group-7" transform="translate(277.500000, 250.500000) scale(-1, 1) translate(-277.500000, -250.500000) translate(194.000000, 158.000000)">
                <g id="Group" transform="translate(23.781344, 0.000000)">
                    <path d="M41.0340876,24.1744401 C41.0340876,24.1744401 27.9389113,25.8887403 24.1746278,23.1734298 C22.8979099,22.2524881 22.0083541,21.4331624 22.0052288,17.1633262 C22.0022562,13.1020285 21.9084952,10.0888518 23.7029837,9.0185105 C25.8031514,7.76584364 30.7073685,8.01249835 32.6898239,10.1056702 C33.9654056,11.4524909 33.1175881,13.1868617 32.6898238,17.163326 C32.6898238,18.369144 28.2817474,17.6545751 27.0538909,17.1633262 C25.8260344,16.6720774 24.9180222,13.1883984 24.8664531,13.3463366 C24.1753209,15.4630338 24.1340389,17.5512528 25.9492289,18.3691442 C27.7644189,19.1870356 35.0349581,22.1422038 35.8905459,18.7183746 C36.9291444,14.5621868 37.3128509,8.6119818 35.8905451,6.77978043 C34.4682393,4.94757906 26.6162351,1.23118741 18.6453968,5.29059506 C15.8294535,6.76162207 11.1491454,22.1537502 12.1580137,26.1951161 C13.7109177,29.5381584 16.3991515,31.0642731 23.7029835,33.1484912 C31.0068155,35.2327093 37.8345372,33.5385131 37.8345372,33.5385131 L41.0340876,24.1744401 Z" id="Path-44" fill="#FFD086" transform="translate(26.526065, 18.826451) rotate(16.000000) translate(-26.526065, -18.826451) "></path>
                    <path d="M115.421443,24.1744401 C115.421443,24.1744401 102.326267,25.8887403 98.561983,23.1734298 C97.2852651,22.2524881 96.3957093,21.4331624 96.392584,17.1633262 C96.3896113,13.1020285 96.2958504,10.0888518 98.0903389,9.0185105 C100.190507,7.76584364 105.094724,8.01249835 107.077179,10.1056702 C108.352761,11.4524909 107.504943,13.1868617 107.077179,17.163326 C107.077179,18.369144 102.669103,17.6545751 101.441246,17.1633262 C100.21339,16.6720774 99.3053774,13.1883984 99.2538083,13.3463366 C98.562676,15.4630338 98.5213941,17.5512528 100.336584,18.3691442 C102.151774,19.1870356 109.422313,22.1422038 110.277901,18.7183746 C111.3165,14.5621868 111.700206,8.6119818 110.2779,6.77978043 C108.855594,4.94757906 101.00359,1.23118741 93.032752,5.29059506 C90.2168086,6.76162207 85.5365006,22.1537502 86.5453689,26.1951161 C88.0982729,29.5381584 90.7865066,31.0642731 98.0903386,33.1484912 C105.394171,35.2327093 112.221892,33.5385131 112.221892,33.5385131 L115.421443,24.1744401 Z" id="Path-44" fill="#FFD086" transform="translate(100.913420, 18.826451) scale(-1, 1) rotate(16.000000) translate(-100.913420, -18.826451) "></path>
                    <path d="M23.8532021,56.1767235 C28.0555383,49.9286413 27.4066963,17.5686887 63.1217943,17.5686887 C98.8368923,17.5686887 98.831193,47.4364412 102.100032,56.1767223 C105.368872,64.9170034 122.495757,72.3628818 123.899915,113.085684 C123.637917,134.719678 112.543207,138.891491 107.588852,149.304666 C101.720936,161.63798 109.376438,182.983978 95.0643062,183.355393 C80.7521739,183.726808 76.4049067,165.533047 69.6965868,158.64894 C67.4079742,156.300357 59.8256437,152.881375 55.2733431,158.053368 C50.7210425,163.225361 55.8844559,185.750774 41.4285324,184.881957 C26.9726088,184.013141 21.7393553,163.811133 16.0248652,151.362991 C11.0945123,140.622972 1.10652204,140.821026 0.0604458018,113.085684 C-0.335958069,80.019529 19.6508659,62.4248058 23.8532021,56.1767235 Z" id="Path-22" fill="#F2534A"></path>
                    <g id="Group-2" transform="translate(38.504434, 37.261095)">
                        <path d="M40.2943458,5.63161629 C40.2943458,5.63161629 39.7545866,1.54801561 43.5096766,1.44092258 C47.2647666,1.33382955 47.1949076,5.54768861 47.1949076,5.54768861 C47.1949076,5.54768861 48.8233568,5.92360124 48.8233568,5.34414037 C48.8233568,2.57394843 46.5465953,0.32826415 43.7380677,0.32826415 C40.9295401,0.32826415 38.6527787,2.57394843 38.6527787,5.34414037 C38.6527787,6.15589555 40.2943458,5.63161629 40.2943458,5.63161629 Z" id="Oval-19" fill="#4A4A4A" transform="translate(43.738068, 3.063221) scale(1, -1) translate(-43.738068, -3.063221) "></path>
                        <path d="M2.29434576,5.63161629 C2.29434576,5.63161629 1.75458659,1.54801561 5.50967661,1.44092258 C9.26476663,1.33382955 9.1949076,5.54768861 9.1949076,5.54768861 C9.1949076,5.54768861 10.8233568,5.92360124 10.8233568,5.34414037 C10.8233568,2.57394843 8.54659533,0.32826415 5.73806773,0.32826415 C2.92954012,0.32826415 0.652778656,2.57394843 0.652778656,5.34414037 C0.652778656,6.15589555 2.29434576,5.63161629 2.29434576,5.63161629 Z" id="Oval-19" fill="#4A4A4A" transform="translate(5.738068, 3.063221) scale(-1, -1) translate(-5.738068, -3.063221) "></path>
                        <path d="M16.4331782,5.70289775 L32.5744472,5.59810942 C32.5744472,5.59810942 34.2120623,19.3974403 24.8374755,19.4007332 C15.4628888,19.404026 16.4331782,5.70289775 16.4331782,5.70289775 Z" id="Path-5" fill="#4A4A4A"></path>
                        <path d="M17.6759612,13.5481732 C17.6759612,13.5481732 23.4687328,11.2204483 24.997817,14.7686853 C25.2388363,11.3536247 31.8452623,12.7984518 31.8452623,12.7984518 C31.8452623,12.7984518 31.0446576,18.7855544 25.0449694,18.9586352 C19.0452811,19.131716 17.6759612,13.5481732 17.6759612,13.5481732 Z" id="Path-11" fill="#F2534A"></path>
                    </g>
                </g>
                <path d="M32.1915785,87.986476 C44.7866835,87.986476 41.5029807,48.8333363 42.5449242,21.8695826 C40.7076814,12.7188238 38.2965474,20.3714283 37.3603101,21.3001988 C35.4363546,23.2088099 35.7587266,29.0972721 32.1915789,29.2250427 C27.0730615,29.4083813 27.7404064,30.7501844 21.7667974,34.3494268 C18.3411566,52.1513477 19.5964736,87.986476 32.1915785,87.986476 Z" id="Oval-28" fill="#F2534A" transform="translate(31.336128, 52.703885) scale(-1, 1) rotate(-142.000000) translate(-31.336128, -52.703885) "></path>
                <path d="M81.4415939,152.967824 C109.289712,154.126245 126.959697,145.7851 126.959697,116.048857 C126.959697,86.3126136 108.598291,67 82.2352414,67 C55.8721917,67 39.7813444,86.2978879 39.7813444,116.034131 C39.7813444,145.770375 53.5934753,151.809402 81.4415939,152.967824 Z" id="Oval-27" fill="#4A4A4A"></path>
                <path d="M141.519117,94.1515691 C154.114222,94.1515691 150.830519,54.9984294 151.872463,28.0346757 C146.25971,0.0792273501 146.822114,35.2001893 141.519117,35.3901358 C136.4006,35.5734744 137.067945,36.9152775 131.094336,40.5145199 C127.668695,58.3164408 128.924012,94.1515691 141.519117,94.1515691 Z" id="Oval-28" fill="#F2534A" transform="translate(140.663667, 55.692832) scale(-1, 1) rotate(156.000000) translate(-140.663667, -55.692832) "></path>
            </g>
            <g id="Group-2" transform="translate(150.000000, 36.000000)">
                <ellipse id="Oval-19" fill="#4A4A4A" cx="42.7380677" cy="5.34414037" rx="5.08528907" ry="5.01587622"></ellipse>
                <ellipse id="Oval-22" fill="#F0F0F0" cx="41.4089581" cy="3.57779034" rx="1.38751178" ry="1.36857261"></ellipse>
                <ellipse id="Oval-19" fill="#4A4A4A" cx="5.23406083" cy="5.34414037" rx="5.08528907" ry="5.01587622"></ellipse>
                <ellipse id="Oval-22" fill="#F0F0F0" cx="6.9495467" cy="3.65207042" rx="1.4628198" ry="1.44285269"></ellipse>
                <path d="M15.4331782,6.70289775 L31.5744472,6.59810942 C31.5744472,6.59810942 33.2120623,20.3974403 23.8374755,20.4007332 C14.4628888,20.404026 15.4331782,6.70289775 15.4331782,6.70289775 Z" id="Path-5" fill="#4A4A4A"></path>
                <path d="M16.6759612,14.5481732 C16.6759612,14.5481732 22.4687328,12.2204483 23.997817,15.7686853 C24.2388363,12.3536247 30.8452623,13.7984518 30.8452623,13.7984518 C30.8452623,13.7984518 30.0446576,19.7855544 24.0449694,19.9586352 C18.0452811,20.131716 16.6759612,14.5481732 16.6759612,14.5481732 Z" id="Path-11" fill="#F2534A"></path>
            </g>
        </g>
    </g>
</svg>