<?xml version="1.0" encoding="UTF-8" standalone="no"?>
<svg width="1036px" height="376px" viewBox="0 0 1036 376" version="1.1" xmlns="http://www.w3.org/2000/svg" xmlns:xlink="http://www.w3.org/1999/xlink">
    <!-- Generator: Sketch 41.2 (35397) - http://www.bohemiancoding.com/sketch -->
    <title>Group 5</title>
    <desc>Created with Sketch.</desc>
    <defs>
        <filter x="-50%" y="-50%" width="200%" height="200%" filterUnits="objectBoundingBox" id="filter-1">
            <feOffset dx="0" dy="2" in="SourceAlpha" result="shadowOffsetOuter1"></feOffset>
            <feGaussianBlur stdDeviation="1.5" in="shadowOffsetOuter1" result="shadowBlurOuter1"></feGaussianBlur>
            <feColorMatrix values="0 0 0 0 0   0 0 0 0 0   0 0 0 0 0  0 0 0 0.25 0" type="matrix" in="shadowBlurOuter1" result="shadowMatrixOuter1"></feColorMatrix>
            <feMerge>
                <feMergeNode in="shadowMatrixOuter1"></feMergeNode>
                <feMergeNode in="SourceGraphic"></feMergeNode>
            </feMerge>
        </filter>
        <filter x="-50%" y="-50%" width="200%" height="200%" filterUnits="objectBoundingBox" id="filter-2">
            <feOffset dx="0" dy="2" in="SourceAlpha" result="shadowOffsetOuter1"></feOffset>
            <feGaussianBlur stdDeviation="2" in="shadowOffsetOuter1" result="shadowBlurOuter1"></feGaussianBlur>
            <feColorMatrix values="0 0 0 0 0   0 0 0 0 0   0 0 0 0 0  0 0 0 0.5 0" type="matrix" in="shadowBlurOuter1" result="shadowMatrixOuter1"></feColorMatrix>
            <feMerge>
                <feMergeNode in="shadowMatrixOuter1"></feMergeNode>
                <feMergeNode in="SourceGraphic"></feMergeNode>
            </feMerge>
        </filter>
        <filter x="-50%" y="-50%" width="200%" height="200%" filterUnits="objectBoundingBox" id="filter-3">
            <feOffset dx="0" dy="2" in="SourceAlpha" result="shadowOffsetOuter1"></feOffset>
            <feGaussianBlur stdDeviation="1.5" in="shadowOffsetOuter1" result="shadowBlurOuter1"></feGaussianBlur>
            <feColorMatrix values="0 0 0 0 0   0 0 0 0 0   0 0 0 0 0  0 0 0 0.25 0" type="matrix" in="shadowBlurOuter1" result="shadowMatrixOuter1"></feColorMatrix>
            <feMerge>
                <feMergeNode in="shadowMatrixOuter1"></feMergeNode>
                <feMergeNode in="SourceGraphic"></feMergeNode>
            </feMerge>
        </filter>
        <filter x="-50%" y="-50%" width="200%" height="200%" filterUnits="objectBoundingBox" id="filter-4">
            <feOffset dx="0" dy="2" in="SourceAlpha" result="shadowOffsetOuter1"></feOffset>
            <feGaussianBlur stdDeviation="1.5" in="shadowOffsetOuter1" result="shadowBlurOuter1"></feGaussianBlur>
            <feColorMatrix values="0 0 0 0 0   0 0 0 0 0   0 0 0 0 0  0 0 0 0.25 0" type="matrix" in="shadowBlurOuter1" result="shadowMatrixOuter1"></feColorMatrix>
            <feMerge>
                <feMergeNode in="shadowMatrixOuter1"></feMergeNode>
                <feMergeNode in="SourceGraphic"></feMergeNode>
            </feMerge>
        </filter>
        <filter x="-50%" y="-50%" width="200%" height="200%" filterUnits="objectBoundingBox" id="filter-5">
            <feOffset dx="0" dy="2" in="SourceAlpha" result="shadowOffsetOuter1"></feOffset>
            <feGaussianBlur stdDeviation="1.5" in="shadowOffsetOuter1" result="shadowBlurOuter1"></feGaussianBlur>
            <feColorMatrix values="0 0 0 0 0   0 0 0 0 0   0 0 0 0 0  0 0 0 0.25 0" type="matrix" in="shadowBlurOuter1" result="shadowMatrixOuter1"></feColorMatrix>
            <feMerge>
                <feMergeNode in="shadowMatrixOuter1"></feMergeNode>
                <feMergeNode in="SourceGraphic"></feMergeNode>
            </feMerge>
        </filter>
        <filter x="-50%" y="-50%" width="200%" height="200%" filterUnits="objectBoundingBox" id="filter-6">
            <feOffset dx="0" dy="2" in="SourceAlpha" result="shadowOffsetOuter1"></feOffset>
            <feGaussianBlur stdDeviation="1.5" in="shadowOffsetOuter1" result="shadowBlurOuter1"></feGaussianBlur>
            <feColorMatrix values="0 0 0 0 0   0 0 0 0 0   0 0 0 0 0  0 0 0 0.25 0" type="matrix" in="shadowBlurOuter1" result="shadowMatrixOuter1"></feColorMatrix>
            <feMerge>
                <feMergeNode in="shadowMatrixOuter1"></feMergeNode>
                <feMergeNode in="SourceGraphic"></feMergeNode>
            </feMerge>
        </filter>
        <filter x="-50%" y="-50%" width="200%" height="200%" filterUnits="objectBoundingBox" id="filter-7">
            <feOffset dx="0" dy="2" in="SourceAlpha" result="shadowOffsetOuter1"></feOffset>
            <feGaussianBlur stdDeviation="2" in="shadowOffsetOuter1" result="shadowBlurOuter1"></feGaussianBlur>
            <feColorMatrix values="0 0 0 0 0   0 0 0 0 0   0 0 0 0 0  0 0 0 0.5 0" type="matrix" in="shadowBlurOuter1" result="shadowMatrixOuter1"></feColorMatrix>
            <feMerge>
                <feMergeNode in="shadowMatrixOuter1"></feMergeNode>
                <feMergeNode in="SourceGraphic"></feMergeNode>
            </feMerge>
        </filter>
    </defs>
    <g id="DTA-Panel" stroke="none" stroke-width="1" fill="none" fill-rule="evenodd">
        <g id="JudgePanel3" transform="translate(-204.000000, -348.000000)">
            <g id="Group-5" transform="translate(188.000000, 349.000000)">
                <g id="Shelf" transform="translate(32.850340, 160.952381)">
                    <g id="Shelf-One">
                        <polygon id="Path-1" fill="#685353" points="1.33177266 113.452479 34.6260891 113.452479 34.6260891 214.013999"></polygon>
                        <rect id="Rectangle-1" fill="#423636" x="0" y="80.7823129" width="998.829494" height="33.5205067"></rect>
                        <polygon id="Rectangle-1" fill="#685353" points="76.5306122 0.789085617 922.298924 0.789085617 998.829494 81.1395543 0 81.1395543"></polygon>
                        <polygon id="Path-1" fill="#685353" transform="translate(980.850563, 163.733239) scale(-1, 1) translate(-980.850563, -163.733239) " points="964.203405 113.452479 997.497721 113.452479 997.497721 214.013999"></polygon>
                    </g>
                </g>
                <g id="Judge5" transform="translate(845.000000, 0.000000)">
                    <g id="Character-Copy" filter="url(#filter-1)" transform="translate(77.500000, 116.500000) scale(-1, 1) translate(-77.500000, -116.500000) ">
                        <g id="Striped-Shirt" filter="url(#filter-2)" transform="translate(17.838089, 123.543025)">
                            <path d="M31.3216848,0.44399785 C-0.676123567,43.4541978 0.0523193955,92.9739273 0.0523193955,92.9739273 C0.0523193955,92.9739273 18.7671478,108.997675 59.7083532,108.809846 C100.649559,108.622018 123.464279,92.9739273 123.464279,92.9739273 C123.464279,92.9739273 118.649714,41.0456497 96.7571531,11.3363442" id="Path-5" fill="#F2534A"></path>
                            <path d="M12.0443167,34.5604822 C33.4383187,45.2866155 50.864493,48.3584236 60.1672791,48.5736263 C69.4700652,48.788829 94.5408147,43.5958795 109.571719,35.1158691 C112.402766,41.2515394 114.30752,48.7569974 114.30752,48.7569974 C114.30752,48.7569974 64.8537574,79.9837412 7.53427855,48.3502412 C8.74331421,42.7213992 10.8314142,37.3891066 12.0443167,34.5604822 Z" id="Path-45" fill="#00BEBC"></path>
                            <path d="M23.2942775,12.8882783 C44.6882796,23.6144117 53.8077923,21.3997871 62.0372241,22.0249962 C70.2666559,22.6502053 98.312687,13.4984814 98.312687,13.4984814 C98.312687,13.4984814 101.721407,18.2771492 104.169354,23.3267689 C105.076259,24.4274883 82.0387008,35.4130945 61.3497443,35.0681516 C40.6607878,34.7232086 35.1996248,33.4198025 17.0931362,23.4271853 C19.1429973,18.2532818 21.4875984,15.3433108 23.2942775,12.8882783 Z" id="Path-45" fill="#00BEBC"></path>
                            <path d="M3.70568042,64.4149456 C3.70568042,64.4149456 1.35819114,77.3907506 1.30406931,79.9044784 C51.5272742,105.961972 110.55029,85.871592 121.308185,79.6342422 C120.36128,71.4070593 119.463741,69.2825782 118.741929,64.5291808 C55.6091093,94.520373 3.70568042,64.4149456 3.70568042,64.4149456 Z" id="Path-46" fill="#00BEBC"></path>
                        </g>
                        <path d="M36.2048024,77.0089464 C35.9233813,77.6390728 35.6555037,78.2766077 35.4015411,78.9211787 C33.3131479,84.2216362 35.0160953,97.5532161 35.6213951,103.10819 C41.7822224,135.846015 63.5364464,161.342473 66.892692,165.621604 C70.2489376,169.900734 70.0630168,144.516795 71.867896,149.321589 C82.1815087,176.777598 97.4353789,187.624226 99.04883,187.521698 C100.662281,187.41917 100.890583,166.362308 103.418119,158.264636 C105.945654,150.166964 110.716741,168.959555 113.962263,166.969771 C117.207785,164.979987 115.320204,138.939627 119.622074,114.105358 C120.610506,108.399238 124.066127,84.5816158 122.099729,79.4176894 C121.864459,78.7998521 121.61646,78.1883216 121.356052,77.5834204 C121.356052,77.5834204 112.301258,54.2073896 84.5745828,49.1388198 C56.8479074,44.07025 38.3704601,72.6594391 38.3704601,72.6594391" id="Beard" stroke="#FFD087" fill="#FFD087"></path>
                        <path d="M124.849475,64.4646443 C130.806108,60.2022718 140.921382,52.1906041 140.247048,47.3679321 C139.295132,40.5600639 134.993374,24.1070176 134.055501,22.418933 C133.117629,20.7308484 131.506034,23.368309 124.261387,23.9107606 C119.622363,22.7479464 124.541073,13.7371063 124.729126,13.1471627 C124.917179,12.5572191 124.058679,21.0023134 125.142803,21.1456643 C126.224204,21.2886552 131.733916,20.4573924 132.624228,19.0619778 C133.514539,17.6665631 132.202339,6.79728839 133.510776,3.92994634 C134.819212,1.06260428 153.627995,-0.655359865 154.719495,0.236403535 C155.810994,1.12816693 137.102475,4.14850526 135.927141,5.17061989 C134.751806,6.19273452 136.714119,16.7116974 136.714119,16.7116974 C136.714119,16.7116974 138.730152,26.6652205 140.07999,32.1974717 C141.429829,37.7297229 145.828847,31.4742333 146.923963,29.8547397 C148.019079,28.2352462 145.732147,22.0359437 146.637571,22.4999061 C147.542995,22.9638686 149.380019,26.824422 149.317403,29.1359313 C149.254787,31.4474407 147.44371,33.8114453 145.748628,35.3176834 C145.263025,35.7491868 143.172778,37.7800483 142.225019,38.2258551 C140.896737,38.8506523 145.657954,46.167401 144.266372,50.9156536 C143.104998,54.8784031 129.056473,69.2868237 124.440164,73.9455425" id="Right-Antler" fill="#423636"></path>
                        <path d="M10.6029174,69.7780099 C16.5595505,65.5156374 26.6748248,57.5039697 26.0004908,52.6812977 C25.0485751,45.8734295 20.7468166,29.4203832 19.808944,27.7322986 C18.8710713,26.044214 17.2594769,28.6816746 10.0148298,29.2241262 C5.37580577,28.061312 10.2945153,19.0504719 10.4825686,18.4605283 C10.6706219,17.8705847 9.81212157,26.315679 10.8962454,26.4590299 C11.9776467,26.6020208 17.4873584,25.770758 18.3776702,24.3753434 C19.267982,22.9799287 17.9557815,12.110654 19.2642182,9.24331194 C20.572655,6.37596988 39.3814374,4.65800573 40.4729372,5.54976913 C41.564437,6.44153253 22.8559181,9.46187085 21.6805833,10.4839855 C20.5052486,11.5061001 22.4675615,22.025063 22.4675615,22.025063 C22.4675615,22.025063 24.4835942,31.9785861 25.8334328,37.5108373 C27.1832714,43.0430885 31.5822893,36.7875989 32.6774054,35.1681053 C33.7725215,33.5486117 31.4855896,27.3493093 32.3910138,27.8132717 C33.2964379,28.2772342 35.1334615,32.1377876 35.0708454,34.4492969 C35.0082294,36.7608063 33.1971531,39.1248109 31.5020706,40.631049 C31.0164675,41.0625524 28.9262207,43.0934139 27.9784615,43.5392207 C26.6501792,44.1640179 31.4113971,51.4807666 30.0198144,56.2290192 C28.8584411,60.1917687 14.8099162,74.6001893 10.1936069,79.2589081" id="Right-Antler" fill="#423636" transform="translate(24.274073, 42.286137) scale(-1, 1) rotate(13.000000) translate(-24.274073, -42.286137) "></path>
                        <path d="M38.9055122,71.3879121 L44.8192771,71.3879121 L44.8192771,77.2246596 C44.8192771,77.2246596 39.0253774,77.2495768 35.4072289,77.2246596 C36.1220368,72.3783544 38.9055122,71.3879121 38.9055122,71.3879121 Z" id="Rectangle-5" fill="#FADAA8"></path>
                        <g id="Crown" transform="translate(41.681928, 27.387815)">
                            <path d="M17.1315752,50.0292709 C10.320099,50.0165212 4.93911252,50.0216155 2.33585619,49.9807593 C-0.34320597,49.7842647 -0.305291197,47.8224026 1.00147572,47.0555387 C1.02795599,46.9974843 1.11969813,46.9428332 1.27321567,46.8914536 L0.274733603,22.7072308 L23.4830521,38.9474535 L46.5799715,0.414368953 L69.3081367,38.7851379 L83.5086824,21.6961626 L82.5040779,46.4781608 C82.5074707,48.8861764 81.1670295,50.2363106 80.1603399,50.4145951 C78.7850185,50.6581641 83.7853895,50.6727775 76.4305948,50.6450215 M62.8762292,50.4886029 C55.9027723,50.4037805 49.6879169,50.3356808 45.2376114,50.2577865 C39.9640774,50.1654832 34.6213446,50.1109341 29.5539125,50.0778267" fill="#FADAA8"></path>
                            <path d="M81.6668963,43.5320749 C82.916464,43.5320749 82.9156626,41.8423398 82.9156626,39.5584442 C82.9156626,37.2745485 82.5919696,34.5715046 81.3424019,34.5715046 C80.0928343,34.5715046 79.7783133,37.0720027 79.7783133,39.3558984 C79.7783133,41.6397941 80.4173287,43.5320749 81.6668963,43.5320749 Z" id="Oval-9" fill="#F2534A" transform="translate(81.346988, 39.051790) rotate(3.000000) translate(-81.346988, -39.051790) "></path>
                            <ellipse id="Oval-9" fill="#F2534A" cx="47.2727371" cy="32.9405999" rx="7.09067664" ry="10.9023099"></ellipse>
                            <ellipse id="Oval-9" fill="#F2534A" cx="7.37896841" cy="38.5301753" rx="2.62436538" ry="4.13535892"></ellipse>
                        </g>
                        <ellipse id="Oval-3" fill="#FFFFFF" cx="70.6200841" cy="88.4513672" rx="7.87309614" ry="16.165494"></ellipse>
                        <ellipse id="Oval-5" fill="#00BEBC" cx="71.8743946" cy="90.9669307" rx="3.7490934" ry="10.1504264"></ellipse>
                        <path d="M112.302012,104.616861 C116.650203,104.616861 120.175108,97.379323 120.175108,88.4513672 C120.175108,84.9148746 119.622027,81.6436199 118.683778,78.9823732 C117.253397,74.9252421 114.927821,72.2858732 112.302012,72.2858732 C109.679488,72.2858732 107.356448,74.9186399 105.92562,78.9671473 C104.984109,81.6311381 104.428916,84.9081272 104.428916,88.4513672 C104.428916,97.379323 107.953821,104.616861 112.302012,104.616861 Z" id="Oval-3" fill="#FFFFFF"></path>
                        <ellipse id="Oval-5" fill="#00BEBC" cx="114.004515" cy="90.9669307" rx="3.7490934" ry="10.1504264"></ellipse>
                        <ellipse id="Oval-6" stroke="#4A4A4A" fill="#423636" cx="113.517499" cy="92.4244942" rx="1.12472802" ry="3.38347548"></ellipse>
                        <ellipse id="Oval-6" stroke="#4A4A4A" fill="#423636" cx="72.3873786" cy="92.4244942" rx="1.12472802" ry="3.38347548"></ellipse>
                        <path d="M82.9500722,98.0060824 L102.411493,97.8777662 C102.411493,97.8777662 104.385954,114.775421 93.0830775,114.779453 C81.7802008,114.783485 82.9500722,98.0060824 82.9500722,98.0060824 Z" id="Path-5" fill="#4A4A4A"></path>
                        <path d="M84.7084337,108.596072 C84.7084337,108.596072 91.6927398,105.74571 93.5363465,110.090622 C93.8269418,105.908788 101.792266,107.678018 101.792266,107.678018 C101.792266,107.678018 100.826982,115.009387 93.5931978,115.221329 C86.3594136,115.433271 84.7084337,108.596072 84.7084337,108.596072 Z" id="Path-11" fill="#F2534A"></path>
                    </g>
                    <g id="Group-9" transform="translate(151.500000, 146.000000) rotate(-330.000000) translate(-151.500000, -146.000000) translate(115.000000, 67.000000)">
                        <path d="M45.1743197,95.3076603 C60.7615129,89.9329113 72.2789116,70.9766393 72.2789116,48.4164958 C72.2789116,21.6768035 56.0987261,-3.12638804e-13 36.1394558,-3.12638804e-13 C16.1801855,-3.12638804e-13 -7.95807864e-13,21.6768035 -7.95807864e-13,48.4164958 C-7.95807864e-13,70.9766393 11.5173987,89.9329113 27.1045918,95.3076603 L27.1045918,135.524612 C27.1045918,140.519624 31.1496382,144.557823 36.1394558,144.557823 C41.1303705,144.557823 45.1743197,140.513517 45.1743197,135.524612 L45.1743197,95.3076603 Z" id="Combined-Shape" fill="#FFD087"></path>
                        <text id="10" font-family="Raleway-Bold, Raleway" font-size="64" font-weight="bold" letter-spacing="-3" fill="#423636">
                            <tspan x="3.30465932" y="67.9979531">10</tspan>
                            <tspan x="68.2166593" y="67.9979531"></tspan>
                        </text>
                    </g>
                </g>
                <g id="Judge4" transform="translate(641.000000, 2.000000)">
                    <g id="Judge-1" transform="translate(0.931973, 0.000000)">
                        <g id="Group-7">
                            <g id="Filled-Character">
                                <g id="Character" filter="url(#filter-3)">
                                    <g id="Striped-Shirt" transform="translate(14.112443, 133.598741)">
                                        <path d="M23.4180526,1.08760074 C2.16364944,30.6885975 0.0518050895,81.0404247 0.0518050895,81.0404247 C0.0518050895,81.0404247 18.5826645,96.9252031 59.121413,96.7390036 C99.6601614,96.5528041 122.250611,81.0404247 122.250611,81.0404247 C122.250611,81.0404247 117.483373,29.5625054 95.8060186,0.110859844" id="Path-5" fill="#F2534A"></path>
                                        <path d="M11.9259196,23.1335819 C33.109616,33.7666906 50.3644889,36.8118579 59.5758275,37.0251942 C68.7871661,37.2385305 93.6114671,32.0906179 108.494616,23.6841521 C111.297833,29.7666096 113.183864,37.206975 113.183864,37.206975 C113.183864,37.206975 64.2162371,68.1628986 7.46021569,36.8037465 C8.65736638,31.2237217 10.7249401,25.9376744 11.9259196,23.1335819 Z" id="Path-45" fill="#00BEBC"></path>
                                        <path d="M23.065292,1.64933454 C44.2489884,12.2824433 53.2788552,10.0870255 61.4273907,10.7068124 C69.5759262,11.3265992 97.3462614,2.25424554 97.3462614,2.25424554 C97.3462614,2.25424554 100.721474,6.99146937 103.145357,11.9972952 C104.043347,13.0884684 81.2322505,23.9787997 60.7466689,23.6368484 C40.2610874,23.294897 34.8536083,22.0027949 16.9251086,12.0968407 C18.9548193,6.96780897 21.2763728,4.08307526 23.065292,1.64933454 Z" id="Path-45" fill="#00BEBC"></path>
                                        <path d="M3.66925313,52.7291265 C3.66925313,52.7291265 1.34483995,65.5923962 1.29125015,68.0843233 C51.0207549,93.9158277 109.463567,73.9996858 120.11571,67.8164307 C119.178114,59.6605997 118.289398,57.5545435 117.574681,52.8423709 C55.062465,82.5734586 3.66925313,52.7291265 3.66925313,52.7291265 Z" id="Path-46" fill="#00BEBC"></path>
                                    </g>
                                    <path d="M32.298609,76.3410709 C32.0199542,76.9657324 31.75471,77.5977382 31.5032439,78.236719 C29.4353798,83.4912072 31.121587,96.7071663 31.7209366,102.213964 C32.3202862,107.720762 40.3031773,149.807414 41.8450852,150.709968 C43.386993,151.612522 48.3202657,133.838598 50.1074028,138.601721 C60.3196314,165.819613 71.8054779,184.538456 73.4030685,184.436817 C75.0006592,184.335178 84.5568429,160.48865 87.0595325,152.461207 C89.562222,144.433763 94.5129306,141.744397 94.5827872,162.450282 C97.1495149,159.912106 100.336341,151.14295 102.959508,146.748082 C105.582675,142.353214 110.636297,137.734645 114.895879,113.115757 C115.874594,107.459124 119.296246,83.8480648 117.349178,78.7289236 C117.116221,78.1164446 116.87066,77.5102177 116.612811,76.9105627 C116.612811,76.9105627 107.647028,53.7372652 80.1929087,48.7126535 C52.7387898,43.6880419 34.442978,72.0292856 34.442978,72.0292856" id="Beard" stroke="#FFD087" fill="#FFD087"></path>
                                    <path d="M120.071893,63.9055618 C125.969972,59.6801556 135.985812,51.7379707 135.318107,46.9571243 C134.375549,40.2082987 130.116077,23.8979446 129.187424,22.2245003 C128.258771,20.551056 126.663018,23.1656427 119.489587,23.7033897 C114.896165,22.5506603 119.766523,13.6179685 119.952728,13.0331413 C120.138932,12.4483141 119.288871,20.8201667 120.362338,20.9622743 C121.433109,21.1040251 126.88866,20.2799716 127.77022,18.896659 C128.65178,17.5133463 127.352478,6.73833755 128.648053,3.89586309 C129.943627,1.05338864 148.567517,-0.649676126 149.648287,0.234353278 C150.729058,1.11838268 132.204446,4.11252652 131.040665,5.12577666 C129.876884,6.13902679 131.819907,16.5667619 131.819907,16.5667619 C131.819907,16.5667619 133.816122,26.4339611 135.152691,31.9182327 C136.489261,37.4025044 140.845036,31.2012667 141.929387,29.5958185 C143.013738,27.9903703 140.749287,21.8448326 141.64581,22.3047712 C142.542334,22.7647098 144.361299,26.5917819 144.299299,28.8832442 C144.237298,31.1747065 142.444025,33.5182088 140.765606,35.0113837 C140.284776,35.4391448 138.215077,37.4523933 137.276634,37.8943338 C135.961409,38.5137122 140.675823,45.767005 139.29792,50.4740774 C138.147963,54.4024592 124.237537,68.6859199 119.666607,73.304235" id="Right-Antler" fill="#423636"></path>
                                    <path d="M29.6161701,63.9014682 C23.7173392,59.6750277 13.7081809,51.7364272 14.3756705,46.9571243 C15.3182288,40.2082987 19.5777004,23.8979446 20.5063537,22.2245003 C21.4350069,20.551056 23.0307591,23.1656427 30.2041905,23.7033897 C34.7976124,22.5506603 29.9272544,13.6179685 29.7410497,13.0331413 C29.554845,12.4483141 30.4049061,20.8201667 29.3314394,20.9622743 C28.2606683,21.1040251 22.8051177,20.2799716 21.9235578,18.896659 C21.0419979,17.5133463 22.3412993,6.73833755 21.0457247,3.89586309 C19.7501501,1.05338864 1.1262602,-0.649676126 0.0454899934,0.234353278 C-1.03528021,1.11838268 17.4893317,4.11252652 18.6531128,5.12577666 C19.8168938,6.13902679 17.8738707,16.5667619 17.8738707,16.5667619 C17.8738707,16.5667619 15.8776558,26.4339611 14.5410863,31.9182327 C13.2045168,37.4025044 8.84874176,31.2012667 7.76439079,29.5958185 C6.68003982,27.9903703 8.94449089,21.8448326 8.04796714,22.3047712 C7.15144339,22.7647098 5.33247797,26.5917819 5.39447853,28.8832442 C5.45647909,31.1747065 7.24975223,33.5182088 8.92817187,35.0113837 C9.40900145,35.4391448 11.4787009,37.4523933 12.4171435,37.8943338 C13.7323686,38.5137122 9.0179541,45.767005 10.3958573,50.4740774 C11.5305328,54.3502563 25.0887919,68.3081323 29.8400503,73.1150481" id="Left-Antler" fill="#423636"></path>
                                    <g id="Crown" transform="translate(28.846154, 27.150289)">
                                        <path d="M16.9631698,49.595382 C10.2186511,49.5827429 4.89056045,49.587793 2.31289444,49.5472912 C-0.339832214,49.3525007 -0.302290148,47.4076533 0.99163109,46.6474402 C1.01785106,46.5898892 1.10869136,46.5357121 1.2606998,46.4847781 L0.272032939,22.5102979 L23.2522109,38.609674 L46.1220847,0.410775255 L68.6268294,38.4487661 L91.8415725,22.5708643 L90.7280011,47.5587535 C91.8478928,48.3493944 91.1846478,49.7547535 90.1878541,49.9314917 C88.8260522,50.1729483 82.9617691,50.2333077 75.6792729,50.2057924 M62.2581483,50.0507304 C55.3532414,49.9666437 49.1994787,49.8991346 44.7929202,49.8219159 C39.5712257,49.730413 34.2810126,49.676337 29.263394,49.6435167" fill="#FADAA8"></path>
                                        <ellipse id="Oval-9" fill="#F2534A" cx="83.5655653" cy="38.1960147" rx="2.59856755" ry="4.09949419"></ellipse>
                                        <ellipse id="Oval-9" fill="#F2534A" cx="46.8080404" cy="32.654916" rx="7.02097444" ry="10.8077574"></ellipse>
                                        <ellipse id="Oval-9" fill="#F2534A" cx="7.30643226" cy="38.1960147" rx="2.59856755" ry="4.09949419"></ellipse>
                                    </g>
                                    <path d="M65.6169257,96.5909282 L84.8870381,96.463725 C84.8870381,96.463725 86.8420906,113.214831 75.6503224,113.218829 C64.4585543,113.222826 65.6169257,96.5909282 65.6169257,96.5909282 Z" id="Path-5" fill="#4A4A4A"></path>
                                    <path d="M67.1080371,106.929275 C67.1080371,106.929275 74.0236866,104.103633 75.8491704,108.410863 C76.1369092,104.265297 84.0239329,106.019182 84.0239329,106.019182 C84.0239329,106.019182 83.068138,113.286969 75.9054629,113.497073 C68.7427877,113.707177 67.1080371,106.929275 67.1080371,106.929275 Z" id="Path-11" fill="#F2534A"></path>
                                </g>
                            </g>
                        </g>
                    </g>
                    <path d="M92.9449108,96.9264242 C93.7071109,92.1398927 91.8198917,84.5697373 98.2417056,84.3598342 C104.663519,84.1499311 103.626615,96.046504 104.481415,97.1149295 C104.862289,97.5788978 107.763651,97.2280451 107.763651,96.2614347 C107.763651,92.80804 107.10723,89.6136507 105.993676,87.014936 C104.296036,83.0531364 101.535941,80.4757854 98.4195142,80.4757854 C95.306988,80.4757854 92.5499013,83.0466893 90.8517316,87.0000679 C89.7343053,89.6014622 89.0753769,92.8014511 89.0753769,96.2614347 C89.0753769,97.3757233 91.7374061,97.5669184 92.9449108,96.9264242 Z" id="Oval-3" fill="#4A4A4A" transform="translate(98.419514, 88.896854) scale(1, -1) translate(-98.419514, -88.896854) "></path>
                    <path d="M46.9449108,96.9264242 C47.7071109,92.1398927 45.8198917,84.5697373 52.2417056,84.3598342 C58.6635195,84.1499311 57.626615,96.046504 58.4814152,97.1149295 C58.8622891,97.5788978 61.7636514,97.2280451 61.7636514,96.2614347 C61.7636514,92.80804 61.1072303,89.6136507 59.9936756,87.014936 C58.2960361,83.0531364 55.5359406,80.4757854 52.4195142,80.4757854 C49.306988,80.4757854 46.5499013,83.0466893 44.8517316,87.0000679 C43.7343053,89.6014622 43.0753769,92.8014511 43.0753769,96.2614347 C43.0753769,97.3757233 45.7374061,97.5669184 46.9449108,96.9264242 Z" id="Oval-3" fill="#4A4A4A" transform="translate(52.419514, 88.896854) scale(-1, -1) translate(-52.419514, -88.896854) "></path>
                    <g id="Group-9" transform="translate(159.425176, 106.471655) rotate(-330.000000) translate(-159.425176, -106.471655) translate(122.925176, 33.971655)">
                        <path d="M45.1743197,95.3076603 C60.7615129,89.9329113 72.2789116,70.9766393 72.2789116,48.4164958 C72.2789116,21.6768035 56.0987261,-9.23705556e-14 36.1394558,-9.23705556e-14 C16.1801855,-9.23705556e-14 -5.36459765e-13,21.6768035 -5.36459765e-13,48.4164958 C-5.36459765e-13,70.9766393 11.5173987,89.9329113 27.1045918,95.3076603 L27.1045918,135.524612 C27.1045918,140.519624 31.1496382,144.557823 36.1394558,144.557823 C41.1303705,144.557823 45.1743197,140.513517 45.1743197,135.524612 L45.1743197,95.3076603 Z" id="Combined-Shape" fill="#FFD087"></path>
                        <text id="8" opacity="0.9" font-family="Raleway-Bold, Raleway" font-size="64" font-weight="bold" fill="#423636">
                            <tspan x="16.6299814" y="72.0575417">8</tspan>
                        </text>
                    </g>
                </g>
                <g id="Judge3" transform="translate(401.000000, 2.000000)">
                    <g id="Judge-1" transform="translate(0.931973, 0.000000)">
                        <g id="Group-7" transform="translate(80.000000, 0.000000)">
                            <g id="Filled-Character">
                                <g id="Character" filter="url(#filter-4)">
                                    <g id="Striped-Shirt" transform="translate(14.112443, 133.598741)">
                                        <path d="M23.4180526,1.08760074 C2.16364944,30.6885975 0.0518050895,81.0404247 0.0518050895,81.0404247 C0.0518050895,81.0404247 18.5826645,96.9252031 59.121413,96.7390036 C99.6601614,96.5528041 122.250611,81.0404247 122.250611,81.0404247 C122.250611,81.0404247 117.483373,29.5625054 95.8060186,0.110859844" id="Path-5" fill="#F2534A"></path>
                                        <path d="M11.9259196,23.1335819 C33.109616,33.7666906 50.3644889,36.8118579 59.5758275,37.0251942 C68.7871661,37.2385305 93.6114671,32.0906179 108.494616,23.6841521 C111.297833,29.7666096 113.183864,37.206975 113.183864,37.206975 C113.183864,37.206975 64.2162371,68.1628986 7.46021569,36.8037465 C8.65736638,31.2237217 10.7249401,25.9376744 11.9259196,23.1335819 Z" id="Path-45" fill="#00BEBC"></path>
                                        <path d="M23.065292,1.64933454 C44.2489884,12.2824433 53.2788552,10.0870255 61.4273907,10.7068124 C69.5759262,11.3265992 97.3462614,2.25424554 97.3462614,2.25424554 C97.3462614,2.25424554 100.721474,6.99146937 103.145357,11.9972952 C104.043347,13.0884684 81.2322505,23.9787997 60.7466689,23.6368484 C40.2610874,23.294897 34.8536083,22.0027949 16.9251086,12.0968407 C18.9548193,6.96780897 21.2763728,4.08307526 23.065292,1.64933454 Z" id="Path-45" fill="#00BEBC"></path>
                                        <path d="M3.66925313,52.7291265 C3.66925313,52.7291265 1.34483995,65.5923962 1.29125015,68.0843233 C51.0207549,93.9158277 109.463567,73.9996858 120.11571,67.8164307 C119.178114,59.6605997 118.289398,57.5545435 117.574681,52.8423709 C55.062465,82.5734586 3.66925313,52.7291265 3.66925313,52.7291265 Z" id="Path-46" fill="#00BEBC"></path>
                                    </g>
                                    <path d="M32.298609,76.3410709 C32.0199542,76.9657324 31.75471,77.5977382 31.5032439,78.236719 C29.4353798,83.4912072 31.121587,96.7071663 31.7209366,102.213964 C32.3202862,107.720762 40.3031773,149.807414 41.8450852,150.709968 C43.386993,151.612522 48.3202657,133.838598 50.1074028,138.601721 C60.3196314,165.819613 71.8054779,184.538456 73.4030685,184.436817 C75.0006592,184.335178 84.5568429,160.48865 87.0595325,152.461207 C89.562222,144.433763 94.5129306,141.744397 94.5827872,162.450282 C97.1495149,159.912106 100.336341,151.14295 102.959508,146.748082 C105.582675,142.353214 110.636297,137.734645 114.895879,113.115757 C115.874594,107.459124 119.296246,83.8480648 117.349178,78.7289236 C117.116221,78.1164446 116.87066,77.5102177 116.612811,76.9105627 C116.612811,76.9105627 107.647028,53.7372652 80.1929087,48.7126535 C52.7387898,43.6880419 34.442978,72.0292856 34.442978,72.0292856" id="Beard" stroke="#FFD087" fill="#FFD087"></path>
                                    <path d="M120.071893,63.9055618 C125.969972,59.6801556 135.985812,51.7379707 135.318107,46.9571243 C134.375549,40.2082987 130.116077,23.8979446 129.187424,22.2245003 C128.258771,20.551056 126.663018,23.1656427 119.489587,23.7033897 C114.896165,22.5506603 119.766523,13.6179685 119.952728,13.0331413 C120.138932,12.4483141 119.288871,20.8201667 120.362338,20.9622743 C121.433109,21.1040251 126.88866,20.2799716 127.77022,18.896659 C128.65178,17.5133463 127.352478,6.73833755 128.648053,3.89586309 C129.943627,1.05338864 148.567517,-0.649676126 149.648287,0.234353278 C150.729058,1.11838268 132.204446,4.11252652 131.040665,5.12577666 C129.876884,6.13902679 131.819907,16.5667619 131.819907,16.5667619 C131.819907,16.5667619 133.816122,26.4339611 135.152691,31.9182327 C136.489261,37.4025044 140.845036,31.2012667 141.929387,29.5958185 C143.013738,27.9903703 140.749287,21.8448326 141.64581,22.3047712 C142.542334,22.7647098 144.361299,26.5917819 144.299299,28.8832442 C144.237298,31.1747065 142.444025,33.5182088 140.765606,35.0113837 C140.284776,35.4391448 138.215077,37.4523933 137.276634,37.8943338 C135.961409,38.5137122 140.675823,45.767005 139.29792,50.4740774 C138.147963,54.4024592 124.237537,68.6859199 119.666607,73.304235" id="Right-Antler" fill="#423636"></path>
                                    <path d="M29.6161701,63.9014682 C23.7173392,59.6750277 13.7081809,51.7364272 14.3756705,46.9571243 C15.3182288,40.2082987 19.5777004,23.8979446 20.5063537,22.2245003 C21.4350069,20.551056 23.0307591,23.1656427 30.2041905,23.7033897 C34.7976124,22.5506603 29.9272544,13.6179685 29.7410497,13.0331413 C29.554845,12.4483141 30.4049061,20.8201667 29.3314394,20.9622743 C28.2606683,21.1040251 22.8051177,20.2799716 21.9235578,18.896659 C21.0419979,17.5133463 22.3412993,6.73833755 21.0457247,3.89586309 C19.7501501,1.05338864 1.1262602,-0.649676126 0.0454899934,0.234353278 C-1.03528021,1.11838268 17.4893317,4.11252652 18.6531128,5.12577666 C19.8168938,6.13902679 17.8738707,16.5667619 17.8738707,16.5667619 C17.8738707,16.5667619 15.8776558,26.4339611 14.5410863,31.9182327 C13.2045168,37.4025044 8.84874176,31.2012667 7.76439079,29.5958185 C6.68003982,27.9903703 8.94449089,21.8448326 8.04796714,22.3047712 C7.15144339,22.7647098 5.33247797,26.5917819 5.39447853,28.8832442 C5.45647909,31.1747065 7.24975223,33.5182088 8.92817187,35.0113837 C9.40900145,35.4391448 11.4787009,37.4523933 12.4171435,37.8943338 C13.7323686,38.5137122 9.0179541,45.767005 10.3958573,50.4740774 C11.5305328,54.3502563 25.0887919,68.3081323 29.8400503,73.1150481" id="Left-Antler" fill="#423636"></path>
                                    <g id="Crown" transform="translate(28.846154, 27.150289)">
                                        <path d="M16.9631698,49.595382 C10.2186511,49.5827429 4.89056045,49.587793 2.31289444,49.5472912 C-0.339832214,49.3525007 -0.302290148,47.4076533 0.99163109,46.6474402 C1.01785106,46.5898892 1.10869136,46.5357121 1.2606998,46.4847781 L0.272032939,22.5102979 L23.2522109,38.609674 L46.1220847,0.410775255 L68.6268294,38.4487661 L91.8415725,22.5708643 L90.7280011,47.5587535 C91.8478928,48.3493944 91.1846478,49.7547535 90.1878541,49.9314917 C88.8260522,50.1729483 82.9617691,50.2333077 75.6792729,50.2057924 M62.2581483,50.0507304 C55.3532414,49.9666437 49.1994787,49.8991346 44.7929202,49.8219159 C39.5712257,49.730413 34.2810126,49.676337 29.263394,49.6435167" fill="#FADAA8"></path>
                                        <ellipse id="Oval-9" fill="#F2534A" cx="83.5655653" cy="38.1960147" rx="2.59856755" ry="4.09949419"></ellipse>
                                        <ellipse id="Oval-9" fill="#F2534A" cx="46.8080404" cy="32.654916" rx="7.02097444" ry="10.8077574"></ellipse>
                                        <ellipse id="Oval-9" fill="#F2534A" cx="7.30643226" cy="38.1960147" rx="2.59856755" ry="4.09949419"></ellipse>
                                    </g>
                                    <ellipse id="Oval-3" fill="#FFFFFF" cx="52.0259998" cy="86.4591264" rx="7.79570265" ry="16.0252955"></ellipse>
                                    <ellipse id="Oval-5" fill="#00BEBC" cx="52.5180845" cy="88.1520769" rx="3.71223936" ry="10.0623948"></ellipse>
                                    <ellipse id="Oval-6" stroke="#4A4A4A" fill="#423636" cx="52.9698823" cy="87.5684947" rx="1.11367181" ry="3.35413161"></ellipse>
                                    <path d="M97.7814797,102.484422 C102.086927,102.484422 105.577182,95.3096527 105.577182,86.4591264 C105.577182,82.9533048 105.029538,79.7104206 104.100513,77.0722541 C102.684192,73.0503094 100.381477,70.4338309 97.7814797,70.4338309 C95.1847361,70.4338309 92.8845315,73.0437644 91.4677686,77.0571603 C90.5355131,79.6980471 89.985777,82.9466158 89.985777,86.4591264 C89.985777,95.3096527 93.476032,102.484422 97.7814797,102.484422 Z" id="Oval-3" fill="#FFFFFF"></path>
                                    <ellipse id="Oval-5" fill="#00BEBC" cx="98.2735644" cy="88.1520769" rx="3.71223936" ry="10.0623948"></ellipse>
                                    <ellipse id="Oval-6" stroke="#4A4A4A" fill="#423636" cx="97.2001795" cy="87.5684947" rx="1.11367181" ry="3.35413161"></ellipse>
                                    <path d="M65.6169257,96.5909282 L84.8870381,96.463725 C84.8870381,96.463725 86.8420906,113.214831 75.6503224,113.218829 C64.4585543,113.222826 65.6169257,96.5909282 65.6169257,96.5909282 Z" id="Path-5" fill="#4A4A4A"></path>
                                    <path d="M67.1080371,106.929275 C67.1080371,106.929275 74.0236866,104.103633 75.8491704,108.410863 C76.1369092,104.265297 84.0239329,106.019182 84.0239329,106.019182 C84.0239329,106.019182 83.068138,113.286969 75.9054629,113.497073 C68.7427877,113.707177 67.1080371,106.929275 67.1080371,106.929275 Z" id="Path-11" fill="#F2534A"></path>
                                </g>
                            </g>
                        </g>
                        <g id="Group-9" transform="translate(70.593544, 110.368770) rotate(-30.000000) translate(-70.593544, -110.368770) translate(34.093544, 33.368770)">
                            <path d="M45.1743197,95.3076603 C60.7615129,89.9329113 72.2789116,70.9766393 72.2789116,48.4164958 C72.2789116,21.6768035 56.0987261,4.33431069e-13 36.1394558,4.33431069e-13 C16.1801855,4.33431069e-13 -8.41993142e-13,21.6768035 -8.41993142e-13,48.4164958 C-8.41993142e-13,70.9766393 11.5173987,89.9329113 27.1045918,95.3076603 L27.1045918,135.524612 C27.1045918,140.519624 31.1496382,144.557823 36.1394558,144.557823 C41.1303705,144.557823 45.1743197,140.513517 45.1743197,135.524612 L45.1743197,95.3076603 Z" id="Combined-Shape" fill="#FFD087"></path>
                            <text id="9" font-family="Raleway-Bold, Raleway" font-size="64" font-weight="bold" letter-spacing="-2" fill="#423636">
                                <tspan x="17.8145831" y="63.167826">9</tspan>
                                <tspan x="53.5105831" y="63.167826"></tspan>
                            </text>
                        </g>
                    </g>
                </g>
                <g id="Judge2" transform="translate(196.000000, 2.000000)">
                    <g id="Judge-1" transform="translate(79.931973, 0.000000)">
                        <g id="Group-7">
                            <g id="Filled-Character">
                                <g id="Character" filter="url(#filter-5)">
                                    <g id="Striped-Shirt" transform="translate(14.112443, 133.598741)">
                                        <path d="M23.4180526,1.08760074 C2.16364944,30.6885975 0.0518050895,81.0404247 0.0518050895,81.0404247 C0.0518050895,81.0404247 18.5826645,96.9252031 59.121413,96.7390036 C99.6601614,96.5528041 122.250611,81.0404247 122.250611,81.0404247 C122.250611,81.0404247 117.483373,29.5625054 95.8060186,0.110859844" id="Path-5" fill="#F2534A"></path>
                                        <path d="M11.9259196,23.1335819 C33.109616,33.7666906 50.3644889,36.8118579 59.5758275,37.0251942 C68.7871661,37.2385305 93.6114671,32.0906179 108.494616,23.6841521 C111.297833,29.7666096 113.183864,37.206975 113.183864,37.206975 C113.183864,37.206975 64.2162371,68.1628986 7.46021569,36.8037465 C8.65736638,31.2237217 10.7249401,25.9376744 11.9259196,23.1335819 Z" id="Path-45" fill="#00BEBC"></path>
                                        <path d="M23.065292,1.64933454 C44.2489884,12.2824433 53.2788552,10.0870255 61.4273907,10.7068124 C69.5759262,11.3265992 97.3462614,2.25424554 97.3462614,2.25424554 C97.3462614,2.25424554 100.721474,6.99146937 103.145357,11.9972952 C104.043347,13.0884684 81.2322505,23.9787997 60.7466689,23.6368484 C40.2610874,23.294897 34.8536083,22.0027949 16.9251086,12.0968407 C18.9548193,6.96780897 21.2763728,4.08307526 23.065292,1.64933454 Z" id="Path-45" fill="#00BEBC"></path>
                                        <path d="M3.66925313,52.7291265 C3.66925313,52.7291265 1.34483995,65.5923962 1.29125015,68.0843233 C51.0207549,93.9158277 109.463567,73.9996858 120.11571,67.8164307 C119.178114,59.6605997 118.289398,57.5545435 117.574681,52.8423709 C55.062465,82.5734586 3.66925313,52.7291265 3.66925313,52.7291265 Z" id="Path-46" fill="#00BEBC"></path>
                                    </g>
                                    <path d="M32.298609,76.3410709 C32.0199542,76.9657324 31.75471,77.5977382 31.5032439,78.236719 C29.4353798,83.4912072 31.121587,96.7071663 31.7209366,102.213964 C32.3202862,107.720762 40.3031773,149.807414 41.8450852,150.709968 C43.386993,151.612522 48.3202657,133.838598 50.1074028,138.601721 C60.3196314,165.819613 71.8054779,184.538456 73.4030685,184.436817 C75.0006592,184.335178 84.5568429,160.48865 87.0595325,152.461207 C89.562222,144.433763 94.5129306,141.744397 94.5827872,162.450282 C97.1495149,159.912106 100.336341,151.14295 102.959508,146.748082 C105.582675,142.353214 110.636297,137.734645 114.895879,113.115757 C115.874594,107.459124 119.296246,83.8480648 117.349178,78.7289236 C117.116221,78.1164446 116.87066,77.5102177 116.612811,76.9105627 C116.612811,76.9105627 107.647028,53.7372652 80.1929087,48.7126535 C52.7387898,43.6880419 34.442978,72.0292856 34.442978,72.0292856" id="Beard" stroke="#FFD087" fill="#FFD087"></path>
                                    <path d="M120.071893,63.9055618 C125.969972,59.6801556 135.985812,51.7379707 135.318107,46.9571243 C134.375549,40.2082987 130.116077,23.8979446 129.187424,22.2245003 C128.258771,20.551056 126.663018,23.1656427 119.489587,23.7033897 C114.896165,22.5506603 119.766523,13.6179685 119.952728,13.0331413 C120.138932,12.4483141 119.288871,20.8201667 120.362338,20.9622743 C121.433109,21.1040251 126.88866,20.2799716 127.77022,18.896659 C128.65178,17.5133463 127.352478,6.73833755 128.648053,3.89586309 C129.943627,1.05338864 148.567517,-0.649676126 149.648287,0.234353278 C150.729058,1.11838268 132.204446,4.11252652 131.040665,5.12577666 C129.876884,6.13902679 131.819907,16.5667619 131.819907,16.5667619 C131.819907,16.5667619 133.816122,26.4339611 135.152691,31.9182327 C136.489261,37.4025044 140.845036,31.2012667 141.929387,29.5958185 C143.013738,27.9903703 140.749287,21.8448326 141.64581,22.3047712 C142.542334,22.7647098 144.361299,26.5917819 144.299299,28.8832442 C144.237298,31.1747065 142.444025,33.5182088 140.765606,35.0113837 C140.284776,35.4391448 138.215077,37.4523933 137.276634,37.8943338 C135.961409,38.5137122 140.675823,45.767005 139.29792,50.4740774 C138.147963,54.4024592 124.237537,68.6859199 119.666607,73.304235" id="Right-Antler" fill="#423636"></path>
                                    <path d="M29.6161701,63.9014682 C23.7173392,59.6750277 13.7081809,51.7364272 14.3756705,46.9571243 C15.3182288,40.2082987 19.5777004,23.8979446 20.5063537,22.2245003 C21.4350069,20.551056 23.0307591,23.1656427 30.2041905,23.7033897 C34.7976124,22.5506603 29.9272544,13.6179685 29.7410497,13.0331413 C29.554845,12.4483141 30.4049061,20.8201667 29.3314394,20.9622743 C28.2606683,21.1040251 22.8051177,20.2799716 21.9235578,18.896659 C21.0419979,17.5133463 22.3412993,6.73833755 21.0457247,3.89586309 C19.7501501,1.05338864 1.1262602,-0.649676126 0.0454899934,0.234353278 C-1.03528021,1.11838268 17.4893317,4.11252652 18.6531128,5.12577666 C19.8168938,6.13902679 17.8738707,16.5667619 17.8738707,16.5667619 C17.8738707,16.5667619 15.8776558,26.4339611 14.5410863,31.9182327 C13.2045168,37.4025044 8.84874176,31.2012667 7.76439079,29.5958185 C6.68003982,27.9903703 8.94449089,21.8448326 8.04796714,22.3047712 C7.15144339,22.7647098 5.33247797,26.5917819 5.39447853,28.8832442 C5.45647909,31.1747065 7.24975223,33.5182088 8.92817187,35.0113837 C9.40900145,35.4391448 11.4787009,37.4523933 12.4171435,37.8943338 C13.7323686,38.5137122 9.0179541,45.767005 10.3958573,50.4740774 C11.5305328,54.3502563 25.0887919,68.3081323 29.8400503,73.1150481" id="Left-Antler" fill="#423636"></path>
                                    <g id="Crown" transform="translate(28.846154, 27.150289)">
                                        <path d="M16.9631698,49.595382 C10.2186511,49.5827429 4.89056045,49.587793 2.31289444,49.5472912 C-0.339832214,49.3525007 -0.302290148,47.4076533 0.99163109,46.6474402 C1.01785106,46.5898892 1.10869136,46.5357121 1.2606998,46.4847781 L0.272032939,22.5102979 L23.2522109,38.609674 L46.1220847,0.410775255 L68.6268294,38.4487661 L91.8415725,22.5708643 L90.7280011,47.5587535 C91.8478928,48.3493944 91.1846478,49.7547535 90.1878541,49.9314917 C88.8260522,50.1729483 82.9617691,50.2333077 75.6792729,50.2057924 M62.2581483,50.0507304 C55.3532414,49.9666437 49.1994787,49.8991346 44.7929202,49.8219159 C39.5712257,49.730413 34.2810126,49.676337 29.263394,49.6435167" fill="#FADAA8"></path>
                                        <ellipse id="Oval-9" fill="#F2534A" cx="83.5655653" cy="38.1960147" rx="2.59856755" ry="4.09949419"></ellipse>
                                        <ellipse id="Oval-9" fill="#F2534A" cx="46.8080404" cy="32.654916" rx="7.02097444" ry="10.8077574"></ellipse>
                                        <ellipse id="Oval-9" fill="#F2534A" cx="7.30643226" cy="38.1960147" rx="2.59856755" ry="4.09949419"></ellipse>
                                    </g>
                                    <path d="M65.6169257,96.5909282 L84.8870381,96.463725 C84.8870381,96.463725 86.8420906,113.214831 75.6503224,113.218829 C64.4585543,113.222826 65.6169257,96.5909282 65.6169257,96.5909282 Z" id="Path-5" fill="#4A4A4A"></path>
                                    <path d="M67.1080371,106.929275 C67.1080371,106.929275 74.0236866,104.103633 75.8491704,108.410863 C76.1369092,104.265297 84.0239329,106.019182 84.0239329,106.019182 C84.0239329,106.019182 83.068138,113.286969 75.9054629,113.497073 C68.7427877,113.707177 67.1080371,106.929275 67.1080371,106.929275 Z" id="Path-11" fill="#F2534A"></path>
                                </g>
                            </g>
                        </g>
                    </g>
                    <g id="Group-9" transform="translate(71.600346, 112.100820) rotate(-30.000000) translate(-71.600346, -112.100820) translate(35.100346, 33.100820)">
                        <path d="M45.1743197,95.3076603 C60.7615129,89.9329113 72.2789116,70.9766393 72.2789116,48.4164958 C72.2789116,21.6768035 56.0987261,2.77111667e-13 36.1394558,2.77111667e-13 C16.1801855,2.77111667e-13 -7.49622586e-13,21.6768035 -7.49622586e-13,48.4164958 C-7.49622586e-13,70.9766393 11.5173987,89.9329113 27.1045918,95.3076603 L27.1045918,135.524612 C27.1045918,140.519624 31.1496382,144.557823 36.1394558,144.557823 C41.1303705,144.557823 45.1743197,140.513517 45.1743197,135.524612 L45.1743197,95.3076603 Z" id="Combined-Shape" fill="#FFD087"></path>
                        <text id="10" font-family="Raleway-Bold, Raleway" font-size="64" font-weight="bold" letter-spacing="-3" fill="#423636">
                            <tspan x="2.93863391" y="67.6319277">10</tspan>
                            <tspan x="67.8506339" y="67.6319277"></tspan>
                        </text>
                    </g>
                    <path d="M171.944911,91.9264242 C172.707111,87.1398927 170.819892,79.5697373 177.241706,79.3598342 C183.663519,79.1499311 182.626615,91.046504 183.481415,92.1149295 C183.862289,92.5788978 186.763651,92.2280451 186.763651,91.2614347 C186.763651,87.80804 186.10723,84.6136507 184.993676,82.014936 C183.296036,78.0531364 180.535941,75.4757854 177.419514,75.4757854 C174.306988,75.4757854 171.549901,78.0466893 169.851732,82.0000679 C168.734305,84.6014622 168.075377,87.8014511 168.075377,91.2614347 C168.075377,92.3757233 170.737406,92.5669184 171.944911,91.9264242 Z" id="Oval-3" fill="#4A4A4A"></path>
                    <path d="M126.944911,91.9264242 C127.707111,87.1398927 125.819892,79.5697373 132.241706,79.3598342 C138.663519,79.1499311 137.626615,91.046504 138.481415,92.1149295 C138.862289,92.5788978 141.763651,92.2280451 141.763651,91.2614347 C141.763651,87.80804 141.10723,84.6136507 139.993676,82.014936 C138.296036,78.0531364 135.535941,75.4757854 132.419514,75.4757854 C129.306988,75.4757854 126.549901,78.0466893 124.851732,82.0000679 C123.734305,84.6014622 123.075377,87.8014511 123.075377,91.2614347 C123.075377,92.3757233 125.737406,92.5669184 126.944911,91.9264242 Z" id="Oval-3" fill="#4A4A4A" transform="translate(132.419514, 83.896854) scale(-1, 1) translate(-132.419514, -83.896854) "></path>
                </g>
                <g id="Judge1" transform="translate(110.500000, 116.500000) scale(-1, 1) translate(-110.500000, -116.500000) ">
                    <g id="Character-Copy" filter="url(#filter-6)" transform="translate(77.500000, 116.500000) scale(-1, 1) translate(-77.500000, -116.500000) ">
                        <g id="Striped-Shirt" filter="url(#filter-7)" transform="translate(17.838089, 123.543025)">
                            <path d="M31.3216848,0.44399785 C-0.676123567,43.4541978 0.0523193955,92.9739273 0.0523193955,92.9739273 C0.0523193955,92.9739273 18.7671478,108.997675 59.7083532,108.809846 C100.649559,108.622018 123.464279,92.9739273 123.464279,92.9739273 C123.464279,92.9739273 118.649714,41.0456497 96.7571531,11.3363442" id="Path-5" fill="#F2534A"></path>
                            <path d="M12.0443167,34.5604822 C33.4383187,45.2866155 50.864493,48.3584236 60.1672791,48.5736263 C69.4700652,48.788829 94.5408147,43.5958795 109.571719,35.1158691 C112.402766,41.2515394 114.30752,48.7569974 114.30752,48.7569974 C114.30752,48.7569974 64.8537574,79.9837412 7.53427855,48.3502412 C8.74331421,42.7213992 10.8314142,37.3891066 12.0443167,34.5604822 Z" id="Path-45" fill="#00BEBC"></path>
                            <path d="M23.2942775,12.8882783 C44.6882796,23.6144117 53.8077923,21.3997871 62.0372241,22.0249962 C70.2666559,22.6502053 98.312687,13.4984814 98.312687,13.4984814 C98.312687,13.4984814 101.721407,18.2771492 104.169354,23.3267689 C105.076259,24.4274883 82.0387008,35.4130945 61.3497443,35.0681516 C40.6607878,34.7232086 35.1996248,33.4198025 17.0931362,23.4271853 C19.1429973,18.2532818 21.4875984,15.3433108 23.2942775,12.8882783 Z" id="Path-45" fill="#00BEBC"></path>
                            <path d="M3.70568042,64.4149456 C3.70568042,64.4149456 1.35819114,77.3907506 1.30406931,79.9044784 C51.5272742,105.961972 110.55029,85.871592 121.308185,79.6342422 C120.36128,71.4070593 119.463741,69.2825782 118.741929,64.5291808 C55.6091093,94.520373 3.70568042,64.4149456 3.70568042,64.4149456 Z" id="Path-46" fill="#00BEBC"></path>
                        </g>
                        <path d="M36.2048024,77.0089464 C35.9233813,77.6390728 35.6555037,78.2766077 35.4015411,78.9211787 C33.3131479,84.2216362 35.0160953,97.5532161 35.6213951,103.10819 C41.7822224,135.846015 63.5364464,161.342473 66.892692,165.621604 C70.2489376,169.900734 70.0630168,144.516795 71.867896,149.321589 C82.1815087,176.777598 97.4353789,187.624226 99.04883,187.521698 C100.662281,187.41917 100.890583,166.362308 103.418119,158.264636 C105.945654,150.166964 110.716741,168.959555 113.962263,166.969771 C117.207785,164.979987 115.320204,138.939627 119.622074,114.105358 C120.610506,108.399238 124.066127,84.5816158 122.099729,79.4176894 C121.864459,78.7998521 121.61646,78.1883216 121.356052,77.5834204 C121.356052,77.5834204 112.301258,54.2073896 84.5745828,49.1388198 C56.8479074,44.07025 38.3704601,72.6594391 38.3704601,72.6594391" id="Beard" stroke="#FFD087" fill="#FFD087"></path>
                        <path d="M124.849475,64.4646443 C130.806108,60.2022718 140.921382,52.1906041 140.247048,47.3679321 C139.295132,40.5600639 134.993374,24.1070176 134.055501,22.418933 C133.117629,20.7308484 131.506034,23.368309 124.261387,23.9107606 C119.622363,22.7479464 124.541073,13.7371063 124.729126,13.1471627 C124.917179,12.5572191 124.058679,21.0023134 125.142803,21.1456643 C126.224204,21.2886552 131.733916,20.4573924 132.624228,19.0619778 C133.514539,17.6665631 132.202339,6.79728839 133.510776,3.92994634 C134.819212,1.06260428 153.627995,-0.655359865 154.719495,0.236403535 C155.810994,1.12816693 137.102475,4.14850526 135.927141,5.17061989 C134.751806,6.19273452 136.714119,16.7116974 136.714119,16.7116974 C136.714119,16.7116974 138.730152,26.6652205 140.07999,32.1974717 C141.429829,37.7297229 145.828847,31.4742333 146.923963,29.8547397 C148.019079,28.2352462 145.732147,22.0359437 146.637571,22.4999061 C147.542995,22.9638686 149.380019,26.824422 149.317403,29.1359313 C149.254787,31.4474407 147.44371,33.8114453 145.748628,35.3176834 C145.263025,35.7491868 143.172778,37.7800483 142.225019,38.2258551 C140.896737,38.8506523 145.657954,46.167401 144.266372,50.9156536 C143.104998,54.8784031 129.056473,69.2868237 124.440164,73.9455425" id="Right-Antler" fill="#423636"></path>
                        <path d="M10.6029174,69.7780099 C16.5595505,65.5156374 26.6748248,57.5039697 26.0004908,52.6812977 C25.0485751,45.8734295 20.7468166,29.4203832 19.808944,27.7322986 C18.8710713,26.044214 17.2594769,28.6816746 10.0148298,29.2241262 C5.37580577,28.061312 10.2945153,19.0504719 10.4825686,18.4605283 C10.6706219,17.8705847 9.81212157,26.315679 10.8962454,26.4590299 C11.9776467,26.6020208 17.4873584,25.770758 18.3776702,24.3753434 C19.267982,22.9799287 17.9557815,12.110654 19.2642182,9.24331194 C20.572655,6.37596988 39.3814374,4.65800573 40.4729372,5.54976913 C41.564437,6.44153253 22.8559181,9.46187085 21.6805833,10.4839855 C20.5052486,11.5061001 22.4675615,22.025063 22.4675615,22.025063 C22.4675615,22.025063 24.4835942,31.9785861 25.8334328,37.5108373 C27.1832714,43.0430885 31.5822893,36.7875989 32.6774054,35.1681053 C33.7725215,33.5486117 31.4855896,27.3493093 32.3910138,27.8132717 C33.2964379,28.2772342 35.1334615,32.1377876 35.0708454,34.4492969 C35.0082294,36.7608063 33.1971531,39.1248109 31.5020706,40.631049 C31.0164675,41.0625524 28.9262207,43.0934139 27.9784615,43.5392207 C26.6501792,44.1640179 31.4113971,51.4807666 30.0198144,56.2290192 C28.8584411,60.1917687 14.8099162,74.6001893 10.1936069,79.2589081" id="Right-Antler" fill="#423636" transform="translate(24.274073, 42.286137) scale(-1, 1) rotate(13.000000) translate(-24.274073, -42.286137) "></path>
                        <path d="M38.9055122,71.3879121 L44.8192771,71.3879121 L44.8192771,77.2246596 C44.8192771,77.2246596 39.0253774,77.2495768 35.4072289,77.2246596 C36.1220368,72.3783544 38.9055122,71.3879121 38.9055122,71.3879121 Z" id="Rectangle-5" fill="#FADAA8"></path>
                        <g id="Crown" transform="translate(41.681928, 27.387815)">
                            <path d="M17.1315752,50.0292709 C10.320099,50.0165212 4.93911252,50.0216155 2.33585619,49.9807593 C-0.34320597,49.7842647 -0.305291197,47.8224026 1.00147572,47.0555387 C1.02795599,46.9974843 1.11969813,46.9428332 1.27321567,46.8914536 L0.274733603,22.7072308 L23.4830521,38.9474535 L46.5799715,0.414368953 L69.3081367,38.7851379 L83.5086824,21.6961626 L82.5040779,46.4781608 C82.5074707,48.8861764 81.1670295,50.2363106 80.1603399,50.4145951 C78.7850185,50.6581641 83.7853895,50.6727775 76.4305948,50.6450215 M62.8762292,50.4886029 C55.9027723,50.4037805 49.6879169,50.3356808 45.2376114,50.2577865 C39.9640774,50.1654832 34.6213446,50.1109341 29.5539125,50.0778267" fill="#FADAA8"></path>
                            <path d="M81.6668963,43.5320749 C82.916464,43.5320749 82.9156626,41.8423398 82.9156626,39.5584442 C82.9156626,37.2745485 82.5919696,34.5715046 81.3424019,34.5715046 C80.0928343,34.5715046 79.7783133,37.0720027 79.7783133,39.3558984 C79.7783133,41.6397941 80.4173287,43.5320749 81.6668963,43.5320749 Z" id="Oval-9" fill="#F2534A" transform="translate(81.346988, 39.051790) rotate(3.000000) translate(-81.346988, -39.051790) "></path>
                            <ellipse id="Oval-9" fill="#F2534A" cx="47.2727371" cy="32.9405999" rx="7.09067664" ry="10.9023099"></ellipse>
                            <ellipse id="Oval-9" fill="#F2534A" cx="7.37896841" cy="38.5301753" rx="2.62436538" ry="4.13535892"></ellipse>
                        </g>
                        <ellipse id="Oval-3" fill="#FFFFFF" cx="70.6200841" cy="88.4513672" rx="7.87309614" ry="16.165494"></ellipse>
                        <ellipse id="Oval-5" fill="#00BEBC" cx="71.8743946" cy="90.9669307" rx="3.7490934" ry="10.1504264"></ellipse>
                        <path d="M112.302012,104.616861 C116.650203,104.616861 120.175108,97.379323 120.175108,88.4513672 C120.175108,84.9148746 119.622027,81.6436199 118.683778,78.9823732 C117.253397,74.9252421 114.927821,72.2858732 112.302012,72.2858732 C109.679488,72.2858732 107.356448,74.9186399 105.92562,78.9671473 C104.984109,81.6311381 104.428916,84.9081272 104.428916,88.4513672 C104.428916,97.379323 107.953821,104.616861 112.302012,104.616861 Z" id="Oval-3" fill="#FFFFFF"></path>
                        <ellipse id="Oval-5" fill="#00BEBC" cx="114.004515" cy="90.9669307" rx="3.7490934" ry="10.1504264"></ellipse>
                        <ellipse id="Oval-6" stroke="#4A4A4A" fill="#423636" cx="113.517499" cy="92.4244942" rx="1.12472802" ry="3.38347548"></ellipse>
                        <ellipse id="Oval-6" stroke="#4A4A4A" fill="#423636" cx="72.3873786" cy="92.4244942" rx="1.12472802" ry="3.38347548"></ellipse>
                        <path d="M82.9500722,98.0060824 L102.411493,97.8777662 C102.411493,97.8777662 104.385954,114.775421 93.0830775,114.779453 C81.7802008,114.783485 82.9500722,98.0060824 82.9500722,98.0060824 Z" id="Path-5" fill="#4A4A4A"></path>
                        <path d="M84.7084337,108.596072 C84.7084337,108.596072 91.6927398,105.74571 93.5363465,110.090622 C93.8269418,105.908788 101.792266,107.678018 101.792266,107.678018 C101.792266,107.678018 100.826982,115.009387 93.5931978,115.221329 C86.3594136,115.433271 84.7084337,108.596072 84.7084337,108.596072 Z" id="Path-11" fill="#F2534A"></path>
                    </g>
                    <g id="Group-9" transform="translate(150.500000, 147.500000) scale(-1, 1) rotate(-30.000000) translate(-150.500000, -147.500000) translate(114.000000, 70.000000)">
                        <path d="M45.1743197,95.3076603 C60.7615129,89.9329113 72.2789116,70.9766393 72.2789116,48.4164958 C72.2789116,21.6768035 56.0987261,3.62376795e-13 36.1394558,3.62376795e-13 C16.1801855,3.62376795e-13 -8.24229573e-13,21.6768035 -8.24229573e-13,48.4164958 C-8.24229573e-13,70.9766393 11.5173987,89.9329113 27.1045918,95.3076603 L27.1045918,135.524612 C27.1045918,140.519624 31.1496382,144.557823 36.1394558,144.557823 C41.1303705,144.557823 45.1743197,140.513517 45.1743197,135.524612 L45.1743197,95.3076603 Z" id="Combined-Shape" fill="#FFD087"></path>
                        <text id="9" font-family="Raleway-Bold, Raleway" font-size="64" font-weight="bold" letter-spacing="-2" fill="#423636">
                            <tspan x="18.1806085" y="64.5338514">9</tspan>
                            <tspan x="53.8766085" y="64.5338514"></tspan>
                        </text>
                    </g>
                </g>
            </g>
        </g>
    </g>
</svg>