<?xml version="1.0" encoding="UTF-8" standalone="no"?>
<svg width="500px" height="581px" viewBox="0 0 500 581" version="1.1" xmlns="http://www.w3.org/2000/svg" xmlns:xlink="http://www.w3.org/1999/xlink">
    <!-- Generator: Sketch 39.1 (31720) - http://www.bohemiancoding.com/sketch -->
    <title>Lifetime</title>
    <desc>Created with Sketch.</desc>
    <defs>
        <filter x="-50%" y="-50%" width="200%" height="200%" filterUnits="objectBoundingBox" id="filter-1">
            <feOffset dx="0" dy="2" in="SourceAlpha" result="shadowOffsetOuter1"></feOffset>
            <feGaussianBlur stdDeviation="1.5" in="shadowOffsetOuter1" result="shadowBlurOuter1"></feGaussianBlur>
            <feColorMatrix values="0 0 0 0 0   0 0 0 0 0   0 0 0 0 0  0 0 0 0.25 0" type="matrix" in="shadowBlurOuter1" result="shadowMatrixOuter1"></feColorMatrix>
            <feMerge>
                <feMergeNode in="shadowMatrixOuter1"></feMergeNode>
                <feMergeNode in="SourceGraphic"></feMergeNode>
            </feMerge>
        </filter>
        <filter x="-50%" y="-50%" width="200%" height="200%" filterUnits="objectBoundingBox" id="filter-2">
            <feOffset dx="0" dy="2" in="SourceAlpha" result="shadowOffsetOuter1"></feOffset>
            <feGaussianBlur stdDeviation="2" in="shadowOffsetOuter1" result="shadowBlurOuter1"></feGaussianBlur>
            <feColorMatrix values="0 0 0 0 0   0 0 0 0 0   0 0 0 0 0  0 0 0 0.5 0" type="matrix" in="shadowBlurOuter1" result="shadowMatrixOuter1"></feColorMatrix>
            <feMerge>
                <feMergeNode in="shadowMatrixOuter1"></feMergeNode>
                <feMergeNode in="SourceGraphic"></feMergeNode>
            </feMerge>
        </filter>
        <polygon id="path-3" points="0 35.9737473 0 9.12990284 13.0753585 0 312.728151 0 325 9.12990284 325 35.9737473 312.728151 45 13.0753585 45"></polygon>
        <mask id="mask-4" maskContentUnits="userSpaceOnUse" maskUnits="objectBoundingBox" x="0" y="0" width="325" height="45" fill="white">
            <use xlink:href="#path-3"></use>
        </mask>
    </defs>
    <g id="Characters" stroke="none" stroke-width="1" fill="none" fill-rule="evenodd">
        <g id="Lifetime" transform="translate(-7.000000, 1.000000)">
            <g id="t-Lifetime" transform="translate(0.000000, 294.000000)">
                <g id="Group" transform="translate(25.781447, 0.000000)">
                    <path d="M41.0340876,24.1744401 C41.0340876,24.1744401 27.9389113,25.8887403 24.1746278,23.1734298 C22.8979099,22.2524881 22.0083541,21.4331624 22.0052288,17.1633262 C22.0022562,13.1020285 21.9084952,10.0888518 23.7029837,9.0185105 C25.8031514,7.76584364 30.7073685,8.01249835 32.6898239,10.1056702 C33.9654056,11.4524909 33.1175881,13.1868617 32.6898238,17.163326 C32.6898238,18.369144 28.2817474,17.6545751 27.0538909,17.1633262 C25.8260344,16.6720774 24.9180222,13.1883984 24.8664531,13.3463366 C24.1753209,15.4630338 24.1340389,17.5512528 25.9492289,18.3691442 C27.7644189,19.1870356 35.0349581,22.1422038 35.8905459,18.7183746 C36.9291444,14.5621868 37.3128509,8.6119818 35.8905451,6.77978043 C34.4682393,4.94757906 26.6162351,1.23118741 18.6453968,5.29059506 C15.8294535,6.76162207 11.1491454,22.1537502 12.1580137,26.1951161 C13.7109177,29.5381584 16.3991515,31.0642731 23.7029835,33.1484912 C31.0068155,35.2327093 37.8345372,33.5385131 37.8345372,33.5385131 L41.0340876,24.1744401 Z" id="Path-44" fill="#FFD086" transform="translate(26.526065, 18.826451) rotate(16.000000) translate(-26.526065, -18.826451) "></path>
                    <path d="M115.421443,24.1744401 C115.421443,24.1744401 102.326267,25.8887403 98.561983,23.1734298 C97.2852651,22.2524881 96.3957093,21.4331624 96.392584,17.1633262 C96.3896113,13.1020285 96.2958504,10.0888518 98.0903389,9.0185105 C100.190507,7.76584364 105.094724,8.01249835 107.077179,10.1056702 C108.352761,11.4524909 107.504943,13.1868617 107.077179,17.163326 C107.077179,18.369144 102.669103,17.6545751 101.441246,17.1633262 C100.21339,16.6720774 99.3053774,13.1883984 99.2538083,13.3463366 C98.562676,15.4630338 98.5213941,17.5512528 100.336584,18.3691442 C102.151774,19.1870356 109.422313,22.1422038 110.277901,18.7183746 C111.3165,14.5621868 111.700206,8.6119818 110.2779,6.77978043 C108.855594,4.94757906 101.00359,1.23118741 93.032752,5.29059506 C90.2168086,6.76162207 85.5365006,22.1537502 86.5453689,26.1951161 C88.0982729,29.5381584 90.7865066,31.0642731 98.0903386,33.1484912 C105.394171,35.2327093 112.221892,33.5385131 112.221892,33.5385131 L115.421443,24.1744401 Z" id="Path-44" fill="#FFD086" transform="translate(100.913420, 18.826451) scale(-1, 1) rotate(16.000000) translate(-100.913420, -18.826451) "></path>
                    <path d="M23.8532021,56.1767235 C28.0555383,49.9286413 27.4066963,17.5686887 63.1217943,17.5686887 C98.8368923,17.5686887 98.831193,47.4364412 102.100032,56.1767223 C105.368872,64.9170034 122.495757,72.3628818 123.899915,113.085684 C123.637917,134.719678 112.543207,138.891491 107.588852,149.304666 C101.720936,161.63798 109.376438,182.983978 95.0643062,183.355393 C80.7521739,183.726808 76.4049067,165.533047 69.6965868,158.64894 C67.4079742,156.300357 59.8256437,152.881375 55.2733431,158.053368 C50.7210425,163.225361 55.8844559,185.750774 41.4285324,184.881957 C26.9726088,184.013141 21.7393553,163.811133 16.0248652,151.362991 C11.0945123,140.622972 1.10652204,140.821026 0.0604458018,113.085684 C-0.335958069,80.019529 19.6508659,62.4248058 23.8532021,56.1767235 Z" id="Path-22" fill="#00BEBC"></path>
                    <g id="Group-2" transform="translate(38.504434, 37.261095)">
                        <path d="M40.2943458,5.63161629 C40.2943458,5.63161629 39.7545866,1.54801561 43.5096766,1.44092258 C47.2647666,1.33382955 47.1949076,5.54768861 47.1949076,5.54768861 C47.1949076,5.54768861 48.8233568,5.92360124 48.8233568,5.34414037 C48.8233568,2.57394843 46.5465953,0.32826415 43.7380677,0.32826415 C40.9295401,0.32826415 38.6527787,2.57394843 38.6527787,5.34414037 C38.6527787,6.15589555 40.2943458,5.63161629 40.2943458,5.63161629 Z" id="Oval-19" fill="#4A4A4A" transform="translate(43.738068, 3.063221) scale(1, -1) translate(-43.738068, -3.063221) "></path>
                        <path d="M2.29434576,5.63161629 C2.29434576,5.63161629 1.75458659,1.54801561 5.50967661,1.44092258 C9.26476663,1.33382955 9.1949076,5.54768861 9.1949076,5.54768861 C9.1949076,5.54768861 10.8233568,5.92360124 10.8233568,5.34414037 C10.8233568,2.57394843 8.54659533,0.32826415 5.73806773,0.32826415 C2.92954012,0.32826415 0.652778656,2.57394843 0.652778656,5.34414037 C0.652778656,6.15589555 2.29434576,5.63161629 2.29434576,5.63161629 Z" id="Oval-19" fill="#4A4A4A" transform="translate(5.738068, 3.063221) scale(-1, -1) translate(-5.738068, -3.063221) "></path>
                        <path d="M16.4331782,5.70289775 L32.5744472,5.59810942 C32.5744472,5.59810942 34.2120623,19.3974403 24.8374755,19.4007332 C15.4628888,19.404026 16.4331782,5.70289775 16.4331782,5.70289775 Z" id="Path-5" fill="#4A4A4A"></path>
                        <path d="M17.6759612,13.5481732 C17.6759612,13.5481732 23.4687328,11.2204483 24.997817,14.7686853 C25.2388363,11.3536247 31.8452623,12.7984518 31.8452623,12.7984518 C31.8452623,12.7984518 31.0446576,18.7855544 25.0449694,18.9586352 C19.0452811,19.131716 17.6759612,13.5481732 17.6759612,13.5481732 Z" id="Path-11" fill="#F2534A"></path>
                    </g>
                </g>
                <path d="M87.4416965,152.967824 C115.289815,154.126245 132.9598,145.7851 132.9598,116.048857 C132.9598,86.3126136 114.598394,67 88.235344,67 C61.8722943,67 45.781447,86.2978879 45.781447,116.034131 C45.781447,145.770375 59.5935779,151.809402 87.4416965,152.967824 Z" id="Oval-27" fill="#4A4A4A"></path>
                <path d="M143.519219,94.1515691 C156.114324,94.1515691 152.830622,54.9984294 153.872565,28.0346757 C148.259813,0.0792273501 148.822217,35.2001893 143.51922,35.3901358 C138.400702,35.5734744 139.068047,36.9152775 133.094438,40.5145199 C129.668798,58.3164408 130.924115,94.1515691 143.519219,94.1515691 Z" id="Oval-28" fill="#00BEBC" transform="translate(142.663769, 55.692832) scale(-1, 1) rotate(156.000000) translate(-142.663769, -55.692832) "></path>
                <path d="M32.1916811,89.986476 C44.7867861,89.986476 41.5030833,50.8333363 42.5450268,23.8695826 C40.7077841,14.7188238 38.2966501,22.3714283 37.3604127,23.3001988 C35.4364572,25.2088099 35.7588292,31.0972721 32.1916815,31.2250427 C27.0731641,31.4083813 27.740509,32.7501844 21.7669,36.3494268 C18.3412592,54.1513477 19.5965762,89.986476 32.1916811,89.986476 Z" id="Oval-28" fill="#00BEBC" transform="translate(31.336231, 54.703885) scale(-1, 1) rotate(-142.000000) translate(-31.336231, -54.703885) "></path>
                <path d="M54.0522123,44.4702766 C61.6417853,36.4534526 69.7905264,57.4348481 90.0832382,56.1114952 C110.37595,54.7881422 117.999891,38.3223578 124.018764,44.4702766 C134.188607,54.8581626 107.776019,97.3030496 107.776019,97.3030496 L107.748734,83.7654798 C107.748734,83.7654798 103.77919,89.989767 101.246958,98.2444038 C98.4175077,107.467923 97.2008893,129.27596 97.2008893,129.27596 C97.2008893,129.27596 72.0194741,86.0267995 69.2350689,82.504494 C66.4506638,78.9821885 64.1346053,94.3191712 64.1346053,94.3191712 C64.1346053,94.3191712 43.3776846,69.5399224 54.0522123,44.4702766 Z" id="Path-15" fill="#FFD087"></path>
            </g>
            <g filter="url(#filter-1)" transform="translate(103.000000, 0.000000)">
                <g id="Striped-Shirt" filter="url(#filter-2)" transform="translate(48.800038, 300.163404)">
                    <path d="M52.7686785,2.44357049 C4.87542341,68.9497062 0.116734135,182.077837 0.116734135,182.077837 C0.116734135,182.077837 41.8729373,217.767015 133.220251,217.34867 C224.567564,216.930326 275.471376,182.077837 275.471376,182.077837 C275.471376,182.077837 264.7292,66.4196551 215.882895,0.249074714" id="Path-5" fill="#F2534A"></path>
                    <path d="M26.8730722,51.9754501 C74.6070015,75.8654218 113.487982,82.7071612 134.244198,83.1864753 C155.000414,83.6657893 210.937839,72.0997 244.474534,53.2124455 C250.791117,66.8782268 255.040973,83.5948918 255.040973,83.5948918 C255.040973,83.5948918 144.700588,153.145214 16.8103527,82.6889369 C19.5079322,70.1519982 24.166865,58.2755542 26.8730722,51.9754501 Z" id="Path-45" fill="#00BEBC"></path>
                    <path d="M51.9737912,3.70564773 C99.7077205,27.5956194 120.05502,22.6630573 138.416387,24.0555654 C156.777754,25.4480735 219.353576,5.06473348 219.353576,5.06473348 C219.353576,5.06473348 226.959054,15.7081065 232.42087,26.954962 C234.444342,29.4065588 183.043338,53.8744462 136.882494,53.1061658 C90.7216502,52.3378855 78.5367973,49.434851 38.1379114,27.1786162 C42.7115262,15.6549474 47.9427599,9.17366261 51.9737912,3.70564773 Z" id="Path-45" fill="#00BEBC"></path>
                    <path d="M8.26805039,118.469336 C8.26805039,118.469336 3.03037269,147.369929 2.90961701,152.968674 C114.966768,211.005691 246.657904,166.259034 270.660734,152.366786 C268.548018,134.042646 266.545444,129.310858 264.934948,118.723768 C124.074088,185.522186 8.26805039,118.469336 8.26805039,118.469336 Z" id="Path-46" fill="#00BEBC"></path>
                </g>
                <path d="M89.7795323,171.519549 C89.1516302,172.923009 88.5539464,174.34297 87.9873095,175.778603 C83.3277224,187.584141 87.1273095,217.27714 88.4778439,229.649556 C89.2884881,237.075969 97.8062867,286.785614 101.202397,340.025749 C103.464212,375.483758 100.645416,422.421483 102.034356,423.232124 C103.017837,423.806122 141.250287,349.721358 142.415823,345.429986 C145.36788,334.560836 119.714442,434.458394 87.1360003,455.472278 C56.6581175,475.131251 28.1645565,487.015431 12.9483394,489.435776 C5.1962315,490.668853 0.81682482,485.800003 1.52813072,485.754882 C2.82844161,485.672398 -13.0175996,500.601975 51.1240659,507.018772 C115.265731,513.43557 159.261416,508.37599 195.734599,470.723692 C234.04313,431.176712 220.469645,386.790227 220.469645,386.790227 C220.469645,386.790227 224.129458,387.565027 224.286868,434.086041 C230.070562,428.383386 252.017899,349.826524 257.928769,339.952341 C263.839638,330.078157 266.300455,309.455762 275.898714,254.143194 C278.104086,241.434136 285.814207,188.385912 281.426814,176.884465 C280.901885,175.508376 280.348553,174.146333 279.767534,172.799056 C279.767534,172.799056 259.564635,120.734375 197.701354,109.445313 C135.838073,98.15625 94.6115104,161.832031 94.6115104,161.832031" id="Beard" stroke="#FFD087" fill="#FFD087"></path>
                <path d="M287.562,143.580028 C300.852337,134.086583 323.421363,116.242454 321.916801,105.501071 C319.792903,90.3381255 310.194894,53.6927847 308.102328,49.9329682 C306.009763,46.1731517 302.414001,52.0474829 286.249869,53.2556678 C275.899359,50.6657693 286.873899,30.5962149 287.29348,29.2822525 C287.713061,27.9682901 285.79759,46.777777 288.216468,47.0970578 C290.629273,47.4155368 302.922446,45.564092 304.908895,42.4561299 C306.895343,39.3481677 303.967584,15.1393818 306.886945,8.75304305 C309.806307,2.36670434 351.772139,-1.45966195 354.207474,0.526533987 C356.64281,2.51272992 314.900684,9.2398323 312.278298,11.5163553 C309.655911,13.7928784 314.03419,37.221426 314.03419,37.221426 C314.03419,37.221426 318.532327,59.3905879 321.544064,71.712393 C324.555801,84.0341982 334.370814,70.1015473 336.814218,66.4945014 C339.257622,62.8874554 334.155059,49.0799485 336.175226,50.1133171 C338.195393,51.1466857 342.294128,59.7451722 342.15442,64.8935226 C342.014712,70.0418729 337.97387,75.3071444 334.191831,78.66194 C333.108362,79.6230137 328.444639,84.1462863 326.330015,85.1392174 C323.366375,86.530808 333.989522,102.827167 330.884647,113.402797 C328.293411,122.228902 296.948583,154.320313 286.648753,164.696528" id="Right-Antler" fill="#423636"></path>
                <path d="M83.7351034,143.570831 C70.4430709,134.075062 47.8891009,116.238986 49.3931776,105.501071 C51.5170755,90.3381255 61.1150849,53.6927847 63.2076503,49.9329682 C65.3002156,46.1731517 68.8959773,52.0474829 85.0601092,53.2556678 C95.4106199,50.6657693 84.4360799,30.5962149 84.0164986,29.2822525 C83.5969173,27.9682901 85.5123884,46.777777 83.0935101,47.0970578 C80.6807059,47.4155368 68.387532,45.564092 66.4010836,42.4561299 C64.4146352,39.3481677 67.3423945,15.1393818 64.423033,8.75304305 C61.5036715,2.36670434 19.5378396,-1.45966195 17.1025041,0.526533987 C14.6671686,2.51272992 56.4092941,9.2398323 59.0316808,11.5163553 C61.6540675,13.7928784 57.2757887,37.221426 57.2757887,37.221426 C57.2757887,37.221426 52.7776511,59.3905879 49.7659145,71.712393 C46.7541778,84.0341982 36.9391648,70.1015473 34.4957606,66.4945014 C32.0523564,62.8874554 37.1549195,49.0799485 35.1347526,50.1133171 C33.1145858,51.1466857 29.0158503,59.7451722 29.1555583,64.8935226 C29.2952662,70.0418729 33.3361084,75.3071444 37.1181473,78.66194 C38.2016166,79.6230137 42.8653394,84.1462863 44.9799633,85.1392174 C47.9436038,86.530808 37.3204566,102.827167 40.4253319,113.402797 C42.9821339,122.111615 73.533411,153.471518 84.23958,164.271472" id="Left-Antler" fill="#423636"></path>
                <g id="Crown" transform="translate(82.000000, 61.000000)">
                    <path d="M38.2236759,111.428586 C23.0260272,111.400189 11.0200629,111.411535 5.21172213,111.320537 C-0.765755255,110.882891 -0.681160467,106.513299 2.23447539,104.805288 C2.29355771,104.675985 2.4982512,104.554262 2.84077689,104.439826 L0.612980888,50.5750848 L52.3949819,86.7464103 L103.928431,0.922910638 L154.639122,86.38489 L206.949677,50.7111627 L204.440429,106.852784 C206.963918,108.629159 205.469406,111.786654 203.223298,112.183741 C200.154704,112.726235 186.94052,112.861847 170.530628,112.800027 M140.288361,112.451641 C124.729304,112.262719 110.862825,112.111043 100.93338,111.937551 C89.1671619,111.731967 77.2465484,111.610472 65.9401811,111.536732" fill="#FADAA8"></path>
                    <ellipse id="Oval-9" fill="#F2534A" cx="188.301074" cy="85.81702" rx="5.85543888" ry="9.21055189"></ellipse>
                    <ellipse id="Oval-9" fill="#F2534A" cx="105.474118" cy="73.3675385" rx="15.8205957" ry="24.2823641"></ellipse>
                    <ellipse id="Oval-9" fill="#F2534A" cx="16.4638274" cy="85.81702" rx="5.85543888" ry="9.21055189"></ellipse>
                </g>
                <ellipse id="Oval-3" fill="#FFFFFF" cx="134.23192" cy="194.252323" rx="17.5663166" ry="36.0048846"></ellipse>
                <ellipse id="Oval-5" fill="#00BEBC" cx="135.34075" cy="198.055965" rx="8.36491269" ry="22.6077183"></ellipse>
                <ellipse id="Oval-6" stroke="#4A4A4A" fill="#423636" cx="136.358801" cy="196.7448" rx="2.50947381" ry="7.53590609"></ellipse>
                <path d="M237.334268,230.257208 C247.035876,230.257208 254.900584,214.137272 254.900584,194.252323 C254.900584,186.375607 253.666559,179.089646 251.573155,173.162337 C248.381713,164.12602 243.192929,158.247438 237.334268,158.247438 C231.482939,158.247438 226.299811,164.111315 223.107372,173.128425 C221.00669,179.061846 219.767951,186.360578 219.767951,194.252323 C219.767951,214.137272 227.632659,230.257208 237.334268,230.257208 Z" id="Oval-3" fill="#FFFFFF"></path>
                <ellipse id="Oval-5" fill="#00BEBC" cx="238.443098" cy="198.055965" rx="8.36491269" ry="22.6077183"></ellipse>
                <ellipse id="Oval-6" stroke="#4A4A4A" fill="#423636" cx="236.024404" cy="196.7448" rx="2.50947381" ry="7.53590609"></ellipse>
                <path d="M164.856806,217.015982 L208.278793,216.730187 C208.278793,216.730187 212.684177,254.36579 187.465393,254.374771 C162.246609,254.383752 164.856806,217.015982 164.856806,217.015982 Z" id="Path-5" fill="#4A4A4A"></path>
                <path d="M168.216777,240.243695 C168.216777,240.243695 183.80004,233.895175 187.913464,243.572458 C188.561835,234.258394 206.333929,238.198942 206.333929,238.198942 C206.333929,238.198942 204.180204,254.527866 188.04031,254.999918 C171.900415,255.471969 168.216777,240.243695 168.216777,240.243695 Z" id="Path-11" fill="#F2534A"></path>
                <g id="Group-35" transform="translate(307.000000, 140.000000)">
                    <ellipse id="Oval-21" fill="#FADAA8" cx="46.5" cy="18" rx="8.5" ry="18"></ellipse>
                    <path d="M56.5421977,365 L57,365 L57,36 L37,36 L37,365 L37.4578023,365 C38.7320659,369.057107 42.5223582,372 47,372 C51.4776418,372 55.2679341,369.057107 56.5421977,365 Z" id="Combined-Shape" fill="#FADAA8"></path>
                    <g id="Group-34" transform="translate(4.000000, 6.000000)">
                        <ellipse id="Oval-20" fill="#F2534A" cx="42.92" cy="36.5" rx="42.92" ry="36.3659731"></ellipse>
                        <path d="M42.92,72.8659731 C44.9735997,72.6564424 6.77619721,63.8301994 8.97832396,35.5839334 C11.1944024,7.15871177 42.92,0.134026928 42.92,0.134026928 C42.92,0.134026928 1.3380941,-1.55619939 0,36.5 C0,56.5843723 19.3287578,73.2622063 42.92,72.8659731 Z" id="Oval-20" fill="#FFD087"></path>
                        <path d="M85.84,72.8659731 C87.8935997,72.6564424 49.6961972,63.8301994 51.898324,35.5839334 C54.1144024,7.15871177 85.84,0.134026928 85.84,0.134026928 C85.84,0.134026928 44.2580941,-1.55619939 42.92,36.5 C42.92,56.5843723 62.2487578,73.2622063 85.84,72.8659731 Z" id="Oval-20" fill="#FFD087" transform="translate(64.419987, 36.497834) scale(-1, 1) translate(-64.419987, -36.497834) "></path>
                        <path d="M25.6775231,36.6845305 C25.8456518,18.4802927 43.3724601,0.604819462 43.3724601,0.604819462 C43.3724601,0.604819462 60.4980526,18.7628975 60.3311083,36.838889 C60.164164,54.9148806 49.6288888,61.7868156 42.7086348,72.4808986 C35.0783873,62.609356 25.5093943,54.8887683 25.6775231,36.6845305 Z" id="Path-14" fill="#FFD087"></path>
                    </g>
                    <path d="M33.245614,88.0036733 C31.9269042,87.0241137 31,84.7057866 31,82.0018367 C31,79.2978867 31.9269042,76.9795596 33.245614,76 L60.754386,76 C62.0730958,76.9795596 63,79.2978867 63,82.0018367 C63,84.7057866 62.0730958,87.0241137 60.754386,88.0036733 L33.245614,88.0036733 Z" id="Combined-Shape" fill="#FFD087"></path>
                    <circle id="Oval-24" fill="#00BEBC" cx="47" cy="18" r="3"></circle>
                    <circle id="Oval-24" fill="#00BEBC" cx="47" cy="42" r="4"></circle>
                    <circle id="Oval-24" fill="#00BEBC" cx="4" cy="42" r="4"></circle>
                    <circle id="Oval-24" fill="#00BEBC" cx="90" cy="42" r="4"></circle>
                    <circle id="Oval-24" fill="#00BEBC" cx="47" cy="68" r="3"></circle>
                    <circle id="Oval-24" fill="#00BEBC" cx="69" cy="73" r="3"></circle>
                    <circle id="Oval-24" fill="#00BEBC" cx="26" cy="73" r="3"></circle>
                    <circle id="Oval-24" fill="#00BEBC" cx="69" cy="11" r="3"></circle>
                    <circle id="Oval-24" fill="#00BEBC" cx="26" cy="11" r="3"></circle>
                    <ellipse id="Oval-25" fill="#FADAA8" cx="47" cy="361" rx="16" ry="15"></ellipse>
                    <path d="M35.754386,95 C34.7241439,94.3471601 34,92.8020817 34,91 C34,89.1979183 34.7241439,87.6528399 35.754386,87 L57.245614,87 C58.2758561,87.6528399 59,89.1979183 59,91 C59,92.8020817 58.2758561,94.3471601 57.245614,95 L35.754386,95 Z" id="Combined-Shape" fill="#FFD087"></path>
                </g>
            </g>
            <g id="Plaque" transform="translate(134.000000, 535.000000)">
                <g id="Group" stroke-width="1" fill-rule="evenodd">
                    <use id="Rectangle-28" stroke="#FADAA8" mask="url(#mask-4)" stroke-width="8" fill="#FFC871" xlink:href="#path-3"></use>
                    <circle id="Oval-17" fill="#FADAA8" cx="313.5" cy="12.5" r="2.5"></circle>
                    <circle id="Oval-17" fill="#FADAA8" cx="313.5" cy="32.5" r="2.5"></circle>
                    <circle id="Oval-17" fill="#FADAA8" cx="11.5" cy="12.5" r="2.5"></circle>
                    <circle id="Oval-17" fill="#FADAA8" cx="11.5" cy="32.5" r="2.5"></circle>
                </g>
                <text id="BREAK-THROUGH-ARTIST" font-family="RobotoSlab-Regular, Roboto Slab" font-size="22" font-weight="normal" letter-spacing="0.240901098" fill="#FFFFFF">
                    <tspan x="24.0299539" y="30">LIFETIME ACHIEVEMENT</tspan>
                </text>
            </g>
        </g>
    </g>
</svg>