<?xml version="1.0" encoding="UTF-8" standalone="no"?>
<svg width="469px" height="616px" viewBox="0 0 469 616" version="1.1" xmlns="http://www.w3.org/2000/svg" xmlns:xlink="http://www.w3.org/1999/xlink">
    <!-- Generator: Sketch 39.1 (31720) - http://www.bohemiancoding.com/sketch -->
    <title>Mini-Series</title>
    <desc>Created with Sketch.</desc>
    <defs>
        <filter x="-50%" y="-50%" width="200%" height="200%" filterUnits="objectBoundingBox" id="filter-1">
            <feOffset dx="0" dy="2" in="SourceAlpha" result="shadowOffsetOuter1"></feOffset>
            <feGaussianBlur stdDeviation="1.5" in="shadowOffsetOuter1" result="shadowBlurOuter1"></feGaussianBlur>
            <feColorMatrix values="0 0 0 0 0   0 0 0 0 0   0 0 0 0 0  0 0 0 0.25 0" type="matrix" in="shadowBlurOuter1" result="shadowMatrixOuter1"></feColorMatrix>
            <feMerge>
                <feMergeNode in="shadowMatrixOuter1"></feMergeNode>
                <feMergeNode in="SourceGraphic"></feMergeNode>
            </feMerge>
        </filter>
        <filter x="-50%" y="-50%" width="200%" height="200%" filterUnits="objectBoundingBox" id="filter-2">
            <feOffset dx="0" dy="2" in="SourceAlpha" result="shadowOffsetOuter1"></feOffset>
            <feGaussianBlur stdDeviation="2" in="shadowOffsetOuter1" result="shadowBlurOuter1"></feGaussianBlur>
            <feColorMatrix values="0 0 0 0 0   0 0 0 0 0   0 0 0 0 0  0 0 0 0.5 0" type="matrix" in="shadowBlurOuter1" result="shadowMatrixOuter1"></feColorMatrix>
            <feMerge>
                <feMergeNode in="shadowMatrixOuter1"></feMergeNode>
                <feMergeNode in="SourceGraphic"></feMergeNode>
            </feMerge>
        </filter>
        <polygon id="path-3" points="0 35.9737473 0 9.12990284 13.0753585 0 312.728151 0 325 9.12990284 325 35.9737473 312.728151 45 13.0753585 45"></polygon>
        <mask id="mask-4" maskContentUnits="userSpaceOnUse" maskUnits="objectBoundingBox" x="0" y="0" width="325" height="45" fill="white">
            <use xlink:href="#path-3"></use>
        </mask>
    </defs>
    <g id="Characters" stroke="none" stroke-width="1" fill="none" fill-rule="evenodd">
        <g id="Mini-Series" transform="translate(3.000000, 1.000000)">
            <g id="Group-20" transform="translate(377.000000, 349.000000)">
                <g id="Group" transform="translate(13.129207, 0.000000)">
                    <path d="M22.6056052,13.3286102 C22.6056052,13.3286102 15.3914961,14.2737919 13.317759,12.7767018 C12.6144174,12.2689394 12.1243628,11.8172031 12.122641,9.46302311 C12.1210034,7.22382111 12.0693507,5.56250209 13.0579312,4.97236795 C14.2149098,4.28170838 16.9166342,4.41770179 18.0087653,5.57177495 C18.711481,6.31434636 18.2444198,7.270594 18.0087652,9.46302301 C18.0087652,10.1278524 15.5803638,9.73387383 14.9039399,9.46302311 C14.2275159,9.19217239 13.7272937,7.27144131 13.6988844,7.35852073 C13.3181408,8.5255646 13.2953987,9.67690696 14.2953836,10.1278525 C15.2953685,10.578798 19.3006955,12.208134 19.7720373,10.3204011 C20.3441993,8.02888139 20.5555825,4.7482278 19.7720368,3.7380411 C18.9884911,2.7278544 14.6628361,0.678816841 10.2717156,2.91697673 C8.72041748,3.72802947 6.14204419,12.2145001 6.69782793,14.4427127 C7.55331995,16.2859035 9.03426309,17.127329 13.057931,18.2764654 C17.0815989,19.4256019 20.8429786,18.4915045 20.8429786,18.4915045 L22.6056052,13.3286102 Z" id="Path-44" fill="#F2534A" transform="translate(14.613162, 10.379989) rotate(16.000000) translate(-14.613162, -10.379989) "></path>
                    <path d="M63.5854655,13.3286102 C63.5854655,13.3286102 56.3713564,14.2737919 54.2976194,12.7767018 C53.5942778,12.2689394 53.1042231,11.8172031 53.1025014,9.46302311 C53.1008637,7.22382111 53.049211,5.56250209 54.0377915,4.97236795 C55.1947701,4.28170838 57.8964945,4.41770179 58.9886256,5.57177495 C59.6913413,6.31434636 59.2242801,7.270594 58.9886255,9.46302301 C58.9886255,10.1278524 56.5602241,9.73387383 55.8838002,9.46302311 C55.2073763,9.19217239 54.707154,7.27144131 54.6787447,7.35852073 C54.2980012,8.5255646 54.275259,9.67690696 55.2752439,10.1278525 C56.2752288,10.578798 60.2805558,12.208134 60.7518976,10.3204011 C61.3240596,8.02888139 61.5354429,4.7482278 60.7518971,3.7380411 C59.9683514,2.7278544 55.6426965,0.678816841 51.2515759,2.91697673 C49.7002778,3.72802947 47.1219045,12.2145001 47.6776883,14.4427127 C48.5331803,16.2859035 50.0141234,17.127329 54.0377913,18.2764654 C58.0614593,19.4256019 61.8228389,18.4915045 61.8228389,18.4915045 L63.5854655,13.3286102 Z" id="Path-44" fill="#F2534A" transform="translate(55.593022, 10.379989) scale(-1, 1) rotate(16.000000) translate(-55.593022, -10.379989) "></path>
                    <path d="M13.1406862,30.9731124 C15.4557456,27.5282239 15.0982998,9.68652025 34.7736831,9.68652025 C54.4490664,9.68652025 54.4459267,26.154146 56.2467244,30.9731118 C58.0475222,35.7920776 67.4826924,39.8973726 68.2562405,62.3499446 C68.1119064,74.2778763 61.9998507,76.5780115 59.2705051,82.3193291 C56.0378811,89.1193187 60.2552835,100.888464 52.3707555,101.093244 C44.4862275,101.298024 42.0913259,91.2668689 38.3957245,87.4713077 C37.1349319,86.1764129 32.9578396,84.2913525 30.4499854,87.1429379 C27.9421312,89.9945233 30.7866464,102.41394 22.8229041,101.934917 C14.8591618,101.455894 11.9761718,90.3174898 8.82806946,83.4541898 C6.11194689,77.5326656 0.609581005,77.641863 0.0332994836,62.3499446 C-0.185078697,44.1188754 10.8256267,34.418001 13.1406862,30.9731124 Z" id="Path-22" fill="#00BEBC"></path>
                    <g id="Group-2" transform="translate(21.212023, 19.992604)">
                        <path d="M22.1980827,3.10499925 C22.1980827,3.10499925 21.9007303,0.853500497 23.9694027,0.79445461 C26.038075,0.735408724 25.9995898,3.05872561 25.9995898,3.05872561 C25.9995898,3.05872561 26.8966996,3.26598555 26.8966996,2.94649901 C26.8966996,1.41914994 25.6424358,0.180988883 24.0952229,0.180988883 C22.5480101,0.180988883 21.2937463,1.41914994 21.2937463,2.94649901 C21.2937463,3.39406133 22.1980827,3.10499925 22.1980827,3.10499925 Z" id="Oval-19" fill="#4A4A4A"></path>
                        <path d="M1.26395096,3.10499925 C1.26395096,3.10499925 0.9665986,0.853500497 3.03527095,0.79445461 C5.10394329,0.735408724 5.06545808,3.05872561 5.06545808,3.05872561 C5.06545808,3.05872561 5.96256782,3.26598555 5.96256782,2.94649901 C5.96256782,1.41914994 4.70830401,0.180988883 3.1610912,0.180988883 C1.61387839,0.180988883 0.359614589,1.41914994 0.359614589,2.94649901 C0.359614589,3.39406133 1.26395096,3.10499925 1.26395096,3.10499925 Z" id="Oval-19" fill="#4A4A4A" transform="translate(3.161091, 1.688911) scale(-1, 1) translate(-3.161091, -1.688911) "></path>
                        <path d="M9.05300834,3.69565173 L17.9452044,3.63787655 C17.9452044,3.63787655 18.8473636,11.2461563 13.6829207,11.2479718 C8.51847767,11.2497873 9.05300834,3.69565173 9.05300834,3.69565173 Z" id="Path-5" fill="#4A4A4A"></path>
                        <path d="M9.73765529,8.02115493 C9.73765529,8.02115493 12.9288827,6.73776066 13.7712525,8.69408596 C13.9040296,6.8111877 17.5434978,7.60779506 17.5434978,7.60779506 C17.5434978,7.60779506 17.1024461,10.9087922 13.7972286,11.0042205 C10.4920112,11.0996488 9.73765529,8.02115493 9.73765529,8.02115493 Z" id="Path-11" fill="#F2534A"></path>
                    </g>
                </g>
                <path d="M47.0977279,84.3390163 C62.4392064,84.9777137 72.1735694,80.3788121 72.1735694,63.9836941 C72.1735694,47.5885762 62.0583035,36.9405405 47.5349468,36.9405405 C33.0115901,36.9405405 24.1471713,47.5804571 24.1471713,63.9755751 C24.1471713,80.370693 31.7562493,83.7003189 47.0977279,84.3390163 Z" id="Oval-27" fill="#4A4A4A"></path>
                <path d="M77.9907345,51.9105949 C84.9293552,51.9105949 83.1203693,30.3234584 83.6943741,15.4569563 C80.6023187,0.0436821065 80.9121463,19.4076719 77.9907347,19.5123992 C75.1709527,19.6134832 75.5385918,20.3532881 72.2477413,22.3377353 C70.360562,32.1528484 71.0521138,51.9105949 77.9907345,51.9105949 Z" id="Oval-28" fill="#00BEBC" transform="translate(77.519468, 30.706318) scale(-1, 1) rotate(156.000000) translate(-77.519468, -30.706318) "></path>
                <path d="M17.7623901,48.5114625 C24.7010107,48.5114625 22.8920248,26.924326 23.4660296,12.0578239 C22.4538959,7.01254071 21.1256065,11.2318145 20.609835,11.7438934 C19.5499314,12.7962087 19.7275255,16.0428203 17.7623903,16.1132668 C14.9426082,16.2143508 15.3102473,16.9541557 12.0193969,18.9386029 C10.1322175,28.753716 10.8237694,48.5114625 17.7623901,48.5114625 Z" id="Oval-28" fill="#00BEBC" transform="translate(17.291124, 29.058358) scale(-1, 1) rotate(-142.000000) translate(-17.291124, -29.058358) "></path>
            </g>
            <g id="Group-20" transform="translate(316.000000, 338.000000)">
                <g id="Group" transform="translate(13.129207, 0.000000)">
                    <path d="M22.6056052,13.3286102 C22.6056052,13.3286102 15.3914961,14.2737919 13.317759,12.7767018 C12.6144174,12.2689394 12.1243628,11.8172031 12.122641,9.46302311 C12.1210034,7.22382111 12.0693507,5.56250209 13.0579312,4.97236795 C14.2149098,4.28170838 16.9166342,4.41770179 18.0087653,5.57177495 C18.711481,6.31434636 18.2444198,7.270594 18.0087652,9.46302301 C18.0087652,10.1278524 15.5803638,9.73387383 14.9039399,9.46302311 C14.2275159,9.19217239 13.7272937,7.27144131 13.6988844,7.35852073 C13.3181408,8.5255646 13.2953987,9.67690696 14.2953836,10.1278525 C15.2953685,10.578798 19.3006955,12.208134 19.7720373,10.3204011 C20.3441993,8.02888139 20.5555825,4.7482278 19.7720368,3.7380411 C18.9884911,2.7278544 14.6628361,0.678816841 10.2717156,2.91697673 C8.72041748,3.72802947 6.14204419,12.2145001 6.69782793,14.4427127 C7.55331995,16.2859035 9.03426309,17.127329 13.057931,18.2764654 C17.0815989,19.4256019 20.8429786,18.4915045 20.8429786,18.4915045 L22.6056052,13.3286102 Z" id="Path-44" fill="#FFD086" transform="translate(14.613162, 10.379989) rotate(16.000000) translate(-14.613162, -10.379989) "></path>
                    <path d="M63.5854655,13.3286102 C63.5854655,13.3286102 56.3713564,14.2737919 54.2976194,12.7767018 C53.5942778,12.2689394 53.1042231,11.8172031 53.1025014,9.46302311 C53.1008637,7.22382111 53.049211,5.56250209 54.0377915,4.97236795 C55.1947701,4.28170838 57.8964945,4.41770179 58.9886256,5.57177495 C59.6913413,6.31434636 59.2242801,7.270594 58.9886255,9.46302301 C58.9886255,10.1278524 56.5602241,9.73387383 55.8838002,9.46302311 C55.2073763,9.19217239 54.707154,7.27144131 54.6787447,7.35852073 C54.2980012,8.5255646 54.275259,9.67690696 55.2752439,10.1278525 C56.2752288,10.578798 60.2805558,12.208134 60.7518976,10.3204011 C61.3240596,8.02888139 61.5354429,4.7482278 60.7518971,3.7380411 C59.9683514,2.7278544 55.6426965,0.678816841 51.2515759,2.91697673 C49.7002778,3.72802947 47.1219045,12.2145001 47.6776883,14.4427127 C48.5331803,16.2859035 50.0141234,17.127329 54.0377913,18.2764654 C58.0614593,19.4256019 61.8228389,18.4915045 61.8228389,18.4915045 L63.5854655,13.3286102 Z" id="Path-44" fill="#FFD086" transform="translate(55.593022, 10.379989) scale(-1, 1) rotate(16.000000) translate(-55.593022, -10.379989) "></path>
                    <path d="M13.1406862,30.9731124 C15.4557456,27.5282239 15.0982998,9.68652025 34.7736831,9.68652025 C54.4490664,9.68652025 54.4459267,26.154146 56.2467244,30.9731118 C58.0475222,35.7920776 67.4826924,39.8973726 68.2562405,62.3499446 C68.1119064,74.2778763 61.9998507,76.5780115 59.2705051,82.3193291 C56.0378811,89.1193187 60.2552835,100.888464 52.3707555,101.093244 C44.4862275,101.298024 42.0913259,91.2668689 38.3957245,87.4713077 C37.1349319,86.1764129 32.9578396,84.2913525 30.4499854,87.1429379 C27.9421312,89.9945233 30.7866464,102.41394 22.8229041,101.934917 C14.8591618,101.455894 11.9761718,90.3174898 8.82806946,83.4541898 C6.11194689,77.5326656 0.609581005,77.641863 0.0332994836,62.3499446 C-0.185078697,44.1188754 10.8256267,34.418001 13.1406862,30.9731124 Z" id="Path-22" fill="#685353"></path>
                    <g id="Group-2" transform="translate(21.212023, 19.992604)">
                        <path d="M22.1980827,3.10499925 C22.1980827,3.10499925 21.9007303,0.853500497 23.9694027,0.79445461 C26.038075,0.735408724 25.9995898,3.05872561 25.9995898,3.05872561 C25.9995898,3.05872561 26.8966996,3.26598555 26.8966996,2.94649901 C26.8966996,1.41914994 25.6424358,0.180988883 24.0952229,0.180988883 C22.5480101,0.180988883 21.2937463,1.41914994 21.2937463,2.94649901 C21.2937463,3.39406133 22.1980827,3.10499925 22.1980827,3.10499925 Z" id="Oval-19" fill="#4A4A4A"></path>
                        <path d="M1.26395096,3.10499925 C1.26395096,3.10499925 0.9665986,0.853500497 3.03527095,0.79445461 C5.10394329,0.735408724 5.06545808,3.05872561 5.06545808,3.05872561 C5.06545808,3.05872561 5.96256782,3.26598555 5.96256782,2.94649901 C5.96256782,1.41914994 4.70830401,0.180988883 3.1610912,0.180988883 C1.61387839,0.180988883 0.359614589,1.41914994 0.359614589,2.94649901 C0.359614589,3.39406133 1.26395096,3.10499925 1.26395096,3.10499925 Z" id="Oval-19" fill="#4A4A4A" transform="translate(3.161091, 1.688911) scale(-1, 1) translate(-3.161091, -1.688911) "></path>
                        <path d="M9.05300834,3.69565173 L17.9452044,3.63787655 C17.9452044,3.63787655 18.8473636,11.2461563 13.6829207,11.2479718 C8.51847767,11.2497873 9.05300834,3.69565173 9.05300834,3.69565173 Z" id="Path-5" fill="#4A4A4A"></path>
                        <path d="M9.73765529,8.02115493 C9.73765529,8.02115493 12.9288827,6.73776066 13.7712525,8.69408596 C13.9040296,6.8111877 17.5434978,7.60779506 17.5434978,7.60779506 C17.5434978,7.60779506 17.1024461,10.9087922 13.7972286,11.0042205 C10.4920112,11.0996488 9.73765529,8.02115493 9.73765529,8.02115493 Z" id="Path-11" fill="#F2534A"></path>
                    </g>
                </g>
                <path d="M47.0977279,84.3390163 C62.4392064,84.9777137 72.1735694,80.3788121 72.1735694,63.9836941 C72.1735694,47.5885762 62.0583035,36.9405405 47.5349468,36.9405405 C33.0115901,36.9405405 24.1471713,47.5804571 24.1471713,63.9755751 C24.1471713,80.370693 31.7562493,83.7003189 47.0977279,84.3390163 Z" id="Oval-27" fill="#4A4A4A"></path>
                <path d="M77.9907345,51.9105949 C84.9293552,51.9105949 83.1203693,30.3234584 83.6943741,15.4569563 C80.6023187,0.0436821065 80.9121463,19.4076719 77.9907347,19.5123992 C75.1709527,19.6134832 75.5385918,20.3532881 72.2477413,22.3377353 C70.360562,32.1528484 71.0521138,51.9105949 77.9907345,51.9105949 Z" id="Oval-28" fill="#685353" transform="translate(77.519468, 30.706318) scale(-1, 1) rotate(156.000000) translate(-77.519468, -30.706318) "></path>
                <path d="M17.7623901,48.5114625 C24.7010107,48.5114625 22.8920248,26.924326 23.4660296,12.0578239 C22.4538959,7.01254071 21.1256065,11.2318145 20.609835,11.7438934 C19.5499314,12.7962087 19.7275255,16.0428203 17.7623903,16.1132668 C14.9426082,16.2143508 15.3102473,16.9541557 12.0193969,18.9386029 C10.1322175,28.753716 10.8237694,48.5114625 17.7623901,48.5114625 Z" id="Oval-28" fill="#685353" transform="translate(17.291124, 29.058358) scale(-1, 1) rotate(-142.000000) translate(-17.291124, -29.058358) "></path>
            </g>
            <g id="Toy-OTY" filter="url(#filter-1)">
                <g id="Striped-Shirt" filter="url(#filter-2)" transform="translate(39.800038, 275.163404)">
                    <path d="M69.8844042,0.988902128 C-1.50855527,96.7841368 0.116734135,207.077837 0.116734135,207.077837 C0.116734135,207.077837 41.8729373,242.767015 133.220251,242.34867 C224.567564,241.930326 275.471376,207.077837 275.471376,207.077837 C275.471376,207.077837 264.7292,91.4196551 215.882895,25.2490747" id="Path-5" fill="#F2534A"></path>
                    <path d="M26.8730722,76.9754501 C74.6070015,100.865422 113.487982,107.707161 134.244198,108.186475 C155.000414,108.665789 210.937839,97.0997 244.474534,78.2124455 C250.791117,91.8782268 255.040973,108.594892 255.040973,108.594892 C255.040973,108.594892 144.700588,178.145214 16.8103527,107.688937 C19.5079322,95.1519982 24.166865,83.2755542 26.8730722,76.9754501 Z" id="Path-45" fill="#00BEBC"></path>
                    <path d="M51.9737912,28.7056477 C99.7077205,52.5956194 120.05502,47.6630573 138.416387,49.0555654 C156.777754,50.4480735 219.353576,30.0647335 219.353576,30.0647335 C219.353576,30.0647335 226.959054,40.7081065 232.42087,51.954962 C234.444342,54.4065588 183.043338,78.8744462 136.882494,78.1061658 C90.7216502,77.3378855 78.5367973,74.434851 38.1379114,52.1786162 C42.7115262,40.6549474 47.9427599,34.1736626 51.9737912,28.7056477 Z" id="Path-45" fill="#00BEBC"></path>
                    <path d="M8.26805039,143.469336 C8.26805039,143.469336 3.03037269,172.369929 2.90961701,177.968674 C114.966768,236.005691 246.657904,191.259034 270.660734,177.366786 C268.548018,159.042646 266.545444,154.310858 264.934948,143.723768 C124.074088,210.522186 8.26805039,143.469336 8.26805039,143.469336 Z" id="Path-46" fill="#00BEBC"></path>
                </g>
                <path d="M80.7795323,171.519549 C80.1516302,172.923009 79.5539464,174.34297 78.9873095,175.778603 C74.3277224,187.584141 78.1273095,217.27714 79.4778439,229.649556 C93.2237757,302.565459 141.761426,359.352899 149.249824,368.88367 C156.738221,378.41444 156.323398,321.877609 160.350413,332.579171 C183.361968,393.731058 217.396141,417.889404 220.996045,417.661046 C224.59595,417.432688 225.105333,370.533417 230.744727,352.497732 C236.384121,334.462047 247.029287,376.318182 254.27064,371.886399 C261.511993,367.454617 257.300455,309.455762 266.898714,254.143194 C269.104086,241.434136 276.814207,188.385912 272.426814,176.884465 C271.901885,175.508376 271.348553,174.146333 270.767534,172.799056 C270.767534,172.799056 250.564635,120.734375 188.701354,109.445312 C126.838073,98.15625 85.6115104,161.832031 85.6115104,161.832031" id="Beard" stroke="#FFD087" fill="#FFD087"></path>
                <path d="M278.562,143.580028 C291.852337,134.086583 314.421363,116.242454 312.916801,105.501071 C310.792903,90.3381255 301.194894,53.6927847 299.102328,49.9329682 C297.009763,46.1731517 293.414001,52.0474829 277.249869,53.2556678 C266.899359,50.6657693 277.873899,30.5962149 278.29348,29.2822525 C278.713061,27.9682901 276.79759,46.777777 279.216468,47.0970578 C281.629273,47.4155368 293.922446,45.564092 295.908895,42.4561299 C297.895343,39.3481677 294.967584,15.1393818 297.886945,8.75304305 C300.806307,2.36670434 342.772139,-1.45966195 345.207474,0.526533987 C347.64281,2.51272992 305.900684,9.2398323 303.278298,11.5163553 C300.655911,13.7928784 305.03419,37.221426 305.03419,37.221426 C305.03419,37.221426 309.532327,59.3905879 312.544064,71.712393 C315.555801,84.0341982 325.370814,70.1015473 327.814218,66.4945014 C330.257622,62.8874554 325.155059,49.0799485 327.175226,50.1133171 C329.195393,51.1466857 333.294128,59.7451722 333.15442,64.8935226 C333.014712,70.0418729 328.97387,75.3071444 325.191831,78.66194 C324.108362,79.6230137 319.444639,84.1462863 317.330015,85.1392174 C314.366375,86.530808 324.989522,102.827167 321.884647,113.402797 C319.293411,122.228902 287.948583,154.320313 277.648753,164.696528" id="Right-Antler" fill="#423636"></path>
                <path d="M23.6570468,155.414317 C36.9473842,145.920872 59.5164101,128.076742 58.0118477,117.33536 C55.8879498,102.172414 46.2899403,65.527073 44.197375,61.7672565 C42.1048097,58.00744 38.509048,63.8817711 22.344916,65.0899561 C11.9944054,62.5000575 22.9689454,42.4305032 23.3885267,41.1165408 C23.808108,39.8025783 21.8926368,58.6120653 24.3115152,58.9313461 C26.7243194,59.2498251 39.0174933,57.3983803 41.0039417,54.2904181 C42.9903901,51.182456 40.0626308,26.97367 42.9819923,20.5873313 C45.9013538,14.2009926 87.8671856,10.3746263 90.3025212,12.3608223 C92.7378567,14.3470182 50.9957312,21.0741206 48.3733445,23.3506436 C45.7509578,25.6271666 50.1292366,49.0557143 50.1292366,49.0557143 C50.1292366,49.0557143 54.6273741,71.2248762 57.6391108,83.5466813 C60.6508475,95.8684864 70.4658605,81.9358355 72.9092647,78.3287896 C75.3526689,74.7217437 70.2501058,60.9142368 72.2702726,61.9476054 C74.2904395,62.980974 78.3891749,71.5794605 78.249467,76.7278108 C78.1097591,81.8761612 74.0689169,87.1414327 70.286878,90.4962283 C69.2034087,91.457302 64.5396859,95.9805745 62.4250619,96.9735057 C59.4614214,98.3650963 70.0845687,114.661455 66.9796934,125.237086 C64.3884573,134.06319 33.0436301,166.154602 22.7438003,176.530816" id="Right-Antler" fill="#423636" transform="translate(54.159895, 94.182552) scale(-1, 1) rotate(13.000000) translate(-54.159895, -94.182552) "></path>
                <path d="M86.8053095,159 L100,159 L100,172 C100,172 87.0727506,172.055497 79,172 C80.5948671,161.20598 86.8053095,159 86.8053095,159 Z" id="Rectangle-5" fill="#FADAA8"></path>
                <g id="Crown" transform="translate(93.000000, 61.000000)">
                    <path d="M38.2236759,111.428586 C23.0260272,111.400189 11.0200629,111.411535 5.21172213,111.320537 C-0.765755255,110.882891 -0.681160467,106.513299 2.23447539,104.805288 C2.29355771,104.675985 2.4982512,104.554262 2.84077689,104.439826 L0.612980888,50.5750848 L52.3949819,86.7464103 L103.928431,0.922910638 L154.639122,86.38489 L186.323135,48.3231651 L184.081679,103.519312 C184.089249,108.882608 181.09848,111.889719 178.852371,112.286806 C175.783778,112.829299 186.94052,112.861847 170.530628,112.800027 M140.288361,112.451641 C124.729304,112.262719 110.862825,112.111043 100.93338,111.937551 C89.1671619,111.731967 77.2465484,111.610472 65.9401811,111.536732" fill="#FADAA8"></path>
                    <path d="M182.213774,96.95759 C185.001788,96.95759 185,93.1940975 185,88.1072501 C185,83.0204028 184.277782,77 181.489768,77 C178.701754,77 178,82.5692791 178,87.6561264 C178,92.7429738 179.42576,96.95759 182.213774,96.95759 Z" id="Oval-9" fill="#F2534A" transform="translate(181.500000, 86.978795) rotate(3.000000) translate(-181.500000, -86.978795) "></path>
                    <ellipse id="Oval-9" fill="#F2534A" cx="105.474118" cy="73.3675385" rx="15.8205957" ry="24.2823641"></ellipse>
                    <ellipse id="Oval-9" fill="#F2534A" cx="16.4638274" cy="85.81702" rx="5.85543888" ry="9.21055189"></ellipse>
                </g>
                <path d="M238.042401,213.949282 C239.475283,205.235141 235.927444,191.453262 248,191.071122 C260.072556,190.688982 258.123249,212.347339 259.730212,214.292466 C260.446228,215.137146 265.900584,214.498399 265.900584,212.738632 C265.900584,206.45154 264.666559,200.63598 262.573155,195.904879 C259.381713,188.692208 254.192929,184 248.334268,184 C242.482939,184 237.299811,188.68047 234.107372,195.877811 C232.00669,200.613791 230.767951,206.439544 230.767951,212.738632 C230.767951,214.767255 235.772377,215.115336 238.042401,213.949282 Z" id="Oval-3" fill="#4A4A4A" transform="translate(248.334268, 199.331013) scale(-1, -1) translate(-248.334268, -199.331013) "></path>
                <path d="M148.042401,213.926037 C149.475283,204.927696 145.927444,190.69634 158,190.301737 C170.072556,189.907134 168.123249,212.271849 169.730212,214.280413 C170.446228,215.152641 175.900584,214.493062 175.900584,212.675903 C175.900584,206.183766 174.666559,200.17854 172.573155,195.29314 C169.381713,187.845238 164.192929,183 158.334268,183 C152.482939,183 147.299811,187.833117 144.107372,195.265189 C142.00669,200.155627 140.767951,206.171379 140.767951,212.675903 C140.767951,214.770687 145.772377,215.13012 148.042401,213.926037 Z" id="Oval-3" fill="#4A4A4A" transform="translate(158.334268, 198.831013) scale(1, -1) translate(-158.334268, -198.831013) "></path>
                <path d="M182.856806,216.015982 L226.278793,215.730187 C226.278793,215.730187 230.684177,253.36579 205.465393,253.374771 C180.246609,253.383752 182.856806,216.015982 182.856806,216.015982 Z" id="Path-5" fill="#4A4A4A"></path>
                <path d="M186.216777,239.243695 C186.216777,239.243695 201.80004,232.895175 205.913464,242.572458 C206.561835,233.258394 224.333929,237.198942 224.333929,237.198942 C224.333929,237.198942 222.180204,253.527866 206.04031,253.999918 C189.900415,254.471969 186.216777,239.243695 186.216777,239.243695 Z" id="Path-11" fill="#F2534A"></path>
            </g>
            <g id="Group-20" transform="translate(361.000000, 387.000000)">
                <g id="Group" transform="translate(13.129207, 0.000000)">
                    <path d="M22.6056052,13.3286102 C22.6056052,13.3286102 15.3914961,14.2737919 13.317759,12.7767018 C12.6144174,12.2689394 12.1243628,11.8172031 12.122641,9.46302311 C12.1210034,7.22382111 12.0693507,5.56250209 13.0579312,4.97236795 C14.2149098,4.28170838 16.9166342,4.41770179 18.0087653,5.57177495 C18.711481,6.31434636 18.2444198,7.270594 18.0087652,9.46302301 C18.0087652,10.1278524 15.5803638,9.73387383 14.9039399,9.46302311 C14.2275159,9.19217239 13.7272937,7.27144131 13.6988844,7.35852073 C13.3181408,8.5255646 13.2953987,9.67690696 14.2953836,10.1278525 C15.2953685,10.578798 19.3006955,12.208134 19.7720373,10.3204011 C20.3441993,8.02888139 20.5555825,4.7482278 19.7720368,3.7380411 C18.9884911,2.7278544 14.6628361,0.678816841 10.2717156,2.91697673 C8.72041748,3.72802947 6.14204419,12.2145001 6.69782793,14.4427127 C7.55331995,16.2859035 9.03426309,17.127329 13.057931,18.2764654 C17.0815989,19.4256019 20.8429786,18.4915045 20.8429786,18.4915045 L22.6056052,13.3286102 Z" id="Path-44" fill="#00BEBC" transform="translate(14.613162, 10.379989) rotate(16.000000) translate(-14.613162, -10.379989) "></path>
                    <path d="M63.5854655,13.3286102 C63.5854655,13.3286102 56.3713564,14.2737919 54.2976194,12.7767018 C53.5942778,12.2689394 53.1042231,11.8172031 53.1025014,9.46302311 C53.1008637,7.22382111 53.049211,5.56250209 54.0377915,4.97236795 C55.1947701,4.28170838 57.8964945,4.41770179 58.9886256,5.57177495 C59.6913413,6.31434636 59.2242801,7.270594 58.9886255,9.46302301 C58.9886255,10.1278524 56.5602241,9.73387383 55.8838002,9.46302311 C55.2073763,9.19217239 54.707154,7.27144131 54.6787447,7.35852073 C54.2980012,8.5255646 54.275259,9.67690696 55.2752439,10.1278525 C56.2752288,10.578798 60.2805558,12.208134 60.7518976,10.3204011 C61.3240596,8.02888139 61.5354429,4.7482278 60.7518971,3.7380411 C59.9683514,2.7278544 55.6426965,0.678816841 51.2515759,2.91697673 C49.7002778,3.72802947 47.1219045,12.2145001 47.6776883,14.4427127 C48.5331803,16.2859035 50.0141234,17.127329 54.0377913,18.2764654 C58.0614593,19.4256019 61.8228389,18.4915045 61.8228389,18.4915045 L63.5854655,13.3286102 Z" id="Path-44" fill="#00BEBC" transform="translate(55.593022, 10.379989) scale(-1, 1) rotate(16.000000) translate(-55.593022, -10.379989) "></path>
                    <path d="M13.1406862,30.9731124 C15.4557456,27.5282239 15.0982998,9.68652025 34.7736831,9.68652025 C54.4490664,9.68652025 54.4459267,26.154146 56.2467244,30.9731118 C58.0475222,35.7920776 67.4826924,39.8973726 68.2562405,62.3499446 C68.1119064,74.2778763 61.9998507,76.5780115 59.2705051,82.3193291 C56.0378811,89.1193187 60.2552835,100.888464 52.3707555,101.093244 C44.4862275,101.298024 42.0913259,91.2668689 38.3957245,87.4713077 C37.1349319,86.1764129 32.9578396,84.2913525 30.4499854,87.1429379 C27.9421312,89.9945233 30.7866464,102.41394 22.8229041,101.934917 C14.8591618,101.455894 11.9761718,90.3174898 8.82806946,83.4541898 C6.11194689,77.5326656 0.609581005,77.641863 0.0332994836,62.3499446 C-0.185078697,44.1188754 10.8256267,34.418001 13.1406862,30.9731124 Z" id="Path-22" fill="#FFD087"></path>
                    <g id="Group-2" transform="translate(21.212023, 19.992604)">
                        <path d="M22.1980827,3.10499925 C22.1980827,3.10499925 21.9007303,0.853500497 23.9694027,0.79445461 C26.038075,0.735408724 25.9995898,3.05872561 25.9995898,3.05872561 C25.9995898,3.05872561 26.8966996,3.26598555 26.8966996,2.94649901 C26.8966996,1.41914994 25.6424358,0.180988883 24.0952229,0.180988883 C22.5480101,0.180988883 21.2937463,1.41914994 21.2937463,2.94649901 C21.2937463,3.39406133 22.1980827,3.10499925 22.1980827,3.10499925 Z" id="Oval-19" fill="#4A4A4A"></path>
                        <path d="M1.26395096,3.10499925 C1.26395096,3.10499925 0.9665986,0.853500497 3.03527095,0.79445461 C5.10394329,0.735408724 5.06545808,3.05872561 5.06545808,3.05872561 C5.06545808,3.05872561 5.96256782,3.26598555 5.96256782,2.94649901 C5.96256782,1.41914994 4.70830401,0.180988883 3.1610912,0.180988883 C1.61387839,0.180988883 0.359614589,1.41914994 0.359614589,2.94649901 C0.359614589,3.39406133 1.26395096,3.10499925 1.26395096,3.10499925 Z" id="Oval-19" fill="#4A4A4A" transform="translate(3.161091, 1.688911) scale(-1, 1) translate(-3.161091, -1.688911) "></path>
                        <path d="M9.05300834,3.69565173 L17.9452044,3.63787655 C17.9452044,3.63787655 18.8473636,11.2461563 13.6829207,11.2479718 C8.51847767,11.2497873 9.05300834,3.69565173 9.05300834,3.69565173 Z" id="Path-5" fill="#4A4A4A"></path>
                        <path d="M9.73765529,8.02115493 C9.73765529,8.02115493 12.9288827,6.73776066 13.7712525,8.69408596 C13.9040296,6.8111877 17.5434978,7.60779506 17.5434978,7.60779506 C17.5434978,7.60779506 17.1024461,10.9087922 13.7972286,11.0042205 C10.4920112,11.0996488 9.73765529,8.02115493 9.73765529,8.02115493 Z" id="Path-11" fill="#F2534A"></path>
                    </g>
                </g>
                <path d="M47.0977279,84.3390163 C62.4392064,84.9777137 72.1735694,80.3788121 72.1735694,63.9836941 C72.1735694,47.5885762 62.0583035,36.9405405 47.5349468,36.9405405 C33.0115901,36.9405405 24.1471713,47.5804571 24.1471713,63.9755751 C24.1471713,80.370693 31.7562493,83.7003189 47.0977279,84.3390163 Z" id="Oval-27" fill="#4A4A4A"></path>
                <path d="M77.9907345,51.9105949 C84.9293552,51.9105949 83.1203693,30.3234584 83.6943741,15.4569563 C80.6023187,0.0436821065 80.9121463,19.4076719 77.9907347,19.5123992 C75.1709527,19.6134832 75.5385918,20.3532881 72.2477413,22.3377353 C70.360562,32.1528484 71.0521138,51.9105949 77.9907345,51.9105949 Z" id="Oval-28" fill="#FFD087" transform="translate(77.519468, 30.706318) scale(-1, 1) rotate(156.000000) translate(-77.519468, -30.706318) "></path>
                <path d="M17.7623901,48.5114625 C24.7010107,48.5114625 22.8920248,26.924326 23.4660296,12.0578239 C22.4538959,7.01254071 21.1256065,11.2318145 20.609835,11.7438934 C19.5499314,12.7962087 19.7275255,16.0428203 17.7623903,16.1132668 C14.9426082,16.2143508 15.3102473,16.9541557 12.0193969,18.9386029 C10.1322175,28.753716 10.8237694,48.5114625 17.7623901,48.5114625 Z" id="Oval-28" fill="#FFD087" transform="translate(17.291124, 29.058358) scale(-1, 1) rotate(-142.000000) translate(-17.291124, -29.058358) "></path>
            </g>
            <g id="Group-20" transform="translate(313.000000, 406.000000)">
                <g id="Group" transform="translate(13.129207, 0.000000)">
                    <path d="M22.6056052,13.3286102 C22.6056052,13.3286102 15.3914961,14.2737919 13.317759,12.7767018 C12.6144174,12.2689394 12.1243628,11.8172031 12.122641,9.46302311 C12.1210034,7.22382111 12.0693507,5.56250209 13.0579312,4.97236795 C14.2149098,4.28170838 16.9166342,4.41770179 18.0087653,5.57177495 C18.711481,6.31434636 18.2444198,7.270594 18.0087652,9.46302301 C18.0087652,10.1278524 15.5803638,9.73387383 14.9039399,9.46302311 C14.2275159,9.19217239 13.7272937,7.27144131 13.6988844,7.35852073 C13.3181408,8.5255646 13.2953987,9.67690696 14.2953836,10.1278525 C15.2953685,10.578798 19.3006955,12.208134 19.7720373,10.3204011 C20.3441993,8.02888139 20.5555825,4.7482278 19.7720368,3.7380411 C18.9884911,2.7278544 14.6628361,0.678816841 10.2717156,2.91697673 C8.72041748,3.72802947 6.14204419,12.2145001 6.69782793,14.4427127 C7.55331995,16.2859035 9.03426309,17.127329 13.057931,18.2764654 C17.0815989,19.4256019 20.8429786,18.4915045 20.8429786,18.4915045 L22.6056052,13.3286102 Z" id="Path-44" fill="#685353" transform="translate(14.613162, 10.379989) rotate(16.000000) translate(-14.613162, -10.379989) "></path>
                    <path d="M63.5854655,13.3286102 C63.5854655,13.3286102 56.3713564,14.2737919 54.2976194,12.7767018 C53.5942778,12.2689394 53.1042231,11.8172031 53.1025014,9.46302311 C53.1008637,7.22382111 53.049211,5.56250209 54.0377915,4.97236795 C55.1947701,4.28170838 57.8964945,4.41770179 58.9886256,5.57177495 C59.6913413,6.31434636 59.2242801,7.270594 58.9886255,9.46302301 C58.9886255,10.1278524 56.5602241,9.73387383 55.8838002,9.46302311 C55.2073763,9.19217239 54.707154,7.27144131 54.6787447,7.35852073 C54.2980012,8.5255646 54.275259,9.67690696 55.2752439,10.1278525 C56.2752288,10.578798 60.2805558,12.208134 60.7518976,10.3204011 C61.3240596,8.02888139 61.5354429,4.7482278 60.7518971,3.7380411 C59.9683514,2.7278544 55.6426965,0.678816841 51.2515759,2.91697673 C49.7002778,3.72802947 47.1219045,12.2145001 47.6776883,14.4427127 C48.5331803,16.2859035 50.0141234,17.127329 54.0377913,18.2764654 C58.0614593,19.4256019 61.8228389,18.4915045 61.8228389,18.4915045 L63.5854655,13.3286102 Z" id="Path-44" fill="#685353" transform="translate(55.593022, 10.379989) scale(-1, 1) rotate(16.000000) translate(-55.593022, -10.379989) "></path>
                    <path d="M13.1406862,30.9731124 C15.4557456,27.5282239 15.0982998,9.68652025 34.7736831,9.68652025 C54.4490664,9.68652025 54.4459267,26.154146 56.2467244,30.9731118 C58.0475222,35.7920776 67.4826924,39.8973726 68.2562405,62.3499446 C68.1119064,74.2778763 61.9998507,76.5780115 59.2705051,82.3193291 C56.0378811,89.1193187 60.2552835,100.888464 52.3707555,101.093244 C44.4862275,101.298024 42.0913259,91.2668689 38.3957245,87.4713077 C37.1349319,86.1764129 32.9578396,84.2913525 30.4499854,87.1429379 C27.9421312,89.9945233 30.7866464,102.41394 22.8229041,101.934917 C14.8591618,101.455894 11.9761718,90.3174898 8.82806946,83.4541898 C6.11194689,77.5326656 0.609581005,77.641863 0.0332994836,62.3499446 C-0.185078697,44.1188754 10.8256267,34.418001 13.1406862,30.9731124 Z" id="Path-22" fill="#F2534A"></path>
                    <g id="Group-2" transform="translate(21.212023, 19.992604)">
                        <path d="M22.1980827,3.10499925 C22.1980827,3.10499925 21.9007303,0.853500497 23.9694027,0.79445461 C26.038075,0.735408724 25.9995898,3.05872561 25.9995898,3.05872561 C25.9995898,3.05872561 26.8966996,3.26598555 26.8966996,2.94649901 C26.8966996,1.41914994 25.6424358,0.180988883 24.0952229,0.180988883 C22.5480101,0.180988883 21.2937463,1.41914994 21.2937463,2.94649901 C21.2937463,3.39406133 22.1980827,3.10499925 22.1980827,3.10499925 Z" id="Oval-19" fill="#4A4A4A"></path>
                        <path d="M1.26395096,3.10499925 C1.26395096,3.10499925 0.9665986,0.853500497 3.03527095,0.79445461 C5.10394329,0.735408724 5.06545808,3.05872561 5.06545808,3.05872561 C5.06545808,3.05872561 5.96256782,3.26598555 5.96256782,2.94649901 C5.96256782,1.41914994 4.70830401,0.180988883 3.1610912,0.180988883 C1.61387839,0.180988883 0.359614589,1.41914994 0.359614589,2.94649901 C0.359614589,3.39406133 1.26395096,3.10499925 1.26395096,3.10499925 Z" id="Oval-19" fill="#4A4A4A" transform="translate(3.161091, 1.688911) scale(-1, 1) translate(-3.161091, -1.688911) "></path>
                        <path d="M9.05300834,3.69565173 L17.9452044,3.63787655 C17.9452044,3.63787655 18.8473636,11.2461563 13.6829207,11.2479718 C8.51847767,11.2497873 9.05300834,3.69565173 9.05300834,3.69565173 Z" id="Path-5" fill="#4A4A4A"></path>
                        <path d="M9.73765529,8.02115493 C9.73765529,8.02115493 12.9288827,6.73776066 13.7712525,8.69408596 C13.9040296,6.8111877 17.5434978,7.60779506 17.5434978,7.60779506 C17.5434978,7.60779506 17.1024461,10.9087922 13.7972286,11.0042205 C10.4920112,11.0996488 9.73765529,8.02115493 9.73765529,8.02115493 Z" id="Path-11" fill="#F2534A"></path>
                    </g>
                </g>
                <path d="M47.0977279,84.3390163 C62.4392064,84.9777137 72.1735694,80.3788121 72.1735694,63.9836941 C72.1735694,47.5885762 62.0583035,36.9405405 47.5349468,36.9405405 C33.0115901,36.9405405 24.1471713,47.5804571 24.1471713,63.9755751 C24.1471713,80.370693 31.7562493,83.7003189 47.0977279,84.3390163 Z" id="Oval-27" fill="#4A4A4A"></path>
                <path d="M77.9907345,51.9105949 C84.9293552,51.9105949 83.1203693,30.3234584 83.6943741,15.4569563 C80.6023187,0.0436821065 80.9121463,19.4076719 77.9907347,19.5123992 C75.1709527,19.6134832 75.5385918,20.3532881 72.2477413,22.3377353 C70.360562,32.1528484 71.0521138,51.9105949 77.9907345,51.9105949 Z" id="Oval-28" fill="#F2534A" transform="translate(77.519468, 30.706318) scale(-1, 1) rotate(156.000000) translate(-77.519468, -30.706318) "></path>
                <path d="M17.7623901,48.5114625 C24.7010107,48.5114625 22.8920248,26.924326 23.4660296,12.0578239 C22.4538959,7.01254071 21.1256065,11.2318145 20.609835,11.7438934 C19.5499314,12.7962087 19.7275255,16.0428203 17.7623903,16.1132668 C14.9426082,16.2143508 15.3102473,16.9541557 12.0193969,18.9386029 C10.1322175,28.753716 10.8237694,48.5114625 17.7623901,48.5114625 Z" id="Oval-28" fill="#F2534A" transform="translate(17.291124, 29.058358) scale(-1, 1) rotate(-142.000000) translate(-17.291124, -29.058358) "></path>
            </g>
            <g id="Group-7" transform="translate(202.000000, 375.000000)">
                <g id="Group" transform="translate(23.781344, 0.000000)">
                    <path d="M41.0340876,24.1744401 C41.0340876,24.1744401 27.9389113,25.8887403 24.1746278,23.1734298 C22.8979099,22.2524881 22.0083541,21.4331624 22.0052288,17.1633262 C22.0022562,13.1020285 21.9084952,10.0888518 23.7029837,9.0185105 C25.8031514,7.76584364 30.7073685,8.01249835 32.6898239,10.1056702 C33.9654056,11.4524909 33.1175881,13.1868617 32.6898238,17.163326 C32.6898238,18.369144 28.2817474,17.6545751 27.0538909,17.1633262 C25.8260344,16.6720774 24.9180222,13.1883984 24.8664531,13.3463366 C24.1753209,15.4630338 24.1340389,17.5512528 25.9492289,18.3691442 C27.7644189,19.1870356 35.0349581,22.1422038 35.8905459,18.7183746 C36.9291444,14.5621868 37.3128509,8.6119818 35.8905451,6.77978043 C34.4682393,4.94757906 26.6162351,1.23118741 18.6453968,5.29059506 C15.8294535,6.76162207 11.1491454,22.1537502 12.1580137,26.1951161 C13.7109177,29.5381584 16.3991515,31.0642731 23.7029835,33.1484912 C31.0068155,35.2327093 37.8345372,33.5385131 37.8345372,33.5385131 L41.0340876,24.1744401 Z" id="Path-44" fill="#FFD086" transform="translate(26.526065, 18.826451) rotate(16.000000) translate(-26.526065, -18.826451) "></path>
                    <path d="M115.421443,24.1744401 C115.421443,24.1744401 102.326267,25.8887403 98.561983,23.1734298 C97.2852651,22.2524881 96.3957093,21.4331624 96.392584,17.1633262 C96.3896113,13.1020285 96.2958504,10.0888518 98.0903389,9.0185105 C100.190507,7.76584364 105.094724,8.01249835 107.077179,10.1056702 C108.352761,11.4524909 107.504943,13.1868617 107.077179,17.163326 C107.077179,18.369144 102.669103,17.6545751 101.441246,17.1633262 C100.21339,16.6720774 99.3053774,13.1883984 99.2538083,13.3463366 C98.562676,15.4630338 98.5213941,17.5512528 100.336584,18.3691442 C102.151774,19.1870356 109.422313,22.1422038 110.277901,18.7183746 C111.3165,14.5621868 111.700206,8.6119818 110.2779,6.77978043 C108.855594,4.94757906 101.00359,1.23118741 93.032752,5.29059506 C90.2168086,6.76162207 85.5365006,22.1537502 86.5453689,26.1951161 C88.0982729,29.5381584 90.7865066,31.0642731 98.0903386,33.1484912 C105.394171,35.2327093 112.221892,33.5385131 112.221892,33.5385131 L115.421443,24.1744401 Z" id="Path-44" fill="#FFD086" transform="translate(100.913420, 18.826451) scale(-1, 1) rotate(16.000000) translate(-100.913420, -18.826451) "></path>
                    <path d="M23.8532021,56.1767235 C28.0555383,49.9286413 27.4066963,17.5686887 63.1217943,17.5686887 C98.8368923,17.5686887 98.831193,47.4364412 102.100032,56.1767223 C105.368872,64.9170034 122.495757,72.3628818 123.899915,113.085684 C123.637917,134.719678 112.543207,138.891491 107.588852,149.304666 C101.720936,161.63798 109.376438,182.983978 95.0643062,183.355393 C80.7521739,183.726808 76.4049067,165.533047 69.6965868,158.64894 C67.4079742,156.300357 59.8256437,152.881375 55.2733431,158.053368 C50.7210425,163.225361 55.8844559,185.750774 41.4285324,184.881957 C26.9726088,184.013141 21.7393553,163.811133 16.0248652,151.362991 C11.0945123,140.622972 1.10652204,140.821026 0.0604458018,113.085684 C-0.335958069,80.019529 19.6508659,62.4248058 23.8532021,56.1767235 Z" id="Path-22" fill="#00BEBC"></path>
                    <g id="Group-2" transform="translate(38.504434, 36.261095)">
                        <path d="M40.2943458,5.63161629 C40.2943458,5.63161629 39.7545866,1.54801561 43.5096766,1.44092258 C47.2647666,1.33382955 47.1949076,5.54768861 47.1949076,5.54768861 C47.1949076,5.54768861 48.8233568,5.92360124 48.8233568,5.34414037 C48.8233568,2.57394843 46.5465953,0.32826415 43.7380677,0.32826415 C40.9295401,0.32826415 38.6527787,2.57394843 38.6527787,5.34414037 C38.6527787,6.15589555 40.2943458,5.63161629 40.2943458,5.63161629 Z" id="Oval-19" fill="#4A4A4A"></path>
                        <path d="M2.29434576,5.63161629 C2.29434576,5.63161629 1.75458659,1.54801561 5.50967661,1.44092258 C9.26476663,1.33382955 9.1949076,5.54768861 9.1949076,5.54768861 C9.1949076,5.54768861 10.8233568,5.92360124 10.8233568,5.34414037 C10.8233568,2.57394843 8.54659533,0.32826415 5.73806773,0.32826415 C2.92954012,0.32826415 0.652778656,2.57394843 0.652778656,5.34414037 C0.652778656,6.15589555 2.29434576,5.63161629 2.29434576,5.63161629 Z" id="Oval-19" fill="#4A4A4A" transform="translate(5.738068, 3.063221) scale(-1, 1) translate(-5.738068, -3.063221) "></path>
                        <path d="M16.4331782,6.70289775 L32.5744472,6.59810942 C32.5744472,6.59810942 34.2120623,20.3974403 24.8374755,20.4007332 C15.4628888,20.404026 16.4331782,6.70289775 16.4331782,6.70289775 Z" id="Path-5" fill="#4A4A4A"></path>
                        <path d="M17.6759612,14.5481732 C17.6759612,14.5481732 23.4687328,12.2204483 24.997817,15.7686853 C25.2388363,12.3536247 31.8452623,13.7984518 31.8452623,13.7984518 C31.8452623,13.7984518 31.0446576,19.7855544 25.0449694,19.9586352 C19.0452811,20.131716 17.6759612,14.5481732 17.6759612,14.5481732 Z" id="Path-11" fill="#F2534A"></path>
                    </g>
                </g>
                <path d="M85.4415939,152.967824 C113.289712,154.126245 130.959697,145.7851 130.959697,116.048857 C130.959697,86.3126136 112.598291,67 86.2352414,67 C59.8721917,67 43.7813444,86.2978879 43.7813444,116.034131 C43.7813444,145.770375 57.5934753,151.809402 85.4415939,152.967824 Z" id="Oval-27" fill="#4A4A4A"></path>
                <path d="M141.519117,94.1515691 C154.114222,94.1515691 150.830519,54.9984294 151.872463,28.0346757 C146.25971,0.0792273501 146.822114,35.2001893 141.519117,35.3901358 C136.4006,35.5734744 137.067945,36.9152775 131.094336,40.5145199 C127.668695,58.3164408 128.924012,94.1515691 141.519117,94.1515691 Z" id="Oval-28" fill="#00BEBC" transform="translate(140.663667, 55.692832) scale(-1, 1) rotate(156.000000) translate(-140.663667, -55.692832) "></path>
                <path d="M32.1915785,87.986476 C44.7866835,87.986476 41.5029807,48.8333363 42.5449242,21.8695826 C40.7076814,12.7188238 38.2965474,20.3714283 37.3603101,21.3001988 C35.4363546,23.2088099 35.7587266,29.0972721 32.1915789,29.2250427 C27.0730615,29.4083813 27.7404064,30.7501844 21.7667974,34.3494268 C18.3411566,52.1513477 19.5964736,87.986476 32.1915785,87.986476 Z" id="Oval-28" fill="#00BEBC" transform="translate(31.336128, 52.703885) scale(-1, 1) rotate(-142.000000) translate(-31.336128, -52.703885) "></path>
            </g>
            <g id="Plaque" transform="translate(72.333333, 570.000000)">
                <g id="Group" stroke-width="1" fill-rule="evenodd">
                    <use id="Rectangle-28" stroke="#FADAA8" mask="url(#mask-4)" stroke-width="8" fill="#FFC871" xlink:href="#path-3"></use>
                    <circle id="Oval-17" fill="#FADAA8" cx="313.5" cy="12.5" r="2.5"></circle>
                    <circle id="Oval-17" fill="#FADAA8" cx="313.5" cy="32.5" r="2.5"></circle>
                    <circle id="Oval-17" fill="#FADAA8" cx="11.5" cy="12.5" r="2.5"></circle>
                    <circle id="Oval-17" fill="#FADAA8" cx="11.5" cy="32.5" r="2.5"></circle>
                </g>
                <text id="BREAK-THROUGH-ARTIST" font-family="RobotoSlab-Regular, Roboto Slab" font-size="22" font-weight="normal" letter-spacing="0.240901098" fill="#FFFFFF">
                    <tspan x="61.0781623" y="30">BEST MINI-SERIES</tspan>
                </text>
            </g>
        </g>
    </g>
</svg>