<?xml version="1.0" encoding="UTF-8" standalone="no"?>
<svg width="504px" height="656px" viewBox="0 0 504 656" version="1.1" xmlns="http://www.w3.org/2000/svg" xmlns:xlink="http://www.w3.org/1999/xlink">
    <!-- Generator: Sketch 39.1 (31720) - http://www.bohemiancoding.com/sketch -->
    <title>Plush</title>
    <desc>Created with Sketch.</desc>
    <defs>
        <polygon id="path-1" points="0 35.9737473 0 9.12990284 13.0753585 0 312.728151 0 325 9.12990284 325 35.9737473 312.728151 45 13.0753585 45"></polygon>
        <mask id="mask-2" maskContentUnits="userSpaceOnUse" maskUnits="objectBoundingBox" x="0" y="0" width="325" height="45" fill="white">
            <use xlink:href="#path-1"></use>
        </mask>
        <path d="M17.5,34.5 C17.5,34.5 18.0247057,31.447359 19.320949,29.1550663 C20.6171922,26.8627737 22.1664362,25.9790606 22.1664362,25.9790606" id="path-3"></path>
        <path d="M11.5,31.5 C11.5,31.5 11.61882,28.5436481 12.9511366,26.4119415 C14.2834532,24.280235 16.5,23.5 16.5,23.5" id="path-4"></path>
        <path d="M4.2541732,25.5712285 C4.2541732,25.5712285 7.55343574,22.5092301 9,21.5448539 C10.5534357,20.5092301 14.0253467,18.9874295 14.0253467,18.9874295" id="path-5"></path>
        <path d="M4.5,16.5 C4.5,16.5 7.82051187,15.2178935 10.0693951,15.2178935 C12.3182783,15.2178935 14.3527365,16.5 14.3527365,16.5" id="path-6"></path>
        <path d="M8.32254031,10.5 C8.32254031,10.5 10.2524847,9.84695104 12.538156,10.5 C14.8238274,11.153049 15.7459569,12.8839456 15.7459569,12.8839456" id="path-7"></path>
        <path d="M15.6550179,3.43655189 C15.6550179,3.43655189 18.264385,5.022986 18.8605561,5.9625729 C19.3328978,6.70699999 18.8605562,8.48859387 18.8605562,8.48859387" id="path-8"></path>
        <path d="M26.5,11.4971764 C26.5,11.4971764 28.8848426,11.6637771 29.6891174,11.4971764 C30.5578252,11.3172288 30.6479788,9.50305606 30.6479788,9.50305606" id="path-9"></path>
        <path d="M24.4541541,19.3143797 L26.7347167,22.0603254" id="path-10"></path>
        <path d="M14.5,31.5 C14.5,31.5 15.0247057,28.447359 16.320949,26.1550663 C17.6171922,23.8627737 19.1664362,22.9790606 19.1664362,22.9790606" id="path-11"></path>
        <path d="M8.5,28.5 C8.5,28.5 8.61882,25.5436481 9.95113659,23.4119415 C11.2834532,21.280235 13.5,20.5 13.5,20.5" id="path-12"></path>
        <path d="M1.2541732,22.5712285 C1.2541732,22.5712285 4.55343574,19.5092301 6,18.5448539 C7.55343574,17.5092301 11.0253467,15.9874295 11.0253467,15.9874295" id="path-13"></path>
        <path d="M1.5,13.5 C1.5,13.5 4.82051187,12.2178935 7.06939507,12.2178935 C9.31827826,12.2178935 11.3527365,13.5 11.3527365,13.5" id="path-14"></path>
        <path d="M5.32254031,7.5 C5.32254031,7.5 7.25248466,6.84695104 9.53815603,7.5 C11.8238274,8.15304897 12.7459569,9.88394559 12.7459569,9.88394559" id="path-15"></path>
        <path d="M12.6550179,0.436551894 C12.6550179,0.436551894 15.264385,2.022986 15.8605561,2.9625729 C16.3328978,3.70699999 15.8605562,5.48859387 15.8605562,5.48859387" id="path-16"></path>
        <path d="M23.5,8.49717643 C23.5,8.49717643 25.8848426,8.66377714 26.6891174,8.49717643 C27.5578252,8.3172288 27.6479788,6.50305606 27.6479788,6.50305606" id="path-17"></path>
        <path d="M21.4541541,16.3143797 L23.7347167,19.0603254" id="path-18"></path>
        <path d="M3.79384756,9.1653762 C3.79384756,9.1653762 4.25566155,6.44735899 5.55190479,4.15506635 C6.84814804,1.86277371 8.10354444,0.807184712 8.10354444,0.807184712" id="path-19"></path>
        <linearGradient x1="50%" y1="0%" x2="50%" y2="100%" id="linearGradient-20">
            <stop stop-color="#FFFFFF" stop-opacity="0.5" offset="0%"></stop>
            <stop stop-color="#000000" stop-opacity="0.5" offset="100%"></stop>
        </linearGradient>
        <filter x="-50%" y="-50%" width="200%" height="200%" filterUnits="objectBoundingBox" id="filter-21">
            <feOffset dx="0" dy="2" in="SourceAlpha" result="shadowOffsetOuter1"></feOffset>
            <feGaussianBlur stdDeviation="2" in="shadowOffsetOuter1" result="shadowBlurOuter1"></feGaussianBlur>
            <feColorMatrix values="0 0 0 0 0   0 0 0 0 0   0 0 0 0 0  0 0 0 0.5 0" type="matrix" in="shadowBlurOuter1" result="shadowMatrixOuter1"></feColorMatrix>
            <feMerge>
                <feMergeNode in="shadowMatrixOuter1"></feMergeNode>
                <feMergeNode in="SourceGraphic"></feMergeNode>
            </feMerge>
        </filter>
    </defs>
    <g id="Characters" stroke="none" stroke-width="1" fill="none" fill-rule="evenodd">
        <g id="Plush" transform="translate(-7.000000, 0.000000)">
            <g id="Plaque" transform="translate(53.000000, 611.000000)">
                <g id="Group" stroke-width="1" fill-rule="evenodd">
                    <use id="Rectangle-28" stroke="#FADAA8" mask="url(#mask-2)" stroke-width="8" fill="#FFC871" xlink:href="#path-1"></use>
                    <circle id="Oval-17" fill="#FADAA8" cx="313.5" cy="12.5" r="2.5"></circle>
                    <circle id="Oval-17" fill="#FADAA8" cx="313.5" cy="32.5" r="2.5"></circle>
                    <circle id="Oval-17" fill="#FADAA8" cx="11.5" cy="12.5" r="2.5"></circle>
                    <circle id="Oval-17" fill="#FADAA8" cx="11.5" cy="32.5" r="2.5"></circle>
                </g>
                <text id="BREAK-THROUGH-ARTIST" font-family="RobotoSlab-Regular, Roboto Slab" font-size="22" font-weight="normal" letter-spacing="0.240901098" fill="#FFFFFF">
                    <tspan x="54.874549" y="30">BEST NON-PLASTIC</tspan>
                </text>
            </g>
            <g id="t-plush" transform="translate(0.000000, 354.000000)">
                <g id="Group-25" transform="translate(123.500000, 33.000000) scale(-1, 1) translate(-123.500000, -33.000000) translate(105.000000, 14.000000)">
                    <path d="M33.0340876,24.1744401 C33.0340876,24.1744401 19.9389113,25.8887403 16.1746278,23.1734298 C14.8979099,22.2524881 14.0083541,21.4331624 14.0052288,17.1633262 C14.0022562,13.1020285 13.9084952,10.0888518 15.7029837,9.0185105 C17.8031514,7.76584364 22.7073685,8.01249835 24.6898239,10.1056702 C25.9654056,11.4524909 25.1175881,13.1868617 24.6898238,17.163326 C24.6898238,18.369144 20.2817474,17.6545751 19.0538909,17.1633262 C17.8260344,16.6720774 16.9180222,13.1883984 16.8664531,13.3463366 C16.1753209,15.4630338 16.1340389,17.5512528 17.9492289,18.3691442 C19.7644189,19.1870356 27.0349581,22.1422038 27.8905459,18.7183746 C28.9291444,14.5621868 29.3128509,8.6119818 27.8905451,6.77978043 C26.4682393,4.94757906 18.6162351,1.23118741 10.6453968,5.29059506 C7.82945347,6.76162207 3.14914543,22.1537502 4.15801374,26.1951161 C5.71091773,29.5381584 8.39915147,31.0642731 15.7029835,33.1484912 C23.0068155,35.2327093 29.8345372,33.5385131 29.8345372,33.5385131 L33.0340876,24.1744401 Z" id="Path-44" fill="#FFD086" transform="translate(18.526065, 18.826451) rotate(16.000000) translate(-18.526065, -18.826451) "></path>
                    <path d="M19,26 L22.5454306,27.2605595" id="Line" stroke="#685353" stroke-width="0.5" stroke-linecap="square"></path>
                    <path d="M17,29 L20.5454306,30.2605595" id="Line" stroke="#685353" stroke-width="0.5" stroke-linecap="square"></path>
                    <path d="M16,32 L19.5454306,33.2605595" id="Line" stroke="#685353" stroke-width="0.5" stroke-linecap="square"></path>
                    <path d="M11,26 L14.5454306,27.2605595" id="Line" stroke="#685353" stroke-width="0.5" stroke-linecap="square"></path>
                    <path d="M10,29 L13.5454306,30.2605595" id="Line" stroke="#685353" stroke-width="0.5" stroke-linecap="square"></path>
                    <path d="M11.2428668,31.2508771 L12.9999999,32" id="Line" stroke="#685353" stroke-width="0.5" stroke-linecap="square"></path>
                    <path d="M16.1264138,33.5253558 L19.083586,34.5385591" id="Line" stroke="#685353" stroke-width="0.5" stroke-linecap="square"></path>
                    <path d="M17.9009982,27.0143413 L21.423889,28.336585" id="Line" stroke="#685353" stroke-width="0.5" stroke-linecap="square"></path>
                    <path d="M3.39312732,23.2867198 L5.93175989,26.0642065" id="Line" stroke="#685353" stroke-width="0.5" stroke-linecap="square"></path>
                    <path d="M5.39312732,22.2867198 L7.93175989,25.0642065" id="Line" stroke="#685353" stroke-width="0.5" stroke-linecap="square"></path>
                    <path d="M7.39312732,20.2867198 L9.93175989,23.0642065" id="Line" stroke="#685353" stroke-width="0.5" stroke-linecap="square"></path>
                    <path d="M9.39312732,19.2867198 L11.9317599,22.0642065" id="Line" stroke="#685353" stroke-width="0.5" stroke-linecap="square"></path>
                    <path d="M11.9144121,17.9491315 L13.4104751,21.4017947" id="Line" stroke="#685353" stroke-width="0.5" stroke-linecap="square"></path>
                    <path d="M13.9753192,13.8202325 L13.349568,17.5306938" id="Line" stroke="#685353" stroke-width="0.5" stroke-linecap="square"></path>
                    <path d="M10.9753192,13.8202325 L10.349568,17.5306938" id="Line" stroke="#685353" stroke-width="0.5" stroke-linecap="square"></path>
                    <path d="M8.97531918,13.8202325 L8.34956803,17.5306938" id="Line" stroke="#685353" stroke-width="0.5" stroke-linecap="square"></path>
                    <path d="M6.57247211,13.9622486 L4.77280471,17.2668341" id="Line" stroke="#685353" stroke-width="0.5" stroke-linecap="square"></path>
                    <path d="M9.74025434,9.0653583 L8.17409306,11.3379645" id="Line" stroke="#685353" stroke-width="0.5" stroke-linecap="square"></path>
                    <path d="M11.7402543,9.0653583 L10.1740931,11.3379645" id="Line" stroke="#685353" stroke-width="0.5" stroke-linecap="square"></path>
                    <path d="M13.7402543,9.0653583 L12.1740931,11.3379645" id="Line" stroke="#685353" stroke-width="0.5" stroke-linecap="square"></path>
                    <path d="M15.7402543,10.0653583 L14.1740931,12.3379645" id="Line" stroke="#685353" stroke-width="0.5" stroke-linecap="square"></path>
                    <path d="M17.2234126,3.65299124 L14.6909348,4.75033153" id="Line" stroke="#685353" stroke-width="0.5" stroke-linecap="square"></path>
                    <path d="M19.2234126,4.65299124 L16.6909348,5.75033153" id="Line" stroke="#685353" stroke-width="0.5" stroke-linecap="square"></path>
                    <path d="M20.3330557,8.09513064 L17.5812917,8.30819213" id="Line" stroke="#685353" stroke-width="0.5" stroke-linecap="square"></path>
                    <path d="M20.2123723,6.8417864 L17.5518201,7.57599465" id="Line" stroke="#685353" stroke-width="0.5" stroke-linecap="square"></path>
                    <path d="M27.6055001,12.5650285 L26.4204461,10.07239" id="Line" stroke="#685353" stroke-width="0.5" stroke-linecap="square"></path>
                    <path d="M29.6055001,12.5650285 L28.4204461,10.07239" id="Line" stroke="#685353" stroke-width="0.5" stroke-linecap="square"></path>
                    <path d="M30.6055001,11.5650285 L29.4204461,9.07239" id="Line" stroke="#685353" stroke-width="0.5" stroke-linecap="square"></path>
                    <path d="M13,24 L16.5454306,25.2605595" id="Line" stroke="#685353" stroke-width="0.5" stroke-linecap="square"></path>
                    <path d="M14,23 L17.5454306,24.2605595" id="Line" stroke="#685353" stroke-width="0.5" stroke-linecap="square"></path>
                    <g id="Line" stroke-linecap="round" stroke-width="0.5" stroke="#685353">
                        <use xlink:href="#path-3"></use>
                        <use xlink:href="#path-3"></use>
                    </g>
                    <g id="Line" stroke-linecap="round" stroke-width="0.5" stroke="#685353">
                        <use xlink:href="#path-4"></use>
                        <use xlink:href="#path-4"></use>
                    </g>
                    <g id="Line" stroke-linecap="round" stroke-width="0.5" stroke="#685353">
                        <use xlink:href="#path-5"></use>
                        <use xlink:href="#path-5"></use>
                    </g>
                    <g id="Line" stroke-linecap="round" stroke-width="0.5" stroke="#685353">
                        <use xlink:href="#path-6"></use>
                        <use xlink:href="#path-6"></use>
                    </g>
                    <g id="Line" stroke-linecap="round" stroke-width="0.5" stroke="#685353">
                        <use xlink:href="#path-7"></use>
                        <use xlink:href="#path-7"></use>
                    </g>
                    <g id="Path-12" stroke-linecap="round" stroke-width="0.5" stroke="#685353">
                        <use xlink:href="#path-8"></use>
                        <use xlink:href="#path-8"></use>
                    </g>
                    <g id="Line" stroke-linecap="round" stroke-width="0.5" stroke="#685353">
                        <use xlink:href="#path-9"></use>
                        <use xlink:href="#path-9"></use>
                    </g>
                    <g id="Line" stroke-linecap="round" stroke-width="0.5" stroke="#685353">
                        <use xlink:href="#path-10"></use>
                        <use xlink:href="#path-10"></use>
                    </g>
                    <path d="M24.6670483,20.4485942 L25.7882654,19.0919542" id="Line" stroke="#685353" stroke-width="0.5" stroke-linecap="square"></path>
                    <path d="M26,21.35664 L27.1212171,20" id="Line" stroke="#685353" stroke-width="0.5" stroke-linecap="square"></path>
                </g>
                <path d="M47.5800188,70.6080348 C51.782355,64.3599526 51.133513,32 86.848611,32 C122.563709,32 122.55801,61.8677525 125.826849,70.6080336 C129.095688,79.3483147 146.222574,86.7941931 147.626732,127.516995 C147.364734,149.150989 136.270024,153.322803 131.315668,163.735977 C125.447753,176.069291 133.103255,197.41529 118.791123,197.786704 C104.478991,198.158119 100.131723,179.964358 93.4234035,173.080252 C91.134791,170.731668 83.5524604,167.312686 79.0001598,172.484679 C74.4478593,177.656672 79.6112727,200.182085 65.1553491,199.313269 C50.6994256,198.444452 45.4661721,178.242445 39.7516819,165.794303 C34.821329,155.054283 24.8333388,155.252337 23.7872625,127.516995 C23.3908587,94.4508403 43.3776826,76.8561171 47.5800188,70.6080348 Z" id="Path-22" fill="#00BEBC"></path>
                <path d="M85.4416965,166.967824 C113.289815,168.126245 130.9598,159.7851 130.9598,130.048857 C130.9598,100.312614 112.598394,81 86.235344,81 C59.8722943,81 43.781447,100.297888 43.781447,130.034131 C43.781447,159.770375 57.5935779,165.809402 85.4416965,166.967824 Z" id="Oval-27" stroke="#685353" fill="#4A4A4A"></path>
                <path d="M141.519219,108.151569 C154.114324,108.151569 150.830622,68.9984294 151.872565,42.0346757 C146.259813,14.0792274 146.822217,49.2001893 141.51922,49.3901358 C136.400702,49.5734744 137.068047,50.9152775 131.094438,54.5145199 C127.668798,72.3164408 128.924115,108.151569 141.519219,108.151569 Z" id="Oval-28" fill="#00BEBC" transform="translate(140.663769, 69.692832) scale(-1, 1) rotate(156.000000) translate(-140.663769, -69.692832) "></path>
                <path d="M32.1916811,101.986476 C44.7867861,101.986476 41.5030833,62.8333363 42.5450268,35.8695826 C40.7077841,26.7188238 38.2966501,34.3714283 37.3604127,35.3001988 C35.4364572,37.2088099 35.7588292,43.0972721 32.1916815,43.2250427 C27.0731641,43.4083813 27.740509,44.7501844 21.7669,48.3494268 C18.3412592,66.1513477 19.5965762,101.986476 32.1916811,101.986476 Z" id="Oval-28" fill="#00BEBC" transform="translate(31.336231, 66.703885) scale(-1, 1) rotate(-142.000000) translate(-31.336231, -66.703885) "></path>
                <g id="Group-21" transform="translate(100.781447, 48.000000)">
                    <circle id="Oval-14" stroke="#979797" fill="#423636" cx="4.5" cy="4.5" r="0.5"></circle>
                    <ellipse id="Oval-13" fill="#423636" cx="6" cy="6" rx="6" ry="6"></ellipse>
                    <path d="M6.09997559,10.4000244 C8.58525696,10.4000244 10.5999756,8.38530579 10.5999756,5.90002441 C10.5999756,3.41474304 8.58525696,1.40002441 6.09997559,1.40002441 C3.61469421,1.40002441 1.59997559,3.41474304 1.59997559,5.90002441 C1.59997559,8.38530579 3.61469421,10.4000244 6.09997559,10.4000244 Z" id="Oval-13" fill="#685353"></path>
                    <ellipse id="Oval-15" fill="#423636" cx="4" cy="4" rx="1.5" ry="1.5"></ellipse>
                    <ellipse id="Oval-15" fill="#423636" cx="8" cy="4" rx="1.5" ry="1.5"></ellipse>
                    <circle id="Oval-15" fill="#423636" cx="8" cy="8" r="1.5"></circle>
                    <circle id="Oval-15" fill="#423636" cx="4" cy="8" r="1.5"></circle>
                </g>
                <g id="Group-21" transform="translate(69.781447, 47.000000)">
                    <circle id="Oval-14" stroke="#979797" fill="#423636" cx="4.5" cy="4.5" r="0.5"></circle>
                    <ellipse id="Oval-13" fill="#423636" cx="6" cy="6" rx="6" ry="6"></ellipse>
                    <path d="M6.09997559,10.4000244 C8.58525696,10.4000244 10.5999756,8.38530579 10.5999756,5.90002441 C10.5999756,3.41474304 8.58525696,1.40002441 6.09997559,1.40002441 C3.61469421,1.40002441 1.59997559,3.41474304 1.59997559,5.90002441 C1.59997559,8.38530579 3.61469421,10.4000244 6.09997559,10.4000244 Z" id="Oval-13" fill="#685353"></path>
                    <ellipse id="Oval-15" fill="#423636" cx="4" cy="4" rx="1.5" ry="1.5"></ellipse>
                    <ellipse id="Oval-15" fill="#423636" cx="8" cy="4" rx="1.5" ry="1.5"></ellipse>
                    <circle id="Oval-15" fill="#423636" cx="8" cy="8" r="1.5"></circle>
                    <circle id="Oval-15" fill="#423636" cx="4" cy="8" r="1.5"></circle>
                </g>
                <g id="Group-27" transform="translate(34.781447, 71.000000)" stroke="#685353" stroke-width="0.5" stroke-linecap="square">
                    <path d="M4.5,92.5 C4.5,92.5 13.2999039,99.0316229 25.6427002,101.539742 C37.9854965,104.04786 38.7279782,102.496592 44.5,100.5" id="Line"></path>
                    <path d="M57.3130455,92.5 C57.3130455,92.5 65.5929813,99.6419048 77.9357777,102.150023 C84.6834197,103.521178 87.4308233,103.281309 90.2261658,103.076409 C92.5440677,102.906506 93.9150391,102.74929 96.5,100.013387" id="Line" transform="translate(76.906523, 97.867437) scale(-1, 1) translate(-76.906523, -97.867437) "></path>
                    <path d="M0.5,16.5 C0.5,16.5 4.74718761,16.4848614 10.2339163,10.6548281 C15.720645,4.82479477 14.5,0.5 14.5,0.5" id="Line"></path>
                    <path d="M92.5873956,23.6503925 C92.5873956,23.6503925 95.9456338,20.8988295 101.432362,15.0687962 C106.919091,9.23876286 106.224535,2.5 106.224535,2.5" id="Line" transform="translate(99.420140, 13.075196) scale(-1, 1) translate(-99.420140, -13.075196) "></path>
                    <path d="M0.5,14.5 L3.5,18.5" id="Line"></path>
                    <path d="M4.5,12.5 L7.5,16.5" id="Line"></path>
                    <path d="M7.5,9.5 L10.5,13.5" id="Line"></path>
                    <path d="M10.5,6.5 L13.5,10.5" id="Line"></path>
                    <path d="M39.5,9.5 L42.5,13.5" id="Line"></path>
                    <path d="M29.5,13.5 L32.5,17.5" id="Line"></path>
                    <path d="M22.5,17.5 L25.5,21.5" id="Line"></path>
                    <path d="M52.5,93.5 L55.5,97.5" id="Line"></path>
                    <path d="M42.6103113,93.0756403 L41.3896887,97.9243597" id="Line"></path>
                    <path d="M36.6103113,92.0756403 L35.3896887,96.9243597" id="Line"></path>
                    <path d="M30.6103113,90.0756403 L29.3896887,94.9243597" id="Line"></path>
                    <path d="M24.6103113,88.0756403 L23.3896887,92.9243597" id="Line"></path>
                    <path d="M19.6103113,85.0756403 L18.3896887,89.9243597" id="Line"></path>
                    <path d="M15.6103113,81.0756403 L14.3896887,85.9243597" id="Line"></path>
                    <path d="M56.6103113,8.07564028 L55.3896887,12.9243597" id="Line"></path>
                    <path d="M62.6103113,9.07564028 L61.3896887,13.9243597" id="Line"></path>
                    <path d="M69.6103113,11.0756403 L68.3896887,15.9243597" id="Line"></path>
                    <path d="M75.6103113,14.0756403 L74.3896887,18.9243597" id="Line"></path>
                    <path d="M80.6103113,18.0756403 L79.3896887,22.9243597" id="Line"></path>
                    <path d="M86.7091432,23.675492 L83.2908568,27.324508" id="Line"></path>
                    <path d="M90.7091432,28.675492 L87.2908568,32.324508" id="Line"></path>
                    <path d="M12.7091432,75.675492 L9.29085676,79.324508" id="Line"></path>
                    <path d="M11.7091432,67.675492 L8.29085676,71.324508" id="Line"></path>
                    <path d="M11.4371959,60.9431551 L6.56280412,62.0568449" id="Line"></path>
                    <path d="M11.4371959,53.9431551 L6.56280412,55.0568449" id="Line"></path>
                    <path d="M12.4371959,46.9431551 L7.56280412,48.0568449" id="Line"></path>
                    <path d="M94.4371959,36.9431551 L89.5628041,38.0568449" id="Line"></path>
                    <path d="M96.4371959,42.9431551 L91.5628041,44.0568449" id="Line"></path>
                    <path d="M97.4371959,48.9431551 L92.5628041,50.0568449" id="Line"></path>
                    <path d="M96.1837915,76.716986 L91.8162085,74.283014" id="Line"></path>
                    <path d="M98.1837915,70.716986 L93.8162085,68.283014" id="Line"></path>
                    <path d="M98.1837915,63.716986 L93.8162085,61.283014" id="Line"></path>
                    <path d="M98.4529785,56.9825937 L93.5470215,56.0174063" id="Line"></path>
                    <path d="M61.5,93.5 L64.5,97.5" id="Line"></path>
                    <path d="M69.5,92.5 L72.5,96.5" id="Line"></path>
                    <path d="M76.5,89.5 L79.5,93.5" id="Line"></path>
                    <path d="M82.5,86.5 L85.5,90.5" id="Line"></path>
                    <path d="M86.5,82.5 L89.5,86.5" id="Line"></path>
                    <path d="M89.5,78.5 L92.5,82.5" id="Line"></path>
                    <path d="M12.5,2.5 L15.5,6.5" id="Line"></path>
                    <path d="M13.5,0.5 L16.5,4.5" id="Line"></path>
                    <path d="M90.9488691,7.92928725 L95.0511309,5.07071275" id="Line"></path>
                    <path d="M91.9488691,11.9292872 L96.0511309,9.07071275" id="Line"></path>
                    <path d="M94.9488691,14.9292872 L99.0511309,12.0707128" id="Line"></path>
                    <path d="M96.9488691,17.9292872 L101.051131,15.0707128" id="Line"></path>
                    <path d="M99.9488691,20.9292872 L104.051131,18.0707128" id="Line"></path>
                    <path d="M102.948869,23.9292872 L107.051131,21.0707128" id="Line"></path>
                    <path d="M89.9488691,4.92928725 L94.0511309,2.07071275" id="Line"></path>
                </g>
                <g id="Group-23" transform="translate(91.781447, 101.000000) scale(-1, 1) translate(-91.781447, -101.000000) translate(82.781447, 31.000000)" stroke="#685353" stroke-width="0.5" stroke-linecap="square">
                    <path d="M12.5,138.5 C12.5,138.5 -9.060387,91.2480011 12.5,49.2264671 C14.675811,41.9791469 9.45142897,38.3278183 9.18088427,25.8520184 C7.8750378,17.1776471 9.63703498,10.983021 11.7633374,6.92847184 C13.9571973,2.74510052 16.5388798,0.839956728 16.5388798,0.839956728" id="Line"></path>
                    <path d="M12.5568312,2.59801503 L17.5454306,2.26055947" id="Line"></path>
                    <path d="M9.55683121,6.59801503 L14.5454306,6.26055947" id="Line"></path>
                    <path d="M7.55683121,10.598015 L12.5454306,10.2605595" id="Line"></path>
                    <path d="M6.55683121,14.598015 L11.5454306,14.2605595" id="Line"></path>
                    <path d="M6.55683121,19.598015 L11.5454306,19.2605595" id="Line"></path>
                    <path d="M6.55683121,23.598015 L11.5454306,23.2605595" id="Line"></path>
                    <path d="M6.55683121,27.598015 L11.5454306,27.2605595" id="Line"></path>
                    <path d="M7.55683121,31.598015 L12.5454306,31.2605595" id="Line"></path>
                    <path d="M8.55683121,36.598015 L13.5454306,36.2605595" id="Line"></path>
                    <path d="M9.55683121,41.598015 L14.5454306,41.2605595" id="Line"></path>
                    <path d="M10.5568312,45.598015 L15.5454306,45.2605595" id="Line"></path>
                    <path d="M10.5568312,49.598015 L15.5454306,49.2605595" id="Line"></path>
                    <path d="M7.55683121,53.598015 L12.5454306,53.2605595" id="Line"></path>
                    <path d="M5.55683121,57.598015 L10.5454306,57.2605595" id="Line"></path>
                    <path d="M5.55683121,61.598015 L10.5454306,61.2605595" id="Line"></path>
                    <path d="M3.55683121,65.598015 L8.54543059,65.2605595" id="Line"></path>
                    <path d="M2.55683121,69.598015 L7.54543059,69.2605595" id="Line"></path>
                    <path d="M1.55683121,73.598015 L6.54543059,73.2605595" id="Line"></path>
                    <path d="M1.55683121,77.598015 L6.54543059,77.2605595" id="Line"></path>
                    <path d="M1.55683121,81.598015 L6.54543059,81.2605595" id="Line"></path>
                    <path d="M0.556831211,85.598015 L5.54543059,85.2605595" id="Line"></path>
                    <path d="M0.556831211,90.598015 L5.54543059,90.2605595" id="Line"></path>
                    <path d="M0.556831211,95.598015 L5.54543059,95.2605595" id="Line"></path>
                    <path d="M0.556831211,100.598015 L5.54543059,100.260559" id="Line"></path>
                    <path d="M1.55683121,105.598015 L6.54543059,105.260559" id="Line"></path>
                    <path d="M2.55683121,110.598015 L7.54543059,110.260559" id="Line"></path>
                    <path d="M3.55683121,115.598015 L8.54543059,115.260559" id="Line"></path>
                    <path d="M4.55683121,120.598015 L9.54543059,120.260559" id="Line"></path>
                    <path d="M5.55683121,125.598015 L10.5454306,125.260559" id="Line"></path>
                    <path d="M6.55683121,129.598015 L11.5454306,129.260559" id="Line"></path>
                    <path d="M7.55683121,134.598015 L12.5454306,134.260559" id="Line"></path>
                    <path d="M9.55683121,138.598015 L14.5454306,138.260559" id="Line"></path>
                </g>
                <path d="M67.4696895,38.1133988 C67.4696895,38.1133988 54.3745133,39.8276989 50.6102298,37.1123884 C49.3335118,36.1914467 48.4439561,35.3721211 48.4408308,31.1022849 C48.4378581,27.0409871 48.3440972,24.0278105 50.1385857,22.9574692 C52.2387533,21.7048023 57.1429705,21.951457 59.1254258,24.0446289 C60.4010076,25.3914496 59.55319,27.1258203 59.1254257,31.1022847 C59.1254257,32.3081027 54.7173493,31.5935337 53.4894928,31.1022849 C52.2616363,30.611036 51.3536242,27.1273571 51.3020551,27.2852953 C50.6109228,29.4019925 50.5696409,31.4902115 52.3848308,32.3081029 C54.2000208,33.1259942 61.47056,36.0811624 62.3261479,32.6573332 C63.3647463,28.5011455 63.7484529,22.5509405 62.326147,20.7187391 C60.9038412,18.8865377 53.0518371,15.1701461 45.0809988,19.2295537 C42.2650554,20.7005807 37.5847474,36.0927089 38.5936157,40.1340748 C40.1465197,43.477117 42.8347534,45.0032318 50.1385854,47.0874499 C57.4424174,49.171668 64.2701391,47.4774717 64.2701391,47.4774717 L67.4696895,38.1133988 Z" id="Path-44" fill="#FFD086" transform="translate(52.961667, 32.765410) rotate(16.000000) translate(-52.961667, -32.765410) "></path>
                <path d="M114.781447,170 L115.552404,174.940205" id="Line" stroke="#685353" stroke-width="0.5" stroke-linecap="square"></path>
                <path d="M109.781447,171 L110.552404,175.940205" id="Line" stroke="#685353" stroke-width="0.5" stroke-linecap="square"></path>
                <path d="M104.781447,172 L105.552404,176.940205" id="Line" stroke="#685353" stroke-width="0.5" stroke-linecap="square"></path>
                <path d="M99.781447,172 L100.552404,176.940205" id="Line" stroke="#685353" stroke-width="0.5" stroke-linecap="square"></path>
                <path d="M95.781447,171 L96.5524036,175.940205" id="Line" stroke="#685353" stroke-width="0.5" stroke-linecap="square"></path>
                <path d="M76.781447,170 L77.5524036,174.940205" id="Line" stroke="#685353" stroke-width="0.5" stroke-linecap="square"></path>
                <path d="M71.781447,172 L72.5524036,176.940205" id="Line" stroke="#685353" stroke-width="0.5" stroke-linecap="square"></path>
                <path d="M66.781447,172 L67.5524036,176.940205" id="Line" stroke="#685353" stroke-width="0.5" stroke-linecap="square"></path>
                <path d="M61.781447,171 L62.5524036,175.940205" id="Line" stroke="#685353" stroke-width="0.5" stroke-linecap="square"></path>
                <path d="M56.781447,169 L57.5524036,173.940205" id="Line" stroke="#685353" stroke-width="0.5" stroke-linecap="square"></path>
                <path d="M52.781447,168 L53.5524036,172.940205" id="Line" stroke="#685353" stroke-width="0.5" stroke-linecap="square"></path>
                <path d="M47.781447,166 L48.5524036,170.940205" id="Line" stroke="#685353" stroke-width="0.5" stroke-linecap="square"></path>
                <path d="M43.781447,164 L44.5524036,168.940205" id="Line" stroke="#685353" stroke-width="0.5" stroke-linecap="square"></path>
                <path d="M39.781447,163 L41.1487165,167.809426" id="Line" stroke="#685353" stroke-width="0.5" stroke-linecap="square"></path>
                <path d="M119.781447,167 L120.552404,171.940205" id="Line" stroke="#685353" stroke-width="0.5" stroke-linecap="square"></path>
                <path d="M123.781447,165 L124.552404,169.940205" id="Line" stroke="#685353" stroke-width="0.5" stroke-linecap="square"></path>
                <path d="M127.781447,163 L128.552404,167.940205" id="Line" stroke="#685353" stroke-width="0.5" stroke-linecap="square"></path>
                <path d="M132.502212,162 L130.781447,166.694568" id="Line" stroke="#685353" stroke-width="0.5" stroke-linecap="square"></path>
                <path d="M57.14903,96.4339719 L52.781447,94" id="Line" stroke="#685353" stroke-width="0.5" stroke-linecap="square"></path>
                <path d="M54.14903,101.433972 L49.781447,99" id="Line" stroke="#685353" stroke-width="0.5" stroke-linecap="square"></path>
                <path d="M51.14903,106.433972 L46.781447,104" id="Line" stroke="#685353" stroke-width="0.5" stroke-linecap="square"></path>
                <path d="M48.6698119,111.050661 L43.781447,110" id="Line" stroke="#685353" stroke-width="0.5" stroke-linecap="square"></path>
                <g id="Group-22" transform="translate(36.781447, 16.000000)">
                    <path d="M16,23 L19.5454306,24.2605595" id="Line" stroke="#685353" stroke-width="0.5" stroke-linecap="square"></path>
                    <path d="M14,26 L17.5454306,27.2605595" id="Line" stroke="#685353" stroke-width="0.5" stroke-linecap="square"></path>
                    <path d="M13,29 L16.5454306,30.2605595" id="Line" stroke="#685353" stroke-width="0.5" stroke-linecap="square"></path>
                    <path d="M8.00000003,23 L11.5454306,24.2605595" id="Line" stroke="#685353" stroke-width="0.5" stroke-linecap="square"></path>
                    <path d="M7.00000003,26 L10.5454306,27.2605595" id="Line" stroke="#685353" stroke-width="0.5" stroke-linecap="square"></path>
                    <path d="M8.24286682,28.2508771 L9.99999995,29" id="Line" stroke="#685353" stroke-width="0.5" stroke-linecap="square"></path>
                    <path d="M13.1264138,30.5253558 L16.083586,31.5385591" id="Line" stroke="#685353" stroke-width="0.5" stroke-linecap="square"></path>
                    <path d="M14.9009982,24.0143413 L18.423889,25.336585" id="Line" stroke="#685353" stroke-width="0.5" stroke-linecap="square"></path>
                    <path d="M0.393127321,20.2867198 L2.93175989,23.0642065" id="Line" stroke="#685353" stroke-width="0.5" stroke-linecap="square"></path>
                    <path d="M2.39312732,19.2867198 L4.93175989,22.0642065" id="Line" stroke="#685353" stroke-width="0.5" stroke-linecap="square"></path>
                    <path d="M4.39312732,17.2867198 L6.93175989,20.0642065" id="Line" stroke="#685353" stroke-width="0.5" stroke-linecap="square"></path>
                    <path d="M6.39312732,16.2867198 L8.93175989,19.0642065" id="Line" stroke="#685353" stroke-width="0.5" stroke-linecap="square"></path>
                    <path d="M8.9144121,14.9491315 L10.4104751,18.4017947" id="Line" stroke="#685353" stroke-width="0.5" stroke-linecap="square"></path>
                    <path d="M10.9753192,10.8202325 L10.349568,14.5306938" id="Line" stroke="#685353" stroke-width="0.5" stroke-linecap="square"></path>
                    <path d="M7.97531918,10.8202325 L7.34956803,14.5306938" id="Line" stroke="#685353" stroke-width="0.5" stroke-linecap="square"></path>
                    <path d="M5.97531918,10.8202325 L5.34956803,14.5306938" id="Line" stroke="#685353" stroke-width="0.5" stroke-linecap="square"></path>
                    <path d="M3.57247211,10.9622486 L1.77280471,14.2668341" id="Line" stroke="#685353" stroke-width="0.5" stroke-linecap="square"></path>
                    <path d="M6.74025434,6.0653583 L5.17409306,8.33796447" id="Line" stroke="#685353" stroke-width="0.5" stroke-linecap="square"></path>
                    <path d="M8.74025434,6.0653583 L7.17409306,8.33796447" id="Line" stroke="#685353" stroke-width="0.5" stroke-linecap="square"></path>
                    <path d="M10.7402543,6.0653583 L9.17409306,8.33796447" id="Line" stroke="#685353" stroke-width="0.5" stroke-linecap="square"></path>
                    <path d="M12.7402543,7.0653583 L11.1740931,9.33796447" id="Line" stroke="#685353" stroke-width="0.5" stroke-linecap="square"></path>
                    <path d="M14.2234126,0.652991237 L11.6909348,1.75033153" id="Line" stroke="#685353" stroke-width="0.5" stroke-linecap="square"></path>
                    <path d="M16.2234126,1.65299124 L13.6909348,2.75033153" id="Line" stroke="#685353" stroke-width="0.5" stroke-linecap="square"></path>
                    <path d="M17.3330557,5.09513064 L14.5812917,5.30819213" id="Line" stroke="#685353" stroke-width="0.5" stroke-linecap="square"></path>
                    <path d="M17.2123723,3.8417864 L14.5518201,4.57599465" id="Line" stroke="#685353" stroke-width="0.5" stroke-linecap="square"></path>
                    <path d="M24.6055001,9.56502854 L23.4204461,7.07239" id="Line" stroke="#685353" stroke-width="0.5" stroke-linecap="square"></path>
                    <path d="M26.6055001,9.56502854 L25.4204461,7.07239" id="Line" stroke="#685353" stroke-width="0.5" stroke-linecap="square"></path>
                    <path d="M27.6055001,8.56502854 L26.4204461,6.07239" id="Line" stroke="#685353" stroke-width="0.5" stroke-linecap="square"></path>
                    <path d="M10,21 L13.5454306,22.2605595" id="Line" stroke="#685353" stroke-width="0.5" stroke-linecap="square"></path>
                    <path d="M11,20 L14.5454306,21.2605595" id="Line" stroke="#685353" stroke-width="0.5" stroke-linecap="square"></path>
                    <g id="Line" stroke-linecap="round" stroke-width="0.5" stroke="#685353">
                        <use xlink:href="#path-11"></use>
                        <use xlink:href="#path-11"></use>
                    </g>
                    <g id="Line" stroke-linecap="round" stroke-width="0.5" stroke="#685353">
                        <use xlink:href="#path-12"></use>
                        <use xlink:href="#path-12"></use>
                    </g>
                    <g id="Line" stroke-linecap="round" stroke-width="0.5" stroke="#685353">
                        <use xlink:href="#path-13"></use>
                        <use xlink:href="#path-13"></use>
                    </g>
                    <g id="Line" stroke-linecap="round" stroke-width="0.5" stroke="#685353">
                        <use xlink:href="#path-14"></use>
                        <use xlink:href="#path-14"></use>
                    </g>
                    <g id="Line" stroke-linecap="round" stroke-width="0.5" stroke="#685353">
                        <use xlink:href="#path-15"></use>
                        <use xlink:href="#path-15"></use>
                    </g>
                    <g id="Path-12" stroke-linecap="round" stroke-width="0.5" stroke="#685353">
                        <use xlink:href="#path-16"></use>
                        <use xlink:href="#path-16"></use>
                    </g>
                    <g id="Line" stroke-linecap="round" stroke-width="0.5" stroke="#685353">
                        <use xlink:href="#path-17"></use>
                        <use xlink:href="#path-17"></use>
                    </g>
                    <g id="Line" stroke-linecap="round" stroke-width="0.5" stroke="#685353">
                        <use xlink:href="#path-18"></use>
                        <use xlink:href="#path-18"></use>
                    </g>
                    <path d="M21.6670483,17.4485942 L22.7882654,16.0919542" id="Line" stroke="#685353" stroke-width="0.5" stroke-linecap="square"></path>
                    <path d="M23,18.35664 L24.1212171,17" id="Line" stroke="#685353" stroke-width="0.5" stroke-linecap="square"></path>
                    <path d="M25.0704493,33.2772679 C25.9902215,33.870854 27.5927059,34.285242 28.2236624,34.3296075 C29.7549614,34.7948014 28.2236624,32.6684633 28.2236624,29.9070396 C28.2236624,27.1456158 26.8688261,24.9518642 25.6756754,24.4139762 C24.5684656,24.4139762 23.6602265,26.1705933 23.34385,28.2905337 C23.2656989,28.8141998 23.2236624,29.3600354 23.2236624,29.9070396 C23.2236624,31.4056043 23.9790068,32.5728923 25.0704493,33.2772679 Z" id="Oval-16" fill="#FFD087" transform="translate(26.063951, 29.403852) scale(-1, 1) rotate(-23.000000) translate(-26.063951, -29.403852) "></path>
                    <g id="Group-24" transform="translate(25.500000, 29.500000) scale(-1, 1) translate(-25.500000, -29.500000) translate(21.000000, 24.000000)" stroke-width="0.5" stroke="#685353">
                        <g id="Line" transform="translate(5.948696, 4.986280) scale(-1, 1) translate(-5.948696, -4.986280) " stroke-linecap="round">
                            <use xlink:href="#path-19"></use>
                            <use xlink:href="#path-19"></use>
                        </g>
                        <path d="M5.76986689,1.41044598 L4.12054439,2.02472218" id="Line" stroke-linecap="square"></path>
                        <path d="M6.76986689,3.41044598 L5.12054439,4.02472218" id="Line" stroke-linecap="square"></path>
                        <path d="M7.76986689,5.41044598 L6.12054439,6.02472218" id="Line" stroke-linecap="square"></path>
                        <path d="M8.76986689,7.41044598 L7.12054439,8.02472218" id="Line" stroke-linecap="square"></path>
                        <path d="M2.93156476,6.99879794 L1.12054439,8.02472218" id="Line" stroke-linecap="square"></path>
                        <path d="M2.28127666,5.34089207 L0.120544386,6.02472218" id="Line" stroke-linecap="square"></path>
                        <path d="M1.81967436,3.61907291 L0.0707369179,3.81609526" id="Line" stroke-linecap="square"></path>
                        <path d="M2.90938323,1.8897639 L1.17388994,1.59708145" id="Line" stroke-linecap="square"></path>
                        <path d="M4.54912366,8.15854891 L3.20936231,9.29988124" id="Line" stroke-linecap="square"></path>
                        <path d="M6.33394037,9.02786369 L5.64543798,9.83626301" id="Line" stroke-linecap="square"></path>
                    </g>
                </g>
                <g id="Group-31" transform="translate(199.576198, 74.240526) rotate(52.000000) translate(-199.576198, -74.240526) translate(162.576198, 2.240526)">
                    <path d="M25.1957989,75.0792446 C25.1957989,75.0792446 -2.91735156,74.7717006 1.4467842,57.8970423 C5.81091996,41.022384 26.1716675,47.1194502 29.5,35.5 C32.8283325,23.8805498 5.62552022,15.0382666 16.8590949,4.09154708 C28.0926696,-6.85517247 16.5737845,9.097628 6.26917659,20.6602565 C-4.0354313,32.2228851 42.8607033,34.3664151 38.1724615,60.3631219 C33.677111,85.2902297 24.1494233,81.6872534 29.1579458,85.9374873 C34.1664683,90.1877211 48.8141066,63.6291376 53.7829696,67.104885 C58.7518327,70.5806324 38.9573794,78.2667559 43.7386742,91.1115168 C46.5505118,98.665408 47.7896818,84.7832448 56.0205019,91.5314967 C64.251322,98.2797486 72.9258301,110.195765 73.1715899,110.478178" id="Line" stroke="#685353" stroke-width="0.5" stroke-linecap="square"></path>
                    <path d="M10.8936426,60.3130976 C11.7089675,67.9780911 14.0312179,131.57859 14.0312179,131.57859 C14.0312179,131.57859 14.8546184,143.837664 15.280173,143.83478 C15.6102047,143.832544 16.3870795,131.281696 16.3870795,131.281696 L15.5615899,60.2331995 C15.5615899,60.2331995 17.0748931,48.7765176 17.0748931,41.7270935 C17.0748931,22.382605 17.4532286,19 13.2758548,19 C9.098481,19 8.34730449,24.222543 9,41.7953671 C9.5091926,50.7870625 10.3095782,54.8222194 10.8936426,60.3130976 Z M13.2503976,56.5267114 C14.6961628,56.516914 14.8930302,46.6574549 14.8930302,35.3424311 C14.8930302,24.0274074 15.5294047,22.0488461 13.0859654,22.0488461 C10.6425261,22.0488461 11,24.0673421 11,35.3823659 C11,46.6973897 11.8046325,56.5365087 13.2503976,56.5267114 Z" id="Combined-Shape" fill="#7B7B7B"></path>
                    <polygon id="Rectangle-28" fill="#00BEBC" transform="translate(15.160108, 131.034069) rotate(-10.000000) translate(-15.160108, -131.034069) " points="12.8650847 130.534069 17.4356169 130.585852 17.4551307 131.42097 12.8650847 131.534069"></polygon>
                </g>
                <path d="M137,91 L141.345127,94.834388" id="Line" stroke="#685353" stroke-width="0.5" stroke-linecap="square"></path>
                <path d="M201.72589,37.3044368 C202.05348,37.4169612 202.503113,37.5984386 203.072147,37.8888222 C204.394099,38.5634274 204.268906,38.5141337 204.268906,38.5141337" id="Line" stroke="#685353" stroke-width="0.5" stroke-linecap="round" fill="url(#linearGradient-20)"></path>
            </g>
            <g transform="translate(338.000000, 326.500000) scale(-1, 1) translate(-338.000000, -326.500000) translate(165.000000, 67.000000)">
                <g id="Striped-Shirt" filter="url(#filter-21)" transform="translate(39.800038, 275.163404)">
                    <path d="M69.8844042,0.988902128 C-1.50855527,96.7841368 0.116734135,207.077837 0.116734135,207.077837 C0.116734135,207.077837 41.8729373,242.767015 133.220251,242.34867 C224.567564,241.930326 275.471376,207.077837 275.471376,207.077837 C275.471376,207.077837 264.7292,91.4196551 215.882895,25.2490747" id="Path-5" fill="#F2534A"></path>
                    <path d="M26.8730722,76.9754501 C74.6070015,100.865422 113.487982,107.707161 134.244198,108.186475 C155.000414,108.665789 210.937839,97.0997 244.474534,78.2124455 C250.791117,91.8782268 255.040973,108.594892 255.040973,108.594892 C255.040973,108.594892 144.700588,178.145214 16.8103527,107.688937 C19.5079322,95.1519982 24.166865,83.2755542 26.8730722,76.9754501 Z" id="Path-45" fill="#00BEBC"></path>
                    <path d="M51.9737912,28.7056477 C99.7077205,52.5956194 120.05502,47.6630573 138.416387,49.0555654 C156.777754,50.4480735 219.353576,30.0647335 219.353576,30.0647335 C219.353576,30.0647335 226.959054,40.7081065 232.42087,51.954962 C234.444342,54.4065588 183.043338,78.8744462 136.882494,78.1061658 C90.7216502,77.3378855 78.5367973,74.434851 38.1379114,52.1786162 C42.7115262,40.6549474 47.9427599,34.1736626 51.9737912,28.7056477 Z" id="Path-45" fill="#00BEBC"></path>
                    <path d="M8.26805039,143.469336 C8.26805039,143.469336 3.03037269,172.369929 2.90961701,177.968674 C114.966768,236.005691 246.657904,191.259034 270.660734,177.366786 C268.548018,159.042646 266.545444,154.310858 264.934948,143.723768 C124.074088,210.522186 8.26805039,143.469336 8.26805039,143.469336 Z" id="Path-46" fill="#00BEBC"></path>
                </g>
                <path d="M80.7795323,171.519549 C80.1516302,172.923009 79.5539464,174.34297 78.9873095,175.778603 C74.3277224,187.584141 78.1273095,217.27714 79.4778439,229.649556 C93.2237757,302.565459 141.761426,359.352899 149.249824,368.88367 C156.738221,378.41444 156.323398,321.877609 160.350413,332.579171 C183.361968,393.731058 217.396141,417.889404 220.996045,417.661046 C224.59595,417.432688 225.105333,370.533417 230.744727,352.497732 C236.384121,334.462047 247.029287,376.318182 254.27064,371.886399 C261.511993,367.454617 257.300455,309.455762 266.898714,254.143194 C269.104086,241.434136 276.814207,188.385912 272.426814,176.884465 C271.901885,175.508376 271.348553,174.146333 270.767534,172.799056 C270.767534,172.799056 250.564635,120.734375 188.701354,109.445312 C126.838073,98.15625 85.6115104,161.832031 85.6115104,161.832031" id="Beard" stroke="#FFD087" fill="#FFD087"></path>
                <path d="M278.562,143.580028 C291.852337,134.086583 314.421363,116.242454 312.916801,105.501071 C310.792903,90.3381255 301.194894,53.6927847 299.102328,49.9329682 C297.009763,46.1731517 293.414001,52.0474829 277.249869,53.2556678 C266.899359,50.6657693 277.873899,30.5962149 278.29348,29.2822525 C278.713061,27.9682901 276.79759,46.777777 279.216468,47.0970578 C281.629273,47.4155368 293.922446,45.564092 295.908895,42.4561299 C297.895343,39.3481677 294.967584,15.1393818 297.886945,8.75304305 C300.806307,2.36670434 342.772139,-1.45966195 345.207474,0.526533987 C347.64281,2.51272992 305.900684,9.2398323 303.278298,11.5163553 C300.655911,13.7928784 305.03419,37.221426 305.03419,37.221426 C305.03419,37.221426 309.532327,59.3905879 312.544064,71.712393 C315.555801,84.0341982 325.370814,70.1015473 327.814218,66.4945014 C330.257622,62.8874554 325.155059,49.0799485 327.175226,50.1133171 C329.195393,51.1466857 333.294128,59.7451722 333.15442,64.8935226 C333.014712,70.0418729 328.97387,75.3071444 325.191831,78.66194 C324.108362,79.6230137 319.444639,84.1462863 317.330015,85.1392174 C314.366375,86.530808 324.989522,102.827167 321.884647,113.402797 C319.293411,122.228902 287.948583,154.320313 277.648753,164.696528" id="Right-Antler" fill="#423636"></path>
                <path d="M23.6570468,155.414317 C36.9473842,145.920872 59.5164101,128.076742 58.0118477,117.33536 C55.8879498,102.172414 46.2899403,65.527073 44.197375,61.7672565 C42.1048097,58.00744 38.509048,63.8817711 22.344916,65.0899561 C11.9944054,62.5000575 22.9689454,42.4305032 23.3885267,41.1165408 C23.808108,39.8025783 21.8926368,58.6120653 24.3115152,58.9313461 C26.7243194,59.2498251 39.0174933,57.3983803 41.0039417,54.2904181 C42.9903901,51.182456 40.0626308,26.97367 42.9819923,20.5873313 C45.9013538,14.2009926 87.8671856,10.3746263 90.3025212,12.3608223 C92.7378567,14.3470182 50.9957312,21.0741206 48.3733445,23.3506436 C45.7509578,25.6271666 50.1292366,49.0557143 50.1292366,49.0557143 C50.1292366,49.0557143 54.6273741,71.2248762 57.6391108,83.5466813 C60.6508475,95.8684864 70.4658605,81.9358355 72.9092647,78.3287896 C75.3526689,74.7217437 70.2501058,60.9142368 72.2702726,61.9476054 C74.2904395,62.980974 78.3891749,71.5794605 78.249467,76.7278108 C78.1097591,81.8761612 74.0689169,87.1414327 70.286878,90.4962283 C69.2034087,91.457302 64.5396859,95.9805745 62.4250619,96.9735057 C59.4614214,98.3650963 70.0845687,114.661455 66.9796934,125.237086 C64.3884573,134.06319 33.0436301,166.154602 22.7438003,176.530816" id="Right-Antler" fill="#423636" transform="translate(54.159895, 94.182552) scale(-1, 1) rotate(13.000000) translate(-54.159895, -94.182552) "></path>
                <path d="M86.8053095,159 L100,159 L100,172 C100,172 87.0727506,172.055497 79,172 C80.5948671,161.20598 86.8053095,159 86.8053095,159 Z" id="Rectangle-5" fill="#FADAA8"></path>
                <g id="Crown" transform="translate(93.000000, 61.000000)">
                    <path d="M38.2236759,111.428586 C23.0260272,111.400189 11.0200629,111.411535 5.21172213,111.320537 C-0.765755255,110.882891 -0.681160467,106.513299 2.23447539,104.805288 C2.29355771,104.675985 2.4982512,104.554262 2.84077689,104.439826 L0.612980888,50.5750848 L52.3949819,86.7464103 L103.928431,0.922910638 L154.639122,86.38489 L186.323135,48.3231651 L184.081679,103.519312 C184.089249,108.882608 181.09848,111.889719 178.852371,112.286806 C175.783778,112.829299 186.94052,112.861847 170.530628,112.800027 M140.288361,112.451641 C124.729304,112.262719 110.862825,112.111043 100.93338,111.937551 C89.1671619,111.731967 77.2465484,111.610472 65.9401811,111.536732" fill="#FADAA8"></path>
                    <path d="M182.213774,96.95759 C185.001788,96.95759 185,93.1940975 185,88.1072501 C185,83.0204028 184.277782,77 181.489768,77 C178.701754,77 178,82.5692791 178,87.6561264 C178,92.7429738 179.42576,96.95759 182.213774,96.95759 Z" id="Oval-9" fill="#F2534A" transform="translate(181.500000, 86.978795) rotate(3.000000) translate(-181.500000, -86.978795) "></path>
                    <ellipse id="Oval-9" fill="#F2534A" cx="105.474118" cy="73.3675385" rx="15.8205957" ry="24.2823641"></ellipse>
                    <ellipse id="Oval-9" fill="#F2534A" cx="16.4638274" cy="85.81702" rx="5.85543888" ry="9.21055189"></ellipse>
                </g>
                <ellipse id="Oval-3" fill="#FFFFFF" cx="157.566317" cy="197.004885" rx="17.5663166" ry="36.0048846"></ellipse>
                <ellipse id="Oval-5" fill="#00BEBC" cx="161.364913" cy="201.607718" rx="8.36491269" ry="22.6077183"></ellipse>
                <path d="M250.566317,233.009769 C260.267925,233.009769 268.132633,216.889833 268.132633,197.004885 C268.132633,189.128169 266.898608,181.842208 264.805204,175.914899 C261.613762,166.878582 256.424978,161 250.566317,161 C244.714988,161 239.53186,166.863877 236.339421,175.880987 C234.238739,181.814408 233,189.11314 233,197.004885 C233,216.889833 240.864708,233.009769 250.566317,233.009769 Z" id="Oval-3" fill="#FFFFFF"></path>
                <ellipse id="Oval-5" fill="#00BEBC" cx="255.364913" cy="201.607718" rx="8.36491269" ry="22.6077183"></ellipse>
                <ellipse id="Oval-6" stroke="#4A4A4A" fill="#423636" cx="257.509474" cy="210.535906" rx="2.50947381" ry="7.53590609"></ellipse>
                <ellipse id="Oval-6" stroke="#4A4A4A" fill="#423636" cx="163.509474" cy="210.535906" rx="2.50947381" ry="7.53590609"></ellipse>
                <path d="M185.091585,224.7334 C184.894546,220.894587 185.076774,218.285794 185.076774,218.285794 L228.498761,218 C228.498761,218 228.819181,220.737384 228.792507,224.735825 C228.720275,235.563328 185.640276,235.42325 185.091585,224.7334 Z" id="Path-5" fill="#4A4A4A"></path>
                <path d="M189,228.872537 C189,228.872537 201.489897,225.100996 208.679356,230.230002 C214.234086,222.971184 227.482924,227.218849 227.482924,227.218849 C227.482924,227.218849 226.2213,232.384927 209.101492,232.713786 C191.00228,233.042645 189,228.872537 189,228.872537 Z" id="Path-11" fill="#F2534A"></path>
            </g>
            <rect id="Rectangle-36" fill="#FAFAFA" x="186" y="0" width="1" height="1"></rect>
        </g>
    </g>
</svg>