<?xml version="1.0" encoding="UTF-8" standalone="no"?>
<svg width="461px" height="658px" viewBox="0 0 461 658" version="1.1" xmlns="http://www.w3.org/2000/svg" xmlns:xlink="http://www.w3.org/1999/xlink">
    <!-- Generator: Sketch 39.1 (31720) - http://www.bohemiancoding.com/sketch -->
    <title>Resin</title>
    <desc>Created with Sketch.</desc>
    <defs>
        <filter x="-50%" y="-50%" width="200%" height="200%" filterUnits="objectBoundingBox" id="filter-1">
            <feOffset dx="0" dy="1" in="SourceAlpha" result="shadowOffsetOuter1"></feOffset>
            <feGaussianBlur stdDeviation="1" in="shadowOffsetOuter1" result="shadowBlurOuter1"></feGaussianBlur>
            <feColorMatrix values="0 0 0 0 0   0 0 0 0 0   0 0 0 0 0  0 0 0 0.25 0" type="matrix" in="shadowBlurOuter1" result="shadowMatrixOuter1"></feColorMatrix>
            <feMerge>
                <feMergeNode in="shadowMatrixOuter1"></feMergeNode>
                <feMergeNode in="SourceGraphic"></feMergeNode>
            </feMerge>
        </filter>
        <filter x="-50%" y="-50%" width="200%" height="200%" filterUnits="objectBoundingBox" id="filter-2">
            <feOffset dx="0" dy="2" in="SourceAlpha" result="shadowOffsetOuter1"></feOffset>
            <feGaussianBlur stdDeviation="1.5" in="shadowOffsetOuter1" result="shadowBlurOuter1"></feGaussianBlur>
            <feColorMatrix values="0 0 0 0 0   0 0 0 0 0   0 0 0 0 0  0 0 0 0.25 0" type="matrix" in="shadowBlurOuter1" result="shadowMatrixOuter1"></feColorMatrix>
            <feMerge>
                <feMergeNode in="shadowMatrixOuter1"></feMergeNode>
                <feMergeNode in="SourceGraphic"></feMergeNode>
            </feMerge>
        </filter>
        <filter x="-50%" y="-50%" width="200%" height="200%" filterUnits="objectBoundingBox" id="filter-3">
            <feOffset dx="0" dy="2" in="SourceAlpha" result="shadowOffsetOuter1"></feOffset>
            <feGaussianBlur stdDeviation="2" in="shadowOffsetOuter1" result="shadowBlurOuter1"></feGaussianBlur>
            <feColorMatrix values="0 0 0 0 0   0 0 0 0 0   0 0 0 0 0  0 0 0 0.5 0" type="matrix" in="shadowBlurOuter1" result="shadowMatrixOuter1"></feColorMatrix>
            <feMerge>
                <feMergeNode in="shadowMatrixOuter1"></feMergeNode>
                <feMergeNode in="SourceGraphic"></feMergeNode>
            </feMerge>
        </filter>
        <polygon id="path-4" points="0 35.9737473 0 9.12990284 13.0753585 0 312.728151 0 325 9.12990284 325 35.9737473 312.728151 45 13.0753585 45"></polygon>
        <mask id="mask-5" maskContentUnits="userSpaceOnUse" maskUnits="objectBoundingBox" x="0" y="0" width="325" height="45" fill="white">
            <use xlink:href="#path-4"></use>
        </mask>
    </defs>
    <g id="Characters" stroke="none" stroke-width="1" fill="none" fill-rule="evenodd">
        <g id="Resin" transform="translate(3.000000, 0.000000)">
            <g id="t-resin" filter="url(#filter-1)" transform="translate(292.000000, 395.000000)">
                <g id="Group" transform="translate(39.902627, 0.000000)">
                    <path d="M41.0340876,24.1744401 C41.0340876,24.1744401 27.9389113,25.8887403 24.1746278,23.1734298 C22.8979099,22.2524881 22.0083541,21.4331624 22.0052288,17.1633262 C22.0022562,13.1020285 21.9084952,10.0888518 23.7029837,9.0185105 C25.8031514,7.76584364 30.7073685,8.01249835 32.6898239,10.1056702 C33.9654056,11.4524909 33.1175881,13.1868617 32.6898238,17.163326 C32.6898238,18.369144 28.2817474,17.6545751 27.0538909,17.1633262 C25.8260344,16.6720774 24.9180222,13.1883984 24.8664531,13.3463366 C24.1753209,15.4630338 24.1340389,17.5512528 25.9492289,18.3691442 C27.7644189,19.1870356 35.0349581,22.1422038 35.8905459,18.7183746 C36.9291444,14.5621868 37.3128509,8.6119818 35.8905451,6.77978043 C34.4682393,4.94757906 26.6162351,1.23118741 18.6453968,5.29059506 C15.8294535,6.76162207 11.1491454,22.1537502 12.1580137,26.1951161 C13.7109177,29.5381584 16.3991515,31.0642731 23.7029835,33.1484912 C31.0068155,35.2327093 37.8345372,33.5385131 37.8345372,33.5385131 L41.0340876,24.1744401 Z" id="Path-44" fill="#FFD086" transform="translate(26.526065, 18.826451) rotate(16.000000) translate(-26.526065, -18.826451) "></path>
                    <path d="M115.421443,24.1744401 C115.421443,24.1744401 102.326267,25.8887403 98.561983,23.1734298 C97.2852651,22.2524881 96.3957093,21.4331624 96.392584,17.1633262 C96.3896113,13.1020285 96.2958504,10.0888518 98.0903389,9.0185105 C100.190507,7.76584364 105.094724,8.01249835 107.077179,10.1056702 C108.352761,11.4524909 107.504943,13.1868617 107.077179,17.163326 C107.077179,18.369144 102.669103,17.6545751 101.441246,17.1633262 C100.21339,16.6720774 99.3053774,13.1883984 99.2538083,13.3463366 C98.562676,15.4630338 98.5213941,17.5512528 100.336584,18.3691442 C102.151774,19.1870356 109.422313,22.1422038 110.277901,18.7183746 C111.3165,14.5621868 111.700206,8.6119818 110.2779,6.77978043 C108.855594,4.94757906 101.00359,1.23118741 93.032752,5.29059506 C90.2168086,6.76162207 85.5365006,22.1537502 86.5453689,26.1951161 C88.0982729,29.5381584 90.7865066,31.0642731 98.0903386,33.1484912 C105.394171,35.2327093 112.221892,33.5385131 112.221892,33.5385131 L115.421443,24.1744401 Z" id="Path-44" fill="#FFD086" transform="translate(100.913420, 18.826451) scale(-1, 1) rotate(16.000000) translate(-100.913420, -18.826451) "></path>
                    <path d="M23.8532021,56.1767235 C28.0555383,49.9286413 27.4066963,17.5686887 63.1217943,17.5686887 C98.8368923,17.5686887 98.831193,47.4364412 102.100032,56.1767223 C105.368872,64.9170034 122.495757,72.3628818 123.899915,113.085684 C123.637917,134.719678 112.543207,138.891491 107.588852,149.304666 C101.720936,161.63798 109.376438,182.983978 95.0643062,183.355393 C80.7521739,183.726808 76.4049067,165.533047 69.6965868,158.64894 C67.4079742,156.300357 59.8256437,152.881375 55.2733431,158.053368 C50.7210425,163.225361 55.8844559,185.750774 41.4285324,184.881957 C26.9726088,184.013141 21.7393553,163.811133 16.0248652,151.362991 C11.0945123,140.622972 1.10652204,140.821026 0.0604458018,113.085684 C-0.335958069,80.019529 19.6508659,62.4248058 23.8532021,56.1767235 Z" id="Path-22" fill="#00BEBC"></path>
                    <g id="Group-2" transform="translate(39.504434, 36.261095)">
                        <ellipse id="Oval-19" fill="#4A4A4A" cx="42.7380677" cy="5.34414037" rx="5.08528907" ry="5.01587622"></ellipse>
                        <ellipse id="Oval-22" fill="#F0F0F0" cx="41.4089581" cy="3.57779034" rx="1.38751178" ry="1.36857261"></ellipse>
                        <ellipse id="Oval-19" fill="#4A4A4A" cx="5.23406083" cy="5.34414037" rx="5.08528907" ry="5.01587622"></ellipse>
                        <ellipse id="Oval-22" fill="#F0F0F0" cx="6.9495467" cy="3.65207042" rx="1.4628198" ry="1.44285269"></ellipse>
                        <path d="M15.4331782,6.70289775 L31.5744472,6.59810942 C31.5744472,6.59810942 33.2120623,20.3974403 23.8374755,20.4007332 C14.4628888,20.404026 15.4331782,6.70289775 15.4331782,6.70289775 Z" id="Path-5" fill="#4A4A4A"></path>
                        <path d="M16.6759612,14.5481732 C16.6759612,14.5481732 22.4687328,12.2204483 23.997817,15.7686853 C24.2388363,12.3536247 30.8452623,13.7984518 30.8452623,13.7984518 C30.8452623,13.7984518 30.0446576,19.7855544 24.0449694,19.9586352 C18.0452811,20.131716 16.6759612,14.5481732 16.6759612,14.5481732 Z" id="Path-11" fill="#F2534A"></path>
                    </g>
                </g>
                <path d="M101.315093,152.995908 C129.163211,154.15433 146.833196,145.813184 146.833196,116.076941 C146.833196,86.3406977 128.47179,67.0280841 102.10874,67.0280841 C75.7456907,67.0280841 59.6548434,86.325972 59.6548434,116.062215 C59.6548434,145.798459 73.4669743,151.837486 101.315093,152.995908 Z" id="Oval-27" fill="#4A4A4A"></path>
                <path d="M133.170431,135.154989 C145.765536,135.154989 142.481833,96.0018495 143.523777,69.0380958 C137.911024,41.0826475 138.473428,76.2036094 133.170431,76.3935559 C128.051914,76.5768946 128.719259,77.9186976 122.74565,81.51794 C119.320009,99.3198609 120.575326,135.154989 133.170431,135.154989 Z" id="Oval-28" fill="#00BEBC" transform="translate(132.314981, 96.696252) scale(-1, 1) translate(-132.314981, -96.696252) "></path>
                <path d="M40.8066829,118.993498 C53.4017878,118.993498 50.118085,79.8403583 51.1600285,52.8766046 C45.5472759,24.9211563 46.1096803,60.0421182 40.8066832,60.2320647 C35.6881658,60.4154034 36.3555107,61.7572064 30.3819017,65.3564488 C26.9562609,83.1583697 28.2115779,118.993498 40.8066829,118.993498 Z" id="Oval-28" fill="#00BEBC" transform="translate(39.951233, 80.534761) scale(-1, 1) rotate(-67.000000) translate(-39.951233, -80.534761) "></path>
            </g>
            <g filter="url(#filter-2)" transform="translate(0.000000, 65.000000)">
                <g id="Striped-Shirt" filter="url(#filter-3)" transform="translate(31.800038, 300.163404)">
                    <path d="M52.7686785,2.44357049 C4.87542341,68.9497062 0.116734135,182.077837 0.116734135,182.077837 C0.116734135,182.077837 41.8729373,217.767015 133.220251,217.34867 C224.567564,216.930326 275.471376,182.077837 275.471376,182.077837 C275.471376,182.077837 264.7292,66.4196551 215.882895,0.249074714" id="Path-5" fill="#F2534A"></path>
                    <path d="M26.8730722,51.9754501 C74.6070015,75.8654218 113.487982,82.7071612 134.244198,83.1864753 C155.000414,83.6657893 210.937839,72.0997 244.474534,53.2124455 C250.791117,66.8782268 255.040973,83.5948918 255.040973,83.5948918 C255.040973,83.5948918 144.700588,153.145214 16.8103527,82.6889369 C19.5079322,70.1519982 24.166865,58.2755542 26.8730722,51.9754501 Z" id="Path-45" fill="#00BEBC"></path>
                    <path d="M51.9737912,3.70564773 C99.7077205,27.5956194 120.05502,22.6630573 138.416387,24.0555654 C156.777754,25.4480735 219.353576,5.06473348 219.353576,5.06473348 C219.353576,5.06473348 226.959054,15.7081065 232.42087,26.954962 C234.444342,29.4065588 183.043338,53.8744462 136.882494,53.1061658 C90.7216502,52.3378855 78.5367973,49.434851 38.1379114,27.1786162 C42.7115262,15.6549474 47.9427599,9.17366261 51.9737912,3.70564773 Z" id="Path-45" fill="#00BEBC"></path>
                    <path d="M8.26805039,118.469336 C8.26805039,118.469336 3.03037269,147.369929 2.90961701,152.968674 C114.966768,211.005691 246.657904,166.259034 270.660734,152.366786 C268.548018,134.042646 266.545444,129.310858 264.934948,118.723768 C124.074088,185.522186 8.26805039,118.469336 8.26805039,118.469336 Z" id="Path-46" fill="#00BEBC"></path>
                </g>
                <path d="M72.7795323,171.519549 C72.1516302,172.923009 71.5539464,174.34297 70.9873095,175.778603 C66.3277224,187.584141 70.1273095,217.27714 71.4778439,229.649556 C72.8283783,242.021971 90.8164929,336.580294 94.2909252,338.60811 C97.7653575,340.635925 108.881665,300.702304 112.908681,311.403867 C135.920236,372.555753 161.801677,414.612376 165.401581,414.384018 C169.001485,414.155661 190.534753,360.578396 196.174146,342.542711 C201.81354,324.507027 212.969137,318.464684 213.126547,364.985698 C218.91024,359.283043 226.091221,339.580913 232.002091,329.70673 C237.91296,319.832546 249.300455,309.455762 258.898714,254.143194 C261.104086,241.434136 268.814207,188.385912 264.426814,176.884465 C263.901885,175.508376 263.348553,174.146333 262.767534,172.799056 C262.767534,172.799056 242.564635,120.734375 180.701354,109.445312 C118.838073,98.15625 77.6115104,161.832031 77.6115104,161.832031" id="Beard" stroke="#FFD087" fill="#FFD087"></path>
                <path d="M270.562,143.580028 C283.852337,134.086583 306.421363,116.242454 304.916801,105.501071 C302.792903,90.3381255 293.194894,53.6927847 291.102328,49.9329682 C289.009763,46.1731517 285.414001,52.0474829 269.249869,53.2556678 C258.899359,50.6657693 269.873899,30.5962149 270.29348,29.2822525 C270.713061,27.9682901 268.79759,46.777777 271.216468,47.0970578 C273.629273,47.4155368 285.922446,45.564092 287.908895,42.4561299 C289.895343,39.3481677 286.967584,15.1393818 289.886945,8.75304305 C292.806307,2.36670434 334.772139,-1.45966195 337.207474,0.526533987 C339.64281,2.51272992 297.900684,9.2398323 295.278298,11.5163553 C292.655911,13.7928784 297.03419,37.221426 297.03419,37.221426 C297.03419,37.221426 301.532327,59.3905879 304.544064,71.712393 C307.555801,84.0341982 317.370814,70.1015473 319.814218,66.4945014 C322.257622,62.8874554 317.155059,49.0799485 319.175226,50.1133171 C321.195393,51.1466857 325.294128,59.7451722 325.15442,64.8935226 C325.014712,70.0418729 320.97387,75.3071444 317.191831,78.66194 C316.108362,79.6230137 311.444639,84.1462863 309.330015,85.1392174 C306.366375,86.530808 316.989522,102.827167 313.884647,113.402797 C311.293411,122.228902 279.948583,154.320313 269.648753,164.696528" id="Right-Antler" fill="#423636"></path>
                <path d="M66.7351034,143.570831 C53.4430709,134.075062 30.8891009,116.238986 32.3931776,105.501071 C34.5170755,90.3381255 44.1150849,53.6927847 46.2076503,49.9329682 C48.3002156,46.1731517 51.8959773,52.0474829 68.0601092,53.2556678 C78.4106199,50.6657693 67.4360799,30.5962149 67.0164986,29.2822525 C66.5969173,27.9682901 68.5123884,46.777777 66.0935101,47.0970578 C63.6807059,47.4155368 51.387532,45.564092 49.4010836,42.4561299 C47.4146352,39.3481677 50.3423945,15.1393818 47.423033,8.75304305 C44.5036715,2.36670434 2.53783964,-1.45966195 0.102504118,0.526533987 C-2.33283141,2.51272992 39.4092941,9.2398323 42.0316808,11.5163553 C44.6540675,13.7928784 40.2757887,37.221426 40.2757887,37.221426 C40.2757887,37.221426 35.7776511,59.3905879 32.7659145,71.712393 C29.7541778,84.0341982 19.9391648,70.1015473 17.4957606,66.4945014 C15.0523564,62.8874554 20.1549195,49.0799485 18.1347526,50.1133171 C16.1145858,51.1466857 12.0158503,59.7451722 12.1555583,64.8935226 C12.2952662,70.0418729 16.3361084,75.3071444 20.1181473,78.66194 C21.2016166,79.6230137 25.8653394,84.1462863 27.9799633,85.1392174 C30.9436038,86.530808 20.3204566,102.827167 23.4253319,113.402797 C25.9821339,122.111615 56.533411,153.471518 67.23958,164.271472" id="Left-Antler" fill="#423636"></path>
                <g id="Crown" transform="translate(65.000000, 61.000000)">
                    <path d="M38.2236759,111.428586 C23.0260272,111.400189 11.0200629,111.411535 5.21172213,111.320537 C-0.765755255,110.882891 -0.681160467,106.513299 2.23447539,104.805288 C2.29355771,104.675985 2.4982512,104.554262 2.84077689,104.439826 L0.612980888,50.5750848 L52.3949819,86.7464103 L103.928431,0.922910638 L154.639122,86.38489 L206.949677,50.7111627 L204.440429,106.852784 C206.963918,108.629159 205.469406,111.786654 203.223298,112.183741 C200.154704,112.726235 186.94052,112.861847 170.530628,112.800027 M140.288361,112.451641 C124.729304,112.262719 110.862825,112.111043 100.93338,111.937551 C89.1671619,111.731967 77.2465484,111.610472 65.9401811,111.536732" fill="#FADAA8"></path>
                    <ellipse id="Oval-9" fill="#F2534A" cx="188.301074" cy="85.81702" rx="5.85543888" ry="9.21055189"></ellipse>
                    <ellipse id="Oval-9" fill="#F2534A" cx="105.474118" cy="73.3675385" rx="15.8205957" ry="24.2823641"></ellipse>
                    <ellipse id="Oval-9" fill="#F2534A" cx="16.4638274" cy="85.81702" rx="5.85543888" ry="9.21055189"></ellipse>
                </g>
                <ellipse id="Oval-3" fill="#FFFFFF" cx="117.23192" cy="194.252323" rx="17.5663166" ry="36.0048846"></ellipse>
                <ellipse id="Oval-5" fill="#00BEBC" cx="118.34075" cy="198.055965" rx="8.36491269" ry="22.6077183"></ellipse>
                <ellipse id="Oval-6" stroke="#4A4A4A" fill="#423636" cx="119.358801" cy="196.7448" rx="2.50947381" ry="7.53590609"></ellipse>
                <path d="M220.334268,230.257208 C230.035876,230.257208 237.900584,214.137272 237.900584,194.252323 C237.900584,186.375607 236.666559,179.089646 234.573155,173.162337 C231.381713,164.12602 226.192929,158.247438 220.334268,158.247438 C214.482939,158.247438 209.299811,164.111315 206.107372,173.128425 C204.00669,179.061846 202.767951,186.360578 202.767951,194.252323 C202.767951,214.137272 210.632659,230.257208 220.334268,230.257208 Z" id="Oval-3" fill="#FFFFFF"></path>
                <ellipse id="Oval-5" fill="#00BEBC" cx="221.443098" cy="198.055965" rx="8.36491269" ry="22.6077183"></ellipse>
                <ellipse id="Oval-6" stroke="#4A4A4A" fill="#423636" cx="219.024404" cy="196.7448" rx="2.50947381" ry="7.53590609"></ellipse>
                <path d="M147.856806,217.015982 L191.278793,216.730187 C191.278793,216.730187 195.684177,254.36579 170.465393,254.374771 C145.246609,254.383752 147.856806,217.015982 147.856806,217.015982 Z" id="Path-5" fill="#4A4A4A"></path>
                <path d="M151.216777,240.243695 C151.216777,240.243695 166.80004,233.895175 170.913464,243.572458 C171.561835,234.258394 189.333929,238.198942 189.333929,238.198942 C189.333929,238.198942 187.180204,254.527866 171.04031,254.999918 C154.900415,255.471969 151.216777,240.243695 151.216777,240.243695 Z" id="Path-11" fill="#F2534A"></path>
            </g>
            <g id="Plaque" transform="translate(81.000000, 613.000000)">
                <g id="Group" stroke-width="1" fill-rule="evenodd">
                    <use id="Rectangle-28" stroke="#FADAA8" mask="url(#mask-5)" stroke-width="8" fill="#FFC871" xlink:href="#path-4"></use>
                    <circle id="Oval-17" fill="#FADAA8" cx="313.5" cy="12.5" r="2.5"></circle>
                    <circle id="Oval-17" fill="#FADAA8" cx="313.5" cy="32.5" r="2.5"></circle>
                    <circle id="Oval-17" fill="#FADAA8" cx="11.5" cy="12.5" r="2.5"></circle>
                    <circle id="Oval-17" fill="#FADAA8" cx="11.5" cy="32.5" r="2.5"></circle>
                </g>
                <text id="BREAK-THROUGH-ARTIST" font-family="RobotoSlab-Regular, Roboto Slab" font-size="22" font-weight="normal" letter-spacing="0.240901098" fill="#FFFFFF">
                    <tspan x="97.1372914" y="30">BEST RESIN</tspan>
                </text>
            </g>
            <rect id="Rectangle-36" fill="#FAFAFA" x="29" y="0" width="1" height="1"></rect>
        </g>
    </g>
</svg>