<?xml version="1.0" encoding="UTF-8" standalone="no"?>
<svg width="561px" height="584px" viewBox="0 0 561 584" version="1.1" xmlns="http://www.w3.org/2000/svg" xmlns:xlink="http://www.w3.org/1999/xlink">
    <!-- Generator: Sketch 39.1 (31720) - http://www.bohemiancoding.com/sketch -->
    <title>Sofubi</title>
    <desc>Created with Sketch.</desc>
    <defs>
        <linearGradient x1="50%" y1="58.7133313%" x2="50%" y2="89.8717044%" id="linearGradient-1">
            <stop stop-color="#00E1E0" offset="0%"></stop>
            <stop stop-color="#FAFAFA" offset="100%"></stop>
        </linearGradient>
        <linearGradient x1="50%" y1="0%" x2="50%" y2="100%" id="linearGradient-2">
            <stop stop-color="#FFEABC" offset="0%"></stop>
            <stop stop-color="#FFD086" offset="100%"></stop>
        </linearGradient>
        <linearGradient x1="50%" y1="0%" x2="50%" y2="88.9433922%" id="linearGradient-3">
            <stop stop-color="#00E1E0" offset="0%"></stop>
            <stop stop-color="#F2534A" offset="100%"></stop>
        </linearGradient>
        <linearGradient x1="50%" y1="100%" x2="50%" y2="0%" id="linearGradient-4">
            <stop stop-color="#423636" offset="0%"></stop>
            <stop stop-color="#685353" offset="100%"></stop>
        </linearGradient>
        <linearGradient x1="50%" y1="-40.6044068%" x2="50%" y2="100%" id="linearGradient-5">
            <stop stop-color="#FA8B81" offset="0%"></stop>
            <stop stop-color="#F2534A" offset="100%"></stop>
        </linearGradient>
        <linearGradient x1="50%" y1="100%" x2="50%" y2="66.5826435%" id="linearGradient-6">
            <stop stop-color="#423636" offset="0%"></stop>
            <stop stop-color="#685353" offset="100%"></stop>
        </linearGradient>
        <linearGradient x1="50%" y1="9.96117767%" x2="50%" y2="100%" id="linearGradient-7">
            <stop stop-color="#51B1AD" offset="0%"></stop>
            <stop stop-color="#F2534A" offset="100%"></stop>
        </linearGradient>
        <linearGradient x1="50%" y1="11.9667137%" x2="50%" y2="100%" id="linearGradient-8">
            <stop stop-color="#52B0AC" offset="0%"></stop>
            <stop stop-color="#F2534A" offset="100%"></stop>
        </linearGradient>
        <filter x="-50%" y="-50%" width="200%" height="200%" filterUnits="objectBoundingBox" id="filter-9">
            <feOffset dx="0" dy="2" in="SourceAlpha" result="shadowOffsetOuter1"></feOffset>
            <feGaussianBlur stdDeviation="2" in="shadowOffsetOuter1" result="shadowBlurOuter1"></feGaussianBlur>
            <feColorMatrix values="0 0 0 0 0   0 0 0 0 0   0 0 0 0 0  0 0 0 0.5 0" type="matrix" in="shadowBlurOuter1" result="shadowMatrixOuter1"></feColorMatrix>
            <feMerge>
                <feMergeNode in="shadowMatrixOuter1"></feMergeNode>
                <feMergeNode in="SourceGraphic"></feMergeNode>
            </feMerge>
        </filter>
        <polygon id="path-10" points="0 35.9737473 0 9.12990284 13.0753585 0 312.728151 0 325 9.12990284 325 35.9737473 312.728151 45 13.0753585 45"></polygon>
        <mask id="mask-11" maskContentUnits="userSpaceOnUse" maskUnits="objectBoundingBox" x="0" y="0" width="325" height="45" fill="white">
            <use xlink:href="#path-10"></use>
        </mask>
    </defs>
    <g id="Characters" stroke="none" stroke-width="1" fill="none" fill-rule="evenodd">
        <g id="Sofubi">
            <g id="t-sofubi" transform="translate(148.500000, 329.000000) scale(-1, 1) translate(-148.500000, -329.000000) translate(0.000000, 203.000000)">
                <g id="Group-16" transform="translate(106.804595, 82.500000) rotate(18.000000) translate(-106.804595, -82.500000) translate(13.304595, 26.500000)">
                    <g id="Group-14" transform="translate(59.387844, 55.589798) rotate(49.000000) translate(-59.387844, -55.589798) translate(37.887844, -4.410202)">
                        <path d="M42.9586905,108.380588 L43,108.380588 L43,31.3791437 L0,31.3791437 L0,108.380588 L0.0413095411,108.380588 C0.734948452,114.826171 10.0771772,119.930805 21.5,119.930805 C32.9228228,119.930805 42.2650515,114.826171 42.9586905,108.380588 Z" id="Combined-Shape" fill="#00BEBC"></path>
                        <ellipse id="Oval-7" fill="#DDDDDD" cx="21.5" cy="32.6993748" rx="21.5" ry="12.3202311"></ellipse>
                        <path d="M43,33.8791437 C43,20.3481673 33.3741221,9.37914367 21.5,9.37914367 C9.62587788,9.37914367 0,20.3481673 0,33.8791437 C0,47.41012 43,47.41012 43,33.8791437 Z" id="Oval-11" fill="#DDDDDD"></path>
                        <rect id="Rectangle-31" fill="#979797" x="21" y="6.37914367" width="1" height="7"></rect>
                        <rect id="Rectangle-30" fill="#DDDDDD" x="19" y="1.37914367" width="5" height="7"></rect>
                        <ellipse id="Oval-12" fill="#DDDDDD" cx="21.5" cy="1.87914367" rx="2.5" ry="1.5"></ellipse>
                    </g>
                    <path d="M139.570139,6.40984943 L158.519879,84.7829347 C158.519879,84.7829347 150.504236,99.4098494 141.373074,99.4098494 C131.837569,99.4098494 120.510887,84.7829347 120.510887,84.7829347 L139.570139,6.40984943 Z" id="Triangle-3" fill="url(#linearGradient-1)" transform="translate(139.515383, 52.909849) rotate(-48.000000) translate(-139.515383, -52.909849) "></path>
                </g>
                <g id="Group-15" transform="translate(172.695405, 66.562830)">
                    <g id="Group" transform="translate(62.000000, 92.500000) scale(-1, 1) translate(-62.000000, -92.500000) ">
                        <path d="M41.0340876,24.1744401 C41.0340876,24.1744401 27.9389113,25.8887403 24.1746278,23.1734298 C22.8979099,22.2524881 22.0083541,21.4331624 22.0052288,17.1633262 C22.0022562,13.1020285 21.9084952,10.0888518 23.7029837,9.0185105 C25.8031514,7.76584364 30.7073685,8.01249835 32.6898239,10.1056702 C33.9654056,11.4524909 33.1175881,13.1868617 32.6898238,17.163326 C32.6898238,18.369144 28.2817474,17.6545751 27.0538909,17.1633262 C25.8260344,16.6720774 24.9180222,13.1883984 24.8664531,13.3463366 C24.1753209,15.4630338 24.1340389,17.5512528 25.9492289,18.3691442 C27.7644189,19.1870356 35.0349581,22.1422038 35.8905459,18.7183746 C36.9291444,14.5621868 37.3128509,8.6119818 35.8905451,6.77978043 C34.4682393,4.94757906 26.6162351,1.23118741 18.6453968,5.29059506 C15.8294535,6.76162207 11.1491454,22.1537502 12.1580137,26.1951161 C13.7109177,29.5381584 16.3991515,31.0642731 23.7029835,33.1484912 C31.0068155,35.2327093 37.8345372,33.5385131 37.8345372,33.5385131 L41.0340876,24.1744401 Z" id="Path-44" fill="url(#linearGradient-2)" transform="translate(26.526065, 18.826451) rotate(16.000000) translate(-26.526065, -18.826451) "></path>
                        <path d="M115.421443,24.1744401 C115.421443,24.1744401 102.326267,25.8887403 98.561983,23.1734298 C97.2852651,22.2524881 96.3957093,21.4331624 96.392584,17.1633262 C96.3896113,13.1020285 96.2958504,10.0888518 98.0903389,9.0185105 C100.190507,7.76584364 105.094724,8.01249835 107.077179,10.1056702 C108.352761,11.4524909 107.504943,13.1868617 107.077179,17.163326 C107.077179,18.369144 102.669103,17.6545751 101.441246,17.1633262 C100.21339,16.6720774 99.3053774,13.1883984 99.2538083,13.3463366 C98.562676,15.4630338 98.5213941,17.5512528 100.336584,18.3691442 C102.151774,19.1870356 109.422313,22.1422038 110.277901,18.7183746 C111.3165,14.5621868 111.700206,8.6119818 110.2779,6.77978043 C108.855594,4.94757906 101.00359,1.23118741 93.032752,5.29059506 C90.2168086,6.76162207 85.5365006,22.1537502 86.5453689,26.1951161 C88.0982729,29.5381584 90.7865066,31.0642731 98.0903386,33.1484912 C105.394171,35.2327093 112.221892,33.5385131 112.221892,33.5385131 L115.421443,24.1744401 Z" id="Path-44" fill="url(#linearGradient-2)" transform="translate(100.913420, 18.826451) scale(-1, 1) rotate(16.000000) translate(-100.913420, -18.826451) "></path>
                        <path d="M23.7985718,55.6080348 C28.000908,49.3599526 27.352066,17 63.067164,17 C98.782262,17 98.7765627,46.8677525 102.045402,55.6080336 C105.314241,64.3483147 122.441127,71.7941931 123.845285,112.516995 C123.583287,134.150989 112.488577,138.322803 107.534221,148.735977 C101.666306,161.069291 109.321808,182.41529 95.0096759,182.786704 C80.6975436,183.158119 76.3502764,164.964358 69.6419565,158.080252 C67.3533439,155.731668 59.7710134,152.312686 55.2187128,157.484679 C50.6664122,162.656672 55.8298256,185.182085 41.3739021,184.313269 C26.9179785,183.444452 21.684725,163.242445 15.9702349,150.794303 C11.039882,140.054283 1.05189174,140.252337 0.00581550397,112.516995 C-0.390588367,79.4508403 19.5962356,61.8561171 23.7985718,55.6080348 Z" id="Path-22" fill="url(#linearGradient-3)"></path>
                        <g id="Group-2" transform="translate(39.504434, 36.261095)">
                            <ellipse id="Oval-19" fill="url(#linearGradient-4)" cx="42.7380677" cy="5.34414037" rx="5.08528907" ry="5.01587622"></ellipse>
                            <ellipse id="Oval-22" fill="#F0F0F0" cx="41.4089581" cy="7.57779034" rx="1.38751178" ry="1.36857261"></ellipse>
                            <ellipse id="Oval-19" fill="url(#linearGradient-4)" cx="5.23406083" cy="5.34414037" rx="5.08528907" ry="5.01587622"></ellipse>
                            <ellipse id="Oval-22" fill="#F0F0F0" cx="6.9495467" cy="7.65207042" rx="1.4628198" ry="1.44285269"></ellipse>
                            <g id="Group-13" transform="translate(19.000000, 9.000000)">
                                <path d="M1.3411123,1.65069355 C2.34323581,-0.389655712 6.67808747,-0.70516038 7.81294397,1.65069349 C8.9610167,3.5218923 9.5280408,8.79712136 4.6731092,8.79882666 C-0.181822407,8.80053197 0.380096913,3.3651284 1.3411123,1.65069355 Z" id="Path-5" fill="#4A4A4A"></path>
                                <path d="M1.31051785,7.12960487 C1.16375237,6.84133518 1.09131746,6.59177143 1.03163616,6.45822379 C0.911069477,6.34791586 3.78480691,5.00520514 4.63864519,7.46167696 C4.77322999,5.09740425 8.56964736,6.13621129 8.23094743,6.67598412 C7.47328116,8.85200117 5.17077486,8.76369137 4.63864519,8.80853376 C2.47716581,8.77600545 1.6703895,7.83644746 1.31051785,7.12960487 Z" id="Path-11" fill-opacity="0.710000038" fill="url(#linearGradient-5)"></path>
                            </g>
                        </g>
                    </g>
                    <path d="M58.7296795,152.995908 C86.5777981,154.15433 104.247783,145.813184 104.247783,116.076941 C104.247783,86.3406977 85.8863767,67.0280841 59.523327,67.0280841 C33.1602774,67.0280841 17.0694301,86.325972 17.0694301,116.062215 C17.0694301,145.798459 30.881561,151.837486 58.7296795,152.995908 Z" id="Oval-27" fill="url(#linearGradient-6)" transform="translate(60.658607, 110.063693) scale(-1, 1) translate(-60.658607, -110.063693) "></path>
                    <path d="M26.7253573,125.649024 C39.3204623,125.649024 36.0367595,86.4958844 37.078703,59.5321307 C27.4927655,64.05736 32.0283548,66.6976443 26.7253577,66.8875908 C21.6068403,67.0709294 22.2741852,68.4127325 16.3005762,72.0119749 C12.8749354,89.8138958 14.1302524,125.649024 26.7253573,125.649024 Z" id="Oval-28" fill="url(#linearGradient-7)" transform="translate(25.869907, 92.590577) rotate(-25.000000) translate(-25.869907, -92.590577) "></path>
                    <path d="M97.7253573,125.649024 C110.320462,125.649024 107.03676,86.4958844 108.078703,59.5321307 C98.4927655,64.05736 103.028355,66.6976443 97.7253577,66.8875908 C92.6068403,67.0709294 93.2741852,68.4127325 87.3005762,72.0119749 C83.8749354,89.8138958 85.1302524,125.649024 97.7253573,125.649024 Z" id="Oval-28" fill="url(#linearGradient-8)" transform="translate(96.869907, 92.590577) scale(-1, 1) rotate(-25.000000) translate(-96.869907, -92.590577) "></path>
                </g>
            </g>
            <g id="Best-Sofubi" transform="translate(388.000000, 259.500000) scale(-1, 1) translate(-388.000000, -259.500000) translate(215.000000, 0.000000)">
                <g id="Striped-Shirt" filter="url(#filter-9)" transform="translate(39.800038, 275.163404)">
                    <path d="M69.8844042,0.988902128 C-1.50855527,96.7841368 0.116734135,207.077837 0.116734135,207.077837 C0.116734135,207.077837 41.8729373,242.767015 133.220251,242.34867 C224.567564,241.930326 275.471376,207.077837 275.471376,207.077837 C275.471376,207.077837 264.7292,91.4196551 215.882895,25.2490747" id="Path-5" fill="#F2534A"></path>
                    <path d="M26.8730722,76.9754501 C74.6070015,100.865422 113.487982,107.707161 134.244198,108.186475 C155.000414,108.665789 210.937839,97.0997 244.474534,78.2124455 C250.791117,91.8782268 255.040973,108.594892 255.040973,108.594892 C255.040973,108.594892 144.700588,178.145214 16.8103527,107.688937 C19.5079322,95.1519982 24.166865,83.2755542 26.8730722,76.9754501 Z" id="Path-45" fill="#00BEBC"></path>
                    <path d="M51.9737912,28.7056477 C99.7077205,52.5956194 120.05502,47.6630573 138.416387,49.0555654 C156.777754,50.4480735 219.353576,30.0647335 219.353576,30.0647335 C219.353576,30.0647335 226.959054,40.7081065 232.42087,51.954962 C234.444342,54.4065588 183.043338,78.8744462 136.882494,78.1061658 C90.7216502,77.3378855 78.5367973,74.434851 38.1379114,52.1786162 C42.7115262,40.6549474 47.9427599,34.1736626 51.9737912,28.7056477 Z" id="Path-45" fill="#00BEBC"></path>
                    <path d="M8.26805039,143.469336 C8.26805039,143.469336 3.03037269,172.369929 2.90961701,177.968674 C114.966768,236.005691 246.657904,191.259034 270.660734,177.366786 C268.548018,159.042646 266.545444,154.310858 264.934948,143.723768 C124.074088,210.522186 8.26805039,143.469336 8.26805039,143.469336 Z" id="Path-46" fill="#00BEBC"></path>
                </g>
                <path d="M80.7795323,171.519549 C80.1516302,172.923009 79.5539464,174.34297 78.9873095,175.778603 C74.3277224,187.584141 78.1273095,217.27714 79.4778439,229.649556 C93.2237757,302.565459 141.761426,359.352899 149.249824,368.88367 C156.738221,378.41444 156.323398,321.877609 160.350413,332.579171 C183.361968,393.731058 217.396141,417.889404 220.996045,417.661046 C224.59595,417.432688 225.105333,370.533417 230.744727,352.497732 C236.384121,334.462047 247.029287,376.318182 254.27064,371.886399 C261.511993,367.454617 257.300455,309.455762 266.898714,254.143194 C269.104086,241.434136 276.814207,188.385912 272.426814,176.884465 C271.901885,175.508376 271.348553,174.146333 270.767534,172.799056 C270.767534,172.799056 250.564635,120.734375 188.701354,109.445312 C126.838073,98.15625 85.6115104,161.832031 85.6115104,161.832031" id="Beard" stroke="#FFD087" fill="#FFD087"></path>
                <path d="M278.562,143.580028 C291.852337,134.086583 314.421363,116.242454 312.916801,105.501071 C310.792903,90.3381255 301.194894,53.6927847 299.102328,49.9329682 C297.009763,46.1731517 293.414001,52.0474829 277.249869,53.2556678 C266.899359,50.6657693 277.873899,30.5962149 278.29348,29.2822525 C278.713061,27.9682901 276.79759,46.777777 279.216468,47.0970578 C281.629273,47.4155368 293.922446,45.564092 295.908895,42.4561299 C297.895343,39.3481677 294.967584,15.1393818 297.886945,8.75304305 C300.806307,2.36670434 342.772139,-1.45966195 345.207474,0.526533987 C347.64281,2.51272992 305.900684,9.2398323 303.278298,11.5163553 C300.655911,13.7928784 305.03419,37.221426 305.03419,37.221426 C305.03419,37.221426 309.532327,59.3905879 312.544064,71.712393 C315.555801,84.0341982 325.370814,70.1015473 327.814218,66.4945014 C330.257622,62.8874554 325.155059,49.0799485 327.175226,50.1133171 C329.195393,51.1466857 333.294128,59.7451722 333.15442,64.8935226 C333.014712,70.0418729 328.97387,75.3071444 325.191831,78.66194 C324.108362,79.6230137 319.444639,84.1462863 317.330015,85.1392174 C314.366375,86.530808 324.989522,102.827167 321.884647,113.402797 C319.293411,122.228902 287.948583,154.320313 277.648753,164.696528" id="Right-Antler" fill="#423636"></path>
                <path d="M23.6570468,155.414317 C36.9473842,145.920872 59.5164101,128.076742 58.0118477,117.33536 C55.8879498,102.172414 46.2899403,65.527073 44.197375,61.7672565 C42.1048097,58.00744 38.509048,63.8817711 22.344916,65.0899561 C11.9944054,62.5000575 22.9689454,42.4305032 23.3885267,41.1165408 C23.808108,39.8025783 21.8926368,58.6120653 24.3115152,58.9313461 C26.7243194,59.2498251 39.0174933,57.3983803 41.0039417,54.2904181 C42.9903901,51.182456 40.0626308,26.97367 42.9819923,20.5873313 C45.9013538,14.2009926 87.8671856,10.3746263 90.3025212,12.3608223 C92.7378567,14.3470182 50.9957312,21.0741206 48.3733445,23.3506436 C45.7509578,25.6271666 50.1292366,49.0557143 50.1292366,49.0557143 C50.1292366,49.0557143 54.6273741,71.2248762 57.6391108,83.5466813 C60.6508475,95.8684864 70.4658605,81.9358355 72.9092647,78.3287896 C75.3526689,74.7217437 70.2501058,60.9142368 72.2702726,61.9476054 C74.2904395,62.980974 78.3891749,71.5794605 78.249467,76.7278108 C78.1097591,81.8761612 74.0689169,87.1414327 70.286878,90.4962283 C69.2034087,91.457302 64.5396859,95.9805745 62.4250619,96.9735057 C59.4614214,98.3650963 70.0845687,114.661455 66.9796934,125.237086 C64.3884573,134.06319 33.0436301,166.154602 22.7438003,176.530816" id="Right-Antler" fill="#423636" transform="translate(54.159895, 94.182552) scale(-1, 1) rotate(13.000000) translate(-54.159895, -94.182552) "></path>
                <g id="Crown" transform="translate(93.000000, 61.000000)">
                    <path d="M38.2236759,111.428586 C23.0260272,111.400189 11.0200629,111.411535 5.21172213,111.320537 C-0.765755255,110.882891 -0.681160467,106.513299 2.23447539,104.805288 C2.29355771,104.675985 2.4982512,104.554262 2.84077689,104.439826 L0.612980888,50.5750848 L52.3949819,86.7464103 L103.928431,0.922910638 L154.639122,86.38489 L186.323135,48.3231651 L184.081679,103.519312 C184.089249,108.882608 181.09848,111.889719 178.852371,112.286806 C175.783778,112.829299 186.94052,112.861847 170.530628,112.800027 M140.288361,112.451641 C124.729304,112.262719 110.862825,112.111043 100.93338,111.937551 C89.1671619,111.731967 77.2465484,111.610472 65.9401811,111.536732" fill="#FADAA8"></path>
                    <path d="M182.213774,96.95759 C185.001788,96.95759 185,93.1940975 185,88.1072501 C185,83.0204028 184.277782,77 181.489768,77 C178.701754,77 178,82.5692791 178,87.6561264 C178,92.7429738 179.42576,96.95759 182.213774,96.95759 Z" id="Oval-9" fill="#F2534A" transform="translate(181.500000, 86.978795) rotate(3.000000) translate(-181.500000, -86.978795) "></path>
                    <ellipse id="Oval-9" fill="#F2534A" cx="105.474118" cy="73.3675385" rx="15.8205957" ry="24.2823641"></ellipse>
                    <ellipse id="Oval-9" fill="#F2534A" cx="16.4638274" cy="85.81702" rx="5.85543888" ry="9.21055189"></ellipse>
                </g>
                <path d="M86.8053095,159 L100,159 L100,172 C100,172 87.0727506,172.055497 79,172 C80.5948671,161.20598 86.8053095,159 86.8053095,159 Z" id="Rectangle-5" fill="#FADAA8"></path>
                <g id="Group-11" transform="translate(189.477320, 241.060416) rotate(-22.000000) translate(-189.477320, -241.060416) translate(167.977320, 227.060416)">
                    <path d="M0.0767739695,10.2770023 L43.4987606,10.2399837 C43.4987606,10.2399837 47.9041454,15.1148851 22.6853612,15.1160483 C-2.53342301,15.1172116 0.0767739695,10.2770023 0.0767739695,10.2770023 Z" id="Path-5" fill="#4A4A4A" transform="translate(21.897042, 12.678016) rotate(27.000000) translate(-21.897042, -12.678016) "></path>
                    <path d="M3.38941564,8.7330251 C3.38941564,8.7330251 11.9747511,2.38450494 14.2409722,12.0617887 C14.5981814,2.74772383 24.3894156,6.68827274 24.3894156,6.68827274 C24.3894156,6.68827274 23.2028576,23.017196 14.3108556,23.4892479 C5.41885365,23.9612997 3.38941564,8.7330251 3.38941564,8.7330251 Z" id="Path-11" fill="#F2534A" transform="translate(13.889416, 14.680244) rotate(33.000000) translate(-13.889416, -14.680244) "></path>
                </g>
                <ellipse id="Oval-3" fill="#FFFFFF" cx="155.23192" cy="194.252323" rx="17.5663166" ry="36.0048846"></ellipse>
                <path d="M161.34075,222.663683 C165.960564,222.663683 169.705663,212.541863 169.705663,200.055965 C169.705663,187.570067 165.960564,177.448247 161.34075,177.448247 C156.720937,177.448247 152.975838,187.570067 152.975838,200.055965 C152.975838,212.541863 156.720937,222.663683 161.34075,222.663683 Z" id="Oval-5" fill="#00BEBC"></path>
                <path d="M163.358801,216.280706 C164.744746,216.280706 165.868275,212.906766 165.868275,208.7448 C165.868275,204.582834 164.744746,201.208894 163.358801,201.208894 C161.972857,201.208894 160.849328,204.582834 160.849328,208.7448 C160.849328,212.906766 161.972857,216.280706 163.358801,216.280706 Z" id="Oval-6" stroke="#4A4A4A" fill="#423636"></path>
                <path d="M248.334268,230.257208 C258.035876,230.257208 265.900584,214.137272 265.900584,194.252323 C265.900584,186.375607 264.666559,179.089646 262.573155,173.162337 C259.381713,164.12602 254.192929,158.247438 248.334268,158.247438 C242.482939,158.247438 237.299811,164.111315 234.107372,173.128425 C232.00669,179.061846 230.767951,186.360578 230.767951,194.252323 C230.767951,214.137272 238.632659,230.257208 248.334268,230.257208 Z" id="Oval-3" fill="#FFFFFF"></path>
                <ellipse id="Oval-5" fill="#00BEBC" cx="254.443098" cy="200.055965" rx="8.36491269" ry="22.6077183"></ellipse>
                <ellipse id="Oval-6" stroke="#4A4A4A" fill="#423636" cx="256.024404" cy="208.7448" rx="2.50947381" ry="7.53590609"></ellipse>
            </g>
            <g id="Plaque" transform="translate(175.000000, 539.000000)">
                <g id="Group" stroke-width="1" fill-rule="evenodd">
                    <use id="Rectangle-28" stroke="#FADAA8" mask="url(#mask-11)" stroke-width="8" fill="#FFC871" xlink:href="#path-10"></use>
                    <circle id="Oval-17" fill="#FADAA8" cx="313.5" cy="12.5" r="2.5"></circle>
                    <circle id="Oval-17" fill="#FADAA8" cx="313.5" cy="32.5" r="2.5"></circle>
                    <circle id="Oval-17" fill="#FADAA8" cx="11.5" cy="12.5" r="2.5"></circle>
                    <circle id="Oval-17" fill="#FADAA8" cx="11.5" cy="32.5" r="2.5"></circle>
                </g>
                <text id="BREAK-THROUGH-ARTIST" font-family="RobotoSlab-Regular, Roboto Slab" font-size="22" font-weight="normal" letter-spacing="0.240901098" fill="#FFFFFF">
                    <tspan x="89.7551221" y="30">BEST SOFUBI</tspan>
                </text>
            </g>
        </g>
    </g>
</svg>