<?xml version="1.0" encoding="UTF-8" standalone="no"?>
<svg width="526px" height="589px" viewBox="0 0 526 589" version="1.1" xmlns="http://www.w3.org/2000/svg" xmlns:xlink="http://www.w3.org/1999/xlink">
    <!-- Generator: Sketch 39.1 (31720) - http://www.bohemiancoding.com/sketch -->
    <title>Store</title>
    <desc>Created with Sketch.</desc>
    <defs>
        <filter x="-50%" y="-50%" width="200%" height="200%" filterUnits="objectBoundingBox" id="filter-1">
            <feOffset dx="0" dy="1" in="SourceAlpha" result="shadowOffsetOuter1"></feOffset>
            <feGaussianBlur stdDeviation="1" in="shadowOffsetOuter1" result="shadowBlurOuter1"></feGaussianBlur>
            <feColorMatrix values="0 0 0 0 0   0 0 0 0 0   0 0 0 0 0  0 0 0 0.25 0" type="matrix" in="shadowBlurOuter1" result="shadowMatrixOuter1"></feColorMatrix>
            <feMerge>
                <feMergeNode in="shadowMatrixOuter1"></feMergeNode>
                <feMergeNode in="SourceGraphic"></feMergeNode>
            </feMerge>
        </filter>
        <polygon id="path-2" points="0 35.9737473 0 9.12990284 13.0753585 0 312.728151 0 325 9.12990284 325 35.9737473 312.728151 45 13.0753585 45"></polygon>
        <mask id="mask-3" maskContentUnits="userSpaceOnUse" maskUnits="objectBoundingBox" x="0" y="0" width="325" height="45" fill="white">
            <use xlink:href="#path-2"></use>
        </mask>
        <filter x="-50%" y="-50%" width="200%" height="200%" filterUnits="objectBoundingBox" id="filter-4">
            <feOffset dx="0" dy="2" in="SourceAlpha" result="shadowOffsetOuter1"></feOffset>
            <feGaussianBlur stdDeviation="2" in="shadowOffsetOuter1" result="shadowBlurOuter1"></feGaussianBlur>
            <feColorMatrix values="0 0 0 0 0   0 0 0 0 0   0 0 0 0 0  0 0 0 0.5 0" type="matrix" in="shadowBlurOuter1" result="shadowMatrixOuter1"></feColorMatrix>
            <feMerge>
                <feMergeNode in="shadowMatrixOuter1"></feMergeNode>
                <feMergeNode in="SourceGraphic"></feMergeNode>
            </feMerge>
        </filter>
    </defs>
    <g id="Characters" stroke="none" stroke-width="1" fill="none" fill-rule="evenodd">
        <g id="Store">
            <g id="t-Blog" transform="translate(252.000000, 304.000000)">
                <g id="Group-9">
                    <rect id="Rectangle-12" fill="#4A4A4A" x="24" y="0" width="209" height="147"></rect>
                    <rect id="Rectangle-12" fill="#FAFAFA" x="43" y="14" width="171" height="120"></rect>
                    <rect id="Rectangle-17" fill="#D8D8D8" x="175" y="78" width="34" height="49"></rect>
                    <rect id="Rectangle-17" fill="#D8D8D8" x="175" y="23" width="34" height="49"></rect>
                    <rect id="Rectangle-13" fill="#D8D8D8" x="48" y="14" width="120" height="120"></rect>
                    <rect id="Rectangle-16" fill="#F2534A" x="57" y="72" width="100" height="6"></rect>
                    <rect id="Rectangle-16" fill="#F2534A" x="57" y="80" width="54" height="4"></rect>
                    <rect id="Rectangle-14" fill="#FFD087" x="57" y="21" width="100" height="45"></rect>
                    <rect id="Rectangle-14" fill="#00BEBC" x="57" y="90" width="47" height="38"></rect>
                    <rect id="Rectangle-14" fill="#F2534A" x="110" y="90" width="47" height="38"></rect>
                    <rect id="Rectangle-15" fill="#00BEBC" x="43" y="14" width="171" height="9"></rect>
                    <polygon id="Rectangle-18" fill="#4A4A4A" points="25.3497601 158 231.494037 158 261.824768 215.907772 0 215.907772"></polygon>
                    <polygon id="Rectangle-19" fill="#7A7A7A" points="28.0765306 163 229.923469 163 235 173 24 173"></polygon>
                    <polygon id="Rectangle-19" fill="#7A7A7A" points="22.2626263 175 235.43187 175 240.146622 185 18 185"></polygon>
                    <polygon id="Rectangle-19" fill="#7A7A7A" points="17.2105263 187 240.878342 187 246 197 13 197"></polygon>
                    <polygon id="Rectangle-19" fill="#7A7A7A" points="11.9607841 199 246.860916 199 252.927673 209 8.57330143 209"></polygon>
                </g>
                <g id="Blue-Guy" filter="url(#filter-1)" transform="translate(108.000000, 23.000000)">
                    <g id="Group" transform="translate(39.902627, 0.000000)">
                        <path d="M41.0340876,24.1744401 C41.0340876,24.1744401 27.9389113,25.8887403 24.1746278,23.1734298 C22.8979099,22.2524881 22.0083541,21.4331624 22.0052288,17.1633262 C22.0022562,13.1020285 21.9084952,10.0888518 23.7029837,9.0185105 C25.8031514,7.76584364 30.7073685,8.01249835 32.6898239,10.1056702 C33.9654056,11.4524909 33.1175881,13.1868617 32.6898238,17.163326 C32.6898238,18.369144 28.2817474,17.6545751 27.0538909,17.1633262 C25.8260344,16.6720774 24.9180222,13.1883984 24.8664531,13.3463366 C24.1753209,15.4630338 24.1340389,17.5512528 25.9492289,18.3691442 C27.7644189,19.1870356 35.0349581,22.1422038 35.8905459,18.7183746 C36.9291444,14.5621868 37.3128509,8.6119818 35.8905451,6.77978043 C34.4682393,4.94757906 26.6162351,1.23118741 18.6453968,5.29059506 C15.8294535,6.76162207 11.1491454,22.1537502 12.1580137,26.1951161 C13.7109177,29.5381584 16.3991515,31.0642731 23.7029835,33.1484912 C31.0068155,35.2327093 37.8345372,33.5385131 37.8345372,33.5385131 L41.0340876,24.1744401 Z" id="Path-44" fill="#FFD086" transform="translate(26.526065, 18.826451) rotate(16.000000) translate(-26.526065, -18.826451) "></path>
                        <path d="M115.421443,24.1744401 C115.421443,24.1744401 102.326267,25.8887403 98.561983,23.1734298 C97.2852651,22.2524881 96.3957093,21.4331624 96.392584,17.1633262 C96.3896113,13.1020285 96.2958504,10.0888518 98.0903389,9.0185105 C100.190507,7.76584364 105.094724,8.01249835 107.077179,10.1056702 C108.352761,11.4524909 107.504943,13.1868617 107.077179,17.163326 C107.077179,18.369144 102.669103,17.6545751 101.441246,17.1633262 C100.21339,16.6720774 99.3053774,13.1883984 99.2538083,13.3463366 C98.562676,15.4630338 98.5213941,17.5512528 100.336584,18.3691442 C102.151774,19.1870356 109.422313,22.1422038 110.277901,18.7183746 C111.3165,14.5621868 111.700206,8.6119818 110.2779,6.77978043 C108.855594,4.94757906 101.00359,1.23118741 93.032752,5.29059506 C90.2168086,6.76162207 85.5365006,22.1537502 86.5453689,26.1951161 C88.0982729,29.5381584 90.7865066,31.0642731 98.0903386,33.1484912 C105.394171,35.2327093 112.221892,33.5385131 112.221892,33.5385131 L115.421443,24.1744401 Z" id="Path-44" fill="#FFD086" transform="translate(100.913420, 18.826451) scale(-1, 1) rotate(16.000000) translate(-100.913420, -18.826451) "></path>
                        <path d="M23.8532021,56.1767235 C28.0555383,49.9286413 27.4066963,17.5686887 63.1217943,17.5686887 C98.8368923,17.5686887 98.831193,47.4364412 102.100032,56.1767223 C105.368872,64.9170034 122.495757,72.3628818 123.899915,113.085684 C123.637917,134.719678 112.543207,138.891491 107.588852,149.304666 C101.720936,161.63798 109.376438,182.983978 95.0643062,183.355393 C80.7521739,183.726808 76.4049067,165.533047 69.6965868,158.64894 C67.4079742,156.300357 59.8256437,152.881375 55.2733431,158.053368 C50.7210425,163.225361 55.8844559,185.750774 41.4285324,184.881957 C26.9726088,184.013141 21.7393553,163.811133 16.0248652,151.362991 C11.0945123,140.622972 1.10652204,140.821026 0.0604458018,113.085684 C-0.335958069,80.019529 19.6508659,62.4248058 23.8532021,56.1767235 Z" id="Path-22" fill="#00BEBC"></path>
                        <g id="Group-2" transform="translate(39.504434, 36.261095)">
                            <ellipse id="Oval-19" fill="#4A4A4A" cx="42.7380677" cy="5.34414037" rx="5.08528907" ry="5.01587622"></ellipse>
                            <ellipse id="Oval-22" fill="#F0F0F0" cx="41.4089581" cy="3.57779034" rx="1.38751178" ry="1.36857261"></ellipse>
                            <ellipse id="Oval-19" fill="#4A4A4A" cx="5.23406083" cy="5.34414037" rx="5.08528907" ry="5.01587622"></ellipse>
                            <ellipse id="Oval-22" fill="#F0F0F0" cx="6.9495467" cy="3.65207042" rx="1.4628198" ry="1.44285269"></ellipse>
                            <path d="M15.4331782,6.70289775 L31.5744472,6.59810942 C31.5744472,6.59810942 33.2120623,20.3974403 23.8374755,20.4007332 C14.4628888,20.404026 15.4331782,6.70289775 15.4331782,6.70289775 Z" id="Path-5" fill="#4A4A4A"></path>
                            <path d="M16.6759612,14.5481732 C16.6759612,14.5481732 22.4687328,12.2204483 23.997817,15.7686853 C24.2388363,12.3536247 30.8452623,13.7984518 30.8452623,13.7984518 C30.8452623,13.7984518 30.0446576,19.7855544 24.0449694,19.9586352 C18.0452811,20.131716 16.6759612,14.5481732 16.6759612,14.5481732 Z" id="Path-11" fill="#F2534A"></path>
                        </g>
                    </g>
                    <path d="M101.315093,152.995908 C129.163211,154.15433 146.833196,145.813184 146.833196,116.076941 C146.833196,86.3406977 128.47179,67.0280841 102.10874,67.0280841 C75.7456907,67.0280841 59.6548434,86.325972 59.6548434,116.062215 C59.6548434,145.798459 73.4669743,151.837486 101.315093,152.995908 Z" id="Oval-27" fill="#4A4A4A"></path>
                    <path d="M135.170431,135.154989 C147.765536,135.154989 144.481833,96.0018495 145.523777,69.0380958 C139.911024,41.0826475 140.473428,76.2036094 135.170431,76.3935559 C130.051914,76.5768946 130.719259,77.9186976 124.74565,81.51794 C121.320009,99.3198609 122.575326,135.154989 135.170431,135.154989 Z" id="Oval-28" fill="#00BEBC" transform="translate(134.314981, 96.696252) scale(-1, 1) translate(-134.314981, -96.696252) "></path>
                    <path d="M40.8066829,118.993498 C53.4017878,118.993498 50.118085,79.8403583 51.1600285,52.8766046 C45.5472759,24.9211563 46.1096803,60.0421182 40.8066832,60.2320647 C35.6881658,60.4154034 36.3555107,61.7572064 30.3819017,65.3564488 C26.9562609,83.1583697 28.2115779,118.993498 40.8066829,118.993498 Z" id="Oval-28" fill="#00BEBC" transform="translate(39.951233, 80.534761) scale(-1, 1) rotate(-67.000000) translate(-39.951233, -80.534761) "></path>
                </g>
            </g>
            <g id="Plaque" transform="translate(51.666667, 544.000000)">
                <g id="Group" stroke-width="1" fill-rule="evenodd">
                    <use id="Rectangle-28" stroke="#FADAA8" mask="url(#mask-3)" stroke-width="8" fill="#FFC871" xlink:href="#path-2"></use>
                    <circle id="Oval-17" fill="#FADAA8" cx="313.5" cy="12.5" r="2.5"></circle>
                    <circle id="Oval-17" fill="#FADAA8" cx="313.5" cy="32.5" r="2.5"></circle>
                    <circle id="Oval-17" fill="#FADAA8" cx="11.5" cy="12.5" r="2.5"></circle>
                    <circle id="Oval-17" fill="#FADAA8" cx="11.5" cy="32.5" r="2.5"></circle>
                </g>
                <text id="BREAK-THROUGH-ARTIST" font-family="RobotoSlab-Regular, Roboto Slab" font-size="22" font-weight="normal" letter-spacing="0.240901098" fill="#FFFFFF">
                    <tspan x="49.4582" y="30">BEST ONLINE STORE</tspan>
                </text>
            </g>
            <g id="Blog">
                <rect id="Rectangle-23" fill="#423636" x="261" y="180" width="25" height="7"></rect>
                <g id="Striped-Shirt" filter="url(#filter-4)" transform="translate(39.800038, 275.163404)">
                    <path d="M69.8844042,0.988902128 C-1.50855527,96.7841368 0.116734135,207.077837 0.116734135,207.077837 C0.116734135,207.077837 41.8729373,242.767015 133.220251,242.34867 C224.567564,241.930326 275.471376,207.077837 275.471376,207.077837 C275.471376,207.077837 264.7292,91.4196551 215.882895,25.2490747" id="Path-5" fill="#F2534A"></path>
                    <path d="M26.8730722,76.9754501 C74.6070015,100.865422 113.487982,107.707161 134.244198,108.186475 C155.000414,108.665789 210.937839,97.0997 244.474534,78.2124455 C250.791117,91.8782268 255.040973,108.594892 255.040973,108.594892 C255.040973,108.594892 144.700588,178.145214 16.8103527,107.688937 C19.5079322,95.1519982 24.166865,83.2755542 26.8730722,76.9754501 Z" id="Path-45" fill="#00BEBC"></path>
                    <path d="M51.9737912,28.7056477 C99.7077205,52.5956194 120.05502,47.6630573 138.416387,49.0555654 C156.777754,50.4480735 219.353576,30.0647335 219.353576,30.0647335 C219.353576,30.0647335 226.959054,40.7081065 232.42087,51.954962 C234.444342,54.4065588 183.043338,78.8744462 136.882494,78.1061658 C90.7216502,77.3378855 78.5367973,74.434851 38.1379114,52.1786162 C42.7115262,40.6549474 47.9427599,34.1736626 51.9737912,28.7056477 Z" id="Path-45" fill="#00BEBC"></path>
                    <path d="M8.26805039,143.469336 C8.26805039,143.469336 3.03037269,172.369929 2.90961701,177.968674 C114.966768,236.005691 246.657904,191.259034 270.660734,177.366786 C268.548018,159.042646 266.545444,154.310858 264.934948,143.723768 C124.074088,210.522186 8.26805039,143.469336 8.26805039,143.469336 Z" id="Path-46" fill="#00BEBC"></path>
                </g>
                <path d="M80.7795323,171.519549 C80.1516302,172.923009 79.5539464,174.34297 78.9873095,175.778603 C74.3277224,187.584141 78.1273095,217.27714 79.4778439,229.649556 C93.2237757,302.565459 141.761426,359.352899 149.249824,368.88367 C156.738221,378.41444 156.323398,321.877609 160.350413,332.579171 C183.361968,393.731058 217.396141,417.889404 220.996045,417.661046 C224.59595,417.432688 225.105333,370.533417 230.744727,352.497732 C236.384121,334.462047 247.029287,376.318182 254.27064,371.886399 C261.511993,367.454617 257.300455,309.455762 266.898714,254.143194 C269.104086,241.434136 276.814207,188.385912 272.426814,176.884465 C271.901885,175.508376 271.348553,174.146333 270.767534,172.799056 C270.767534,172.799056 250.564635,120.734375 188.701354,109.445312 C126.838073,98.15625 85.6115104,161.832031 85.6115104,161.832031" id="Beard" stroke="#FFD087" fill="#FFD087"></path>
                <path d="M278.562,143.580028 C291.852337,134.086583 314.421363,116.242454 312.916801,105.501071 C310.792903,90.3381255 301.194894,53.6927847 299.102328,49.9329682 C297.009763,46.1731517 293.414001,52.0474829 277.249869,53.2556678 C266.899359,50.6657693 277.873899,30.5962149 278.29348,29.2822525 C278.713061,27.9682901 276.79759,46.777777 279.216468,47.0970578 C281.629273,47.4155368 293.922446,45.564092 295.908895,42.4561299 C297.895343,39.3481677 294.967584,15.1393818 297.886945,8.75304305 C300.806307,2.36670434 342.772139,-1.45966195 345.207474,0.526533987 C347.64281,2.51272992 305.900684,9.2398323 303.278298,11.5163553 C300.655911,13.7928784 305.03419,37.221426 305.03419,37.221426 C305.03419,37.221426 309.532327,59.3905879 312.544064,71.712393 C315.555801,84.0341982 325.370814,70.1015473 327.814218,66.4945014 C330.257622,62.8874554 325.155059,49.0799485 327.175226,50.1133171 C329.195393,51.1466857 333.294128,59.7451722 333.15442,64.8935226 C333.014712,70.0418729 328.97387,75.3071444 325.191831,78.66194 C324.108362,79.6230137 319.444639,84.1462863 317.330015,85.1392174 C314.366375,86.530808 324.989522,102.827167 321.884647,113.402797 C319.293411,122.228902 287.948583,154.320313 277.648753,164.696528" id="Right-Antler" fill="#423636"></path>
                <path d="M23.6570468,155.414317 C36.9473842,145.920872 59.5164101,128.076742 58.0118477,117.33536 C55.8879498,102.172414 46.2899403,65.527073 44.197375,61.7672565 C42.1048097,58.00744 38.509048,63.8817711 22.344916,65.0899561 C11.9944054,62.5000575 22.9689454,42.4305032 23.3885267,41.1165408 C23.808108,39.8025783 21.8926368,58.6120653 24.3115152,58.9313461 C26.7243194,59.2498251 39.0174933,57.3983803 41.0039417,54.2904181 C42.9903901,51.182456 40.0626308,26.97367 42.9819923,20.5873313 C45.9013538,14.2009926 87.8671856,10.3746263 90.3025212,12.3608223 C92.7378567,14.3470182 50.9957312,21.0741206 48.3733445,23.3506436 C45.7509578,25.6271666 50.1292366,49.0557143 50.1292366,49.0557143 C50.1292366,49.0557143 54.6273741,71.2248762 57.6391108,83.5466813 C60.6508475,95.8684864 70.4658605,81.9358355 72.9092647,78.3287896 C75.3526689,74.7217437 70.2501058,60.9142368 72.2702726,61.9476054 C74.2904395,62.980974 78.3891749,71.5794605 78.249467,76.7278108 C78.1097591,81.8761612 74.0689169,87.1414327 70.286878,90.4962283 C69.2034087,91.457302 64.5396859,95.9805745 62.4250619,96.9735057 C59.4614214,98.3650963 70.0845687,114.661455 66.9796934,125.237086 C64.3884573,134.06319 33.0436301,166.154602 22.7438003,176.530816" id="Right-Antler" fill="#423636" transform="translate(54.159895, 94.182552) scale(-1, 1) rotate(13.000000) translate(-54.159895, -94.182552) "></path>
                <path d="M86.8053095,159 L100,159 L100,172 C100,172 87.0727506,172.055497 79,172 C80.5948671,161.20598 86.8053095,159 86.8053095,159 Z" id="Rectangle-5" fill="#FADAA8"></path>
                <g id="Crown" transform="translate(93.000000, 61.000000)">
                    <path d="M38.2236759,111.428586 C23.0260272,111.400189 11.0200629,111.411535 5.21172213,111.320537 C-0.765755255,110.882891 -0.681160467,106.513299 2.23447539,104.805288 C2.29355771,104.675985 2.4982512,104.554262 2.84077689,104.439826 L0.612980888,50.5750848 L52.3949819,86.7464103 L103.928431,0.922910638 L154.639122,86.38489 L186.323135,48.3231651 L184.081679,103.519312 C184.089249,108.882608 181.09848,111.889719 178.852371,112.286806 C175.783778,112.829299 186.94052,112.861847 170.530628,112.800027 M140.288361,112.451641 C124.729304,112.262719 110.862825,112.111043 100.93338,111.937551 C89.1671619,111.731967 77.2465484,111.610472 65.9401811,111.536732" fill="#FADAA8"></path>
                    <path d="M182.213774,96.95759 C185.001788,96.95759 185,93.1940975 185,88.1072501 C185,83.0204028 184.277782,77 181.489768,77 C178.701754,77 178,82.5692791 178,87.6561264 C178,92.7429738 179.42576,96.95759 182.213774,96.95759 Z" id="Oval-9" fill="#F2534A" transform="translate(181.500000, 86.978795) rotate(3.000000) translate(-181.500000, -86.978795) "></path>
                    <ellipse id="Oval-9" fill="#F2534A" cx="105.474118" cy="73.3675385" rx="15.8205957" ry="24.2823641"></ellipse>
                    <ellipse id="Oval-9" fill="#F2534A" cx="16.4638274" cy="85.81702" rx="5.85543888" ry="9.21055189"></ellipse>
                </g>
                <ellipse id="Oval-3" fill="#FFFFFF" cx="157.566317" cy="197.004885" rx="17.5663166" ry="36.0048846"></ellipse>
                <ellipse id="Oval-5" fill="#00BEBC" cx="158.364913" cy="200.607718" rx="8.36491269" ry="22.6077183"></ellipse>
                <path d="M250.566317,233.009769 C260.267925,233.009769 268.132633,216.889833 268.132633,197.004885 C268.132633,189.128169 266.898608,181.842208 264.805204,175.914899 C261.613762,166.878582 256.424978,161 250.566317,161 C244.714988,161 239.53186,166.863877 236.339421,175.880987 C234.238739,181.814408 233,189.11314 233,197.004885 C233,216.889833 240.864708,233.009769 250.566317,233.009769 Z" id="Oval-3" fill="#FFFFFF"></path>
                <ellipse id="Oval-5" fill="#00BEBC" cx="252.364913" cy="200.607718" rx="8.36491269" ry="22.6077183"></ellipse>
                <ellipse id="Oval-6" stroke="#4A4A4A" fill="#423636" cx="255.509474" cy="209.535906" rx="2.50947381" ry="7.53590609"></ellipse>
                <ellipse id="Oval-6" stroke="#4A4A4A" fill="#423636" cx="161.509474" cy="209.535906" rx="2.50947381" ry="7.53590609"></ellipse>
                <path d="M185.076774,218.285794 L228.498761,218 C228.498761,218 232.904145,255.635603 207.685361,255.644584 C182.466577,255.653564 185.076774,218.285794 185.076774,218.285794 Z" id="Path-5" fill="#4A4A4A"></path>
                <path d="M189,241.872537 C189,241.872537 204.583263,235.524017 208.696687,245.201301 C209.345058,235.887236 227.117152,239.827785 227.117152,239.827785 C227.117152,239.827785 224.963427,256.156708 208.823533,256.62876 C192.683638,257.100812 189,241.872537 189,241.872537 Z" id="Path-11" fill="#F2534A"></path>
                <rect id="Rectangle-23" fill="#423636" x="75.3279228" y="180" width="52.6699982" height="7" rx="1"></rect>
                <rect id="Rectangle-22" fill="#423636" x="197" y="180" width="21" height="7"></rect>
                <rect id="Rectangle-21" fill-opacity="0.5" fill="#D8D8D8" x="222" y="171" width="62" height="45"></rect>
                <rect id="Rectangle-21" fill-opacity="0.5" fill="#D8D8D8" x="132" y="171" width="62" height="45"></rect>
                <path d="M127,179.000263 C127,174.029555 131.025312,170 136.00958,170 L189.99042,170 C194.966274,170 199,174.030467 199,179.000263 L199,208.999737 C199,213.970445 194.974688,218 189.99042,218 L136.00958,218 C131.033726,218 127,213.969533 127,208.999737 L127,179.000263 Z M132,183.001707 C132,178.030202 136.020222,174 140.998761,174 L185.001239,174 C189.971117,174 194,178.037 194,183.001707 L194,204.998293 C194,209.969798 189.979778,214 185.001239,214 L140.998761,214 C136.028883,214 132,209.963 132,204.998293 L132,183.001707 Z" id="Combined-Shape" fill="#423636"></path>
                <path d="M217,179.000263 C217,174.029555 221.025312,170 226.00958,170 L279.99042,170 C284.966274,170 289,174.030467 289,179.000263 L289,208.999737 C289,213.970445 284.974688,218 279.99042,218 L226.00958,218 C221.033726,218 217,213.969533 217,208.999737 L217,179.000263 Z M222,183.001707 C222,178.030202 226.020222,174 230.998761,174 L275.001239,174 C279.971117,174 284,178.037 284,183.001707 L284,204.998293 C284,209.969798 279.979778,214 275.001239,214 L230.998761,214 C226.028883,214 222,209.963 222,204.998293 L222,183.001707 Z" id="Combined-Shape" fill="#423636"></path>
            </g>
        </g>
    </g>
</svg>