<?xml version="1.0" encoding="UTF-8" standalone="no"?>
<svg width="1496px" height="1025px" viewBox="0 0 1496 1025" version="1.1" xmlns="http://www.w3.org/2000/svg" xmlns:xlink="http://www.w3.org/1999/xlink">
    <!-- Generator: Sketch 41.2 (35397) - http://www.bohemiancoding.com/sketch -->
    <title>Group 12</title>
    <desc>Created with Sketch.</desc>
    <defs>
        <rect id="path-1" x="0" y="0" width="1496" height="1025"></rect>
    </defs>
    <g id="Long-Scroll" stroke="none" stroke-width="1" fill="none" fill-rule="evenodd">
        <g id="Group-12">
            <mask id="mask-2" fill="white">
                <use xlink:href="#path-1"></use>
            </mask>
            <use id="Mask" fill="#FAFAFA" xlink:href="#path-1"></use>
            <g mask="url(#mask-2)" id="Group-7">
                <g transform="translate(-4.000000, -64.000000)">
                    <g transform="translate(190.000000, 0.000000)">
                        <g id="Group" transform="translate(23.781344, 0.000000)" fill="#00BEBC">
                            <path d="M23.8532021,56.1767235 C28.0555383,49.9286413 27.4066963,17.5686887 63.1217943,17.5686887 C98.8368923,17.5686887 98.831193,47.4364412 102.100032,56.1767223 C105.368872,64.9170034 122.495757,72.3628818 123.899915,113.085684 C123.637917,134.719678 112.543207,138.891491 107.588852,149.304666 C101.720936,161.63798 109.376438,182.983978 95.0643062,183.355393 C80.7521739,183.726808 76.4049067,165.533047 69.6965868,158.64894 C67.4079742,156.300357 59.8256437,152.881375 55.2733431,158.053368 C50.7210425,163.225361 55.8844559,185.750774 41.4285324,184.881957 C26.9726088,184.013141 21.7393553,163.811133 16.0248652,151.362991 C11.0945123,140.622972 1.10652204,140.821026 0.0604458018,113.085684 C-0.335958069,80.019529 19.6508659,62.4248058 23.8532021,56.1767235 Z" id="Path-22"></path>
                        </g>
                        <path d="M141.519117,94.1515691 C154.114222,94.1515691 150.830519,54.9984294 151.872463,28.0346757 C146.25971,0.0792273501 146.822114,35.2001893 141.519117,35.3901358 C136.4006,35.5734744 137.067945,36.9152775 131.094336,40.5145199 C127.668695,58.3164408 128.924012,94.1515691 141.519117,94.1515691 Z" id="Oval-28" fill="#00BEBC" transform="translate(140.663667, 55.692832) scale(-1, 1) rotate(156.000000) translate(-140.663667, -55.692832) "></path>
                        <path d="M32.1915785,87.986476 C44.7866835,87.986476 41.5029807,48.8333363 42.5449242,21.8695826 C40.7076814,12.7188238 38.2965474,20.3714283 37.3603101,21.3001988 C35.4363546,23.2088099 35.7587266,29.0972721 32.1915789,29.2250427 C27.0730615,29.4083813 27.7404064,30.7501844 21.7667974,34.3494268 C18.3411566,52.1513477 19.5964736,87.986476 32.1915785,87.986476 Z" id="Oval-28" fill="#00BEBC" transform="translate(31.336128, 52.703885) scale(-1, 1) rotate(-142.000000) translate(-31.336128, -52.703885) "></path>
                    </g>
                    <g transform="translate(570.000000, 0.000000)">
                        <g id="Group" transform="translate(23.781344, 0.000000)" fill="#00BEBC">
                            <path d="M23.8532021,56.1767235 C28.0555383,49.9286413 27.4066963,17.5686887 63.1217943,17.5686887 C98.8368923,17.5686887 98.831193,47.4364412 102.100032,56.1767223 C105.368872,64.9170034 122.495757,72.3628818 123.899915,113.085684 C123.637917,134.719678 112.543207,138.891491 107.588852,149.304666 C101.720936,161.63798 109.376438,182.983978 95.0643062,183.355393 C80.7521739,183.726808 76.4049067,165.533047 69.6965868,158.64894 C67.4079742,156.300357 59.8256437,152.881375 55.2733431,158.053368 C50.7210425,163.225361 55.8844559,185.750774 41.4285324,184.881957 C26.9726088,184.013141 21.7393553,163.811133 16.0248652,151.362991 C11.0945123,140.622972 1.10652204,140.821026 0.0604458018,113.085684 C-0.335958069,80.019529 19.6508659,62.4248058 23.8532021,56.1767235 Z" id="Path-22"></path>
                        </g>
                        <path d="M141.519117,94.1515691 C154.114222,94.1515691 150.830519,54.9984294 151.872463,28.0346757 C146.25971,0.0792273501 146.822114,35.2001893 141.519117,35.3901358 C136.4006,35.5734744 137.067945,36.9152775 131.094336,40.5145199 C127.668695,58.3164408 128.924012,94.1515691 141.519117,94.1515691 Z" id="Oval-28" fill="#00BEBC" transform="translate(140.663667, 55.692832) scale(-1, 1) rotate(156.000000) translate(-140.663667, -55.692832) "></path>
                        <path d="M32.1915785,87.986476 C44.7866835,87.986476 41.5029807,48.8333363 42.5449242,21.8695826 C40.7076814,12.7188238 38.2965474,20.3714283 37.3603101,21.3001988 C35.4363546,23.2088099 35.7587266,29.0972721 32.1915789,29.2250427 C27.0730615,29.4083813 27.7404064,30.7501844 21.7667974,34.3494268 C18.3411566,52.1513477 19.5964736,87.986476 32.1915785,87.986476 Z" id="Oval-28" fill="#00BEBC" transform="translate(31.336128, 52.703885) scale(-1, 1) rotate(-142.000000) translate(-31.336128, -52.703885) "></path>
                    </g>
                    <g transform="translate(950.000000, 0.000000)">
                        <g id="Group" transform="translate(23.781344, 0.000000)" fill="#00BEBC">
                            <path d="M23.8532021,56.1767235 C28.0555383,49.9286413 27.4066963,17.5686887 63.1217943,17.5686887 C98.8368923,17.5686887 98.831193,47.4364412 102.100032,56.1767223 C105.368872,64.9170034 122.495757,72.3628818 123.899915,113.085684 C123.637917,134.719678 112.543207,138.891491 107.588852,149.304666 C101.720936,161.63798 109.376438,182.983978 95.0643062,183.355393 C80.7521739,183.726808 76.4049067,165.533047 69.6965868,158.64894 C67.4079742,156.300357 59.8256437,152.881375 55.2733431,158.053368 C50.7210425,163.225361 55.8844559,185.750774 41.4285324,184.881957 C26.9726088,184.013141 21.7393553,163.811133 16.0248652,151.362991 C11.0945123,140.622972 1.10652204,140.821026 0.0604458018,113.085684 C-0.335958069,80.019529 19.6508659,62.4248058 23.8532021,56.1767235 Z" id="Path-22"></path>
                        </g>
                        <path d="M141.519117,94.1515691 C154.114222,94.1515691 150.830519,54.9984294 151.872463,28.0346757 C146.25971,0.0792273501 146.822114,35.2001893 141.519117,35.3901358 C136.4006,35.5734744 137.067945,36.9152775 131.094336,40.5145199 C127.668695,58.3164408 128.924012,94.1515691 141.519117,94.1515691 Z" id="Oval-28" fill="#00BEBC" transform="translate(140.663667, 55.692832) scale(-1, 1) rotate(156.000000) translate(-140.663667, -55.692832) "></path>
                        <path d="M32.1915785,87.986476 C44.7866835,87.986476 41.5029807,48.8333363 42.5449242,21.8695826 C40.7076814,12.7188238 38.2965474,20.3714283 37.3603101,21.3001988 C35.4363546,23.2088099 35.7587266,29.0972721 32.1915789,29.2250427 C27.0730615,29.4083813 27.7404064,30.7501844 21.7667974,34.3494268 C18.3411566,52.1513477 19.5964736,87.986476 32.1915785,87.986476 Z" id="Oval-28" fill="#00BEBC" transform="translate(31.336128, 52.703885) scale(-1, 1) rotate(-142.000000) translate(-31.336128, -52.703885) "></path>
                    </g>
                    <g transform="translate(1330.000000, 0.000000)">
                        <g id="Group" transform="translate(23.781344, 0.000000)" fill="#00BEBC">
                            <path d="M23.8532021,56.1767235 C28.0555383,49.9286413 27.4066963,17.5686887 63.1217943,17.5686887 C98.8368923,17.5686887 98.831193,47.4364412 102.100032,56.1767223 C105.368872,64.9170034 122.495757,72.3628818 123.899915,113.085684 C123.637917,134.719678 112.543207,138.891491 107.588852,149.304666 C101.720936,161.63798 109.376438,182.983978 95.0643062,183.355393 C80.7521739,183.726808 76.4049067,165.533047 69.6965868,158.64894 C67.4079742,156.300357 59.8256437,152.881375 55.2733431,158.053368 C50.7210425,163.225361 55.8844559,185.750774 41.4285324,184.881957 C26.9726088,184.013141 21.7393553,163.811133 16.0248652,151.362991 C11.0945123,140.622972 1.10652204,140.821026 0.0604458018,113.085684 C-0.335958069,80.019529 19.6508659,62.4248058 23.8532021,56.1767235 Z" id="Path-22"></path>
                        </g>
                        <path d="M141.519117,94.1515691 C154.114222,94.1515691 150.830519,54.9984294 151.872463,28.0346757 C146.25971,0.0792273501 146.822114,35.2001893 141.519117,35.3901358 C136.4006,35.5734744 137.067945,36.9152775 131.094336,40.5145199 C127.668695,58.3164408 128.924012,94.1515691 141.519117,94.1515691 Z" id="Oval-28" fill="#00BEBC" transform="translate(140.663667, 55.692832) scale(-1, 1) rotate(156.000000) translate(-140.663667, -55.692832) "></path>
                        <path d="M32.1915785,87.986476 C44.7866835,87.986476 41.5029807,48.8333363 42.5449242,21.8695826 C40.7076814,12.7188238 38.2965474,20.3714283 37.3603101,21.3001988 C35.4363546,23.2088099 35.7587266,29.0972721 32.1915789,29.2250427 C27.0730615,29.4083813 27.7404064,30.7501844 21.7667974,34.3494268 C18.3411566,52.1513477 19.5964736,87.986476 32.1915785,87.986476 Z" id="Oval-28" fill="#00BEBC" transform="translate(31.336128, 52.703885) scale(-1, 1) rotate(-142.000000) translate(-31.336128, -52.703885) "></path>
                    </g>
                    <g transform="translate(0.000000, 190.000000)">
                        <g id="Group" transform="translate(23.781344, 0.000000)">
                            <path d="M41.0340876,24.1744401 C41.0340876,24.1744401 27.9389113,25.8887403 24.1746278,23.1734298 C22.8979099,22.2524881 22.0083541,21.4331624 22.0052288,17.1633262 C22.0022562,13.1020285 21.9084952,10.0888518 23.7029837,9.0185105 C25.8031514,7.76584364 30.7073685,8.01249835 32.6898239,10.1056702 C33.9654056,11.4524909 33.1175881,13.1868617 32.6898238,17.163326 C32.6898238,18.369144 28.2817474,17.6545751 27.0538909,17.1633262 C25.8260344,16.6720774 24.9180222,13.1883984 24.8664531,13.3463366 C24.1753209,15.4630338 24.1340389,17.5512528 25.9492289,18.3691442 C27.7644189,19.1870356 35.0349581,22.1422038 35.8905459,18.7183746 C36.9291444,14.5621868 37.3128509,8.6119818 35.8905451,6.77978043 C34.4682393,4.94757906 26.6162351,1.23118741 18.6453968,5.29059506 C15.8294535,6.76162207 11.1491454,22.1537502 12.1580137,26.1951161 C13.7109177,29.5381584 16.3991515,31.0642731 23.7029835,33.1484912 C31.0068155,35.2327093 37.8345372,33.5385131 37.8345372,33.5385131 L41.0340876,24.1744401 Z" id="Path-44" fill="#FFD086" transform="translate(26.526065, 18.826451) rotate(16.000000) translate(-26.526065, -18.826451) "></path>
                            <path d="M115.421443,24.1744401 C115.421443,24.1744401 102.326267,25.8887403 98.561983,23.1734298 C97.2852651,22.2524881 96.3957093,21.4331624 96.392584,17.1633262 C96.3896113,13.1020285 96.2958504,10.0888518 98.0903389,9.0185105 C100.190507,7.76584364 105.094724,8.01249835 107.077179,10.1056702 C108.352761,11.4524909 107.504943,13.1868617 107.077179,17.163326 C107.077179,18.369144 102.669103,17.6545751 101.441246,17.1633262 C100.21339,16.6720774 99.3053774,13.1883984 99.2538083,13.3463366 C98.562676,15.4630338 98.5213941,17.5512528 100.336584,18.3691442 C102.151774,19.1870356 109.422313,22.1422038 110.277901,18.7183746 C111.3165,14.5621868 111.700206,8.6119818 110.2779,6.77978043 C108.855594,4.94757906 101.00359,1.23118741 93.032752,5.29059506 C90.2168086,6.76162207 85.5365006,22.1537502 86.5453689,26.1951161 C88.0982729,29.5381584 90.7865066,31.0642731 98.0903386,33.1484912 C105.394171,35.2327093 112.221892,33.5385131 112.221892,33.5385131 L115.421443,24.1744401 Z" id="Path-44" fill="#FFD086" transform="translate(100.913420, 18.826451) scale(-1, 1) rotate(16.000000) translate(-100.913420, -18.826451) "></path>
                            <path d="M23.8532021,56.1767235 C28.0555383,49.9286413 27.4066963,17.5686887 63.1217943,17.5686887 C98.8368923,17.5686887 98.831193,47.4364412 102.100032,56.1767223 C105.368872,64.9170034 122.495757,72.3628818 123.899915,113.085684 C123.637917,134.719678 112.543207,138.891491 107.588852,149.304666 C101.720936,161.63798 109.376438,182.983978 95.0643062,183.355393 C80.7521739,183.726808 76.4049067,165.533047 69.6965868,158.64894 C67.4079742,156.300357 59.8256437,152.881375 55.2733431,158.053368 C50.7210425,163.225361 55.8844559,185.750774 41.4285324,184.881957 C26.9726088,184.013141 21.7393553,163.811133 16.0248652,151.362991 C11.0945123,140.622972 1.10652204,140.821026 0.0604458018,113.085684 C-0.335958069,80.019529 19.6508659,62.4248058 23.8532021,56.1767235 Z" id="Path-22" fill="#00BEBC"></path>
                        </g>
                        <path d="M141.519117,94.1515691 C154.114222,94.1515691 150.830519,54.9984294 151.872463,28.0346757 C146.25971,0.0792273501 146.822114,35.2001893 141.519117,35.3901358 C136.4006,35.5734744 137.067945,36.9152775 131.094336,40.5145199 C127.668695,58.3164408 128.924012,94.1515691 141.519117,94.1515691 Z" id="Oval-28" fill="#00BEBC" transform="translate(140.663667, 55.692832) scale(-1, 1) rotate(156.000000) translate(-140.663667, -55.692832) "></path>
                        <path d="M32.1915785,87.986476 C44.7866835,87.986476 41.5029807,48.8333363 42.5449242,21.8695826 C40.7076814,12.7188238 38.2965474,20.3714283 37.3603101,21.3001988 C35.4363546,23.2088099 35.7587266,29.0972721 32.1915789,29.2250427 C27.0730615,29.4083813 27.7404064,30.7501844 21.7667974,34.3494268 C18.3411566,52.1513477 19.5964736,87.986476 32.1915785,87.986476 Z" id="Oval-28" fill="#00BEBC" transform="translate(31.336128, 52.703885) scale(-1, 1) rotate(-142.000000) translate(-31.336128, -52.703885) "></path>
                    </g>
                    <g transform="translate(380.000000, 190.000000)">
                        <g id="Group" transform="translate(23.781344, 0.000000)">
                            <path d="M41.0340876,24.1744401 C41.0340876,24.1744401 27.9389113,25.8887403 24.1746278,23.1734298 C22.8979099,22.2524881 22.0083541,21.4331624 22.0052288,17.1633262 C22.0022562,13.1020285 21.9084952,10.0888518 23.7029837,9.0185105 C25.8031514,7.76584364 30.7073685,8.01249835 32.6898239,10.1056702 C33.9654056,11.4524909 33.1175881,13.1868617 32.6898238,17.163326 C32.6898238,18.369144 28.2817474,17.6545751 27.0538909,17.1633262 C25.8260344,16.6720774 24.9180222,13.1883984 24.8664531,13.3463366 C24.1753209,15.4630338 24.1340389,17.5512528 25.9492289,18.3691442 C27.7644189,19.1870356 35.0349581,22.1422038 35.8905459,18.7183746 C36.9291444,14.5621868 37.3128509,8.6119818 35.8905451,6.77978043 C34.4682393,4.94757906 26.6162351,1.23118741 18.6453968,5.29059506 C15.8294535,6.76162207 11.1491454,22.1537502 12.1580137,26.1951161 C13.7109177,29.5381584 16.3991515,31.0642731 23.7029835,33.1484912 C31.0068155,35.2327093 37.8345372,33.5385131 37.8345372,33.5385131 L41.0340876,24.1744401 Z" id="Path-44" fill="#FFD086" transform="translate(26.526065, 18.826451) rotate(16.000000) translate(-26.526065, -18.826451) "></path>
                            <path d="M115.421443,24.1744401 C115.421443,24.1744401 102.326267,25.8887403 98.561983,23.1734298 C97.2852651,22.2524881 96.3957093,21.4331624 96.392584,17.1633262 C96.3896113,13.1020285 96.2958504,10.0888518 98.0903389,9.0185105 C100.190507,7.76584364 105.094724,8.01249835 107.077179,10.1056702 C108.352761,11.4524909 107.504943,13.1868617 107.077179,17.163326 C107.077179,18.369144 102.669103,17.6545751 101.441246,17.1633262 C100.21339,16.6720774 99.3053774,13.1883984 99.2538083,13.3463366 C98.562676,15.4630338 98.5213941,17.5512528 100.336584,18.3691442 C102.151774,19.1870356 109.422313,22.1422038 110.277901,18.7183746 C111.3165,14.5621868 111.700206,8.6119818 110.2779,6.77978043 C108.855594,4.94757906 101.00359,1.23118741 93.032752,5.29059506 C90.2168086,6.76162207 85.5365006,22.1537502 86.5453689,26.1951161 C88.0982729,29.5381584 90.7865066,31.0642731 98.0903386,33.1484912 C105.394171,35.2327093 112.221892,33.5385131 112.221892,33.5385131 L115.421443,24.1744401 Z" id="Path-44" fill="#FFD086" transform="translate(100.913420, 18.826451) scale(-1, 1) rotate(16.000000) translate(-100.913420, -18.826451) "></path>
                            <path d="M23.8532021,56.1767235 C28.0555383,49.9286413 27.4066963,17.5686887 63.1217943,17.5686887 C98.8368923,17.5686887 98.831193,47.4364412 102.100032,56.1767223 C105.368872,64.9170034 122.495757,72.3628818 123.899915,113.085684 C123.637917,134.719678 112.543207,138.891491 107.588852,149.304666 C101.720936,161.63798 109.376438,182.983978 95.0643062,183.355393 C80.7521739,183.726808 76.4049067,165.533047 69.6965868,158.64894 C67.4079742,156.300357 59.8256437,152.881375 55.2733431,158.053368 C50.7210425,163.225361 55.8844559,185.750774 41.4285324,184.881957 C26.9726088,184.013141 21.7393553,163.811133 16.0248652,151.362991 C11.0945123,140.622972 1.10652204,140.821026 0.0604458018,113.085684 C-0.335958069,80.019529 19.6508659,62.4248058 23.8532021,56.1767235 Z" id="Path-22" fill="#00BEBC"></path>
                        </g>
                        <path d="M141.519117,94.1515691 C154.114222,94.1515691 150.830519,54.9984294 151.872463,28.0346757 C146.25971,0.0792273501 146.822114,35.2001893 141.519117,35.3901358 C136.4006,35.5734744 137.067945,36.9152775 131.094336,40.5145199 C127.668695,58.3164408 128.924012,94.1515691 141.519117,94.1515691 Z" id="Oval-28" fill="#00BEBC" transform="translate(140.663667, 55.692832) scale(-1, 1) rotate(156.000000) translate(-140.663667, -55.692832) "></path>
                        <path d="M32.1915785,87.986476 C44.7866835,87.986476 41.5029807,48.8333363 42.5449242,21.8695826 C40.7076814,12.7188238 38.2965474,20.3714283 37.3603101,21.3001988 C35.4363546,23.2088099 35.7587266,29.0972721 32.1915789,29.2250427 C27.0730615,29.4083813 27.7404064,30.7501844 21.7667974,34.3494268 C18.3411566,52.1513477 19.5964736,87.986476 32.1915785,87.986476 Z" id="Oval-28" fill="#00BEBC" transform="translate(31.336128, 52.703885) scale(-1, 1) rotate(-142.000000) translate(-31.336128, -52.703885) "></path>
                    </g>
                    <g transform="translate(760.000000, 190.000000)">
                        <g id="Group" transform="translate(23.781344, 0.000000)">
                            <path d="M41.0340876,24.1744401 C41.0340876,24.1744401 27.9389113,25.8887403 24.1746278,23.1734298 C22.8979099,22.2524881 22.0083541,21.4331624 22.0052288,17.1633262 C22.0022562,13.1020285 21.9084952,10.0888518 23.7029837,9.0185105 C25.8031514,7.76584364 30.7073685,8.01249835 32.6898239,10.1056702 C33.9654056,11.4524909 33.1175881,13.1868617 32.6898238,17.163326 C32.6898238,18.369144 28.2817474,17.6545751 27.0538909,17.1633262 C25.8260344,16.6720774 24.9180222,13.1883984 24.8664531,13.3463366 C24.1753209,15.4630338 24.1340389,17.5512528 25.9492289,18.3691442 C27.7644189,19.1870356 35.0349581,22.1422038 35.8905459,18.7183746 C36.9291444,14.5621868 37.3128509,8.6119818 35.8905451,6.77978043 C34.4682393,4.94757906 26.6162351,1.23118741 18.6453968,5.29059506 C15.8294535,6.76162207 11.1491454,22.1537502 12.1580137,26.1951161 C13.7109177,29.5381584 16.3991515,31.0642731 23.7029835,33.1484912 C31.0068155,35.2327093 37.8345372,33.5385131 37.8345372,33.5385131 L41.0340876,24.1744401 Z" id="Path-44" fill="#FFD086" transform="translate(26.526065, 18.826451) rotate(16.000000) translate(-26.526065, -18.826451) "></path>
                            <path d="M115.421443,24.1744401 C115.421443,24.1744401 102.326267,25.8887403 98.561983,23.1734298 C97.2852651,22.2524881 96.3957093,21.4331624 96.392584,17.1633262 C96.3896113,13.1020285 96.2958504,10.0888518 98.0903389,9.0185105 C100.190507,7.76584364 105.094724,8.01249835 107.077179,10.1056702 C108.352761,11.4524909 107.504943,13.1868617 107.077179,17.163326 C107.077179,18.369144 102.669103,17.6545751 101.441246,17.1633262 C100.21339,16.6720774 99.3053774,13.1883984 99.2538083,13.3463366 C98.562676,15.4630338 98.5213941,17.5512528 100.336584,18.3691442 C102.151774,19.1870356 109.422313,22.1422038 110.277901,18.7183746 C111.3165,14.5621868 111.700206,8.6119818 110.2779,6.77978043 C108.855594,4.94757906 101.00359,1.23118741 93.032752,5.29059506 C90.2168086,6.76162207 85.5365006,22.1537502 86.5453689,26.1951161 C88.0982729,29.5381584 90.7865066,31.0642731 98.0903386,33.1484912 C105.394171,35.2327093 112.221892,33.5385131 112.221892,33.5385131 L115.421443,24.1744401 Z" id="Path-44" fill="#FFD086" transform="translate(100.913420, 18.826451) scale(-1, 1) rotate(16.000000) translate(-100.913420, -18.826451) "></path>
                            <path d="M23.8532021,56.1767235 C28.0555383,49.9286413 27.4066963,17.5686887 63.1217943,17.5686887 C98.8368923,17.5686887 98.831193,47.4364412 102.100032,56.1767223 C105.368872,64.9170034 122.495757,72.3628818 123.899915,113.085684 C123.637917,134.719678 112.543207,138.891491 107.588852,149.304666 C101.720936,161.63798 109.376438,182.983978 95.0643062,183.355393 C80.7521739,183.726808 76.4049067,165.533047 69.6965868,158.64894 C67.4079742,156.300357 59.8256437,152.881375 55.2733431,158.053368 C50.7210425,163.225361 55.8844559,185.750774 41.4285324,184.881957 C26.9726088,184.013141 21.7393553,163.811133 16.0248652,151.362991 C11.0945123,140.622972 1.10652204,140.821026 0.0604458018,113.085684 C-0.335958069,80.019529 19.6508659,62.4248058 23.8532021,56.1767235 Z" id="Path-22" fill="#00BEBC"></path>
                        </g>
                        <path d="M141.519117,94.1515691 C154.114222,94.1515691 150.830519,54.9984294 151.872463,28.0346757 C146.25971,0.0792273501 146.822114,35.2001893 141.519117,35.3901358 C136.4006,35.5734744 137.067945,36.9152775 131.094336,40.5145199 C127.668695,58.3164408 128.924012,94.1515691 141.519117,94.1515691 Z" id="Oval-28" fill="#00BEBC" transform="translate(140.663667, 55.692832) scale(-1, 1) rotate(156.000000) translate(-140.663667, -55.692832) "></path>
                        <path d="M32.1915785,87.986476 C44.7866835,87.986476 41.5029807,48.8333363 42.5449242,21.8695826 C40.7076814,12.7188238 38.2965474,20.3714283 37.3603101,21.3001988 C35.4363546,23.2088099 35.7587266,29.0972721 32.1915789,29.2250427 C27.0730615,29.4083813 27.7404064,30.7501844 21.7667974,34.3494268 C18.3411566,52.1513477 19.5964736,87.986476 32.1915785,87.986476 Z" id="Oval-28" fill="#00BEBC" transform="translate(31.336128, 52.703885) scale(-1, 1) rotate(-142.000000) translate(-31.336128, -52.703885) "></path>
                    </g>
                    <g transform="translate(1140.000000, 190.000000)">
                        <g id="Group" transform="translate(23.781344, 0.000000)">
                            <path d="M41.0340876,24.1744401 C41.0340876,24.1744401 27.9389113,25.8887403 24.1746278,23.1734298 C22.8979099,22.2524881 22.0083541,21.4331624 22.0052288,17.1633262 C22.0022562,13.1020285 21.9084952,10.0888518 23.7029837,9.0185105 C25.8031514,7.76584364 30.7073685,8.01249835 32.6898239,10.1056702 C33.9654056,11.4524909 33.1175881,13.1868617 32.6898238,17.163326 C32.6898238,18.369144 28.2817474,17.6545751 27.0538909,17.1633262 C25.8260344,16.6720774 24.9180222,13.1883984 24.8664531,13.3463366 C24.1753209,15.4630338 24.1340389,17.5512528 25.9492289,18.3691442 C27.7644189,19.1870356 35.0349581,22.1422038 35.8905459,18.7183746 C36.9291444,14.5621868 37.3128509,8.6119818 35.8905451,6.77978043 C34.4682393,4.94757906 26.6162351,1.23118741 18.6453968,5.29059506 C15.8294535,6.76162207 11.1491454,22.1537502 12.1580137,26.1951161 C13.7109177,29.5381584 16.3991515,31.0642731 23.7029835,33.1484912 C31.0068155,35.2327093 37.8345372,33.5385131 37.8345372,33.5385131 L41.0340876,24.1744401 Z" id="Path-44" fill="#FFD086" transform="translate(26.526065, 18.826451) rotate(16.000000) translate(-26.526065, -18.826451) "></path>
                            <path d="M115.421443,24.1744401 C115.421443,24.1744401 102.326267,25.8887403 98.561983,23.1734298 C97.2852651,22.2524881 96.3957093,21.4331624 96.392584,17.1633262 C96.3896113,13.1020285 96.2958504,10.0888518 98.0903389,9.0185105 C100.190507,7.76584364 105.094724,8.01249835 107.077179,10.1056702 C108.352761,11.4524909 107.504943,13.1868617 107.077179,17.163326 C107.077179,18.369144 102.669103,17.6545751 101.441246,17.1633262 C100.21339,16.6720774 99.3053774,13.1883984 99.2538083,13.3463366 C98.562676,15.4630338 98.5213941,17.5512528 100.336584,18.3691442 C102.151774,19.1870356 109.422313,22.1422038 110.277901,18.7183746 C111.3165,14.5621868 111.700206,8.6119818 110.2779,6.77978043 C108.855594,4.94757906 101.00359,1.23118741 93.032752,5.29059506 C90.2168086,6.76162207 85.5365006,22.1537502 86.5453689,26.1951161 C88.0982729,29.5381584 90.7865066,31.0642731 98.0903386,33.1484912 C105.394171,35.2327093 112.221892,33.5385131 112.221892,33.5385131 L115.421443,24.1744401 Z" id="Path-44" fill="#FFD086" transform="translate(100.913420, 18.826451) scale(-1, 1) rotate(16.000000) translate(-100.913420, -18.826451) "></path>
                            <path d="M23.8532021,56.1767235 C28.0555383,49.9286413 27.4066963,17.5686887 63.1217943,17.5686887 C98.8368923,17.5686887 98.831193,47.4364412 102.100032,56.1767223 C105.368872,64.9170034 122.495757,72.3628818 123.899915,113.085684 C123.637917,134.719678 112.543207,138.891491 107.588852,149.304666 C101.720936,161.63798 109.376438,182.983978 95.0643062,183.355393 C80.7521739,183.726808 76.4049067,165.533047 69.6965868,158.64894 C67.4079742,156.300357 59.8256437,152.881375 55.2733431,158.053368 C50.7210425,163.225361 55.8844559,185.750774 41.4285324,184.881957 C26.9726088,184.013141 21.7393553,163.811133 16.0248652,151.362991 C11.0945123,140.622972 1.10652204,140.821026 0.0604458018,113.085684 C-0.335958069,80.019529 19.6508659,62.4248058 23.8532021,56.1767235 Z" id="Path-22" fill="#00BEBC"></path>
                        </g>
                        <path d="M141.519117,94.1515691 C154.114222,94.1515691 150.830519,54.9984294 151.872463,28.0346757 C146.25971,0.0792273501 146.822114,35.2001893 141.519117,35.3901358 C136.4006,35.5734744 137.067945,36.9152775 131.094336,40.5145199 C127.668695,58.3164408 128.924012,94.1515691 141.519117,94.1515691 Z" id="Oval-28" fill="#00BEBC" transform="translate(140.663667, 55.692832) scale(-1, 1) rotate(156.000000) translate(-140.663667, -55.692832) "></path>
                        <path d="M32.1915785,87.986476 C44.7866835,87.986476 41.5029807,48.8333363 42.5449242,21.8695826 C40.7076814,12.7188238 38.2965474,20.3714283 37.3603101,21.3001988 C35.4363546,23.2088099 35.7587266,29.0972721 32.1915789,29.2250427 C27.0730615,29.4083813 27.7404064,30.7501844 21.7667974,34.3494268 C18.3411566,52.1513477 19.5964736,87.986476 32.1915785,87.986476 Z" id="Oval-28" fill="#00BEBC" transform="translate(31.336128, 52.703885) scale(-1, 1) rotate(-142.000000) translate(-31.336128, -52.703885) "></path>
                    </g>
                    <g transform="translate(190.000000, 380.000000)">
                        <g id="Group" transform="translate(23.781344, 0.000000)">
                            <path d="M41.0340876,24.1744401 C41.0340876,24.1744401 27.9389113,25.8887403 24.1746278,23.1734298 C22.8979099,22.2524881 22.0083541,21.4331624 22.0052288,17.1633262 C22.0022562,13.1020285 21.9084952,10.0888518 23.7029837,9.0185105 C25.8031514,7.76584364 30.7073685,8.01249835 32.6898239,10.1056702 C33.9654056,11.4524909 33.1175881,13.1868617 32.6898238,17.163326 C32.6898238,18.369144 28.2817474,17.6545751 27.0538909,17.1633262 C25.8260344,16.6720774 24.9180222,13.1883984 24.8664531,13.3463366 C24.1753209,15.4630338 24.1340389,17.5512528 25.9492289,18.3691442 C27.7644189,19.1870356 35.0349581,22.1422038 35.8905459,18.7183746 C36.9291444,14.5621868 37.3128509,8.6119818 35.8905451,6.77978043 C34.4682393,4.94757906 26.6162351,1.23118741 18.6453968,5.29059506 C15.8294535,6.76162207 11.1491454,22.1537502 12.1580137,26.1951161 C13.7109177,29.5381584 16.3991515,31.0642731 23.7029835,33.1484912 C31.0068155,35.2327093 37.8345372,33.5385131 37.8345372,33.5385131 L41.0340876,24.1744401 Z" id="Path-44" fill="#FFD086" transform="translate(26.526065, 18.826451) rotate(16.000000) translate(-26.526065, -18.826451) "></path>
                            <path d="M115.421443,24.1744401 C115.421443,24.1744401 102.326267,25.8887403 98.561983,23.1734298 C97.2852651,22.2524881 96.3957093,21.4331624 96.392584,17.1633262 C96.3896113,13.1020285 96.2958504,10.0888518 98.0903389,9.0185105 C100.190507,7.76584364 105.094724,8.01249835 107.077179,10.1056702 C108.352761,11.4524909 107.504943,13.1868617 107.077179,17.163326 C107.077179,18.369144 102.669103,17.6545751 101.441246,17.1633262 C100.21339,16.6720774 99.3053774,13.1883984 99.2538083,13.3463366 C98.562676,15.4630338 98.5213941,17.5512528 100.336584,18.3691442 C102.151774,19.1870356 109.422313,22.1422038 110.277901,18.7183746 C111.3165,14.5621868 111.700206,8.6119818 110.2779,6.77978043 C108.855594,4.94757906 101.00359,1.23118741 93.032752,5.29059506 C90.2168086,6.76162207 85.5365006,22.1537502 86.5453689,26.1951161 C88.0982729,29.5381584 90.7865066,31.0642731 98.0903386,33.1484912 C105.394171,35.2327093 112.221892,33.5385131 112.221892,33.5385131 L115.421443,24.1744401 Z" id="Path-44" fill="#FFD086" transform="translate(100.913420, 18.826451) scale(-1, 1) rotate(16.000000) translate(-100.913420, -18.826451) "></path>
                            <path d="M23.8532021,56.1767235 C28.0555383,49.9286413 27.4066963,17.5686887 63.1217943,17.5686887 C98.8368923,17.5686887 98.831193,47.4364412 102.100032,56.1767223 C105.368872,64.9170034 122.495757,72.3628818 123.899915,113.085684 C123.637917,134.719678 112.543207,138.891491 107.588852,149.304666 C101.720936,161.63798 109.376438,182.983978 95.0643062,183.355393 C80.7521739,183.726808 76.4049067,165.533047 69.6965868,158.64894 C67.4079742,156.300357 59.8256437,152.881375 55.2733431,158.053368 C50.7210425,163.225361 55.8844559,185.750774 41.4285324,184.881957 C26.9726088,184.013141 21.7393553,163.811133 16.0248652,151.362991 C11.0945123,140.622972 1.10652204,140.821026 0.0604458018,113.085684 C-0.335958069,80.019529 19.6508659,62.4248058 23.8532021,56.1767235 Z" id="Path-22" fill="#00BEBC"></path>
                        </g>
                        <path d="M141.519117,94.1515691 C154.114222,94.1515691 150.830519,54.9984294 151.872463,28.0346757 C146.25971,0.0792273501 146.822114,35.2001893 141.519117,35.3901358 C136.4006,35.5734744 137.067945,36.9152775 131.094336,40.5145199 C127.668695,58.3164408 128.924012,94.1515691 141.519117,94.1515691 Z" id="Oval-28" fill="#00BEBC" transform="translate(140.663667, 55.692832) scale(-1, 1) rotate(156.000000) translate(-140.663667, -55.692832) "></path>
                        <path d="M32.1915785,87.986476 C44.7866835,87.986476 41.5029807,48.8333363 42.5449242,21.8695826 C40.7076814,12.7188238 38.2965474,20.3714283 37.3603101,21.3001988 C35.4363546,23.2088099 35.7587266,29.0972721 32.1915789,29.2250427 C27.0730615,29.4083813 27.7404064,30.7501844 21.7667974,34.3494268 C18.3411566,52.1513477 19.5964736,87.986476 32.1915785,87.986476 Z" id="Oval-28" fill="#00BEBC" transform="translate(31.336128, 52.703885) scale(-1, 1) rotate(-142.000000) translate(-31.336128, -52.703885) "></path>
                    </g>
                    <g transform="translate(570.000000, 380.000000)">
                        <g id="Group" transform="translate(23.781344, 0.000000)">
                            <path d="M41.0340876,24.1744401 C41.0340876,24.1744401 27.9389113,25.8887403 24.1746278,23.1734298 C22.8979099,22.2524881 22.0083541,21.4331624 22.0052288,17.1633262 C22.0022562,13.1020285 21.9084952,10.0888518 23.7029837,9.0185105 C25.8031514,7.76584364 30.7073685,8.01249835 32.6898239,10.1056702 C33.9654056,11.4524909 33.1175881,13.1868617 32.6898238,17.163326 C32.6898238,18.369144 28.2817474,17.6545751 27.0538909,17.1633262 C25.8260344,16.6720774 24.9180222,13.1883984 24.8664531,13.3463366 C24.1753209,15.4630338 24.1340389,17.5512528 25.9492289,18.3691442 C27.7644189,19.1870356 35.0349581,22.1422038 35.8905459,18.7183746 C36.9291444,14.5621868 37.3128509,8.6119818 35.8905451,6.77978043 C34.4682393,4.94757906 26.6162351,1.23118741 18.6453968,5.29059506 C15.8294535,6.76162207 11.1491454,22.1537502 12.1580137,26.1951161 C13.7109177,29.5381584 16.3991515,31.0642731 23.7029835,33.1484912 C31.0068155,35.2327093 37.8345372,33.5385131 37.8345372,33.5385131 L41.0340876,24.1744401 Z" id="Path-44" fill="#FFD086" transform="translate(26.526065, 18.826451) rotate(16.000000) translate(-26.526065, -18.826451) "></path>
                            <path d="M115.421443,24.1744401 C115.421443,24.1744401 102.326267,25.8887403 98.561983,23.1734298 C97.2852651,22.2524881 96.3957093,21.4331624 96.392584,17.1633262 C96.3896113,13.1020285 96.2958504,10.0888518 98.0903389,9.0185105 C100.190507,7.76584364 105.094724,8.01249835 107.077179,10.1056702 C108.352761,11.4524909 107.504943,13.1868617 107.077179,17.163326 C107.077179,18.369144 102.669103,17.6545751 101.441246,17.1633262 C100.21339,16.6720774 99.3053774,13.1883984 99.2538083,13.3463366 C98.562676,15.4630338 98.5213941,17.5512528 100.336584,18.3691442 C102.151774,19.1870356 109.422313,22.1422038 110.277901,18.7183746 C111.3165,14.5621868 111.700206,8.6119818 110.2779,6.77978043 C108.855594,4.94757906 101.00359,1.23118741 93.032752,5.29059506 C90.2168086,6.76162207 85.5365006,22.1537502 86.5453689,26.1951161 C88.0982729,29.5381584 90.7865066,31.0642731 98.0903386,33.1484912 C105.394171,35.2327093 112.221892,33.5385131 112.221892,33.5385131 L115.421443,24.1744401 Z" id="Path-44" fill="#FFD086" transform="translate(100.913420, 18.826451) scale(-1, 1) rotate(16.000000) translate(-100.913420, -18.826451) "></path>
                            <path d="M23.8532021,56.1767235 C28.0555383,49.9286413 27.4066963,17.5686887 63.1217943,17.5686887 C98.8368923,17.5686887 98.831193,47.4364412 102.100032,56.1767223 C105.368872,64.9170034 122.495757,72.3628818 123.899915,113.085684 C123.637917,134.719678 112.543207,138.891491 107.588852,149.304666 C101.720936,161.63798 109.376438,182.983978 95.0643062,183.355393 C80.7521739,183.726808 76.4049067,165.533047 69.6965868,158.64894 C67.4079742,156.300357 59.8256437,152.881375 55.2733431,158.053368 C50.7210425,163.225361 55.8844559,185.750774 41.4285324,184.881957 C26.9726088,184.013141 21.7393553,163.811133 16.0248652,151.362991 C11.0945123,140.622972 1.10652204,140.821026 0.0604458018,113.085684 C-0.335958069,80.019529 19.6508659,62.4248058 23.8532021,56.1767235 Z" id="Path-22" fill="#00BEBC"></path>
                        </g>
                        <path d="M141.519117,94.1515691 C154.114222,94.1515691 150.830519,54.9984294 151.872463,28.0346757 C146.25971,0.0792273501 146.822114,35.2001893 141.519117,35.3901358 C136.4006,35.5734744 137.067945,36.9152775 131.094336,40.5145199 C127.668695,58.3164408 128.924012,94.1515691 141.519117,94.1515691 Z" id="Oval-28" fill="#00BEBC" transform="translate(140.663667, 55.692832) scale(-1, 1) rotate(156.000000) translate(-140.663667, -55.692832) "></path>
                        <path d="M32.1915785,87.986476 C44.7866835,87.986476 41.5029807,48.8333363 42.5449242,21.8695826 C40.7076814,12.7188238 38.2965474,20.3714283 37.3603101,21.3001988 C35.4363546,23.2088099 35.7587266,29.0972721 32.1915789,29.2250427 C27.0730615,29.4083813 27.7404064,30.7501844 21.7667974,34.3494268 C18.3411566,52.1513477 19.5964736,87.986476 32.1915785,87.986476 Z" id="Oval-28" fill="#00BEBC" transform="translate(31.336128, 52.703885) scale(-1, 1) rotate(-142.000000) translate(-31.336128, -52.703885) "></path>
                    </g>
                    <g transform="translate(950.000000, 380.000000)">
                        <g id="Group" transform="translate(23.781344, 0.000000)">
                            <path d="M41.0340876,24.1744401 C41.0340876,24.1744401 27.9389113,25.8887403 24.1746278,23.1734298 C22.8979099,22.2524881 22.0083541,21.4331624 22.0052288,17.1633262 C22.0022562,13.1020285 21.9084952,10.0888518 23.7029837,9.0185105 C25.8031514,7.76584364 30.7073685,8.01249835 32.6898239,10.1056702 C33.9654056,11.4524909 33.1175881,13.1868617 32.6898238,17.163326 C32.6898238,18.369144 28.2817474,17.6545751 27.0538909,17.1633262 C25.8260344,16.6720774 24.9180222,13.1883984 24.8664531,13.3463366 C24.1753209,15.4630338 24.1340389,17.5512528 25.9492289,18.3691442 C27.7644189,19.1870356 35.0349581,22.1422038 35.8905459,18.7183746 C36.9291444,14.5621868 37.3128509,8.6119818 35.8905451,6.77978043 C34.4682393,4.94757906 26.6162351,1.23118741 18.6453968,5.29059506 C15.8294535,6.76162207 11.1491454,22.1537502 12.1580137,26.1951161 C13.7109177,29.5381584 16.3991515,31.0642731 23.7029835,33.1484912 C31.0068155,35.2327093 37.8345372,33.5385131 37.8345372,33.5385131 L41.0340876,24.1744401 Z" id="Path-44" fill="#FFD086" transform="translate(26.526065, 18.826451) rotate(16.000000) translate(-26.526065, -18.826451) "></path>
                            <path d="M115.421443,24.1744401 C115.421443,24.1744401 102.326267,25.8887403 98.561983,23.1734298 C97.2852651,22.2524881 96.3957093,21.4331624 96.392584,17.1633262 C96.3896113,13.1020285 96.2958504,10.0888518 98.0903389,9.0185105 C100.190507,7.76584364 105.094724,8.01249835 107.077179,10.1056702 C108.352761,11.4524909 107.504943,13.1868617 107.077179,17.163326 C107.077179,18.369144 102.669103,17.6545751 101.441246,17.1633262 C100.21339,16.6720774 99.3053774,13.1883984 99.2538083,13.3463366 C98.562676,15.4630338 98.5213941,17.5512528 100.336584,18.3691442 C102.151774,19.1870356 109.422313,22.1422038 110.277901,18.7183746 C111.3165,14.5621868 111.700206,8.6119818 110.2779,6.77978043 C108.855594,4.94757906 101.00359,1.23118741 93.032752,5.29059506 C90.2168086,6.76162207 85.5365006,22.1537502 86.5453689,26.1951161 C88.0982729,29.5381584 90.7865066,31.0642731 98.0903386,33.1484912 C105.394171,35.2327093 112.221892,33.5385131 112.221892,33.5385131 L115.421443,24.1744401 Z" id="Path-44" fill="#FFD086" transform="translate(100.913420, 18.826451) scale(-1, 1) rotate(16.000000) translate(-100.913420, -18.826451) "></path>
                            <path d="M23.8532021,56.1767235 C28.0555383,49.9286413 27.4066963,17.5686887 63.1217943,17.5686887 C98.8368923,17.5686887 98.831193,47.4364412 102.100032,56.1767223 C105.368872,64.9170034 122.495757,72.3628818 123.899915,113.085684 C123.637917,134.719678 112.543207,138.891491 107.588852,149.304666 C101.720936,161.63798 109.376438,182.983978 95.0643062,183.355393 C80.7521739,183.726808 76.4049067,165.533047 69.6965868,158.64894 C67.4079742,156.300357 59.8256437,152.881375 55.2733431,158.053368 C50.7210425,163.225361 55.8844559,185.750774 41.4285324,184.881957 C26.9726088,184.013141 21.7393553,163.811133 16.0248652,151.362991 C11.0945123,140.622972 1.10652204,140.821026 0.0604458018,113.085684 C-0.335958069,80.019529 19.6508659,62.4248058 23.8532021,56.1767235 Z" id="Path-22" fill="#00BEBC"></path>
                        </g>
                        <path d="M141.519117,94.1515691 C154.114222,94.1515691 150.830519,54.9984294 151.872463,28.0346757 C146.25971,0.0792273501 146.822114,35.2001893 141.519117,35.3901358 C136.4006,35.5734744 137.067945,36.9152775 131.094336,40.5145199 C127.668695,58.3164408 128.924012,94.1515691 141.519117,94.1515691 Z" id="Oval-28" fill="#00BEBC" transform="translate(140.663667, 55.692832) scale(-1, 1) rotate(156.000000) translate(-140.663667, -55.692832) "></path>
                        <path d="M32.1915785,87.986476 C44.7866835,87.986476 41.5029807,48.8333363 42.5449242,21.8695826 C40.7076814,12.7188238 38.2965474,20.3714283 37.3603101,21.3001988 C35.4363546,23.2088099 35.7587266,29.0972721 32.1915789,29.2250427 C27.0730615,29.4083813 27.7404064,30.7501844 21.7667974,34.3494268 C18.3411566,52.1513477 19.5964736,87.986476 32.1915785,87.986476 Z" id="Oval-28" fill="#00BEBC" transform="translate(31.336128, 52.703885) scale(-1, 1) rotate(-142.000000) translate(-31.336128, -52.703885) "></path>
                    </g>
                    <g transform="translate(1330.000000, 380.000000)">
                        <g id="Group" transform="translate(23.781344, 0.000000)">
                            <path d="M41.0340876,24.1744401 C41.0340876,24.1744401 27.9389113,25.8887403 24.1746278,23.1734298 C22.8979099,22.2524881 22.0083541,21.4331624 22.0052288,17.1633262 C22.0022562,13.1020285 21.9084952,10.0888518 23.7029837,9.0185105 C25.8031514,7.76584364 30.7073685,8.01249835 32.6898239,10.1056702 C33.9654056,11.4524909 33.1175881,13.1868617 32.6898238,17.163326 C32.6898238,18.369144 28.2817474,17.6545751 27.0538909,17.1633262 C25.8260344,16.6720774 24.9180222,13.1883984 24.8664531,13.3463366 C24.1753209,15.4630338 24.1340389,17.5512528 25.9492289,18.3691442 C27.7644189,19.1870356 35.0349581,22.1422038 35.8905459,18.7183746 C36.9291444,14.5621868 37.3128509,8.6119818 35.8905451,6.77978043 C34.4682393,4.94757906 26.6162351,1.23118741 18.6453968,5.29059506 C15.8294535,6.76162207 11.1491454,22.1537502 12.1580137,26.1951161 C13.7109177,29.5381584 16.3991515,31.0642731 23.7029835,33.1484912 C31.0068155,35.2327093 37.8345372,33.5385131 37.8345372,33.5385131 L41.0340876,24.1744401 Z" id="Path-44" fill="#FFD086" transform="translate(26.526065, 18.826451) rotate(16.000000) translate(-26.526065, -18.826451) "></path>
                            <path d="M115.421443,24.1744401 C115.421443,24.1744401 102.326267,25.8887403 98.561983,23.1734298 C97.2852651,22.2524881 96.3957093,21.4331624 96.392584,17.1633262 C96.3896113,13.1020285 96.2958504,10.0888518 98.0903389,9.0185105 C100.190507,7.76584364 105.094724,8.01249835 107.077179,10.1056702 C108.352761,11.4524909 107.504943,13.1868617 107.077179,17.163326 C107.077179,18.369144 102.669103,17.6545751 101.441246,17.1633262 C100.21339,16.6720774 99.3053774,13.1883984 99.2538083,13.3463366 C98.562676,15.4630338 98.5213941,17.5512528 100.336584,18.3691442 C102.151774,19.1870356 109.422313,22.1422038 110.277901,18.7183746 C111.3165,14.5621868 111.700206,8.6119818 110.2779,6.77978043 C108.855594,4.94757906 101.00359,1.23118741 93.032752,5.29059506 C90.2168086,6.76162207 85.5365006,22.1537502 86.5453689,26.1951161 C88.0982729,29.5381584 90.7865066,31.0642731 98.0903386,33.1484912 C105.394171,35.2327093 112.221892,33.5385131 112.221892,33.5385131 L115.421443,24.1744401 Z" id="Path-44" fill="#FFD086" transform="translate(100.913420, 18.826451) scale(-1, 1) rotate(16.000000) translate(-100.913420, -18.826451) "></path>
                            <path d="M23.8532021,56.1767235 C28.0555383,49.9286413 27.4066963,17.5686887 63.1217943,17.5686887 C98.8368923,17.5686887 98.831193,47.4364412 102.100032,56.1767223 C105.368872,64.9170034 122.495757,72.3628818 123.899915,113.085684 C123.637917,134.719678 112.543207,138.891491 107.588852,149.304666 C101.720936,161.63798 109.376438,182.983978 95.0643062,183.355393 C80.7521739,183.726808 76.4049067,165.533047 69.6965868,158.64894 C67.4079742,156.300357 59.8256437,152.881375 55.2733431,158.053368 C50.7210425,163.225361 55.8844559,185.750774 41.4285324,184.881957 C26.9726088,184.013141 21.7393553,163.811133 16.0248652,151.362991 C11.0945123,140.622972 1.10652204,140.821026 0.0604458018,113.085684 C-0.335958069,80.019529 19.6508659,62.4248058 23.8532021,56.1767235 Z" id="Path-22" fill="#00BEBC"></path>
                        </g>
                        <path d="M141.519117,94.1515691 C154.114222,94.1515691 150.830519,54.9984294 151.872463,28.0346757 C146.25971,0.0792273501 146.822114,35.2001893 141.519117,35.3901358 C136.4006,35.5734744 137.067945,36.9152775 131.094336,40.5145199 C127.668695,58.3164408 128.924012,94.1515691 141.519117,94.1515691 Z" id="Oval-28" fill="#00BEBC" transform="translate(140.663667, 55.692832) scale(-1, 1) rotate(156.000000) translate(-140.663667, -55.692832) "></path>
                        <path d="M32.1915785,87.986476 C44.7866835,87.986476 41.5029807,48.8333363 42.5449242,21.8695826 C40.7076814,12.7188238 38.2965474,20.3714283 37.3603101,21.3001988 C35.4363546,23.2088099 35.7587266,29.0972721 32.1915789,29.2250427 C27.0730615,29.4083813 27.7404064,30.7501844 21.7667974,34.3494268 C18.3411566,52.1513477 19.5964736,87.986476 32.1915785,87.986476 Z" id="Oval-28" fill="#00BEBC" transform="translate(31.336128, 52.703885) scale(-1, 1) rotate(-142.000000) translate(-31.336128, -52.703885) "></path>
                    </g>
                    <g transform="translate(0.000000, 570.000000)">
                        <g id="Group" transform="translate(23.781344, 0.000000)">
                            <path d="M41.0340876,24.1744401 C41.0340876,24.1744401 27.9389113,25.8887403 24.1746278,23.1734298 C22.8979099,22.2524881 22.0083541,21.4331624 22.0052288,17.1633262 C22.0022562,13.1020285 21.9084952,10.0888518 23.7029837,9.0185105 C25.8031514,7.76584364 30.7073685,8.01249835 32.6898239,10.1056702 C33.9654056,11.4524909 33.1175881,13.1868617 32.6898238,17.163326 C32.6898238,18.369144 28.2817474,17.6545751 27.0538909,17.1633262 C25.8260344,16.6720774 24.9180222,13.1883984 24.8664531,13.3463366 C24.1753209,15.4630338 24.1340389,17.5512528 25.9492289,18.3691442 C27.7644189,19.1870356 35.0349581,22.1422038 35.8905459,18.7183746 C36.9291444,14.5621868 37.3128509,8.6119818 35.8905451,6.77978043 C34.4682393,4.94757906 26.6162351,1.23118741 18.6453968,5.29059506 C15.8294535,6.76162207 11.1491454,22.1537502 12.1580137,26.1951161 C13.7109177,29.5381584 16.3991515,31.0642731 23.7029835,33.1484912 C31.0068155,35.2327093 37.8345372,33.5385131 37.8345372,33.5385131 L41.0340876,24.1744401 Z" id="Path-44" fill="#FFD086" transform="translate(26.526065, 18.826451) rotate(16.000000) translate(-26.526065, -18.826451) "></path>
                            <path d="M115.421443,24.1744401 C115.421443,24.1744401 102.326267,25.8887403 98.561983,23.1734298 C97.2852651,22.2524881 96.3957093,21.4331624 96.392584,17.1633262 C96.3896113,13.1020285 96.2958504,10.0888518 98.0903389,9.0185105 C100.190507,7.76584364 105.094724,8.01249835 107.077179,10.1056702 C108.352761,11.4524909 107.504943,13.1868617 107.077179,17.163326 C107.077179,18.369144 102.669103,17.6545751 101.441246,17.1633262 C100.21339,16.6720774 99.3053774,13.1883984 99.2538083,13.3463366 C98.562676,15.4630338 98.5213941,17.5512528 100.336584,18.3691442 C102.151774,19.1870356 109.422313,22.1422038 110.277901,18.7183746 C111.3165,14.5621868 111.700206,8.6119818 110.2779,6.77978043 C108.855594,4.94757906 101.00359,1.23118741 93.032752,5.29059506 C90.2168086,6.76162207 85.5365006,22.1537502 86.5453689,26.1951161 C88.0982729,29.5381584 90.7865066,31.0642731 98.0903386,33.1484912 C105.394171,35.2327093 112.221892,33.5385131 112.221892,33.5385131 L115.421443,24.1744401 Z" id="Path-44" fill="#FFD086" transform="translate(100.913420, 18.826451) scale(-1, 1) rotate(16.000000) translate(-100.913420, -18.826451) "></path>
                            <path d="M23.8532021,56.1767235 C28.0555383,49.9286413 27.4066963,17.5686887 63.1217943,17.5686887 C98.8368923,17.5686887 98.831193,47.4364412 102.100032,56.1767223 C105.368872,64.9170034 122.495757,72.3628818 123.899915,113.085684 C123.637917,134.719678 112.543207,138.891491 107.588852,149.304666 C101.720936,161.63798 109.376438,182.983978 95.0643062,183.355393 C80.7521739,183.726808 76.4049067,165.533047 69.6965868,158.64894 C67.4079742,156.300357 59.8256437,152.881375 55.2733431,158.053368 C50.7210425,163.225361 55.8844559,185.750774 41.4285324,184.881957 C26.9726088,184.013141 21.7393553,163.811133 16.0248652,151.362991 C11.0945123,140.622972 1.10652204,140.821026 0.0604458018,113.085684 C-0.335958069,80.019529 19.6508659,62.4248058 23.8532021,56.1767235 Z" id="Path-22" fill="#00BEBC"></path>
                        </g>
                        <path d="M141.519117,94.1515691 C154.114222,94.1515691 150.830519,54.9984294 151.872463,28.0346757 C146.25971,0.0792273501 146.822114,35.2001893 141.519117,35.3901358 C136.4006,35.5734744 137.067945,36.9152775 131.094336,40.5145199 C127.668695,58.3164408 128.924012,94.1515691 141.519117,94.1515691 Z" id="Oval-28" fill="#00BEBC" transform="translate(140.663667, 55.692832) scale(-1, 1) rotate(156.000000) translate(-140.663667, -55.692832) "></path>
                        <path d="M32.1915785,87.986476 C44.7866835,87.986476 41.5029807,48.8333363 42.5449242,21.8695826 C40.7076814,12.7188238 38.2965474,20.3714283 37.3603101,21.3001988 C35.4363546,23.2088099 35.7587266,29.0972721 32.1915789,29.2250427 C27.0730615,29.4083813 27.7404064,30.7501844 21.7667974,34.3494268 C18.3411566,52.1513477 19.5964736,87.986476 32.1915785,87.986476 Z" id="Oval-28" fill="#00BEBC" transform="translate(31.336128, 52.703885) scale(-1, 1) rotate(-142.000000) translate(-31.336128, -52.703885) "></path>
                    </g>
                    <g transform="translate(380.000000, 570.000000)">
                        <g id="Group" transform="translate(23.781344, 0.000000)">
                            <path d="M41.0340876,24.1744401 C41.0340876,24.1744401 27.9389113,25.8887403 24.1746278,23.1734298 C22.8979099,22.2524881 22.0083541,21.4331624 22.0052288,17.1633262 C22.0022562,13.1020285 21.9084952,10.0888518 23.7029837,9.0185105 C25.8031514,7.76584364 30.7073685,8.01249835 32.6898239,10.1056702 C33.9654056,11.4524909 33.1175881,13.1868617 32.6898238,17.163326 C32.6898238,18.369144 28.2817474,17.6545751 27.0538909,17.1633262 C25.8260344,16.6720774 24.9180222,13.1883984 24.8664531,13.3463366 C24.1753209,15.4630338 24.1340389,17.5512528 25.9492289,18.3691442 C27.7644189,19.1870356 35.0349581,22.1422038 35.8905459,18.7183746 C36.9291444,14.5621868 37.3128509,8.6119818 35.8905451,6.77978043 C34.4682393,4.94757906 26.6162351,1.23118741 18.6453968,5.29059506 C15.8294535,6.76162207 11.1491454,22.1537502 12.1580137,26.1951161 C13.7109177,29.5381584 16.3991515,31.0642731 23.7029835,33.1484912 C31.0068155,35.2327093 37.8345372,33.5385131 37.8345372,33.5385131 L41.0340876,24.1744401 Z" id="Path-44" fill="#FFD086" transform="translate(26.526065, 18.826451) rotate(16.000000) translate(-26.526065, -18.826451) "></path>
                            <path d="M115.421443,24.1744401 C115.421443,24.1744401 102.326267,25.8887403 98.561983,23.1734298 C97.2852651,22.2524881 96.3957093,21.4331624 96.392584,17.1633262 C96.3896113,13.1020285 96.2958504,10.0888518 98.0903389,9.0185105 C100.190507,7.76584364 105.094724,8.01249835 107.077179,10.1056702 C108.352761,11.4524909 107.504943,13.1868617 107.077179,17.163326 C107.077179,18.369144 102.669103,17.6545751 101.441246,17.1633262 C100.21339,16.6720774 99.3053774,13.1883984 99.2538083,13.3463366 C98.562676,15.4630338 98.5213941,17.5512528 100.336584,18.3691442 C102.151774,19.1870356 109.422313,22.1422038 110.277901,18.7183746 C111.3165,14.5621868 111.700206,8.6119818 110.2779,6.77978043 C108.855594,4.94757906 101.00359,1.23118741 93.032752,5.29059506 C90.2168086,6.76162207 85.5365006,22.1537502 86.5453689,26.1951161 C88.0982729,29.5381584 90.7865066,31.0642731 98.0903386,33.1484912 C105.394171,35.2327093 112.221892,33.5385131 112.221892,33.5385131 L115.421443,24.1744401 Z" id="Path-44" fill="#FFD086" transform="translate(100.913420, 18.826451) scale(-1, 1) rotate(16.000000) translate(-100.913420, -18.826451) "></path>
                            <path d="M23.8532021,56.1767235 C28.0555383,49.9286413 27.4066963,17.5686887 63.1217943,17.5686887 C98.8368923,17.5686887 98.831193,47.4364412 102.100032,56.1767223 C105.368872,64.9170034 122.495757,72.3628818 123.899915,113.085684 C123.637917,134.719678 112.543207,138.891491 107.588852,149.304666 C101.720936,161.63798 109.376438,182.983978 95.0643062,183.355393 C80.7521739,183.726808 76.4049067,165.533047 69.6965868,158.64894 C67.4079742,156.300357 59.8256437,152.881375 55.2733431,158.053368 C50.7210425,163.225361 55.8844559,185.750774 41.4285324,184.881957 C26.9726088,184.013141 21.7393553,163.811133 16.0248652,151.362991 C11.0945123,140.622972 1.10652204,140.821026 0.0604458018,113.085684 C-0.335958069,80.019529 19.6508659,62.4248058 23.8532021,56.1767235 Z" id="Path-22" fill="#00BEBC"></path>
                        </g>
                        <path d="M141.519117,94.1515691 C154.114222,94.1515691 150.830519,54.9984294 151.872463,28.0346757 C146.25971,0.0792273501 146.822114,35.2001893 141.519117,35.3901358 C136.4006,35.5734744 137.067945,36.9152775 131.094336,40.5145199 C127.668695,58.3164408 128.924012,94.1515691 141.519117,94.1515691 Z" id="Oval-28" fill="#00BEBC" transform="translate(140.663667, 55.692832) scale(-1, 1) rotate(156.000000) translate(-140.663667, -55.692832) "></path>
                        <path d="M32.1915785,87.986476 C44.7866835,87.986476 41.5029807,48.8333363 42.5449242,21.8695826 C40.7076814,12.7188238 38.2965474,20.3714283 37.3603101,21.3001988 C35.4363546,23.2088099 35.7587266,29.0972721 32.1915789,29.2250427 C27.0730615,29.4083813 27.7404064,30.7501844 21.7667974,34.3494268 C18.3411566,52.1513477 19.5964736,87.986476 32.1915785,87.986476 Z" id="Oval-28" fill="#00BEBC" transform="translate(31.336128, 52.703885) scale(-1, 1) rotate(-142.000000) translate(-31.336128, -52.703885) "></path>
                    </g>
                    <g transform="translate(760.000000, 570.000000)">
                        <g id="Group" transform="translate(23.781344, 0.000000)">
                            <path d="M41.0340876,24.1744401 C41.0340876,24.1744401 27.9389113,25.8887403 24.1746278,23.1734298 C22.8979099,22.2524881 22.0083541,21.4331624 22.0052288,17.1633262 C22.0022562,13.1020285 21.9084952,10.0888518 23.7029837,9.0185105 C25.8031514,7.76584364 30.7073685,8.01249835 32.6898239,10.1056702 C33.9654056,11.4524909 33.1175881,13.1868617 32.6898238,17.163326 C32.6898238,18.369144 28.2817474,17.6545751 27.0538909,17.1633262 C25.8260344,16.6720774 24.9180222,13.1883984 24.8664531,13.3463366 C24.1753209,15.4630338 24.1340389,17.5512528 25.9492289,18.3691442 C27.7644189,19.1870356 35.0349581,22.1422038 35.8905459,18.7183746 C36.9291444,14.5621868 37.3128509,8.6119818 35.8905451,6.77978043 C34.4682393,4.94757906 26.6162351,1.23118741 18.6453968,5.29059506 C15.8294535,6.76162207 11.1491454,22.1537502 12.1580137,26.1951161 C13.7109177,29.5381584 16.3991515,31.0642731 23.7029835,33.1484912 C31.0068155,35.2327093 37.8345372,33.5385131 37.8345372,33.5385131 L41.0340876,24.1744401 Z" id="Path-44" fill="#FFD086" transform="translate(26.526065, 18.826451) rotate(16.000000) translate(-26.526065, -18.826451) "></path>
                            <path d="M115.421443,24.1744401 C115.421443,24.1744401 102.326267,25.8887403 98.561983,23.1734298 C97.2852651,22.2524881 96.3957093,21.4331624 96.392584,17.1633262 C96.3896113,13.1020285 96.2958504,10.0888518 98.0903389,9.0185105 C100.190507,7.76584364 105.094724,8.01249835 107.077179,10.1056702 C108.352761,11.4524909 107.504943,13.1868617 107.077179,17.163326 C107.077179,18.369144 102.669103,17.6545751 101.441246,17.1633262 C100.21339,16.6720774 99.3053774,13.1883984 99.2538083,13.3463366 C98.562676,15.4630338 98.5213941,17.5512528 100.336584,18.3691442 C102.151774,19.1870356 109.422313,22.1422038 110.277901,18.7183746 C111.3165,14.5621868 111.700206,8.6119818 110.2779,6.77978043 C108.855594,4.94757906 101.00359,1.23118741 93.032752,5.29059506 C90.2168086,6.76162207 85.5365006,22.1537502 86.5453689,26.1951161 C88.0982729,29.5381584 90.7865066,31.0642731 98.0903386,33.1484912 C105.394171,35.2327093 112.221892,33.5385131 112.221892,33.5385131 L115.421443,24.1744401 Z" id="Path-44" fill="#FFD086" transform="translate(100.913420, 18.826451) scale(-1, 1) rotate(16.000000) translate(-100.913420, -18.826451) "></path>
                            <path d="M23.8532021,56.1767235 C28.0555383,49.9286413 27.4066963,17.5686887 63.1217943,17.5686887 C98.8368923,17.5686887 98.831193,47.4364412 102.100032,56.1767223 C105.368872,64.9170034 122.495757,72.3628818 123.899915,113.085684 C123.637917,134.719678 112.543207,138.891491 107.588852,149.304666 C101.720936,161.63798 109.376438,182.983978 95.0643062,183.355393 C80.7521739,183.726808 76.4049067,165.533047 69.6965868,158.64894 C67.4079742,156.300357 59.8256437,152.881375 55.2733431,158.053368 C50.7210425,163.225361 55.8844559,185.750774 41.4285324,184.881957 C26.9726088,184.013141 21.7393553,163.811133 16.0248652,151.362991 C11.0945123,140.622972 1.10652204,140.821026 0.0604458018,113.085684 C-0.335958069,80.019529 19.6508659,62.4248058 23.8532021,56.1767235 Z" id="Path-22" fill="#00BEBC"></path>
                        </g>
                        <path d="M141.519117,94.1515691 C154.114222,94.1515691 150.830519,54.9984294 151.872463,28.0346757 C146.25971,0.0792273501 146.822114,35.2001893 141.519117,35.3901358 C136.4006,35.5734744 137.067945,36.9152775 131.094336,40.5145199 C127.668695,58.3164408 128.924012,94.1515691 141.519117,94.1515691 Z" id="Oval-28" fill="#00BEBC" transform="translate(140.663667, 55.692832) scale(-1, 1) rotate(156.000000) translate(-140.663667, -55.692832) "></path>
                        <path d="M32.1915785,87.986476 C44.7866835,87.986476 41.5029807,48.8333363 42.5449242,21.8695826 C40.7076814,12.7188238 38.2965474,20.3714283 37.3603101,21.3001988 C35.4363546,23.2088099 35.7587266,29.0972721 32.1915789,29.2250427 C27.0730615,29.4083813 27.7404064,30.7501844 21.7667974,34.3494268 C18.3411566,52.1513477 19.5964736,87.986476 32.1915785,87.986476 Z" id="Oval-28" fill="#00BEBC" transform="translate(31.336128, 52.703885) scale(-1, 1) rotate(-142.000000) translate(-31.336128, -52.703885) "></path>
                    </g>
                    <g transform="translate(1140.000000, 570.000000)">
                        <g id="Group" transform="translate(23.781344, 0.000000)">
                            <path d="M41.0340876,24.1744401 C41.0340876,24.1744401 27.9389113,25.8887403 24.1746278,23.1734298 C22.8979099,22.2524881 22.0083541,21.4331624 22.0052288,17.1633262 C22.0022562,13.1020285 21.9084952,10.0888518 23.7029837,9.0185105 C25.8031514,7.76584364 30.7073685,8.01249835 32.6898239,10.1056702 C33.9654056,11.4524909 33.1175881,13.1868617 32.6898238,17.163326 C32.6898238,18.369144 28.2817474,17.6545751 27.0538909,17.1633262 C25.8260344,16.6720774 24.9180222,13.1883984 24.8664531,13.3463366 C24.1753209,15.4630338 24.1340389,17.5512528 25.9492289,18.3691442 C27.7644189,19.1870356 35.0349581,22.1422038 35.8905459,18.7183746 C36.9291444,14.5621868 37.3128509,8.6119818 35.8905451,6.77978043 C34.4682393,4.94757906 26.6162351,1.23118741 18.6453968,5.29059506 C15.8294535,6.76162207 11.1491454,22.1537502 12.1580137,26.1951161 C13.7109177,29.5381584 16.3991515,31.0642731 23.7029835,33.1484912 C31.0068155,35.2327093 37.8345372,33.5385131 37.8345372,33.5385131 L41.0340876,24.1744401 Z" id="Path-44" fill="#FFD086" transform="translate(26.526065, 18.826451) rotate(16.000000) translate(-26.526065, -18.826451) "></path>
                            <path d="M115.421443,24.1744401 C115.421443,24.1744401 102.326267,25.8887403 98.561983,23.1734298 C97.2852651,22.2524881 96.3957093,21.4331624 96.392584,17.1633262 C96.3896113,13.1020285 96.2958504,10.0888518 98.0903389,9.0185105 C100.190507,7.76584364 105.094724,8.01249835 107.077179,10.1056702 C108.352761,11.4524909 107.504943,13.1868617 107.077179,17.163326 C107.077179,18.369144 102.669103,17.6545751 101.441246,17.1633262 C100.21339,16.6720774 99.3053774,13.1883984 99.2538083,13.3463366 C98.562676,15.4630338 98.5213941,17.5512528 100.336584,18.3691442 C102.151774,19.1870356 109.422313,22.1422038 110.277901,18.7183746 C111.3165,14.5621868 111.700206,8.6119818 110.2779,6.77978043 C108.855594,4.94757906 101.00359,1.23118741 93.032752,5.29059506 C90.2168086,6.76162207 85.5365006,22.1537502 86.5453689,26.1951161 C88.0982729,29.5381584 90.7865066,31.0642731 98.0903386,33.1484912 C105.394171,35.2327093 112.221892,33.5385131 112.221892,33.5385131 L115.421443,24.1744401 Z" id="Path-44" fill="#FFD086" transform="translate(100.913420, 18.826451) scale(-1, 1) rotate(16.000000) translate(-100.913420, -18.826451) "></path>
                            <path d="M23.8532021,56.1767235 C28.0555383,49.9286413 27.4066963,17.5686887 63.1217943,17.5686887 C98.8368923,17.5686887 98.831193,47.4364412 102.100032,56.1767223 C105.368872,64.9170034 122.495757,72.3628818 123.899915,113.085684 C123.637917,134.719678 112.543207,138.891491 107.588852,149.304666 C101.720936,161.63798 109.376438,182.983978 95.0643062,183.355393 C80.7521739,183.726808 76.4049067,165.533047 69.6965868,158.64894 C67.4079742,156.300357 59.8256437,152.881375 55.2733431,158.053368 C50.7210425,163.225361 55.8844559,185.750774 41.4285324,184.881957 C26.9726088,184.013141 21.7393553,163.811133 16.0248652,151.362991 C11.0945123,140.622972 1.10652204,140.821026 0.0604458018,113.085684 C-0.335958069,80.019529 19.6508659,62.4248058 23.8532021,56.1767235 Z" id="Path-22" fill="#00BEBC"></path>
                        </g>
                        <path d="M141.519117,94.1515691 C154.114222,94.1515691 150.830519,54.9984294 151.872463,28.0346757 C146.25971,0.0792273501 146.822114,35.2001893 141.519117,35.3901358 C136.4006,35.5734744 137.067945,36.9152775 131.094336,40.5145199 C127.668695,58.3164408 128.924012,94.1515691 141.519117,94.1515691 Z" id="Oval-28" fill="#00BEBC" transform="translate(140.663667, 55.692832) scale(-1, 1) rotate(156.000000) translate(-140.663667, -55.692832) "></path>
                        <path d="M32.1915785,87.986476 C44.7866835,87.986476 41.5029807,48.8333363 42.5449242,21.8695826 C40.7076814,12.7188238 38.2965474,20.3714283 37.3603101,21.3001988 C35.4363546,23.2088099 35.7587266,29.0972721 32.1915789,29.2250427 C27.0730615,29.4083813 27.7404064,30.7501844 21.7667974,34.3494268 C18.3411566,52.1513477 19.5964736,87.986476 32.1915785,87.986476 Z" id="Oval-28" fill="#00BEBC" transform="translate(31.336128, 52.703885) scale(-1, 1) rotate(-142.000000) translate(-31.336128, -52.703885) "></path>
                    </g>
                    <g transform="translate(190.000000, 760.000000)">
                        <g id="Group" transform="translate(23.781344, 0.000000)">
                            <path d="M41.0340876,24.1744401 C41.0340876,24.1744401 27.9389113,25.8887403 24.1746278,23.1734298 C22.8979099,22.2524881 22.0083541,21.4331624 22.0052288,17.1633262 C22.0022562,13.1020285 21.9084952,10.0888518 23.7029837,9.0185105 C25.8031514,7.76584364 30.7073685,8.01249835 32.6898239,10.1056702 C33.9654056,11.4524909 33.1175881,13.1868617 32.6898238,17.163326 C32.6898238,18.369144 28.2817474,17.6545751 27.0538909,17.1633262 C25.8260344,16.6720774 24.9180222,13.1883984 24.8664531,13.3463366 C24.1753209,15.4630338 24.1340389,17.5512528 25.9492289,18.3691442 C27.7644189,19.1870356 35.0349581,22.1422038 35.8905459,18.7183746 C36.9291444,14.5621868 37.3128509,8.6119818 35.8905451,6.77978043 C34.4682393,4.94757906 26.6162351,1.23118741 18.6453968,5.29059506 C15.8294535,6.76162207 11.1491454,22.1537502 12.1580137,26.1951161 C13.7109177,29.5381584 16.3991515,31.0642731 23.7029835,33.1484912 C31.0068155,35.2327093 37.8345372,33.5385131 37.8345372,33.5385131 L41.0340876,24.1744401 Z" id="Path-44" fill="#FFD086" transform="translate(26.526065, 18.826451) rotate(16.000000) translate(-26.526065, -18.826451) "></path>
                            <path d="M115.421443,24.1744401 C115.421443,24.1744401 102.326267,25.8887403 98.561983,23.1734298 C97.2852651,22.2524881 96.3957093,21.4331624 96.392584,17.1633262 C96.3896113,13.1020285 96.2958504,10.0888518 98.0903389,9.0185105 C100.190507,7.76584364 105.094724,8.01249835 107.077179,10.1056702 C108.352761,11.4524909 107.504943,13.1868617 107.077179,17.163326 C107.077179,18.369144 102.669103,17.6545751 101.441246,17.1633262 C100.21339,16.6720774 99.3053774,13.1883984 99.2538083,13.3463366 C98.562676,15.4630338 98.5213941,17.5512528 100.336584,18.3691442 C102.151774,19.1870356 109.422313,22.1422038 110.277901,18.7183746 C111.3165,14.5621868 111.700206,8.6119818 110.2779,6.77978043 C108.855594,4.94757906 101.00359,1.23118741 93.032752,5.29059506 C90.2168086,6.76162207 85.5365006,22.1537502 86.5453689,26.1951161 C88.0982729,29.5381584 90.7865066,31.0642731 98.0903386,33.1484912 C105.394171,35.2327093 112.221892,33.5385131 112.221892,33.5385131 L115.421443,24.1744401 Z" id="Path-44" fill="#FFD086" transform="translate(100.913420, 18.826451) scale(-1, 1) rotate(16.000000) translate(-100.913420, -18.826451) "></path>
                            <path d="M23.8532021,56.1767235 C28.0555383,49.9286413 27.4066963,17.5686887 63.1217943,17.5686887 C98.8368923,17.5686887 98.831193,47.4364412 102.100032,56.1767223 C105.368872,64.9170034 122.495757,72.3628818 123.899915,113.085684 C123.637917,134.719678 112.543207,138.891491 107.588852,149.304666 C101.720936,161.63798 109.376438,182.983978 95.0643062,183.355393 C80.7521739,183.726808 76.4049067,165.533047 69.6965868,158.64894 C67.4079742,156.300357 59.8256437,152.881375 55.2733431,158.053368 C50.7210425,163.225361 55.8844559,185.750774 41.4285324,184.881957 C26.9726088,184.013141 21.7393553,163.811133 16.0248652,151.362991 C11.0945123,140.622972 1.10652204,140.821026 0.0604458018,113.085684 C-0.335958069,80.019529 19.6508659,62.4248058 23.8532021,56.1767235 Z" id="Path-22" fill="#00BEBC"></path>
                        </g>
                        <path d="M141.519117,94.1515691 C154.114222,94.1515691 150.830519,54.9984294 151.872463,28.0346757 C146.25971,0.0792273501 146.822114,35.2001893 141.519117,35.3901358 C136.4006,35.5734744 137.067945,36.9152775 131.094336,40.5145199 C127.668695,58.3164408 128.924012,94.1515691 141.519117,94.1515691 Z" id="Oval-28" fill="#00BEBC" transform="translate(140.663667, 55.692832) scale(-1, 1) rotate(156.000000) translate(-140.663667, -55.692832) "></path>
                        <path d="M32.1915785,87.986476 C44.7866835,87.986476 41.5029807,48.8333363 42.5449242,21.8695826 C40.7076814,12.7188238 38.2965474,20.3714283 37.3603101,21.3001988 C35.4363546,23.2088099 35.7587266,29.0972721 32.1915789,29.2250427 C27.0730615,29.4083813 27.7404064,30.7501844 21.7667974,34.3494268 C18.3411566,52.1513477 19.5964736,87.986476 32.1915785,87.986476 Z" id="Oval-28" fill="#00BEBC" transform="translate(31.336128, 52.703885) scale(-1, 1) rotate(-142.000000) translate(-31.336128, -52.703885) "></path>
                    </g>
                    <g transform="translate(570.000000, 760.000000)">
                        <g id="Group" transform="translate(23.781344, 0.000000)">
                            <path d="M41.0340876,24.1744401 C41.0340876,24.1744401 27.9389113,25.8887403 24.1746278,23.1734298 C22.8979099,22.2524881 22.0083541,21.4331624 22.0052288,17.1633262 C22.0022562,13.1020285 21.9084952,10.0888518 23.7029837,9.0185105 C25.8031514,7.76584364 30.7073685,8.01249835 32.6898239,10.1056702 C33.9654056,11.4524909 33.1175881,13.1868617 32.6898238,17.163326 C32.6898238,18.369144 28.2817474,17.6545751 27.0538909,17.1633262 C25.8260344,16.6720774 24.9180222,13.1883984 24.8664531,13.3463366 C24.1753209,15.4630338 24.1340389,17.5512528 25.9492289,18.3691442 C27.7644189,19.1870356 35.0349581,22.1422038 35.8905459,18.7183746 C36.9291444,14.5621868 37.3128509,8.6119818 35.8905451,6.77978043 C34.4682393,4.94757906 26.6162351,1.23118741 18.6453968,5.29059506 C15.8294535,6.76162207 11.1491454,22.1537502 12.1580137,26.1951161 C13.7109177,29.5381584 16.3991515,31.0642731 23.7029835,33.1484912 C31.0068155,35.2327093 37.8345372,33.5385131 37.8345372,33.5385131 L41.0340876,24.1744401 Z" id="Path-44" fill="#FFD086" transform="translate(26.526065, 18.826451) rotate(16.000000) translate(-26.526065, -18.826451) "></path>
                            <path d="M115.421443,24.1744401 C115.421443,24.1744401 102.326267,25.8887403 98.561983,23.1734298 C97.2852651,22.2524881 96.3957093,21.4331624 96.392584,17.1633262 C96.3896113,13.1020285 96.2958504,10.0888518 98.0903389,9.0185105 C100.190507,7.76584364 105.094724,8.01249835 107.077179,10.1056702 C108.352761,11.4524909 107.504943,13.1868617 107.077179,17.163326 C107.077179,18.369144 102.669103,17.6545751 101.441246,17.1633262 C100.21339,16.6720774 99.3053774,13.1883984 99.2538083,13.3463366 C98.562676,15.4630338 98.5213941,17.5512528 100.336584,18.3691442 C102.151774,19.1870356 109.422313,22.1422038 110.277901,18.7183746 C111.3165,14.5621868 111.700206,8.6119818 110.2779,6.77978043 C108.855594,4.94757906 101.00359,1.23118741 93.032752,5.29059506 C90.2168086,6.76162207 85.5365006,22.1537502 86.5453689,26.1951161 C88.0982729,29.5381584 90.7865066,31.0642731 98.0903386,33.1484912 C105.394171,35.2327093 112.221892,33.5385131 112.221892,33.5385131 L115.421443,24.1744401 Z" id="Path-44" fill="#FFD086" transform="translate(100.913420, 18.826451) scale(-1, 1) rotate(16.000000) translate(-100.913420, -18.826451) "></path>
                            <path d="M23.8532021,56.1767235 C28.0555383,49.9286413 27.4066963,17.5686887 63.1217943,17.5686887 C98.8368923,17.5686887 98.831193,47.4364412 102.100032,56.1767223 C105.368872,64.9170034 122.495757,72.3628818 123.899915,113.085684 C123.637917,134.719678 112.543207,138.891491 107.588852,149.304666 C101.720936,161.63798 109.376438,182.983978 95.0643062,183.355393 C80.7521739,183.726808 76.4049067,165.533047 69.6965868,158.64894 C67.4079742,156.300357 59.8256437,152.881375 55.2733431,158.053368 C50.7210425,163.225361 55.8844559,185.750774 41.4285324,184.881957 C26.9726088,184.013141 21.7393553,163.811133 16.0248652,151.362991 C11.0945123,140.622972 1.10652204,140.821026 0.0604458018,113.085684 C-0.335958069,80.019529 19.6508659,62.4248058 23.8532021,56.1767235 Z" id="Path-22" fill="#00BEBC"></path>
                        </g>
                        <path d="M141.519117,94.1515691 C154.114222,94.1515691 150.830519,54.9984294 151.872463,28.0346757 C146.25971,0.0792273501 146.822114,35.2001893 141.519117,35.3901358 C136.4006,35.5734744 137.067945,36.9152775 131.094336,40.5145199 C127.668695,58.3164408 128.924012,94.1515691 141.519117,94.1515691 Z" id="Oval-28" fill="#00BEBC" transform="translate(140.663667, 55.692832) scale(-1, 1) rotate(156.000000) translate(-140.663667, -55.692832) "></path>
                        <path d="M32.1915785,87.986476 C44.7866835,87.986476 41.5029807,48.8333363 42.5449242,21.8695826 C40.7076814,12.7188238 38.2965474,20.3714283 37.3603101,21.3001988 C35.4363546,23.2088099 35.7587266,29.0972721 32.1915789,29.2250427 C27.0730615,29.4083813 27.7404064,30.7501844 21.7667974,34.3494268 C18.3411566,52.1513477 19.5964736,87.986476 32.1915785,87.986476 Z" id="Oval-28" fill="#00BEBC" transform="translate(31.336128, 52.703885) scale(-1, 1) rotate(-142.000000) translate(-31.336128, -52.703885) "></path>
                    </g>
                    <g transform="translate(950.000000, 760.000000)">
                        <g id="Group" transform="translate(23.781344, 0.000000)">
                            <path d="M41.0340876,24.1744401 C41.0340876,24.1744401 27.9389113,25.8887403 24.1746278,23.1734298 C22.8979099,22.2524881 22.0083541,21.4331624 22.0052288,17.1633262 C22.0022562,13.1020285 21.9084952,10.0888518 23.7029837,9.0185105 C25.8031514,7.76584364 30.7073685,8.01249835 32.6898239,10.1056702 C33.9654056,11.4524909 33.1175881,13.1868617 32.6898238,17.163326 C32.6898238,18.369144 28.2817474,17.6545751 27.0538909,17.1633262 C25.8260344,16.6720774 24.9180222,13.1883984 24.8664531,13.3463366 C24.1753209,15.4630338 24.1340389,17.5512528 25.9492289,18.3691442 C27.7644189,19.1870356 35.0349581,22.1422038 35.8905459,18.7183746 C36.9291444,14.5621868 37.3128509,8.6119818 35.8905451,6.77978043 C34.4682393,4.94757906 26.6162351,1.23118741 18.6453968,5.29059506 C15.8294535,6.76162207 11.1491454,22.1537502 12.1580137,26.1951161 C13.7109177,29.5381584 16.3991515,31.0642731 23.7029835,33.1484912 C31.0068155,35.2327093 37.8345372,33.5385131 37.8345372,33.5385131 L41.0340876,24.1744401 Z" id="Path-44" fill="#FFD086" transform="translate(26.526065, 18.826451) rotate(16.000000) translate(-26.526065, -18.826451) "></path>
                            <path d="M115.421443,24.1744401 C115.421443,24.1744401 102.326267,25.8887403 98.561983,23.1734298 C97.2852651,22.2524881 96.3957093,21.4331624 96.392584,17.1633262 C96.3896113,13.1020285 96.2958504,10.0888518 98.0903389,9.0185105 C100.190507,7.76584364 105.094724,8.01249835 107.077179,10.1056702 C108.352761,11.4524909 107.504943,13.1868617 107.077179,17.163326 C107.077179,18.369144 102.669103,17.6545751 101.441246,17.1633262 C100.21339,16.6720774 99.3053774,13.1883984 99.2538083,13.3463366 C98.562676,15.4630338 98.5213941,17.5512528 100.336584,18.3691442 C102.151774,19.1870356 109.422313,22.1422038 110.277901,18.7183746 C111.3165,14.5621868 111.700206,8.6119818 110.2779,6.77978043 C108.855594,4.94757906 101.00359,1.23118741 93.032752,5.29059506 C90.2168086,6.76162207 85.5365006,22.1537502 86.5453689,26.1951161 C88.0982729,29.5381584 90.7865066,31.0642731 98.0903386,33.1484912 C105.394171,35.2327093 112.221892,33.5385131 112.221892,33.5385131 L115.421443,24.1744401 Z" id="Path-44" fill="#FFD086" transform="translate(100.913420, 18.826451) scale(-1, 1) rotate(16.000000) translate(-100.913420, -18.826451) "></path>
                            <path d="M23.8532021,56.1767235 C28.0555383,49.9286413 27.4066963,17.5686887 63.1217943,17.5686887 C98.8368923,17.5686887 98.831193,47.4364412 102.100032,56.1767223 C105.368872,64.9170034 122.495757,72.3628818 123.899915,113.085684 C123.637917,134.719678 112.543207,138.891491 107.588852,149.304666 C101.720936,161.63798 109.376438,182.983978 95.0643062,183.355393 C80.7521739,183.726808 76.4049067,165.533047 69.6965868,158.64894 C67.4079742,156.300357 59.8256437,152.881375 55.2733431,158.053368 C50.7210425,163.225361 55.8844559,185.750774 41.4285324,184.881957 C26.9726088,184.013141 21.7393553,163.811133 16.0248652,151.362991 C11.0945123,140.622972 1.10652204,140.821026 0.0604458018,113.085684 C-0.335958069,80.019529 19.6508659,62.4248058 23.8532021,56.1767235 Z" id="Path-22" fill="#00BEBC"></path>
                        </g>
                        <path d="M141.519117,94.1515691 C154.114222,94.1515691 150.830519,54.9984294 151.872463,28.0346757 C146.25971,0.0792273501 146.822114,35.2001893 141.519117,35.3901358 C136.4006,35.5734744 137.067945,36.9152775 131.094336,40.5145199 C127.668695,58.3164408 128.924012,94.1515691 141.519117,94.1515691 Z" id="Oval-28" fill="#00BEBC" transform="translate(140.663667, 55.692832) scale(-1, 1) rotate(156.000000) translate(-140.663667, -55.692832) "></path>
                        <path d="M32.1915785,87.986476 C44.7866835,87.986476 41.5029807,48.8333363 42.5449242,21.8695826 C40.7076814,12.7188238 38.2965474,20.3714283 37.3603101,21.3001988 C35.4363546,23.2088099 35.7587266,29.0972721 32.1915789,29.2250427 C27.0730615,29.4083813 27.7404064,30.7501844 21.7667974,34.3494268 C18.3411566,52.1513477 19.5964736,87.986476 32.1915785,87.986476 Z" id="Oval-28" fill="#00BEBC" transform="translate(31.336128, 52.703885) scale(-1, 1) rotate(-142.000000) translate(-31.336128, -52.703885) "></path>
                    </g>
                    <g transform="translate(1330.000000, 760.000000)">
                        <g id="Group" transform="translate(23.781344, 0.000000)">
                            <path d="M41.0340876,24.1744401 C41.0340876,24.1744401 27.9389113,25.8887403 24.1746278,23.1734298 C22.8979099,22.2524881 22.0083541,21.4331624 22.0052288,17.1633262 C22.0022562,13.1020285 21.9084952,10.0888518 23.7029837,9.0185105 C25.8031514,7.76584364 30.7073685,8.01249835 32.6898239,10.1056702 C33.9654056,11.4524909 33.1175881,13.1868617 32.6898238,17.163326 C32.6898238,18.369144 28.2817474,17.6545751 27.0538909,17.1633262 C25.8260344,16.6720774 24.9180222,13.1883984 24.8664531,13.3463366 C24.1753209,15.4630338 24.1340389,17.5512528 25.9492289,18.3691442 C27.7644189,19.1870356 35.0349581,22.1422038 35.8905459,18.7183746 C36.9291444,14.5621868 37.3128509,8.6119818 35.8905451,6.77978043 C34.4682393,4.94757906 26.6162351,1.23118741 18.6453968,5.29059506 C15.8294535,6.76162207 11.1491454,22.1537502 12.1580137,26.1951161 C13.7109177,29.5381584 16.3991515,31.0642731 23.7029835,33.1484912 C31.0068155,35.2327093 37.8345372,33.5385131 37.8345372,33.5385131 L41.0340876,24.1744401 Z" id="Path-44" fill="#FFD086" transform="translate(26.526065, 18.826451) rotate(16.000000) translate(-26.526065, -18.826451) "></path>
                            <path d="M115.421443,24.1744401 C115.421443,24.1744401 102.326267,25.8887403 98.561983,23.1734298 C97.2852651,22.2524881 96.3957093,21.4331624 96.392584,17.1633262 C96.3896113,13.1020285 96.2958504,10.0888518 98.0903389,9.0185105 C100.190507,7.76584364 105.094724,8.01249835 107.077179,10.1056702 C108.352761,11.4524909 107.504943,13.1868617 107.077179,17.163326 C107.077179,18.369144 102.669103,17.6545751 101.441246,17.1633262 C100.21339,16.6720774 99.3053774,13.1883984 99.2538083,13.3463366 C98.562676,15.4630338 98.5213941,17.5512528 100.336584,18.3691442 C102.151774,19.1870356 109.422313,22.1422038 110.277901,18.7183746 C111.3165,14.5621868 111.700206,8.6119818 110.2779,6.77978043 C108.855594,4.94757906 101.00359,1.23118741 93.032752,5.29059506 C90.2168086,6.76162207 85.5365006,22.1537502 86.5453689,26.1951161 C88.0982729,29.5381584 90.7865066,31.0642731 98.0903386,33.1484912 C105.394171,35.2327093 112.221892,33.5385131 112.221892,33.5385131 L115.421443,24.1744401 Z" id="Path-44" fill="#FFD086" transform="translate(100.913420, 18.826451) scale(-1, 1) rotate(16.000000) translate(-100.913420, -18.826451) "></path>
                            <path d="M23.8532021,56.1767235 C28.0555383,49.9286413 27.4066963,17.5686887 63.1217943,17.5686887 C98.8368923,17.5686887 98.831193,47.4364412 102.100032,56.1767223 C105.368872,64.9170034 122.495757,72.3628818 123.899915,113.085684 C123.637917,134.719678 112.543207,138.891491 107.588852,149.304666 C101.720936,161.63798 109.376438,182.983978 95.0643062,183.355393 C80.7521739,183.726808 76.4049067,165.533047 69.6965868,158.64894 C67.4079742,156.300357 59.8256437,152.881375 55.2733431,158.053368 C50.7210425,163.225361 55.8844559,185.750774 41.4285324,184.881957 C26.9726088,184.013141 21.7393553,163.811133 16.0248652,151.362991 C11.0945123,140.622972 1.10652204,140.821026 0.0604458018,113.085684 C-0.335958069,80.019529 19.6508659,62.4248058 23.8532021,56.1767235 Z" id="Path-22" fill="#00BEBC"></path>
                        </g>
                        <path d="M141.519117,94.1515691 C154.114222,94.1515691 150.830519,54.9984294 151.872463,28.0346757 C146.25971,0.0792273501 146.822114,35.2001893 141.519117,35.3901358 C136.4006,35.5734744 137.067945,36.9152775 131.094336,40.5145199 C127.668695,58.3164408 128.924012,94.1515691 141.519117,94.1515691 Z" id="Oval-28" fill="#00BEBC" transform="translate(140.663667, 55.692832) scale(-1, 1) rotate(156.000000) translate(-140.663667, -55.692832) "></path>
                        <path d="M32.1915785,87.986476 C44.7866835,87.986476 41.5029807,48.8333363 42.5449242,21.8695826 C40.7076814,12.7188238 38.2965474,20.3714283 37.3603101,21.3001988 C35.4363546,23.2088099 35.7587266,29.0972721 32.1915789,29.2250427 C27.0730615,29.4083813 27.7404064,30.7501844 21.7667974,34.3494268 C18.3411566,52.1513477 19.5964736,87.986476 32.1915785,87.986476 Z" id="Oval-28" fill="#00BEBC" transform="translate(31.336128, 52.703885) scale(-1, 1) rotate(-142.000000) translate(-31.336128, -52.703885) "></path>
                    </g>
                    <g transform="translate(0.000000, 950.000000)">
                        <g id="Group" transform="translate(23.781344, 0.000000)">
                            <path d="M41.0340876,24.1744401 C41.0340876,24.1744401 27.9389113,25.8887403 24.1746278,23.1734298 C22.8979099,22.2524881 22.0083541,21.4331624 22.0052288,17.1633262 C22.0022562,13.1020285 21.9084952,10.0888518 23.7029837,9.0185105 C25.8031514,7.76584364 30.7073685,8.01249835 32.6898239,10.1056702 C33.9654056,11.4524909 33.1175881,13.1868617 32.6898238,17.163326 C32.6898238,18.369144 28.2817474,17.6545751 27.0538909,17.1633262 C25.8260344,16.6720774 24.9180222,13.1883984 24.8664531,13.3463366 C24.1753209,15.4630338 24.1340389,17.5512528 25.9492289,18.3691442 C27.7644189,19.1870356 35.0349581,22.1422038 35.8905459,18.7183746 C36.9291444,14.5621868 37.3128509,8.6119818 35.8905451,6.77978043 C34.4682393,4.94757906 26.6162351,1.23118741 18.6453968,5.29059506 C15.8294535,6.76162207 11.1491454,22.1537502 12.1580137,26.1951161 C13.7109177,29.5381584 16.3991515,31.0642731 23.7029835,33.1484912 C31.0068155,35.2327093 37.8345372,33.5385131 37.8345372,33.5385131 L41.0340876,24.1744401 Z" id="Path-44" fill="#FFD086" transform="translate(26.526065, 18.826451) rotate(16.000000) translate(-26.526065, -18.826451) "></path>
                            <path d="M115.421443,24.1744401 C115.421443,24.1744401 102.326267,25.8887403 98.561983,23.1734298 C97.2852651,22.2524881 96.3957093,21.4331624 96.392584,17.1633262 C96.3896113,13.1020285 96.2958504,10.0888518 98.0903389,9.0185105 C100.190507,7.76584364 105.094724,8.01249835 107.077179,10.1056702 C108.352761,11.4524909 107.504943,13.1868617 107.077179,17.163326 C107.077179,18.369144 102.669103,17.6545751 101.441246,17.1633262 C100.21339,16.6720774 99.3053774,13.1883984 99.2538083,13.3463366 C98.562676,15.4630338 98.5213941,17.5512528 100.336584,18.3691442 C102.151774,19.1870356 109.422313,22.1422038 110.277901,18.7183746 C111.3165,14.5621868 111.700206,8.6119818 110.2779,6.77978043 C108.855594,4.94757906 101.00359,1.23118741 93.032752,5.29059506 C90.2168086,6.76162207 85.5365006,22.1537502 86.5453689,26.1951161 C88.0982729,29.5381584 90.7865066,31.0642731 98.0903386,33.1484912 C105.394171,35.2327093 112.221892,33.5385131 112.221892,33.5385131 L115.421443,24.1744401 Z" id="Path-44" fill="#FFD086" transform="translate(100.913420, 18.826451) scale(-1, 1) rotate(16.000000) translate(-100.913420, -18.826451) "></path>
                            <path d="M23.8532021,56.1767235 C28.0555383,49.9286413 27.4066963,17.5686887 63.1217943,17.5686887 C98.8368923,17.5686887 98.831193,47.4364412 102.100032,56.1767223 C105.368872,64.9170034 122.495757,72.3628818 123.899915,113.085684 C123.637917,134.719678 112.543207,138.891491 107.588852,149.304666 C101.720936,161.63798 109.376438,182.983978 95.0643062,183.355393 C80.7521739,183.726808 76.4049067,165.533047 69.6965868,158.64894 C67.4079742,156.300357 59.8256437,152.881375 55.2733431,158.053368 C50.7210425,163.225361 55.8844559,185.750774 41.4285324,184.881957 C26.9726088,184.013141 21.7393553,163.811133 16.0248652,151.362991 C11.0945123,140.622972 1.10652204,140.821026 0.0604458018,113.085684 C-0.335958069,80.019529 19.6508659,62.4248058 23.8532021,56.1767235 Z" id="Path-22" fill="#00BEBC"></path>
                        </g>
                        <path d="M141.519117,94.1515691 C154.114222,94.1515691 150.830519,54.9984294 151.872463,28.0346757 C146.25971,0.0792273501 146.822114,35.2001893 141.519117,35.3901358 C136.4006,35.5734744 137.067945,36.9152775 131.094336,40.5145199 C127.668695,58.3164408 128.924012,94.1515691 141.519117,94.1515691 Z" id="Oval-28" fill="#00BEBC" transform="translate(140.663667, 55.692832) scale(-1, 1) rotate(156.000000) translate(-140.663667, -55.692832) "></path>
                        <path d="M32.1915785,87.986476 C44.7866835,87.986476 41.5029807,48.8333363 42.5449242,21.8695826 C40.7076814,12.7188238 38.2965474,20.3714283 37.3603101,21.3001988 C35.4363546,23.2088099 35.7587266,29.0972721 32.1915789,29.2250427 C27.0730615,29.4083813 27.7404064,30.7501844 21.7667974,34.3494268 C18.3411566,52.1513477 19.5964736,87.986476 32.1915785,87.986476 Z" id="Oval-28" fill="#00BEBC" transform="translate(31.336128, 52.703885) scale(-1, 1) rotate(-142.000000) translate(-31.336128, -52.703885) "></path>
                    </g>
                    <g transform="translate(380.000000, 950.000000)">
                        <g id="Group" transform="translate(23.781344, 0.000000)">
                            <path d="M41.0340876,24.1744401 C41.0340876,24.1744401 27.9389113,25.8887403 24.1746278,23.1734298 C22.8979099,22.2524881 22.0083541,21.4331624 22.0052288,17.1633262 C22.0022562,13.1020285 21.9084952,10.0888518 23.7029837,9.0185105 C25.8031514,7.76584364 30.7073685,8.01249835 32.6898239,10.1056702 C33.9654056,11.4524909 33.1175881,13.1868617 32.6898238,17.163326 C32.6898238,18.369144 28.2817474,17.6545751 27.0538909,17.1633262 C25.8260344,16.6720774 24.9180222,13.1883984 24.8664531,13.3463366 C24.1753209,15.4630338 24.1340389,17.5512528 25.9492289,18.3691442 C27.7644189,19.1870356 35.0349581,22.1422038 35.8905459,18.7183746 C36.9291444,14.5621868 37.3128509,8.6119818 35.8905451,6.77978043 C34.4682393,4.94757906 26.6162351,1.23118741 18.6453968,5.29059506 C15.8294535,6.76162207 11.1491454,22.1537502 12.1580137,26.1951161 C13.7109177,29.5381584 16.3991515,31.0642731 23.7029835,33.1484912 C31.0068155,35.2327093 37.8345372,33.5385131 37.8345372,33.5385131 L41.0340876,24.1744401 Z" id="Path-44" fill="#FFD086" transform="translate(26.526065, 18.826451) rotate(16.000000) translate(-26.526065, -18.826451) "></path>
                            <path d="M115.421443,24.1744401 C115.421443,24.1744401 102.326267,25.8887403 98.561983,23.1734298 C97.2852651,22.2524881 96.3957093,21.4331624 96.392584,17.1633262 C96.3896113,13.1020285 96.2958504,10.0888518 98.0903389,9.0185105 C100.190507,7.76584364 105.094724,8.01249835 107.077179,10.1056702 C108.352761,11.4524909 107.504943,13.1868617 107.077179,17.163326 C107.077179,18.369144 102.669103,17.6545751 101.441246,17.1633262 C100.21339,16.6720774 99.3053774,13.1883984 99.2538083,13.3463366 C98.562676,15.4630338 98.5213941,17.5512528 100.336584,18.3691442 C102.151774,19.1870356 109.422313,22.1422038 110.277901,18.7183746 C111.3165,14.5621868 111.700206,8.6119818 110.2779,6.77978043 C108.855594,4.94757906 101.00359,1.23118741 93.032752,5.29059506 C90.2168086,6.76162207 85.5365006,22.1537502 86.5453689,26.1951161 C88.0982729,29.5381584 90.7865066,31.0642731 98.0903386,33.1484912 C105.394171,35.2327093 112.221892,33.5385131 112.221892,33.5385131 L115.421443,24.1744401 Z" id="Path-44" fill="#FFD086" transform="translate(100.913420, 18.826451) scale(-1, 1) rotate(16.000000) translate(-100.913420, -18.826451) "></path>
                            <path d="M23.8532021,56.1767235 C28.0555383,49.9286413 27.4066963,17.5686887 63.1217943,17.5686887 C98.8368923,17.5686887 98.831193,47.4364412 102.100032,56.1767223 C105.368872,64.9170034 122.495757,72.3628818 123.899915,113.085684 C123.637917,134.719678 112.543207,138.891491 107.588852,149.304666 C101.720936,161.63798 109.376438,182.983978 95.0643062,183.355393 C80.7521739,183.726808 76.4049067,165.533047 69.6965868,158.64894 C67.4079742,156.300357 59.8256437,152.881375 55.2733431,158.053368 C50.7210425,163.225361 55.8844559,185.750774 41.4285324,184.881957 C26.9726088,184.013141 21.7393553,163.811133 16.0248652,151.362991 C11.0945123,140.622972 1.10652204,140.821026 0.0604458018,113.085684 C-0.335958069,80.019529 19.6508659,62.4248058 23.8532021,56.1767235 Z" id="Path-22" fill="#00BEBC"></path>
                        </g>
                        <path d="M141.519117,94.1515691 C154.114222,94.1515691 150.830519,54.9984294 151.872463,28.0346757 C146.25971,0.0792273501 146.822114,35.2001893 141.519117,35.3901358 C136.4006,35.5734744 137.067945,36.9152775 131.094336,40.5145199 C127.668695,58.3164408 128.924012,94.1515691 141.519117,94.1515691 Z" id="Oval-28" fill="#00BEBC" transform="translate(140.663667, 55.692832) scale(-1, 1) rotate(156.000000) translate(-140.663667, -55.692832) "></path>
                        <path d="M32.1915785,87.986476 C44.7866835,87.986476 41.5029807,48.8333363 42.5449242,21.8695826 C40.7076814,12.7188238 38.2965474,20.3714283 37.3603101,21.3001988 C35.4363546,23.2088099 35.7587266,29.0972721 32.1915789,29.2250427 C27.0730615,29.4083813 27.7404064,30.7501844 21.7667974,34.3494268 C18.3411566,52.1513477 19.5964736,87.986476 32.1915785,87.986476 Z" id="Oval-28" fill="#00BEBC" transform="translate(31.336128, 52.703885) scale(-1, 1) rotate(-142.000000) translate(-31.336128, -52.703885) "></path>
                    </g>
                    <g transform="translate(760.000000, 950.000000)">
                        <g id="Group" transform="translate(23.781344, 0.000000)">
                            <path d="M41.0340876,24.1744401 C41.0340876,24.1744401 27.9389113,25.8887403 24.1746278,23.1734298 C22.8979099,22.2524881 22.0083541,21.4331624 22.0052288,17.1633262 C22.0022562,13.1020285 21.9084952,10.0888518 23.7029837,9.0185105 C25.8031514,7.76584364 30.7073685,8.01249835 32.6898239,10.1056702 C33.9654056,11.4524909 33.1175881,13.1868617 32.6898238,17.163326 C32.6898238,18.369144 28.2817474,17.6545751 27.0538909,17.1633262 C25.8260344,16.6720774 24.9180222,13.1883984 24.8664531,13.3463366 C24.1753209,15.4630338 24.1340389,17.5512528 25.9492289,18.3691442 C27.7644189,19.1870356 35.0349581,22.1422038 35.8905459,18.7183746 C36.9291444,14.5621868 37.3128509,8.6119818 35.8905451,6.77978043 C34.4682393,4.94757906 26.6162351,1.23118741 18.6453968,5.29059506 C15.8294535,6.76162207 11.1491454,22.1537502 12.1580137,26.1951161 C13.7109177,29.5381584 16.3991515,31.0642731 23.7029835,33.1484912 C31.0068155,35.2327093 37.8345372,33.5385131 37.8345372,33.5385131 L41.0340876,24.1744401 Z" id="Path-44" fill="#FFD086" transform="translate(26.526065, 18.826451) rotate(16.000000) translate(-26.526065, -18.826451) "></path>
                            <path d="M115.421443,24.1744401 C115.421443,24.1744401 102.326267,25.8887403 98.561983,23.1734298 C97.2852651,22.2524881 96.3957093,21.4331624 96.392584,17.1633262 C96.3896113,13.1020285 96.2958504,10.0888518 98.0903389,9.0185105 C100.190507,7.76584364 105.094724,8.01249835 107.077179,10.1056702 C108.352761,11.4524909 107.504943,13.1868617 107.077179,17.163326 C107.077179,18.369144 102.669103,17.6545751 101.441246,17.1633262 C100.21339,16.6720774 99.3053774,13.1883984 99.2538083,13.3463366 C98.562676,15.4630338 98.5213941,17.5512528 100.336584,18.3691442 C102.151774,19.1870356 109.422313,22.1422038 110.277901,18.7183746 C111.3165,14.5621868 111.700206,8.6119818 110.2779,6.77978043 C108.855594,4.94757906 101.00359,1.23118741 93.032752,5.29059506 C90.2168086,6.76162207 85.5365006,22.1537502 86.5453689,26.1951161 C88.0982729,29.5381584 90.7865066,31.0642731 98.0903386,33.1484912 C105.394171,35.2327093 112.221892,33.5385131 112.221892,33.5385131 L115.421443,24.1744401 Z" id="Path-44" fill="#FFD086" transform="translate(100.913420, 18.826451) scale(-1, 1) rotate(16.000000) translate(-100.913420, -18.826451) "></path>
                            <path d="M23.8532021,56.1767235 C28.0555383,49.9286413 27.4066963,17.5686887 63.1217943,17.5686887 C98.8368923,17.5686887 98.831193,47.4364412 102.100032,56.1767223 C105.368872,64.9170034 122.495757,72.3628818 123.899915,113.085684 C123.637917,134.719678 112.543207,138.891491 107.588852,149.304666 C101.720936,161.63798 109.376438,182.983978 95.0643062,183.355393 C80.7521739,183.726808 76.4049067,165.533047 69.6965868,158.64894 C67.4079742,156.300357 59.8256437,152.881375 55.2733431,158.053368 C50.7210425,163.225361 55.8844559,185.750774 41.4285324,184.881957 C26.9726088,184.013141 21.7393553,163.811133 16.0248652,151.362991 C11.0945123,140.622972 1.10652204,140.821026 0.0604458018,113.085684 C-0.335958069,80.019529 19.6508659,62.4248058 23.8532021,56.1767235 Z" id="Path-22" fill="#00BEBC"></path>
                        </g>
                        <path d="M141.519117,94.1515691 C154.114222,94.1515691 150.830519,54.9984294 151.872463,28.0346757 C146.25971,0.0792273501 146.822114,35.2001893 141.519117,35.3901358 C136.4006,35.5734744 137.067945,36.9152775 131.094336,40.5145199 C127.668695,58.3164408 128.924012,94.1515691 141.519117,94.1515691 Z" id="Oval-28" fill="#00BEBC" transform="translate(140.663667, 55.692832) scale(-1, 1) rotate(156.000000) translate(-140.663667, -55.692832) "></path>
                        <path d="M32.1915785,87.986476 C44.7866835,87.986476 41.5029807,48.8333363 42.5449242,21.8695826 C40.7076814,12.7188238 38.2965474,20.3714283 37.3603101,21.3001988 C35.4363546,23.2088099 35.7587266,29.0972721 32.1915789,29.2250427 C27.0730615,29.4083813 27.7404064,30.7501844 21.7667974,34.3494268 C18.3411566,52.1513477 19.5964736,87.986476 32.1915785,87.986476 Z" id="Oval-28" fill="#00BEBC" transform="translate(31.336128, 52.703885) scale(-1, 1) rotate(-142.000000) translate(-31.336128, -52.703885) "></path>
                    </g>
                    <g transform="translate(1140.000000, 950.000000)">
                        <g id="Group" transform="translate(23.781344, 0.000000)">
                            <path d="M41.0340876,24.1744401 C41.0340876,24.1744401 27.9389113,25.8887403 24.1746278,23.1734298 C22.8979099,22.2524881 22.0083541,21.4331624 22.0052288,17.1633262 C22.0022562,13.1020285 21.9084952,10.0888518 23.7029837,9.0185105 C25.8031514,7.76584364 30.7073685,8.01249835 32.6898239,10.1056702 C33.9654056,11.4524909 33.1175881,13.1868617 32.6898238,17.163326 C32.6898238,18.369144 28.2817474,17.6545751 27.0538909,17.1633262 C25.8260344,16.6720774 24.9180222,13.1883984 24.8664531,13.3463366 C24.1753209,15.4630338 24.1340389,17.5512528 25.9492289,18.3691442 C27.7644189,19.1870356 35.0349581,22.1422038 35.8905459,18.7183746 C36.9291444,14.5621868 37.3128509,8.6119818 35.8905451,6.77978043 C34.4682393,4.94757906 26.6162351,1.23118741 18.6453968,5.29059506 C15.8294535,6.76162207 11.1491454,22.1537502 12.1580137,26.1951161 C13.7109177,29.5381584 16.3991515,31.0642731 23.7029835,33.1484912 C31.0068155,35.2327093 37.8345372,33.5385131 37.8345372,33.5385131 L41.0340876,24.1744401 Z" id="Path-44" fill="#FFD086" transform="translate(26.526065, 18.826451) rotate(16.000000) translate(-26.526065, -18.826451) "></path>
                            <path d="M115.421443,24.1744401 C115.421443,24.1744401 102.326267,25.8887403 98.561983,23.1734298 C97.2852651,22.2524881 96.3957093,21.4331624 96.392584,17.1633262 C96.3896113,13.1020285 96.2958504,10.0888518 98.0903389,9.0185105 C100.190507,7.76584364 105.094724,8.01249835 107.077179,10.1056702 C108.352761,11.4524909 107.504943,13.1868617 107.077179,17.163326 C107.077179,18.369144 102.669103,17.6545751 101.441246,17.1633262 C100.21339,16.6720774 99.3053774,13.1883984 99.2538083,13.3463366 C98.562676,15.4630338 98.5213941,17.5512528 100.336584,18.3691442 C102.151774,19.1870356 109.422313,22.1422038 110.277901,18.7183746 C111.3165,14.5621868 111.700206,8.6119818 110.2779,6.77978043 C108.855594,4.94757906 101.00359,1.23118741 93.032752,5.29059506 C90.2168086,6.76162207 85.5365006,22.1537502 86.5453689,26.1951161 C88.0982729,29.5381584 90.7865066,31.0642731 98.0903386,33.1484912 C105.394171,35.2327093 112.221892,33.5385131 112.221892,33.5385131 L115.421443,24.1744401 Z" id="Path-44" fill="#FFD086" transform="translate(100.913420, 18.826451) scale(-1, 1) rotate(16.000000) translate(-100.913420, -18.826451) "></path>
                            <path d="M23.8532021,56.1767235 C28.0555383,49.9286413 27.4066963,17.5686887 63.1217943,17.5686887 C98.8368923,17.5686887 98.831193,47.4364412 102.100032,56.1767223 C105.368872,64.9170034 122.495757,72.3628818 123.899915,113.085684 C123.637917,134.719678 112.543207,138.891491 107.588852,149.304666 C101.720936,161.63798 109.376438,182.983978 95.0643062,183.355393 C80.7521739,183.726808 76.4049067,165.533047 69.6965868,158.64894 C67.4079742,156.300357 59.8256437,152.881375 55.2733431,158.053368 C50.7210425,163.225361 55.8844559,185.750774 41.4285324,184.881957 C26.9726088,184.013141 21.7393553,163.811133 16.0248652,151.362991 C11.0945123,140.622972 1.10652204,140.821026 0.0604458018,113.085684 C-0.335958069,80.019529 19.6508659,62.4248058 23.8532021,56.1767235 Z" id="Path-22" fill="#00BEBC"></path>
                        </g>
                        <path d="M141.519117,94.1515691 C154.114222,94.1515691 150.830519,54.9984294 151.872463,28.0346757 C146.25971,0.0792273501 146.822114,35.2001893 141.519117,35.3901358 C136.4006,35.5734744 137.067945,36.9152775 131.094336,40.5145199 C127.668695,58.3164408 128.924012,94.1515691 141.519117,94.1515691 Z" id="Oval-28" fill="#00BEBC" transform="translate(140.663667, 55.692832) scale(-1, 1) rotate(156.000000) translate(-140.663667, -55.692832) "></path>
                        <path d="M32.1915785,87.986476 C44.7866835,87.986476 41.5029807,48.8333363 42.5449242,21.8695826 C40.7076814,12.7188238 38.2965474,20.3714283 37.3603101,21.3001988 C35.4363546,23.2088099 35.7587266,29.0972721 32.1915789,29.2250427 C27.0730615,29.4083813 27.7404064,30.7501844 21.7667974,34.3494268 C18.3411566,52.1513477 19.5964736,87.986476 32.1915785,87.986476 Z" id="Oval-28" fill="#00BEBC" transform="translate(31.336128, 52.703885) scale(-1, 1) rotate(-142.000000) translate(-31.336128, -52.703885) "></path>
                    </g>
                </g>
            </g>
        </g>
    </g>
</svg>