<?xml version="1.0" encoding="UTF-8" standalone="no"?>
<svg width="293px" height="239px" viewBox="0 0 293 239" version="1.1" xmlns="http://www.w3.org/2000/svg" xmlns:xlink="http://www.w3.org/1999/xlink">
    <!-- Generator: Sketch 42 (36781) - http://www.bohemiancoding.com/sketch -->
    <title>twitter</title>
    <desc>Created with Sketch.</desc>
    <defs></defs>
    <g id="Characters" stroke="none" stroke-width="1" fill="none" fill-rule="evenodd">
        <g id="twitter" fill="#00BEBC">
            <path d="M143.623135,73.4263871 C142.635414,69.1140874 142.113745,64.6249234 142.113745,60.014326 C142.113745,26.869329 169.07355,0 202.330156,0 C219.954133,0 235.809745,7.54586123 246.821806,19.5727173 C250.307806,18.8004797 268.980912,14.3452114 284.554201,4.34375287 C276.772468,27.3516127 258.759643,37.6190737 258.314671,37.8698632 C258.315242,37.8712957 258.315813,37.8727282 258.316383,37.8741607 C258.726729,37.856541 271.605907,37.2403962 292.821227,28.5093718 C288.59794,34.758663 277.090295,50.030678 262.546005,59.752047 C262.54638,59.8394294 262.546568,59.9268559 262.546568,60.014326 C262.546568,61.5255717 262.490521,63.0237709 262.380386,64.5069716 C262.947669,78.3220248 264.187779,119.421231 226.729852,172.305124 C205.526579,202.171393 165.983472,228.824262 119.097249,236.010305 C82.2685562,241.654875 41.7903355,237.649286 0,211.148781 C24.2632799,214.517519 57.7852731,209.691734 88.5569878,186.190005 C43.6230535,184.805524 31.9674986,144.354299 31.9674986,144.354299 C31.9674986,144.354299 40.0915609,148.260591 59.4392961,143.555179 C57.3440108,143.120775 12.5420759,134.624906 10.8776889,83.8545692 C21.3298964,89.9127801 32.6479608,91.6288309 38.1147246,91.2593534 C28.9029011,86.7007996 -3.57518319,55.4409807 19.745677,11.2432117 C68.3305513,71.7541152 136.520105,73.4200425 143.623135,73.4263871 Z"></path>
        </g>
    </g>
</svg>